<svg id="Pictograms" xmlns="http://www.w3.org/2000/svg" viewBox="0 0 240 240"><defs><style>.cls-1{fill:#4fb81c;}.cls-2,.cls-3,.cls-4{fill:#f0ab00;}.cls-3{opacity:0.7;}.cls-4{opacity:0.4;}.cls-5{fill:#fff;}</style></defs><title>281474-pictogram-neg</title><path class="cls-1" d="M196.57,71c-10-26-34.83-43-63.83-43H132V208l28,4.78V164h13.28c8.1,0,15.72-1.8,15.72-12.32V120h11V96.73C200,88,199.59,78,196.57,71Z"/><polygon class="cls-2" points="132 164 132 208 160 212.78 160 164 159.8 164 132 164"/><path class="cls-3" d="M132,120v44h41.28c8.1,0,15.72-1.8,15.72-12.32V120H132Z"/><path class="cls-4" d="M196.57,71H132v49h68V96.73C200,88,199.59,78,196.57,71Z"/><path class="cls-5" d="M70,22a8,8,0,1,0,7.74,10H132V28H77.74A8,8,0,0,0,70,22Zm0,12a4,4,0,1,1,4-4A4,4,0,0,1,70,34ZM34,54a8,8,0,1,0,7.74,10H132V60H41.74A8,8,0,0,0,34,54Zm0,12a4,4,0,1,1,4-4A4,4,0,0,1,34,66Zm18,52.5a8,8,0,1,0,7.85,9.5H132v-4H59.59A8,8,0,0,0,52,118.5Zm0,12a4,4,0,1,1,4-4A4,4,0,0,1,52,130.5Zm41.66,37.84A8,8,0,1,0,95.74,176H132v-4H95.74A7.94,7.94,0,0,0,93.66,168.34ZM92,174a4,4,0,1,1-1.17-2.83A4,4,0,0,1,92,174ZM64,44h68v4H64Zm4,32h64v4H68ZM32,92H132v4H32Zm48,16h52v4H80Zm12,32h40v4H92ZM80,156h52v4H80Zm16,32h36v4H96Zm0,16h36v4H96ZM178.22,95.19l8,4.38-1.92,3.51-14.46-7.89,14.46-7.89,1.92,3.51Z"/></svg>