<svg xmlns="http://www.w3.org/2000/svg" viewBox="0 0 64 64"><defs><style>.cls-1{fill:none;}.cls-2{fill:#032e61;}.cls-3{fill:#00a1e0;}.cls-4{fill:#fff;}</style></defs><title>analytics-day</title><g id="invisi-border"><rect class="cls-1" width="64" height="64"/></g><g id="icon"><path class="cls-2" d="M56,57H8a2,2,0,0,1,0-4H56a2,2,0,0,1,0,4Z"/><rect class="cls-3" x="14" y="39" width="12" height="16"/><path class="cls-2" d="M26,57H14a2,2,0,0,1-2-2V39a2,2,0,0,1,2-2H26a2,2,0,0,1,2,2V55A2,2,0,0,1,26,57ZM16,53h8V41H16Z"/><rect class="cls-4" x="26" y="24" width="12" height="31"/><path class="cls-2" d="M38,57H26a2,2,0,0,1-2-2V24a2,2,0,0,1,2-2H38a2,2,0,0,1,2,2V55A2,2,0,0,1,38,57ZM28,53h8V26H28Z"/><rect class="cls-3" x="38" y="9" width="12" height="46"/><path class="cls-2" d="M50,57H38a2,2,0,0,1-2-2V9a2,2,0,0,1,2-2H50a2,2,0,0,1,2,2V55A2,2,0,0,1,50,57ZM40,53h8V11H40Z"/></g></svg>