<svg xmlns="http://www.w3.org/2000/svg" viewBox="0 0 64 64"><defs><style>.cls-1{fill:none;}.cls-2{fill:#fb7555;}.cls-3{fill:#c43e20;}.cls-4{fill:#fff;}</style></defs><title>collaboration-day</title><g id="invisi-border"><rect class="cls-1" width="64" height="64"/></g><g id="icon"><path class="cls-2" d="M32,56A24.00061,24.00061,0,1,1,56,32V56Z"/><path class="cls-3" d="M56,58H32a26.10459,26.10459,0,0,1-18.94922-8.19727,26.00016,26.00016,0,0,1,36.752-36.752A26.10352,26.10352,0,0,1,58,32V56A2.0001,2.0001,0,0,1,56,58ZM32.01416,10q-.70752,0-1.42139.04395A22.00056,22.00056,0,0,0,32,54H54V32A22.00064,22.00064,0,0,0,32.01416,10Z"/><path class="cls-4" d="M41,43H23a2,2,0,0,1,0-4H41a2,2,0,0,1,0,4Z"/><path class="cls-4" d="M41,25H23a2,2,0,0,1,0-4H41a2,2,0,0,1,0,4Z"/><path class="cls-4" d="M47,34H17a2,2,0,0,1,0-4H47a2,2,0,0,1,0,4Z"/></g></svg>