<?xml version="1.0" encoding="utf-8"?>
<!-- Generator: Adobe Illustrator 21.0.0, SVG Export Plug-In . SVG Version: 6.00 Build 0)  -->
<svg version="1.1" id="Layer_1" xmlns="http://www.w3.org/2000/svg" xmlns:xlink="http://www.w3.org/1999/xlink" x="0px" y="0px"
	 viewBox="0 0 248 248" style="enable-background:new 0 0 248 248;" xml:space="preserve">
<style type="text/css">
	.st0{fill:#FFFFFF;}
	.st1{fill:#970A82;}
	.st2{fill:#F0AB00;}
	.st3{opacity:0.7;fill:#F0AB00;enable-background:new    ;}
	.st4{opacity:0.4;fill:#F0AB00;enable-background:new    ;}
</style>
<title>282734_DataTable_R_neg</title>
<g id="outlines_--_combound_path">
	<path class="st0" d="M202.4,36H86v4h42v42H86v4h42v42H86v4h42v42H86v4h42v42H86v4h116.4c11.92-0.01,21.59-9.68,21.6-21.6V57.6
		C223.99,45.68,214.32,36.01,202.4,36z M174,220h-42v-42h42V220z M174,174h-42v-42h42V174z M174,128h-42V86h42V128z M174,82h-42V40
		h42V82z M220,202.4c-0.01,9.72-7.88,17.59-17.6,17.6H178v-42h42V202.4z M220,174h-42v-42h42V174z M220,128h-42V86h42V128z M220,82
		h-42V40h24.4c9.72,0.01,17.59,7.88,17.6,17.6V82z M28,78h-4V42h4V78z M28,124.67h-4v-36h4V124.67z M28,218h-4v-36h4V218z
		 M28,171.33h-4v-36h4V171.33z M218,28h-36v-4h36V28z M171.33,28h-36v-4h36V28z M78,28H42v-4h36V28z M124.67,28h-36v-4h36V28z"/>
</g>
<g id="color_band">
	<path class="st1" d="M86,86v138H57.59c-2.17-0.01-4.33-0.35-6.4-1l-1-0.34c-0.33-0.12-0.67-0.25-1-0.39l-1-0.43
		c-0.62-0.3-1.23-0.63-1.82-1c-0.3-0.17-0.59-0.36-0.88-0.56s-0.57-0.4-0.86-0.6c-0.55-0.42-1.08-0.85-1.59-1.32l-0.75-0.72
		c-2.45-2.47-4.27-5.49-5.29-8.82c-0.16-0.51-0.3-1-0.42-1.54s-0.17-0.79-0.24-1.19s-0.12-0.8-0.17-1.21
		c-0.11-0.82-0.16-1.65-0.17-2.48V86H86z"/>
</g>
<g id="_100_band">
	<path class="st2" d="M86,36v50H36V57.6c0-0.31,0-0.62,0-0.93l0,0c0-0.3,0-0.61,0.06-0.91l0,0c0-0.3,0.06-0.6,0.1-0.9
		c0.08-0.71,0.21-1.41,0.37-2.1c0.12-0.52,0.26-1,0.42-1.54c1.04-3.34,2.88-6.38,5.36-8.85c0.25-0.25,0.5-0.49,0.75-0.72
		c0.51-0.47,1-0.9,1.59-1.32c0.29-0.2,0.57-0.41,0.86-0.6s0.58-0.39,0.88-0.56c0.59-0.37,1.2-0.7,1.82-1l1-0.43
		c0.33-0.14,0.67-0.27,1-0.39l1-0.34c2.07-0.65,4.23-0.99,6.4-1L86,36z"/>
</g>
<g id="_70_band">
	<rect x="35.99" y="86" class="st3" width="50.01" height="45.97"/>
</g>
<g id="_40_band">
	<rect x="35.99" y="131.97" class="st4" width="50.01" height="46.03"/>
</g>
</svg>
