<svg id="Pictograms" xmlns="http://www.w3.org/2000/svg" viewBox="0 0 240 240"><defs><style>.cls-1{fill:#e35500;}.cls-2,.cls-3,.cls-4{fill:#f0ab00;}.cls-3{opacity:0.7;}.cls-4{opacity:0.4;}.cls-5{fill:#fff;}</style></defs><title>281014-pictogram-neg</title><path class="cls-1" d="M121,171.77v-104c30,0,52,23.28,52,52S151,171.77,121,171.77Z"/><path class="cls-2" d="M166.06,94C157.07,77,141,67.77,121,67.77V94Z"/><path class="cls-3" d="M121,94v26h52c0-10-2.53-20-7-26Z"/><path class="cls-4" d="M121,146h45.06c4.42-7,7-16,7-26H121Z"/><path class="cls-5" d="M121,171.41a51.64,51.64,0,0,1,0-103.27v4a47.64,47.64,0,0,0,0,95.27Zm12.24,39.91,1.74-.23V197.94a67.2,67.2,0,0,0,12.52-3.3L154.14,206l1.61-.66a91.92,91.92,0,0,0,21.93-12.72l1.37-1.07-6.54-11.35a80.16,80.16,0,0,0,8.94-8.94l11.31,6.53,1.07-1.38a91.87,91.87,0,0,0,12.61-22l.65-1.61-11.24-6.46A86.78,86.78,0,0,0,199.11,134H212l.22-1.75a91.83,91.83,0,0,0,.81-11.85,89.67,89.67,0,0,0-.91-12.68l-.25-1.72H199.15a68.75,68.75,0,0,0-3.31-12.65l11-6.44-.66-1.61a92.06,92.06,0,0,0-12.79-21.92L192.32,62l-10.87,6.25a80.18,80.18,0,0,0-8.94-9l6.24-10.82-1.38-1.07a91.85,91.85,0,0,0-22-12.62l-1.6-.65-6.27,10.74A67.18,67.18,0,0,0,135,41.6V29.25L133.26,29a88.05,88.05,0,0,0-24.53,0l-1.73.24V41.61a68.49,68.49,0,0,0-12.54,3.3L88.25,34.23l-1.61.65a91.91,91.91,0,0,0-22,12.66L63.3,48.6l6.17,10.71a80.17,80.17,0,0,0-8.94,8.94L49.78,62l-1.07,1.36A91.87,91.87,0,0,0,35.94,85.29l-.65,1.6,10.84,6.45A68.77,68.77,0,0,0,42.81,106H30.23L30,107.72a89.64,89.64,0,0,0-.91,12.68,91.92,91.92,0,0,0,.81,11.85L30.1,134H42.86a86.88,86.88,0,0,0,3.26,12.41L35,152.79l.65,1.61a91.86,91.86,0,0,0,12.59,22l1.07,1.38,11.19-6.46a80.2,80.2,0,0,0,8.94,8.93L63,191.49l1.36,1.07a91.9,91.9,0,0,0,21.89,12.76l1.61.66,6.63-11.34a68.4,68.4,0,0,0,12.54,3.3v13.12l1.73.24a88.05,88.05,0,0,0,24.53,0ZM111,194.48l-1.72-.24a65,65,0,0,1-15-3.93l-1.58-.6-6.57,11.23a87.88,87.88,0,0,1-18-10.47l6.44-11.16-1.32-1.08a76.08,76.08,0,0,1-10.77-10.77l-1.08-1.32-11.07,6.4a87.85,87.85,0,0,1-10.32-18l11-6.33-.6-1.59a81.51,81.51,0,0,1-3.94-14.92L46.23,130H33.64a84.44,84.44,0,0,1-.57-9.6,85.36,85.36,0,0,1,.64-10.4H46.27l.24-1.72a66.29,66.29,0,0,1,3.93-15.09l.6-1.57L40.31,85.22a87.88,87.88,0,0,1,10.49-18L61.46,73.4l1.08-1.32A76.09,76.09,0,0,1,73.31,61.32l1.32-1.07L68.51,49.64a87.9,87.9,0,0,1,18-10.39L92.7,49.84l1.59-.6a65.08,65.08,0,0,1,15-3.93l1.72-.24V32.78a83,83,0,0,1,20,0v12.3l1.72.24a65,65,0,0,1,15,3.93l1.58.6,6.22-10.65a87.85,87.85,0,0,1,18,10.36l-6.18,10.71,1.32,1.08a76.11,76.11,0,0,1,10.77,10.78l1.07,1.31,10.79-6.2a88.06,88.06,0,0,1,10.5,18L190.92,91.6l.6,1.58a66.29,66.29,0,0,1,3.93,15.09l.24,1.72h12.74a85.42,85.42,0,0,1,.64,10.4,84.35,84.35,0,0,1-.57,9.6H195.74l-.28,1.67a81.45,81.45,0,0,1-3.94,14.92l-.61,1.59,11.15,6.4a87.84,87.84,0,0,1-10.34,18l-11.21-6.47-1.08,1.32a76.13,76.13,0,0,1-10.77,10.77l-1.32,1.08,6.49,11.25a87.91,87.91,0,0,1-18,10.44l-6.56-11.29-1.59.6a65,65,0,0,1-15,3.93l-1.72.24v13.09a83,83,0,0,1-20,0Z"/></svg>