<svg xmlns="http://www.w3.org/2000/svg" viewBox="0 0 248 248"><defs><style>.cls-1{fill:#fff;}.cls-2{fill:#e35500;}.cls-3,.cls-4,.cls-5{fill:#f0ab00;}.cls-4{opacity:0.7;}.cls-5{opacity:0.4;}</style></defs><title>283060-pictogram-neg</title><g id="outlines_--_combound_path" data-name="outlines -- combound path"><path class="cls-1" d="M192.25,226.14l-16.09-26.81H88.78a15,15,0,0,1-15-15V145.51a15,15,0,0,1,15-15H177.3a15,15,0,0,1,15,15ZM88.78,134.56a11,11,0,0,0-11,11v38.86a11,11,0,0,0,11,11h89.66l9.82,16.37V145.51a11,11,0,0,0-11-11Zm25.92,25.61a5.36,5.36,0,1,0,5.36,5.36A5.36,5.36,0,0,0,114.69,160.16Zm17.14,0a5.36,5.36,0,1,0,5.36,5.36A5.36,5.36,0,0,0,131.83,160.16Zm17.14,0a5.36,5.36,0,1,0,5.36,5.36A5.36,5.36,0,0,0,149,160.16Z"/></g><g id="color_band" data-name="color band"><path class="cls-2" d="M177,29H69.72A15.43,15.43,0,0,0,54.33,44.38V154l16-32h107a15,15,0,0,0,15-15V44.36A15.41,15.41,0,0,0,177,29Z"/></g><g id="_100_band" data-name="100% band"><path class="cls-3" d="M69.72,29H177a15.37,15.37,0,0,1,15.37,15.37V54a0,0,0,0,1,0,0h-138a0,0,0,0,1,0,0V44.38A15.38,15.38,0,0,1,69.72,29Z"/></g><g id="_70_band" data-name="70% band"><rect class="cls-4" x="54.33" y="53.81" width="138" height="22.73"/></g><g id="_40_band" data-name="40% band"><rect class="cls-5" x="54.33" y="76.54" width="138" height="22.73"/></g></svg>