<svg id="Pictograms" xmlns="http://www.w3.org/2000/svg" viewBox="0 0 240 240"><defs><style>.cls-1{fill:#008fd3;}.cls-2,.cls-3,.cls-4{fill:#f0ab00;}.cls-2{opacity:0.7;}.cls-4{opacity:0.4;}.cls-5{fill:#fff;}</style></defs><title>280991-pictogram-neg</title><polyline class="cls-1" points="128 208 128 96 164 96 164 208"/><polyline class="cls-1" points="172 210 172 68 208 68 208 210"/><polyline class="cls-1" points="84 208.5 84 28 120 28 120 208.5"/><polyline class="cls-1" points="40 208 40 64 76 64 76 208"/><polyline class="cls-2" points="128 208 128 96 164 96 164 208"/><polyline class="cls-3" points="172 210 172 68 208 68 208 210"/><polyline class="cls-4" points="84 208.5 84 28 120 28 120 208.5"/><path class="cls-5" d="M212,212H28V27.5h4V208H212Z"/></svg>