<svg xmlns="http://www.w3.org/2000/svg" viewBox="0 0 64 64"><defs><style>.cls-1{fill:none;}.cls-2{fill:#13cec0;}.cls-3{fill:#fff;}.cls-4{fill:#067065;}</style></defs><title>sales-day</title><g id="invisi-border"><rect class="cls-1" width="64" height="64"/></g><g id="icon"><rect class="cls-2" x="9" y="9" width="46" height="46"/><path class="cls-3" d="M44,36a2,2,0,0,1-2-2V22H30a2,2,0,0,1,0-4H44a2,2,0,0,1,2,2V34A2,2,0,0,1,44,36Z"/><path class="cls-3" d="M9,41a2,2,0,0,1-1.41-3.41l11-11a2,2,0,0,1,2.82,0L28,33.12,41.59,19.59a2,2,0,0,1,2.83,2.83L29.47,37.36a2,2,0,0,1-2.82,0L20,30.82l-9.6,9.6A2,2,0,0,1,9,41Z"/><path class="cls-4" d="M55,57H9a2,2,0,0,1-2-2V9A2,2,0,0,1,9,7H55a2,2,0,0,1,2,2V55A2,2,0,0,1,55,57ZM11,53H53V11H11Z"/><path class="cls-4" d="M20,57a2,2,0,0,1-2-2V47a2,2,0,0,1,4,0v8A2,2,0,0,1,20,57Z"/><path class="cls-4" d="M32,57a2,2,0,0,1-2-2V47a2,2,0,0,1,4,0v8A2,2,0,0,1,32,57Z"/><path class="cls-4" d="M44,57a2,2,0,0,1-2-2V47a2,2,0,0,1,4,0v8A2,2,0,0,1,44,57Z"/></g></svg>