<svg id="Pictograms" xmlns="http://www.w3.org/2000/svg" viewBox="0 0 240 240"><defs><style>.cls-1{fill:#fff;}.cls-2{fill:#008fd3;}.cls-3{fill:#e35500;}.cls-4,.cls-5,.cls-6{fill:#f0ab00;}.cls-5{opacity:0.7;}.cls-6{opacity:0.4;}</style></defs><title>281459-pictogram-neg</title><path class="cls-1" d="M122,212h-4V178h4ZM62,118H28v4H62Zm18.76,44.07-2.83-2.83-24.4,24.4,2.83,2.83Zm76.3,42.16-13.2-31.87-3.7,1.53,13.2,31.87ZM67.64,143.85l-1.53-3.7-31.87,13.2,1.53,3.7Zm32.2,30-3.7-1.53-13.2,31.87,3.7,1.53ZM67.64,96.15,35.77,82.95l-1.53,3.7,31.87,13.2Zm138.12,57.21-31.87-13.2-1.53,3.7,31.87,13.2ZM64,133.18l-.78-3.92L29.38,136l.78,3.92Zm9.31,20.43-2.22-3.33L42.39,169.45l2.22,3.33ZM64,106.82l-33.84-6.73L29.38,104l33.84,6.73Z"/><path class="cls-2" d="M199,72.93a87.56,87.56,0,0,0-14.36-18.36,83.9,83.9,0,0,0-19.14-14.51L148.8,69.45a58,58,0,0,1,6.26,4.25l.06,0a58.31,58.31,0,0,1,8.18,7.76l0,0A58.29,58.29,0,0,1,168,87.69l-13.47,6.4L196.38,109l14.91-41.88Z"/><path class="cls-3" d="M165.55,40.07A83.88,83.88,0,0,0,143.31,31a92,92,0,0,0-47.62.27,92,92,0,0,0-41.11,24A83.92,83.92,0,0,0,40.07,74.45L69,91A58,58,0,0,1,119.5,61.5h.17a57.7,57.7,0,0,1,29.13,7.95Z"/><path class="cls-4" d="M75.64,81.57l.07-.08Z"/><path class="cls-4" d="M73.23,84.55l.07-.08Z"/><path class="cls-4" d="M71,87.68l0-.06Z"/><path class="cls-4" d="M78.25,78.75l.06-.06Z"/><path class="cls-4" d="M199,72.93a87.56,87.56,0,0,0-14.36-18.36,83.9,83.9,0,0,0-19.14-14.51L148.8,69.45a58,58,0,0,1,6.26,4.25l.06,0a58.31,58.31,0,0,1,8.18,7.76l0,0A58.29,58.29,0,0,1,168,87.69l-13.47,6.4L196.38,109l14.91-41.88Z"/><path class="cls-5" d="M148.8,69.45l16.74-29.39A83.91,83.91,0,0,0,143.31,31a87.73,87.73,0,0,0-23.83-3l.19,33.5A57.71,57.71,0,0,1,148.8,69.45Z"/><path class="cls-6" d="M119.5,61.5h.17L119.48,28A92,92,0,0,0,73.55,40.59L90.37,69.35A57.71,57.71,0,0,1,119.5,61.5Z"/></svg>