<svg xmlns="http://www.w3.org/2000/svg" xmlns:xlink="http://www.w3.org/1999/xlink" viewBox="0 0 4680 3120"><defs><style>.cls-1{isolation:isolate;}.cls-19,.cls-2,.cls-77{fill:#fff;}.cls-3{fill:url(#linear-gradient);}.cls-4{fill:url(#linear-gradient-2);}.cls-5{fill:#0e2d34;}.cls-10,.cls-11,.cls-12,.cls-13,.cls-19,.cls-5,.cls-6,.cls-62,.cls-65,.cls-7,.cls-8,.cls-9{fill-rule:evenodd;}.cls-6{fill:#1b7154;}.cls-7{fill:url(#linear-gradient-3);}.cls-8{fill:#5f9850;}.cls-9{fill:url(#linear-gradient-4);}.cls-10{fill:url(#linear-gradient-5);}.cls-11{fill:url(#linear-gradient-6);}.cls-12,.cls-30{fill:#5b4ced;}.cls-13{fill:#c9c9c9;}.cls-13,.cls-53,.cls-54,.cls-56{opacity:0.55;}.cls-13,.cls-23,.cls-29,.cls-50,.cls-51,.cls-53,.cls-54,.cls-56,.cls-57,.cls-58,.cls-78{mix-blend-mode:multiply;}.cls-14{fill:#ff5d98;}.cls-15{fill:#4ca7f2;}.cls-16{fill:#62d3bd;}.cls-17{fill:#ff7bad;}.cls-18{fill:#6db8ff;}.cls-20{fill:#1e2887;}.cls-21{fill:#2f36ad;}.cls-22{fill:#a4d6fb;}.cls-23{fill:#020202;opacity:0.2;}.cls-24{fill:#76b4ff;}.cls-25{fill:#64a3ff;}.cls-26{fill:#5193f4;}.cls-27{fill:#4c7bed;}.cls-28{fill:#336bdd;}.cls-29{fill:#c4c4c4;opacity:0.73;}.cls-31{font-size:134.41px;fill:#e7f2f2;font-family:Nunito-Bold, Nunito;font-weight:700;}.cls-32{fill:#ff6b6e;}.cls-33{fill:#ffc54f;}.cls-34{fill:#c1cc8c;}.cls-35{fill:#0cf;}.cls-36{fill:#ff56a9;}.cls-37{fill:#e3eaff;}.cls-38{fill:#ffc359;}.cls-39{fill:#ffba94;}.cls-40{fill:#1a3342;}.cls-41{fill:#162c3a;}.cls-42{fill:#213b4f;}.cls-43{fill:#f44545;}.cls-44{fill:#e83838;}.cls-45{fill:#352d29;}.cls-46{fill:#f9a880;}.cls-47{fill:#fca286;}.cls-48{fill:#ff806d;}.cls-49{fill:#443a36;}.cls-50,.cls-51,.cls-57{opacity:0.6;}.cls-50{fill:url(#linear-gradient-7);}.cls-51{fill:url(#linear-gradient-8);}.cls-52{fill:#ff9b57;}.cls-53{fill:url(#linear-gradient-9);}.cls-54{fill:url(#linear-gradient-10);}.cls-55{fill:#db2e2e;}.cls-56{fill:url(#linear-gradient-11);}.cls-58,.cls-79{fill:#ccecff;}.cls-59{fill:url(#linear-gradient-12);}.cls-60{fill:#40d3e2;}.cls-61{fill:#4e1413;}.cls-62{fill:#3888fc;}.cls-63,.cls-65{fill:#1b2a6b;}.cls-64{fill:#14245b;}.cls-66{fill:#3a72ef;}.cls-67{fill:#15304f;}.cls-68{fill:#10283f;}.cls-69{fill:#703127;}.cls-70{fill:#0a1d2d;}.cls-71,.cls-72{fill:none;stroke:#15304f;stroke-miterlimit:10;}.cls-71{stroke-width:3.21px;}.cls-72{stroke-width:2.71px;}.cls-73{fill:#3434c1;}.cls-74{fill:#3e3ad8;}.cls-75{fill:#6562ed;}.cls-76{fill:#9b88fe;}.cls-77{font-size:119.69px;font-family:Nunito-ExtraBold, Nunito ExtraBold;font-weight:800;}.cls-80{fill:url(#linear-gradient-13);}.cls-81{fill:#351582;}</style><linearGradient id="linear-gradient" x1="2220.84" y1="844.01" x2="2317.48" y2="2482.63" gradientUnits="userSpaceOnUse"><stop offset="0" stop-color="#87b1f5"/><stop offset="1" stop-color="#fff"/></linearGradient><linearGradient id="linear-gradient-2" x1="2725.88" y1="2747.86" x2="2725.88" y2="2431.08" gradientTransform="matrix(0.89, 0, 0, 1, -92.18, 0.28)" gradientUnits="userSpaceOnUse"><stop offset="0" stop-color="#fff"/><stop offset="1" stop-color="#94a3f5"/></linearGradient><linearGradient id="linear-gradient-3" x1="1288.34" y1="1491.73" x2="1605.16" y2="2421.06" gradientUnits="userSpaceOnUse"><stop offset="0" stop-color="#8ccc6d"/><stop offset="0.19" stop-color="#81c768"/><stop offset="0.54" stop-color="#62b85b"/><stop offset="0.92" stop-color="#39a54a"/></linearGradient><linearGradient id="linear-gradient-4" x1="1572.13" y1="1519.54" x2="1793.9" y2="2332.71" gradientUnits="userSpaceOnUse"><stop offset="0" stop-color="#00b488"/><stop offset="0.92" stop-color="#007bc0"/></linearGradient><linearGradient id="linear-gradient-5" x1="2542.84" y1="2228.87" x2="3336.34" y2="2228.87" xlink:href="#linear-gradient-4"/><linearGradient id="linear-gradient-6" x1="2570.96" y1="2035.54" x2="3098.51" y2="2035.54" xlink:href="#linear-gradient-3"/><linearGradient id="linear-gradient-7" x1="1999.64" y1="2604.43" x2="1977.83" y2="2732.17" gradientTransform="translate(-1545.75 -1022.34) rotate(-22.38)" gradientUnits="userSpaceOnUse"><stop offset="0" stop-color="#fff" stop-opacity="0.5"/><stop offset="1"/></linearGradient><linearGradient id="linear-gradient-8" x1="2070.73" y1="2569.88" x2="2049.73" y2="2692.89" xlink:href="#linear-gradient-7"/><linearGradient id="linear-gradient-9" x1="1171.91" y1="1036.35" x2="1137.6" y2="1138.51" gradientUnits="userSpaceOnUse"><stop offset="0" stop-color="#ffcf3d"/><stop offset="1" stop-color="#f15a24"/></linearGradient><linearGradient id="linear-gradient-10" x1="1483.31" y1="1099.32" x2="1412.76" y2="1309.4" xlink:href="#linear-gradient-9"/><linearGradient id="linear-gradient-11" x1="1110.73" y1="1261.53" x2="843.39" y2="864.94" xlink:href="#linear-gradient-9"/><linearGradient id="linear-gradient-12" x1="3707.99" y1="1189.69" x2="3707.99" y2="2101.43" gradientUnits="userSpaceOnUse"><stop offset="0" stop-color="#fff"/><stop offset="1" stop-color="#87c5f5"/></linearGradient><linearGradient id="linear-gradient-13" x1="2529.75" y1="619.99" x2="2529.75" y2="1041.61" xlink:href="#linear-gradient-12"/></defs><title>09</title><g class="cls-1"><g id="_09" data-name="09"><rect class="cls-2" width="4680" height="3120"/><path class="cls-3" d="M4012.26,2353.91q0,46.58-2.8,92.48-2.64,43.41-7.72,86.18H618q-5.06-42.77-7.72-86.18-2.79-45.9-2.79-92.48C607.53,1471.4,1369.7,756,2309.89,756S4012.26,1471.4,4012.26,2353.91Z"/><polygon class="cls-4" points="502.48 2519.17 312.01 2776.94 4330.92 2778.68 4074.05 2520.72 502.48 2519.17"/><path class="cls-5" d="M1465.71,2503.74c-93.23-15.15-224.88-52.56-353-143.86-181.48-129.36,200.31-85.31,511.17,19.11l-120.13,106.8Z"/><path class="cls-6" d="M1769.15,2511.42l-16,49.67H1595.54l-30.8-12.06c-22.58-18.05-45.25-36-67.72-53.56q-20.74-16.2-41.15-32c-97.3-75.51-186.65-143.1-240.94-189.52-10.84-9.27-20.28-17.71-28.12-25.18-198.53-189.61-99.32-372.95,108.34-262.9A471.47,471.47,0,0,1,1351,2020.9c43.66,31.57,89.29,72.6,135,120q10.51,10.88,21,22.22c30.79,33.14,61.51,69,91.59,106.51,28.12,35.1,55.69,71.72,82.27,109.08,3.14,4.42,6.28,8.84,9.38,13.29s6.16,8.78,9.22,13.2q20,28.92,39.09,58.2c1.09,1.63,2.14,3.28,3.2,4.91Q1755.79,2489.88,1769.15,2511.42Z"/><path class="cls-5" d="M1704.42,2561.09H1690.7c-22-31.25-45.48-61.79-69.89-91.37-1.74-2.11-3.48-4.19-5.22-6.3q-12.75-15.27-25.78-30.23c-34.68-39.78-70.63-77.59-106.31-112.84-34.08-33.62-67.87-65-100-93.45-121.82-108-220.2-175.49-220.89-176a6.39,6.39,0,0,1-1.82-8.39,5.38,5.38,0,0,1,7.78-1.74c.66.49,89.8,61.66,203.7,160.84,42,36.61,87.4,78.39,133,124.22,31.31,31.48,62.68,64.87,93.11,99.81q4.41,5.09,8.81,10.2,10.7,12.45,21.19,25.16c.65.79,1.31,1.59,2,2.39C1656.26,2495,1681.21,2527.61,1704.42,2561.09Z"/><path class="cls-7" d="M1574.74,1848.38c29.45,83.88,72.58,280.75,124.12,484.51a378.71,378.71,0,0,1-150,199.55C1427.53,2339.31,1321.9,2117.7,1285.23,1944,1213.45,1604,1462.63,1529.08,1574.74,1848.38Z"/><path class="cls-8" d="M1623.07,2467.18c-169.74-325.26-243.16-717.31-243.47-718.94a6.8,6.8,0,0,1,4.89-8,6.28,6.28,0,0,1,7.42,5.24c.32,1.62,72.92,389.13,240,711.26Q1627.55,2462,1623.07,2467.18Z"/><path class="cls-9" d="M1558.52,1851.17c.4,84.95,27.7,281.83,46.16,480.49l70.38,169.42,98.6-48.37c55.72-219.63,87-471.38,62.84-641.48C1794.07,1512.82,1557.08,1553,1558.52,1851.17Z"/><path class="cls-5" d="M1679.93,2498.69c90.1-359.41,15.83-803.39,15.57-805a5.37,5.37,0,0,0-6.66-4.4,6.38,6.38,0,0,0-4.77,7.13c.26,1.61,73.32,438.49-13.6,793.64l4.59,11Z"/><path class="cls-5" d="M3320.12,2395c-3.45,2.4-7.13,4.85-11,7.33a1011.41,1011.41,0,0,1-175.55,90.34h-349.3l-5.22,6.5-6.67-6.5-3.45-3.36L2688.61,2411l-14.48-14.14c2.19-.63,4.36-1.26,6.56-1.86q11.71-3.33,23.52-6.53v0c6.45-1.74,12.86-3.45,19.34-5.16,35.41-9.38,71.26-18.08,107-26q9.54-2.14,19-4.22,24.09-5.17,47.91-9.93,12.11-2.39,24.18-4.67c33.88-6.48,67.19-12.15,99.36-17,74-11.24,142.18-18.11,198.27-19.85a0,0,0,0,1,0,0C3357.9,2297.27,3422.78,2324.3,3320.12,2395Z"/><path class="cls-10" d="M3203.35,2267.56c-24.87,23.84-62.76,55.41-109.33,92.59a0,0,0,0,0,0,0c-35.42,28.26-75.8,59.69-119.17,93.42-39.81,30.91-82.13,63.74-125.45,97.67H2659l-5.22,6.5-6.67-6.5h-92l-12.27-51.3q10.1-15.22,20.48-30.34v0c1.2-1.68,2.31-3.28,3.45-5,2.54-3.71,5.08-7.36,7.61-11l4.54-6.5V2447c3.82-5.47,7.64-10.89,11.46-16.31.51-.68,1-1.37,1.48-2.08v0q12.79-18,25.76-35.76c60.11-82.38,123.79-161.06,187.78-230.36,0,0,0-.06.06-.08q13-14,25.95-27.58s.05-.06,0-.08c56.7-59,113.13-110.11,167.2-149.43a583.27,583.27,0,0,1,69.27-43.78c1.31-.68,2.56-1.37,3.85-2C3326.46,1806.47,3447.85,2032.61,3203.35,2267.56Z"/><path class="cls-5" d="M3232.7,2021.86c-.83.62-119.55,82.64-267.66,214-2,1.77-3.94,3.54-5.94,5.31C2907,2287.61,2851.54,2340,2796.36,2397q-26.7,27.6-53.16,56.58-27.07,29.68-53.49,60.74-11.8,13.86-23.39,28l-.94,1.14c-2.14,2.59-4.28,5.16-6.39,7.78l-5.22,6.5-6.67-6.5H2641c.86-1.11,1.77-2.22,2.65-3.33l0,0q6.12-7.62,12.32-15.2l0,0c.34-.4.65-.8,1-1.2,6.27-7.61,12.63-15.2,19-22.7,2.08-2.48,4.22-5,6.3-7.44l.06-.06q20.7-24.21,41.84-47.68,23.86-26.47,48-51.9c68.29-71.75,137.59-136.54,200.76-191.89,1.91-1.68,3.82-3.36,5.73-5,138.3-120.62,245.76-194.91,246.58-195.45a6.68,6.68,0,0,1,9.7,2.11A8,8,0,0,1,3232.7,2021.86Z"/><path class="cls-11" d="M3083.07,1890.82q-5,23.87-11.32,48.71c-21.14,82.81-53.24,172.84-93.08,265.26-4.42,10.33-9,20.71-13.63,31.11-21.31,47.77-44.58,96-69.33,144.13q-18.95,36.91-39.07,73.57-26.94,49.32-55.55,97.67H2674.42c-2.77-2.94-5.47-5.9-8.1-8.92-1.05-1.14-2.05-2.28-3.05-3.45-2.14-2.46-4.25-4.91-6.3-7.42-1.57-1.85-3.11-3.76-4.62-5.64a465.57,465.57,0,0,1-48-72.24c-2.12-3.88-4.14-7.78-6.11-11.72-2.22-4.36-4.33-8.78-6.39-13.23v0a459.55,459.55,0,0,1-20.9-53.53c63.25-253.11,116.07-497.67,152.34-601.9C2861.29,1376.35,3170.93,1468.46,3083.07,1890.82Z"/><path class="cls-8" d="M2662.54,2540.33c209.52-404.42,299.24-891.4,299.63-893.42.84-4.55-1.89-9-6.11-9.92s-8.35,2-9.2,6.52c-.38,2-89.1,483.36-295.3,883.88Q2656.93,2533.95,2662.54,2540.33Z"/><path class="cls-12" d="M4096.05,2511.84v.83c0,26.63-19.28,48.42-42.86,48.42H521.64c-23.58,0-42.86-21.79-42.86-48.42v-.83c0-26.63,19.28-48.42,42.86-48.42H4053.19C4076.77,2463.42,4096.05,2485.21,4096.05,2511.84Z"/><path class="cls-13" d="M2213.66,359H1624.2a30.47,30.47,0,0,0-30.47,30.47V744.09a49.61,49.61,0,0,0,49.61,49.61h395.21a10.35,10.35,0,0,1,6.89,2.61c21.38,19,62.18,47.91,132.62,73.87l-.22-.18.27.18A171.7,171.7,0,0,1,2165.43,804a10.41,10.41,0,0,1,10.41-10.34h18.69a49.61,49.61,0,0,0,49.6-49.61V389.51A30.47,30.47,0,0,0,2213.66,359Z"/><path class="cls-12" d="M2219.16,350.8h-584A33.22,33.22,0,0,0,1602,384V733.1a52.36,52.36,0,0,0,52.36,52.36h391.42a13.17,13.17,0,0,1,8.72,3.31c21.59,19,62.24,47.52,131.83,73.16l-.22-.17.28.17a171.29,171.29,0,0,1-12.68-63.15,13.16,13.16,0,0,1,13.16-13.32H2200a52.36,52.36,0,0,0,52.36-52.36V384A33.21,33.21,0,0,0,2219.16,350.8Z"/><path class="cls-14" d="M1756.14,519.15a75.75,75.75,0,0,0,10.95-4.15s1.62-4.25,5.19-5.6a52.14,52.14,0,0,1,62.57,21L1925,496.2a147.94,147.94,0,0,0-243.39-37.93Z"/><path class="cls-15" d="M1820,599.4c-4,3.08-5.85,5.63-10.81,7.51a52.12,52.12,0,0,1-65.53-71.15l-64-65.37-10.94,4.14a147.91,147.91,0,0,0,228.74,186l-63.9-65.3Z"/><path class="cls-16" d="M1767.09,515a52.15,52.15,0,0,1,78.71,11.21L1936,492.05a147.93,147.93,0,0,0-243.38-37.93Z"/><path class="cls-16" d="M1833.6,595.24a52.13,52.13,0,0,1-79-63.63l-74.92-61.22a147.91,147.91,0,0,0,228.74,186Z"/><path class="cls-17" d="M1767.09,515a52.15,52.15,0,0,1,78.71,11.21L1936,492.05a147.93,147.93,0,0,0-243.38-37.93Z"/><path class="cls-18" d="M1833.6,595.24a52.13,52.13,0,0,1-79-63.63l-74.92-61.22a147.91,147.91,0,0,0,228.74,186Z"/><path class="cls-19" d="M2048.53,639.81Zm-18.3-69.71a35.22,35.22,0,1,0,10.31,24.9,35.11,35.11,0,0,0-10.31-24.9Zm-7.61-34.9a62.17,62.17,0,0,1,25.91,15,2.17,2.17,0,0,0,2.58.31l16.36-9.45.09-.05a4.09,4.09,0,0,1,5.45,1.54l.07.11,11.51,19.94a4,4,0,0,1,.39,3.09,4.07,4.07,0,0,1-1.88,2.46l-.11.06-16.23,9.37a2.15,2.15,0,0,0-1,2.39h0a61.84,61.84,0,0,1,1.37,7.44,62.77,62.77,0,0,1,0,15.17,61.84,61.84,0,0,1-1.37,7.44,2.15,2.15,0,0,0,1.14,2.45l16.22,9.37h0a4.06,4.06,0,0,1,1.88,2.47,4,4,0,0,1-.39,3.08L2073,647.45h0a4.09,4.09,0,0,1-5.54,1.49l-.12-.07-16.25-9.38a2.16,2.16,0,0,0-2.57.32,63.16,63.16,0,0,1-12.1,9.12,62.29,62.29,0,0,1-13.9,5.9,2.17,2.17,0,0,0-1.57,2.08v18.87a4.06,4.06,0,0,1-4,4.05h-23.16a4.06,4.06,0,0,1-4-4.05V656.91a2.16,2.16,0,0,0-1.66-2.1,62.29,62.29,0,0,1-25.91-15,2.16,2.16,0,0,0-2.69-.26l-16.25,9.39a4.08,4.08,0,0,1-5.54-1.49l-.07-.11-11.51-20h0a4.06,4.06,0,0,1-.4-3.07,4.1,4.1,0,0,1,1.88-2.47l16.35-9.43a2.17,2.17,0,0,0,1-2.39h0a61.84,61.84,0,0,1-1.37-7.44,64.15,64.15,0,0,1,0-15.17,61.84,61.84,0,0,1,1.37-7.44,2.15,2.15,0,0,0-1.14-2.45l-16.23-9.37a4.07,4.07,0,0,1-1.48-5.54l.06-.12,11.52-19.94h0a4.08,4.08,0,0,1,5.54-1.49h0l16.36,9.45a2.16,2.16,0,0,0,2.63-.36,62.09,62.09,0,0,1,26-15,2.16,2.16,0,0,0,1.57-2.08V514.22a4.06,4.06,0,0,1,4-4h23.16a4,4,0,0,1,2.86,1.19,4,4,0,0,1,1.19,2.85V533.1A2.16,2.16,0,0,0,2022.62,535.2Z"/><path class="cls-20" d="M2479.18,1025.87V2553.5a117,117,0,0,1-2.84,25.6,115,115,0,0,1-3.45,12.11c-.75,2-1.49,4-2.23,6a121.89,121.89,0,0,1-19.38,32.24,133.34,133.34,0,0,1-13.27,13.84,144.92,144.92,0,0,1-15.24,11.93c-3.58,2.4-7.34,4.69-11.17,6.86h-.06q-5.74,3.18-11.85,5.86h-.06a146.39,146.39,0,0,1-19.08,6.81h-.06c-4.38,1.22-8.82,2.28-13.39,3.12a159,159,0,0,1-28.39,2.57H1645.42a155.09,155.09,0,0,1-29.87-2.9c-1.6-.34-3.15-.62-4.75-1s-3.52-.83-5.25-1.28a152.81,152.81,0,0,1-21-7.31c-3.4-1.5-6.67-3.07-9.81-4.74-1.48-.78-3-1.56-4.39-2.4-3.08-1.73-6-3.62-8.94-5.58a136.61,136.61,0,0,1-24.32-21c-2.84-3.13-5.56-6.36-8.09-9.76a126.37,126.37,0,0,1-10.12-16,113.58,113.58,0,0,1-9.44-23.26v-.06a115,115,0,0,1-4.45-31.68V1025.87c0-70,62.9-126.91,140.48-126.91h693.28C2416.35,899,2479.18,955.86,2479.18,1025.87Z"/><path class="cls-21" d="M2527.61,1025.87V2553.5a117,117,0,0,1-2.84,25.6,115,115,0,0,1-3.46,12.11c-.74,2-1.48,4-2.22,6a121.89,121.89,0,0,1-19.38,32.24,134.39,134.39,0,0,1-13.27,13.84,144.92,144.92,0,0,1-15.24,11.93c-3.58,2.4-7.35,4.69-11.17,6.86H2460q-5.74,3.18-11.86,5.86h-.06a146.25,146.25,0,0,1-19.07,6.81h-.06c-4.38,1.22-8.83,2.28-13.39,3.12a159,159,0,0,1-28.39,2.57H1693.85a155.09,155.09,0,0,1-29.87-2.9c-1.6-.34-3.15-.62-4.75-1s-3.52-.83-5.25-1.28a152.35,152.35,0,0,1-21-7.31c-3.4-1.5-6.67-3.07-9.82-4.74-1.48-.78-3-1.56-4.38-2.4-3.08-1.73-6-3.62-9-5.58a136.54,136.54,0,0,1-24.31-21c-2.84-3.13-5.56-6.36-8.09-9.76a126.37,126.37,0,0,1-10.12-16,113.58,113.58,0,0,1-9.44-23.26v-.06a115,115,0,0,1-4.45-31.68V1025.87c0-70,62.89-126.91,140.47-126.91H2387.2C2464.78,899,2527.61,955.86,2527.61,1025.87Z"/><path class="cls-22" d="M2496.75,1025.87V2553.5a91.6,91.6,0,0,1-2.22,20.08,76.27,76.27,0,0,1-2.59,9.15l-2,5.41a92.78,92.78,0,0,1-14.88,24.6,98.44,98.44,0,0,1-10.43,10.82,106,106,0,0,1-12,9.43c-2.1,1.4-4.63,3-7.53,4.63l-1.17.67c-2.41,1.34-4.88,2.62-7.47,3.79l-1.79.73a105.33,105.33,0,0,1-13.27,4.85l-1.54.45c-3.65,1-7,1.78-10.37,2.45a129,129,0,0,1-22.28,2H1693.85a119.66,119.66,0,0,1-23.27-2.24c-2.59-.5-5.18-1.06-7.65-1.73a117.38,117.38,0,0,1-16.66-5.8c-2.6-1.17-5.19-2.4-7.41-3.62-1.3-.67-2.28-1.17-3.15-1.68l-.68-.39c-1.91-1.06-4.07-2.4-6.72-4.18a110.94,110.94,0,0,1-19-16.46c-2.35-2.56-4.38-5-6.24-7.47a99.69,99.69,0,0,1-7.9-12.5,90.21,90.21,0,0,1-7-16.68l-.43-1.5a90.82,90.82,0,0,1-3.46-24.77V1025.87c0-54.56,49.19-99,109.61-99H2387.2c46.1,0,85.66,25.94,101.77,62.48A90,90,0,0,1,2496.75,1025.87Z"/><path class="cls-23" d="M2524.6,2130c.74-5.69,1.73-12.44,3-20.08v120.43c-7.16-19-12-33-12.9-38.15C2512.56,2179.66,2518.37,2153.11,2524.6,2130Z"/><path class="cls-21" d="M2527.62,1412.7h0V1232.34h0c15.56,0,28.17,11.39,28.17,25.45v129.46C2555.79,1401.31,2543.18,1412.7,2527.62,1412.7Z"/><path class="cls-21" d="M1545.16,1322.52h22.38v-90.18h-22.38a5.79,5.79,0,0,0-5.79,5.79v78.6A5.79,5.79,0,0,0,1545.16,1322.52Z"/><path class="cls-21" d="M1545.16,1431.3h22.38v-90.19h-22.38a5.8,5.8,0,0,0-5.79,5.79v78.61A5.79,5.79,0,0,0,1545.16,1431.3Z"/><path class="cls-21" d="M2183,972.88H1921.71c-44,0-79.6-25.5-79.6-57h420.53C2262.64,947.38,2227,972.88,2183,972.88Z"/><rect class="cls-24" x="1666.24" y="1138.55" width="774.85" height="275.28"/><rect class="cls-25" x="1666.24" y="1462.26" width="774.85" height="137.64"/><rect class="cls-26" x="1666.24" y="1648.32" width="774.85" height="137.64"/><rect class="cls-27" x="1666.24" y="1972.02" width="774.85" height="137.64"/><rect class="cls-28" x="1666.24" y="2160.64" width="774.85" height="137.64"/><rect class="cls-2" x="1666.24" y="1046.79" width="463.89" height="33.13" rx="14.26"/><rect class="cls-29" x="1763.1" y="1339.91" width="922.68" height="1231.09" rx="35.28"/><rect class="cls-2" x="1780.94" y="1322.07" width="922.68" height="1231.09" rx="35.28"/><path class="cls-30" d="M2653.69,1973v474.35a13.75,13.75,0,0,1-13.74,13.76H1864.18a13.77,13.77,0,0,1-13.77-13.76V1973a13.77,13.77,0,0,1,13.77-13.76H2640A13.74,13.74,0,0,1,2653.69,1973Z"/><path class="cls-21" d="M2653.69,1973v37.46H1850.41V1973a13.77,13.77,0,0,1,13.77-13.76H2640A13.74,13.74,0,0,1,2653.69,1973Z"/><path class="cls-2" d="M2561.1,1986.42a10.19,10.19,0,1,1-10.19-10.18A10.19,10.19,0,0,1,2561.1,1986.42Z"/><path class="cls-2" d="M2596.91,1986.42a10.19,10.19,0,1,1-10.19-10.18A10.19,10.19,0,0,1,2596.91,1986.42Z"/><path class="cls-2" d="M2632.71,1986.42a10.19,10.19,0,1,1-10.18-10.18A10.19,10.19,0,0,1,2632.71,1986.42Z"/><rect class="cls-2" x="1913.43" y="2030.19" width="4.37" height="34.31"/><text class="cls-31" transform="translate(2074.18 2263.09)">HTML</text><rect class="cls-32" x="1932.65" y="2061.91" width="389.6" height="9.29" rx="2.08"/><rect class="cls-33" x="1932.65" y="2346.78" width="434.82" height="9.15" rx="2.08"/><path class="cls-2" d="M2425.5,2087.89H1936.62a4,4,0,0,0-4,4h0a4,4,0,0,0,4,4H2425.5a4,4,0,0,0,4-4h0A4,4,0,0,0,2425.5,2087.89Z"/><rect class="cls-34" x="1932.65" y="2372.16" width="420.31" height="8.98" rx="2.08"/><rect class="cls-32" x="1932.65" y="2323.66" width="497.29" height="9.42" rx="2.32"/><rect class="cls-34" x="2449.83" y="2087.47" width="122.77" height="8.46" rx="2.08"/><rect class="cls-2" x="1931.5" y="2036.71" width="142.58" height="9.1" rx="2.08"/><path class="cls-35" d="M1943.76,1469.5h-56.25c-3,0-5.41-4.87-5.41-10.88h0c0-6,2.42-10.87,5.41-10.87h56.25c3,0,5.42,4.87,5.42,10.87h0C1949.18,1464.63,1946.75,1469.5,1943.76,1469.5Z"/><path class="cls-35" d="M2292,1469.5H1970.25c-3,0-5.42-4.87-5.42-10.88h0c0-6,2.43-10.87,5.42-10.87H2292c3,0,5.41,4.87,5.41,10.87h0C2297.43,1464.63,2295,1469.5,2292,1469.5Z"/><path class="cls-36" d="M2072.89,1514.46H1970.25c-3,0-5.42-4.87-5.42-10.88h0c0-6,2.43-10.88,5.42-10.88h102.64c3,0,5.41,4.87,5.41,10.88h0C2078.3,1509.59,2075.88,1514.46,2072.89,1514.46Z"/><path class="cls-37" d="M2241.71,1514.46H2093.78c-3,0-5.41-4.87-5.41-10.88h0c0-6,2.42-10.88,5.41-10.88h147.93c3,0,5.41,4.87,5.41,10.88h0C2247.12,1509.59,2244.7,1514.46,2241.71,1514.46Z"/><path class="cls-37" d="M2292,1733.34H1970.25c-3,0-5.42-4.86-5.42-10.87h0c0-6,2.43-10.88,5.42-10.88H2292c3,0,5.41,4.87,5.41,10.88h0C2297.43,1728.48,2295,1733.34,2292,1733.34Z"/><path class="cls-35" d="M1943.76,1778.3h-56.25c-3,0-5.41-4.87-5.41-10.87h0c0-6,2.42-10.88,5.41-10.88h56.25c3,0,5.42,4.87,5.42,10.88h0C1949.18,1773.43,1946.75,1778.3,1943.76,1778.3Z"/><path class="cls-37" d="M2072.89,1778.3H1970.25c-3,0-5.42-4.87-5.42-10.87h0c0-6,2.43-10.88,5.42-10.88h102.64c3,0,5.41,4.87,5.41,10.88h0C2078.3,1773.43,2075.88,1778.3,2072.89,1778.3Z"/><path class="cls-36" d="M2241.71,1778.3H2093.78c-3,0-5.41-4.87-5.41-10.87h0c0-6,2.42-10.88,5.41-10.88h147.93c3,0,5.41,4.87,5.41,10.88h0C2247.12,1773.43,2244.7,1778.3,2241.71,1778.3Z"/><path class="cls-36" d="M2371.81,1559.41H1970.25c-3,0-5.42-4.87-5.42-10.87h0c0-6,2.43-10.88,5.42-10.88h401.56c3,0,5.42,4.87,5.42,10.88h0C2377.23,1554.54,2374.8,1559.41,2371.81,1559.41Z"/><rect class="cls-35" x="2188.43" y="1582.62" width="104.95" height="21.75" rx="0.57"/><path class="cls-37" d="M2103.64,1604.37H1970.25c-3,0-5.42-4.87-5.42-10.88h0c0-6,2.43-10.87,5.42-10.87h133.39c3,0,5.41,4.87,5.41,10.87h0C2109.05,1599.5,2106.63,1604.37,2103.64,1604.37Z"/><path class="cls-35" d="M2174.63,1604.37h-52.9c-3,0-5.41-4.87-5.41-10.88h0c0-6,2.42-10.87,5.41-10.87h52.9c3,0,5.41,4.87,5.41,10.87h0C2180,1599.5,2177.62,1604.37,2174.63,1604.37Z"/><path class="cls-37" d="M1943.76,1647.83h-56.25c-3,0-5.41-4.87-5.41-10.88h0c0-6,2.42-10.87,5.41-10.87h56.25c3,0,5.42,4.86,5.42,10.87h0C1949.18,1643,1946.75,1647.83,1943.76,1647.83Z"/><path class="cls-37" d="M2371.81,1647.83H1970.25c-3,0-5.42-4.87-5.42-10.88h0c0-6,2.43-10.87,5.42-10.87h401.56c3,0,5.42,4.86,5.42,10.87h0C2377.23,1643,2374.8,1647.83,2371.81,1647.83Z"/><path class="cls-37" d="M1943.76,1819.94h-56.25c-3,0-5.41-4.87-5.41-10.88h0c0-6,2.42-10.88,5.41-10.88h56.25c3,0,5.42,4.87,5.42,10.88h0C1949.18,1815.07,1946.75,1819.94,1943.76,1819.94Z"/><rect class="cls-37" x="2188.43" y="1798.18" width="145.2" height="21.75" rx="0.68"/><path class="cls-37" d="M2103.64,1819.94H1970.25c-3,0-5.42-4.87-5.42-10.88h0c0-6,2.43-10.88,5.42-10.88h133.39c3,0,5.41,4.87,5.41,10.88h0C2109.05,1815.07,2106.63,1819.94,2103.64,1819.94Z"/><path class="cls-37" d="M2174.63,1819.94h-52.9c-3,0-5.41-4.87-5.41-10.88h0c0-6,2.42-10.88,5.41-10.88h52.9c3,0,5.41,4.87,5.41,10.88h0C2180,1815.07,2177.62,1819.94,2174.63,1819.94Z"/><path class="cls-38" d="M1943.76,1863.4h-56.25c-3,0-5.41-4.87-5.41-10.88h0c0-6,2.42-10.88,5.41-10.88h56.25c3,0,5.42,4.87,5.42,10.88h0C1949.18,1858.53,1946.75,1863.4,1943.76,1863.4Z"/><path class="cls-35" d="M2039.77,1863.4h-69.52c-3,0-5.42-4.87-5.42-10.88h0c0-6,2.43-10.88,5.42-10.88h69.52c3,0,5.42,4.87,5.42,10.88h0C2045.19,1858.53,2042.76,1863.4,2039.77,1863.4Z"/><path class="cls-35" d="M1887.51,1692.79c-3,0-5.41-4.87-5.41-10.88h0c0-6,2.42-10.88,5.41-10.88h56.25c3,0,5.42,4.87,5.42,10.88h0c0,6-2.43,10.88-5.42,10.88"/><rect class="cls-37" x="2188.43" y="1671.03" width="164.07" height="21.75" rx="0.72"/><path class="cls-38" d="M2103.64,1692.79H1970.25c-3,0-5.42-4.87-5.42-10.88h0c0-6,2.43-10.88,5.42-10.88h133.39c3,0,5.41,4.87,5.41,10.88h0C2109.05,1687.92,2106.63,1692.79,2103.64,1692.79Z"/><path class="cls-38" d="M2174.63,1692.79h-52.9c-3,0-5.41-4.87-5.41-10.88h0c0-6,2.42-10.88,5.41-10.88h52.9c3,0,5.41,4.87,5.41,10.88h0C2180,1687.92,2177.62,1692.79,2174.63,1692.79Z"/><path class="cls-39" d="M1675.22,1236.58c-.38-7.16-1.18-12.71-2.46-15.76a306.78,306.78,0,0,0-17.1-33.89l-1-13.32,59.28-184.44-104.29,61.68-11.5,122.27s-60.85,82.21-51.62,90.55c8,7.18,36.52-18.11,44.26-25.19,1.19-1.16,1.92-1.83,1.92-1.83s37.61,12.18,59-17.1C1651.72,1219.55,1663.58,1235.52,1675.22,1236.58Z"/><path class="cls-39" d="M1588.06,1211l-12.61,85.75a69,69,0,0,0-12.61,30.26c-2.52,17.66,10.09,5,10.09,5s-10.09,12.61-2.52,17.65,64.51,5,95.84-60.53c27.74-58-12.61-116-12.61-116Z"/><path class="cls-40" d="M1243.07,2400.25l42.08,129.26s72.15,60.12,78.16,75.15,0,42.09,0,42.09H1237.06l-102.21-87.18-36.07-147.3Z"/><path class="cls-41" d="M1159.32,2650.43l-13.1,5,5.53,30.31s25.22,37.83,98.36,27.74c0,0,32.79-7.57,40.35-35.31V2653Z"/><path class="cls-42" d="M1116.44,2378.05,1131.57,2484l13.63,165.74a31.58,31.58,0,0,0,19.58,26.71c29.53,12,88.29,28.75,122.82-9.24a13.76,13.76,0,0,0,2.76-13.91l-70.51-194.52,2.52-123.58Z"/><path class="cls-43" d="M1509.89,1851.73c-6.22,39.11-33.64,100-68.66,165.72-78.85,147.9-196.18,319.67-196.18,319.67l-7.12-17.77-75.57-49.6-27.51-18.06,17.59-77,137.07-599.56,24.23-106,22.13-96.19,50.44-43.53s10,27.48,24.32,70.28c2.16,6.38,4.42,13.14,6.73,20.2C1458.4,1544.45,1523.93,1763.08,1509.89,1851.73Z"/><path class="cls-44" d="M1399,1807.18l-55.37,44.58,33.13,22.33a1.7,1.7,0,0,1-1,3.1h-60.6l-107.77,392.56-27.51-18.06,154.66-676.52,4.66-82.76-15,336.68,73.41-24.47A1.48,1.48,0,0,1,1399,1807.18Z"/><path class="cls-44" d="M1441.23,2017.45c-78.85,147.9-196.18,319.67-196.18,319.67l-7.12-17.77-75.57-49.6-27.51-18.06,17.59-77c17.58-15.63,38.5-27.11,63.36-32C1306.23,2124.86,1390,2062.72,1441.23,2017.45Z"/><path class="cls-43" d="M1335.87,1359.75c-1,23.09-2.32,47.17-3.73,72.06-22.67,394-89.58,990.38-89.58,990.38L1116.3,2438l-35.17,4.39s-83.24-853.09-68.09-969.13c9.32-71.54,55.11-126.8,88.83-158.63,21-19.78,37.28-30.51,37.28-30.51l132.87,51.1Z"/><path class="cls-45" d="M1184.28,656.1l-12.16,11.15s-7.44,46.86-2.54,115-127.4,171.5-61.25,244.64,328.31-73.14,328.31-73.14l76-80.7s71.05-40.36-73.51-224.47Z"/><path class="cls-39" d="M1282.9,923.44l-25.22-2.53s-128.63-20.17-156.37,2.53-42.88,111-42.88,111S1252.63,1147.9,1414,1042c118.67-77.87,94.21-135.3,72.93-160.25-7.48-8.78-17.15,1.31-27.46,6.47l-93.39,32.72Z"/><path class="cls-39" d="M1277.85,809.94l-20.17,111s10.08,45.4,83.22,32.79c0,0,25.22-2.52,37.83-20.18V850.3S1320.73,769.59,1277.85,809.94Z"/><path class="cls-46" d="M1434.89,656.92s34.51,136-12.41,179A70.43,70.43,0,0,1,1405,847.55c-33.55,15.82-80.41,13.07-115.54-30.2-41.89-51.58-45.14-141-45.14-141l81-71.52,3.62.69,62.15,11.65Z"/><path class="cls-39" d="M1434.89,656.92a496.75,496.75,0,0,1,10.29,55.72,377.77,377.77,0,0,1,3.21,44.17c.33,33.42-7,61.8-25.91,79.09A70.43,70.43,0,0,1,1405,847.55c-33,11.19-79.28,2.6-111.67-37.31-41.9-51.58-73.67-125.76-73.67-125.76l109.26-78.92,62.15,11.65Z"/><path class="cls-45" d="M1370,627a66.73,66.73,0,0,1-11.37,1.4s-25.38-6.42-28.8,7.92,2.57,91.5-75,122.78l.06,1.71,1.75,47.53s-86.88-22.34-86.89-116.73,77.76-107.23,77.76-107.23,36-62.65,107.32-10C1406.16,612.38,1385.58,623.67,1370,627Z"/><path class="cls-45" d="M1452.12,634.85c1.8,10.35-5.34,21.5-17.2,27.13a261.9,261.9,0,0,1-41.73,15.52c-3.55,1-6.81,1.82-9.72,2.51-7.16,1.7-13.61-2-13.87-7.9a97.17,97.17,0,0,0-1.8-13.82,146.72,146.72,0,0,0-24.43-56.39l-19.91-28.21-2.62-3.7s2.14-1.47,5.87-3.57c2.26-1.24,5.08-2.71,8.36-4.2,18.28-8.39,51-17.87,78.39,3.48C1439.68,586.12,1448.9,616.17,1452.12,634.85Z"/><path class="cls-45" d="M1342,697.56c2.69-1,5.67-3.13,8.62-5.08s5.94-4,8.57-5.62,5.7-3.55,8.76-5.37,6.2-3.68,8.22-5.62,2-3.66-1.67-3.45c-3.52.14-11.19,2.73-19.92,8.25s-14.07,11.22-15.47,14.21S1339.43,698.59,1342,697.56Z"/><path class="cls-45" d="M1415.83,672.68a24.86,24.86,0,0,0,6.13-.36c2.16-.3,4.34-.56,6.24-.76s4.1-.37,6.28-.51a24,24,0,0,0,6.06-.89c1.59-.57,2.11-1.81,0-3.06s-6.92-2.27-13.23-1.63-10.79,2.65-12.37,4.23S1414.12,672.44,1415.83,672.68Z"/><path class="cls-47" d="M1445.18,712.64a377.77,377.77,0,0,1,3.21,44.17,54.38,54.38,0,0,1-6-19.82A52.15,52.15,0,0,1,1445.18,712.64Z"/><path class="cls-39" d="M1419.11,731.77,1430,744.05s3.56-7.58-2.2-11.6C1424,729.81,1419.11,731.77,1419.11,731.77Z"/><path class="cls-48" d="M1428.12,750.33l-.41.16-5.48,2a1.31,1.31,0,0,1-1.56-.88,1.19,1.19,0,0,1,.55-1.64l5.48-1.95a5.31,5.31,0,0,0,3.2-4.13,12.6,12.6,0,0,0-.8-7.3l-.3-.74c-.79-2-2.43-3.21-3.66-2.77a6.57,6.57,0,0,1-6-1.17,13.5,13.5,0,0,1-4.56-6l-4.2-10.62a1.23,1.23,0,0,1,.56-1.63,1.3,1.3,0,0,1,1.55.89l4.21,10.61a10.06,10.06,0,0,0,3.44,4.55,4.36,4.36,0,0,0,4,.83c2.4-.85,5.44,1.18,6.78,4.53l.3.75a15.54,15.54,0,0,1,1,9.05A7.44,7.44,0,0,1,1428.12,750.33Z"/><ellipse class="cls-47" cx="1329.76" cy="768.72" rx="35.55" ry="38.8" transform="matrix(0.76, -0.65, 0.65, 0.76, -181.52, 1043.03)"/><path class="cls-48" d="M1422.58,780.53s-26.33,6.3-39.35,2.3c0,0,6.18,32.67,19.1,27.46S1422.58,780.53,1422.58,780.53Z"/><path class="cls-45" d="M1378.32,720.18c1.33,4.84-.77,9.6-4.69,10.64s-8.17-2.06-9.51-6.9.77-9.6,4.68-10.64S1377,715.33,1378.32,720.18Z"/><path class="cls-45" d="M1366,719.44a13.17,13.17,0,0,1-6.84-2.8s2.6,3.86,4.58,5.23S1366,719.44,1366,719.44Z"/><path class="cls-45" d="M1425.24,707.31c.89,4.66,4.33,8.11,7.7,7.72s5.38-4.5,4.5-9.17-4.33-8.12-7.7-7.72S1424.36,702.64,1425.24,707.31Z"/><path class="cls-45" d="M1434.25,702.58a10,10,0,0,0,4.09-4.7s-.47,4.22-1.43,6.08S1434.25,702.58,1434.25,702.58Z"/><path class="cls-49" d="M1259.29,731.78s-55.14-44.49-49-97.89C1210.24,633.89,1214.78,693,1259.29,731.78Z"/><path class="cls-49" d="M1294,698.11s-65.9-27-75.79-79.88C1218.24,618.23,1240,673.58,1294,698.11Z"/><path class="cls-50" d="M1370,627a66.73,66.73,0,0,1-11.37,1.4s-25.38-6.42-28.8,7.92,2.57,91.5-75,122.78l.06,1.71c-6.76-.07-5.79-2.58,9.92-9.44,55.9-24.39,46.29-105.65,58.36-130.88s37.22-9.07,37.22-9.07Z"/><path class="cls-51" d="M1393.82,671.63c-.14,2-.36,4-.63,5.87-3.55,1-6.81,1.82-9.72,2.51-7.16,1.7-13.61-2-13.87-7.9a97.17,97.17,0,0,0-1.8-13.82,146.72,146.72,0,0,0-24.43-56.39l-22.65-32.19c1-2.88,4.86-1.35,6-3.29,2.54-4.34,5.27-6.12,8.21-4.29l.15.09C1338.55,564.05,1399.36,597.48,1393.82,671.63Z"/><path class="cls-52" d="M1691.47,1175.64l-100-11.1L1578,1163s10.08-111,5-131.15c0,0-93.62,140.23-113.49,194.2a491.8,491.8,0,0,1-58,111,25,25,0,0,1-5.5,5.4c-6.38,4.84-16.69,9.81-29.93,14-45.58,14.3-125.58,18.82-197-25.75a234.39,234.39,0,0,1-40-31.45l-2.42-23.28-10.19-97.78-130-38.76-13.75-4.11s3.31-7,8.83-18.46c8.25-17.3,21.54-44.85,36.14-74.25l0,0c10.72-21.64,22.17-44.31,32.81-64.66,0,0,0,0,0,0l0,0c10.43-19.87,20.1-37.53,27.65-49.87a16.46,16.46,0,0,1,20.48-6.53c9.41,4,23.69,9.67,41.33,15.6,9.71,3.25,20.42,6.55,31.92,9.7,73.19,20,177.15,32.49,245.4-27.11a147.27,147.27,0,0,0,11.32-10.94c9.54-10.14,16.22-12.76,23.78-26.48h0c14.69-14.69,36.39-16.92,57.12-18,55-3,161.82-23.62,173-18,15.13,7.57,37.83,7.57,40.35,75.66S1691.47,1175.64,1691.47,1175.64Z"/><path class="cls-53" d="M1182,946.71V1170.6l-73.13-37.83,5.32-28.23S1140.85,1037,1150.09,937C1159.8,940.26,1170.51,943.56,1182,946.71Z"/><path class="cls-54" d="M1591.52,1164.54,1578,1163s10.08-111,5-131.15c0,0-93.62,140.23-113.49,194.2a491.8,491.8,0,0,1-58,111,25,25,0,0,1-5.5,5.4l-7.11-25.57,37.83-307.69-9.33-89.59-3.28-31.47c4.49,3.68,9.46,10.94,14.6,20.53,26.66,49.53,58.54,161.06,58.54,161.06,32.79,0,93.32-85.75,93.32-85.75C1598.71,994.1,1593.76,1117,1591.52,1164.54Z"/><path class="cls-43" d="M1417.12,1316.16a60.64,60.64,0,0,0-4.33,28.17l3,35.32,1.53,18,1.75,20.11-87,14-.24,0-18.16,2.91-129.2,20.84-52.76-90-29.91-51-3.09-5.29a778,778,0,0,0,30.81-92.29c38.39-143.51,33.91-275.78,32.53-302.11a4.33,4.33,0,0,1,4.51-4.54l34.9,1.72a4.34,4.34,0,0,1,4.08,4c5.39,85.05,4.15,141,4.15,141,143.75,17.65,201.77,0,201.77,0,5-32.77-18.94-149.43-18.94-149.43l32.2-12.09a2.47,2.47,0,0,1,3.54,1c32.11,67.22,50.15,225.61,38.66,271.48C1451.75,1229.05,1427.88,1290,1417.12,1316.16Z"/><path class="cls-55" d="M1220.16,1139.74l213.72-1.43s12.95,110.81-85.23,119.6C1201.44,1271.1,1220.16,1139.74,1220.16,1139.74Z"/><path class="cls-44" d="M1420.43,1251.92l-36.07,48.1-105.22,9-7.12,26.15h0a11.26,11.26,0,0,1-9,8.12l-131.28,22.3-4.44.76s-49.6,41.87-43.59,258.31c4.26,153.4,28.62,730.78,32.55,813.29l-35.17,4.39s-83.24-853.09-68.09-969.13c9.32-71.54,55.11-126.8,88.83-158.63l-3.09-5.29a778,778,0,0,0,30.81-92.29L1291.17,1264Z"/><path class="cls-39" d="M1394.09,1320.85c-6.83-2.22-12-4.42-14.6-6.45a305.66,305.66,0,0,1-28.33-25.27l-12.61-4.4-193.49,9.68,86.5-84.84,121.1,20.44s95.13-37.58,100.8-26.51c4.88,9.56-26.91,30.62-35.76,36.27-1.42.85-2.26,1.38-2.26,1.38s2.06,39.47-31.74,52.6C1383.7,1293.75,1396.06,1309.32,1394.09,1320.85Z"/><path class="cls-39" d="M1391.81,1230l86.1,9.94a68.93,68.93,0,0,1,32.49-4.37c17.71,2.12,2.27,11.05,2.27,11.05s14.79-6.5,17.71,2.12-11.83,63.6-83.21,77c-63.2,11.83-108.83-42.12-108.83-42.12Z"/><path class="cls-52" d="M1277.85,1205.91,1271.6,1256l-8.88,71s-36.12,3.26-83.61,3.71c-70.89.71-164.42-8.49-206.43-36.49-53-35.31-2.52-138.72-2.52-138.72l21.44-38.63,1.72-2.75,11-5.78,54.12-28.5C1101.31,1087.37,1277.85,1205.91,1277.85,1205.91Z"/><path class="cls-56" d="M1271.6,1256l-8.88,71s-36.12,3.26-83.61,3.71c-70.89.71-164.42-8.49-206.43-36.49-53-35.31-2.52-138.72-2.52-138.72l21.44-38.63c8.25-17.3,21.54-44.85,36.14-74.25a556.44,556.44,0,0,0-23.43,65.72c-2.87,10-5.5,20.41-7.79,31.1a396,396,0,0,0-8.7,66.51c-2.63,63,74.45,74,148.9,70C1205.27,1272.26,1271.6,1256,1271.6,1256Z"/><path class="cls-45" d="M1263,780.83s57,77,20,145.44,5.7,94.1,2.85,148.28-75.11,53.28-76,5.25-103.6-59.43-63.68-142.13,48.48-134,48.48-134S1237.34,743.76,1263,780.83Z"/><path class="cls-49" d="M1240.25,770.85A62.24,62.24,0,0,1,1258,785.07a58,58,0,0,1,11.4,19.79c.61,1.82,1.1,3.68,1.54,5.55s.73,3.78.93,5.69a61.5,61.5,0,0,1,.26,11.51,82.87,82.87,0,0,1-4.9,22.44,127,127,0,0,1-9.79,20.77c-1,1.66-2,3.28-3,4.9l-3.11,4.81-3.09,4.77-3,4.82c-8,12.88-15.31,26.23-20.44,40.41a89.84,89.84,0,0,0-5.14,21.83,58.89,58.89,0,0,0,2.18,22.12c2.14,7.18,5.47,14,8.94,20.72,1.73,3.37,3.52,6.73,5.21,10.15.86,1.7,1.66,3.44,2.48,5.17s1.59,3.48,2.34,5.24c6,14,10.29,28.94,11.43,44.21a101,101,0,0,1-.84,22.85c-1.22,7.51-3.23,15-6.92,21.68a53.58,53.58,0,0,0,4-10.63,83.23,83.23,0,0,0,2.24-11.14,99.85,99.85,0,0,0,.28-22.66c-1.4-15.08-5.83-29.75-12-43.55-3-6.92-6.68-13.56-10.22-20.31s-7-13.65-9.21-21.07a61.18,61.18,0,0,1-2.39-23c0-1,.21-1.92.31-2.89s.23-1.92.41-2.86l.51-2.86.64-2.82.33-1.41.39-1.39.77-2.78c.59-1.83,1.19-3.66,1.84-5.46,5.32-14.43,12.82-27.84,20.89-40.76,4-6.51,8.46-12.7,12.27-19.19a124.73,124.73,0,0,0,9.93-20.31,81.61,81.61,0,0,0,5.11-21.92,59.22,59.22,0,0,0-2.31-22.3,57.15,57.15,0,0,0-10.79-19.73,65.41,65.41,0,0,0-8-8.07A57.85,57.85,0,0,0,1240.25,770.85Z"/><path class="cls-49" d="M1235.92,770.85a87.32,87.32,0,0,1,5,11.19,91.13,91.13,0,0,1,3.48,11.76,70.84,70.84,0,0,1,1.47,24.46,50,50,0,0,1-8.79,22.9,58.7,58.7,0,0,1-18.42,16.33c-13.91,8.41-27.1,18.16-38.25,29.88a91.62,91.62,0,0,0-14.31,19.38,55.75,55.75,0,0,0-6.83,22.73,51.22,51.22,0,0,0,4.11,23.25A67.08,67.08,0,0,0,1169,963.3a120.26,120.26,0,0,0,7.21,9.72c5.1,6.3,10.65,12.24,16.31,18.1s11.47,11.62,17,17.73a135.36,135.36,0,0,1,15.07,19.5,65.86,65.86,0,0,1,9.12,22.91,59.19,59.19,0,0,1,.87,12.32,70.61,70.61,0,0,1-1.59,12.22,98,98,0,0,1-8.42,23,116.77,116.77,0,0,0,4.5-11.37,84.53,84.53,0,0,0,3.14-11.78,69.11,69.11,0,0,0,1.22-12.08,58.48,58.48,0,0,0-1.16-12,64.29,64.29,0,0,0-9.27-22.18,134.35,134.35,0,0,0-15.17-18.95c-11.09-11.87-23.18-23-33.63-35.7-2.6-3.19-5.12-6.44-7.42-9.91a69.94,69.94,0,0,1-6-11,55.37,55.37,0,0,1-3.64-12,50.67,50.67,0,0,1-.65-12.54,58.34,58.34,0,0,1,7.29-23.78,93.23,93.23,0,0,1,14.81-19.83,143,143,0,0,1,18.6-16.19,215.6,215.6,0,0,1,20.58-13.44,57.62,57.62,0,0,0,18.15-15.71,48.88,48.88,0,0,0,8.95-22.21,69.94,69.94,0,0,0-1-24.21A95.82,95.82,0,0,0,1235.92,770.85Z"/><path class="cls-39" d="M1263.61,751.37s-20.78-21.18-40.43-2.18-.38,57.21,26.37,67.13,36.34-18.3,36.34-18.3Z"/><path class="cls-48" d="M1255.58,797.34a3.16,3.16,0,0,0,1.67-1.75l7.09-17.76-26.4-12.55a3.25,3.25,0,0,0-4.48,1.69,3.75,3.75,0,0,0,1.9,4.71l20,9.53-4.52,11.36a3.76,3.76,0,0,0,1.91,4.72A3.35,3.35,0,0,0,1255.58,797.34Z"/><g class="cls-57"><path class="cls-58" d="M4004.56,1404.87A154.29,154.29,0,0,0,3873,1331.18a160.55,160.55,0,0,0-43.43,6.27,186.73,186.73,0,0,0-158.44-87.88c-90.91,0-166.73,65-183.52,151-2.72-.18-5.39-.5-8.18-.5a139.79,139.79,0,0,0,0,279.57H3969a139.65,139.65,0,0,0,35.53-274.75Z"/></g><path class="cls-59" d="M3988.29,1411.84a154.28,154.28,0,0,0-131.55-73.68,160.68,160.68,0,0,0-43.44,6.26,186.7,186.7,0,0,0-158.43-87.87c-90.91,0-166.73,65-183.53,151-2.71-.18-5.38-.5-8.18-.5a139.78,139.78,0,0,0,0,279.56h489.59a139.65,139.65,0,0,0,35.54-274.75Z"/><path class="cls-60" d="M3821.3,1527.9v-51.77l-46.77,4.19a110.11,110.11,0,0,0-17.9-39.87l37.63-29.6-36.6-36.6-31.24,37.38a110.14,110.14,0,0,0-39.86-15.78l5.81-48.65h-51.76l4.37,48.87a110.16,110.16,0,0,0-39.66,16.32l-30-38.15-36.6,36.61,36.78,30.73a110.29,110.29,0,0,0-17.4,40.1l-46.43-5.55v51.77l45.72-4.09a110.19,110.19,0,0,0,16.45,41.74l-35.12,27.64,36.6,36.6,28.24-33.8a110.32,110.32,0,0,0,42.2,17.64l-5.15,43.2h51.76l-3.89-43.4a110,110,0,0,0,42-18.22l27.21,34.58,36.6-36.6-34.43-28.78a110,110,0,0,0,16-41.94Zm-154.81,29.54a52.65,52.65,0,1,1,52.65-52.65A52.65,52.65,0,0,1,3666.49,1557.44Z"/><path class="cls-2" d="M3924.46,1578.27v-31.55l-28.5,2.55a67.13,67.13,0,0,0-10.91-24.29l22.93-18-22.31-22.31-19,22.79a67.06,67.06,0,0,0-24.29-9.62l3.54-29.64h-31.54l2.66,29.77a67.05,67.05,0,0,0-24.16,9.94l-18.29-23.24-22.3,22.31,22.41,18.73a67,67,0,0,0-10.6,24.43l-28.29-3.38v31.55l27.86-2.5a67,67,0,0,0,10,25.44l-21.4,16.84,22.3,22.3,17.21-20.59a67.13,67.13,0,0,0,25.72,10.74l-3.14,26.33h31.54l-2.37-26.44a67,67,0,0,0,25.58-11.11l16.57,21.07,22.31-22.3-21-17.54a67,67,0,0,0,9.72-25.56Zm-94.34,18a32.09,32.09,0,1,1,32.08-32.09A32.09,32.09,0,0,1,3830.12,1596.27Z"/><polygon class="cls-39" points="3479.16 2342.2 3486.27 2474.62 3371.98 2479.04 3356.63 2354.27 3479.16 2342.2"/><path class="cls-61" d="M3491.35,2437.16l37.94,177.3-91.16,16.91-6.21-16.66-24.85,25.8-185.11,27s-9.49-31.77,5.74-42,53.45-32.19,53.45-32.19l76.14-75.26-5.68-77.21Z"/><polygon class="cls-39" points="3088.82 2373.7 3073.47 2505.41 2960.07 2490.46 2966.02 2364.89 3088.82 2373.7"/><path class="cls-61" d="M3090.14,2437.34l2.11,213.17-92.7,1.27-3.31-17.47-28.85,21.23-187,.65s-4-32.91,12.74-40.39,58.12-22.7,58.12-22.7l87.76-66.65,7.44-85.06Z"/><path class="cls-39" d="M2556.05,972.24s-61.35-42.68-90.69,0,58.68,144,136,157.38c0,0,40-109.36-16-176S2556.05,972.24,2556.05,972.24Z"/><path class="cls-62" d="M2668.08,1161.63l-27.56,111.14s254.29,112.92,294.3,64.91l-122.7-176Z"/><path class="cls-63" d="M3225.14,1471l-25.81,208.26-95.18,768.27H2939.32c-10.92-199.87-11.1-570.36-9.93-797.27v-1.85c.75-114-3.85-169.34-3.85-169.34l20.76-.34c5.22,2.57,26,12.15,58.72,20.22,7.67-14.94,14.49-28,19.59-37.56l165.31,7.93Z"/><path class="cls-64" d="M3199.33,1679.24l-95.18,768.27H2986.23c141.61-206.37,141.61-719.76,141.61-719.76l5.71-105.51Z"/><polygon class="cls-65" points="3509.08 2447.51 3462.57 2451.05 3334.22 2460.83 3062.71 1447.46 3205.21 1429.29 3413.5 1402.74 3509.08 2447.51"/><path class="cls-62" d="M2937.93,804.74l-79.5,64a62.17,62.17,0,0,0-21.74,35l-54.14,244.69s-28.25,155.39,143.61,103.59l33-367.27Z"/><path class="cls-62" d="M3029.76,1320.34l-37.4,139.51-46.87,19.2s-15.52,56-16.11,171.2c-9.71-.32-24-1.87-37.42-7.26-23.56-9.42,44.09-805.29,44.09-805.29l43.08-65.91,49.72,23.66Z"/><path class="cls-64" d="M3509.08,2447.51l-46.51,3.54-32.45-326.92c-139.73-513.3-313.68-638.78-313.68-638.78l88.77-56.06,208.29-26.55Z"/><path class="cls-2" d="M3024.61,1461.37c-5.1,9.53-11.92,22.62-19.59,37.56-32.71-8.07-53.5-17.65-58.72-20.22l46.06-18.88Z"/><path class="cls-2" d="M3189.92,1469.3,3048.59,816.52l-19.73-21.07s-39.12,58.74-50.9,2.22l-1.09,2-22.69,42.14s14.37,367.84-9.19,636.21c0,0,.43.23,1.31.66l46.06-18.88,32.25,1.54c-5.1,9.53-11.92,22.62-19.59,37.56,44.74,11,111.79,19.19,191.89,2.68Z"/><path class="cls-62" d="M3465.6,1590.41c-81.82,43.55-156.25,61.2-205.87,68.3-38.87,5.59-62.51,4.68-62.51,4.68L3060.34,896.57l-46.88-79.08,101-88.09c103.6,30.6,197.76,75.34,197.76,75.34,14.23,28.46,36.19,126.36,59.09,243.91C3416.63,1281.15,3465.6,1590.41,3465.6,1590.41Z"/><polygon class="cls-39" points="2956.16 1289.66 3249.58 1292.33 3230.91 1201.64 3012.18 1233.65 2956.16 1289.66"/><path class="cls-66" d="M2970.89,717.63,2921,788.38a22.22,22.22,0,0,0-2.85,20.06L2935,857.3a4.22,4.22,0,0,0,7.63.77l44.79-62.75Z"/><path class="cls-39" d="M2971.26,720l6.7,77.69s9.41,98.88,112.7-61.94l-27.19-109.89Z"/><path class="cls-67" d="M3158.06,558.47s11,33.65-20.58,52.25-34.95,8.18-34.95,8.18l12.63-24.16Z"/><path class="cls-67" d="M2895,462.78s-45.32,11.44-28.51,46.44,27.28,31.68,27.28,31.68l7.71-48.5Z"/><polygon class="cls-68" points="2894.98 462.3 2882.37 543.03 2924.19 494.36 2894.98 462.3"/><path class="cls-67" d="M3120.22,490.11s44-11.08,47.66,32.36-59.39,88.82-59.39,88.82l-13.73-13Z"/><path class="cls-39" d="M2870.53,686.87c24.76,64.12,151.07,87,207.36-53.06,49.31-122.64,3.48-201.79-64.79-197.66S2904,470.31,2904,470.31s-12.18,34-22.13,74.66c-5.11,20.93-9.64,43.63-11.61,64.4C2868,633.7,2860.13,659.93,2870.53,686.87Z"/><path class="cls-39" d="M3077.11,593.61s17.83-24.41,40.67-7,8.19,60.2-18.05,74.22-40-14.43-40-14.43Z"/><path class="cls-67" d="M3094.76,598.33s10.76-70.84,1.45-69.23-191.27-9.13-186-67.51,66.78-46,66.78-46S3199.29,427,3094.76,598.33Z"/><path class="cls-67" d="M3135.15,499.38s22.89-67.19-45.51-86-54.1-13.65-82.85-47-89.51-19-98.61,17,17.15,66,17.15,66Z"/><path class="cls-67" d="M2939,417.58s-57.36-29.39-63.14,11.61c-7.75,55,78.32,76.26,78.32,76.26Z"/><path class="cls-48" d="M2917.61,629.13q.42.12.87.21l11.38,2.43a2.24,2.24,0,1,0,.93-4.38L2919.41,625a11.61,11.61,0,0,1-7.85-6.43,18.77,18.77,0,0,1-1.4-12.39l.28-1.29c.73-3.43,3.41-5.78,6-5.23a13.1,13.1,0,0,0,11.07-2.91,18.73,18.73,0,0,0,6.4-10.75l3.84-18.5a2.31,2.31,0,0,0-1.73-2.65,2.23,2.23,0,0,0-2.65,1.73L2929.5,585a14.24,14.24,0,0,1-4.83,8.19,8.73,8.73,0,0,1-7.33,2c-5-1.06-10,2.83-11.28,8.67l-.28,1.29a23.24,23.24,0,0,0,1.79,15.36A16.2,16.2,0,0,0,2917.61,629.13Z"/><path class="cls-67" d="M3023.86,567.91c-3.6-.21-7.43-2.33-11.25-4.19s-7.67-3.81-11.08-5.33-7.4-3.16-11.38-4.7-8.09-3.06-10.61-5.58-2.26-6,2.91-8.3c4.92-2.26,15.25-2.49,26.57,2.53s17.86,12.86,19.34,18C3030,565.62,3027.31,568.15,3023.86,567.91Z"/><path class="cls-67" d="M2933.54,537.3c-2.76,1.06-6.37.92-9.88.94s-7.08,0-10.16.11-6.64.34-10.16.63-7.12.65-9.89-.21-3.85-3.31-.82-6.57c2.84-3.17,10.44-6.78,20.66-7.18s17.92,2.69,20.86,5.65C2937.27,533.71,2936.19,536.31,2933.54,537.3Z"/><path class="cls-69" d="M2979.4,578.36c-1.2,6,1.69,11.73,6.45,12.67s9.6-3.2,10.8-9.25-1.69-11.73-6.45-12.68S2980.6,572.3,2979.4,578.36Z"/><path class="cls-69" d="M2902.94,564.74c-.75,6.12,2.55,11.57,7.37,12.16s9.33-3.89,10.08-10-2.54-11.58-7.36-12.17S2903.7,558.61,2902.94,564.74Z"/><circle class="cls-47" cx="3033.23" cy="613.74" r="38.71"/><path class="cls-47" d="M2870.29,609.37A38.7,38.7,0,0,0,2881.9,545C2876.79,565.9,2872.26,588.6,2870.29,609.37Z"/><path class="cls-67" d="M3081.58,522s23.53,38.42,4.48,99l27.66-67.88-12.85-57Z"/><path class="cls-48" d="M3096.9,643.57a2.65,2.65,0,0,1-1.52-1.27l-7.54-13.76,19.77-13a2.59,2.59,0,0,1,3.76.91,3.12,3.12,0,0,1-1,4l-15,9.84,4.82,8.81a3.12,3.12,0,0,1-1,4.05A2.65,2.65,0,0,1,3096.9,643.57Z"/><path class="cls-48" d="M2909.59,662.23s29.13,9.75,52.32-2.7a31.72,31.72,0,0,1-24.18,19C2915.18,682.38,2909.59,662.23,2909.59,662.23Z"/><path class="cls-70" d="M3115.4,503.8a35.85,35.85,0,0,0-.84-5.85,50.89,50.89,0,0,0-6.62-16.17,51.82,51.82,0,0,0-16.29-16.16,65.55,65.55,0,0,0-10.28-5.27c-.88-.39-1.79-.72-2.69-1s-1.81-.68-2.74-1c-1.86-.62-3.73-1.2-5.62-1.78-7.52-2.31-15.1-4.6-22.65-7-15-4.94-30.05-10.33-44.2-17.73a98.29,98.29,0,0,1-19.91-13.28,42.64,42.64,0,0,1-7.8-9.15,24.82,24.82,0,0,1-2.49-5.48,19.73,19.73,0,0,1-.87-5.89,22.08,22.08,0,0,0,4.26,10.78,42.85,42.85,0,0,0,8.13,8.29,79.78,79.78,0,0,0,9.68,6.55c3.37,2,6.83,3.8,10.36,5.48,7.08,3.35,14.34,6.36,21.72,9.06s14.81,5.28,22.32,7.68,15,4.76,22.57,7.21,15.25,5.34,21.88,10a55.54,55.54,0,0,1,9.2,7.91,51.83,51.83,0,0,1,7.06,9.81A48.78,48.78,0,0,1,3114,492,41.43,41.43,0,0,1,3115.4,503.8Z"/><path class="cls-70" d="M3108.81,501.75a44.64,44.64,0,0,0-13.95-18.95A58.54,58.54,0,0,0,3074,472.17a81.65,81.65,0,0,0-11.53-2.4c-1.94-.32-3.91-.43-5.87-.64s-3.94-.22-5.91-.27c-4,0-7.9,0-11.85.32-2,.14-3.88.32-6.06.43a41.11,41.11,0,0,1-6.29-.29A77.53,77.53,0,0,1,3003,462a106,106,0,0,1-20.56-13.12A81.17,81.17,0,0,1,2965.94,431a51.63,51.63,0,0,1-5.5-10.87,34.44,34.44,0,0,1-2.09-11.89c.78,8,4.45,15.36,9.18,21.65a72.6,72.6,0,0,0,7.85,8.86,93,93,0,0,0,9,7.7,110.22,110.22,0,0,0,20.25,12.19,75.72,75.72,0,0,0,22.32,6.86,36.57,36.57,0,0,0,5.71.31c1.82-.07,3.93-.25,5.94-.38a121,121,0,0,1,12.2-.17c2,.09,4.07.25,6.1.42s4.06.41,6.07.79a74.11,74.11,0,0,1,11.91,2.89,57.57,57.57,0,0,1,21.19,12.06,47.62,47.62,0,0,1,7.87,9.31A37.18,37.18,0,0,1,3108.81,501.75Z"/><path class="cls-70" d="M3127.83,507.25a26,26,0,0,1,8.16,5.42,21.83,21.83,0,0,1,5.47,8.49,20.62,20.62,0,0,1,.79,10.31,26.34,26.34,0,0,1-1.39,5,24.33,24.33,0,0,1-1,2.34c-.36.79-.75,1.48-1.12,2.2-1.51,2.87-3.14,5.68-4.82,8.44s-3.43,5.47-5.2,8.12a50.16,50.16,0,0,0-4.58,8.17,15.87,15.87,0,0,0-.83,9.19,14.66,14.66,0,0,1-1-9.75,40.4,40.4,0,0,1,3.8-9.14c3.06-5.7,6.23-11.21,9.2-16.84.37-.7.77-1.41,1.08-2.09l.5-1,.43-1a26.2,26.2,0,0,0,1.35-4.25,20.2,20.2,0,0,0,.48-4.38,19.6,19.6,0,0,0-.56-4.37,22.38,22.38,0,0,0-4-8.11A34.37,34.37,0,0,0,3127.83,507.25Z"/><circle class="cls-71" cx="2991.99" cy="587.59" r="36.88"/><ellipse class="cls-72" cx="2902.91" cy="560.71" rx="35.57" ry="27.25" transform="translate(1643.38 3235.57) rotate(-75.72)"/><path class="cls-71" d="M2954.79,579.19s-16.95-17-27.63-5.33"/><path class="cls-66" d="M3018.19,824.53a15.13,15.13,0,0,1-3.53-19l64.05-115.09a4.23,4.23,0,0,1,7.23-.87L3113,725.11a5.13,5.13,0,0,1,.91,4.3L3081.11,867.3a5.14,5.14,0,0,1-8.29,2.76Z"/><path class="cls-66" d="M2945,1478.05s.43.23,1.31.66l-.79.34s-15.37,55.38-16.12,169.34c-.77,1.54-1.17,2.36-1.17,2.36-22.81-105.51,7.82-813,7.82-813l40.66-39.61s.06.54.17,1.6l-22.69,42.14S2968.55,1209.68,2945,1478.05Z"/><path class="cls-39" d="M2778.82,1263.74s46.63,53.06,126.26,55.21,109.76-56,109.76-56Z"/><polygon class="cls-30" points="3146.3 1214.98 3146.27 1215.56 3086.86 1233.65 3041.52 1214.98 3146.3 1214.98"/><path class="cls-30" d="M3086.86,1233.44H2601.94l-54.42-177.26-28.14-91.74a8.4,8.4,0,0,1,8-10.87H3017.6L3067,1153.22l.77,3.16Z"/><rect class="cls-73" x="2601.94" y="1233.44" width="484.93" height="30.48"/><polygon class="cls-74" points="3146.3 1214.92 3146.3 1214.98 3146.27 1215.56 3145.55 1241.65 3086.86 1262.99 3086.86 1233.65 3146.14 1214.98 3146.3 1214.92"/><polygon class="cls-73" points="3017.51 953.57 3029.75 953.57 3098.56 1229.93 3086.86 1233.65 3017.51 953.57"/><path class="cls-75" d="M2835.55,1233.64h-91.66l-.23-.2L2546.1,1051.9l-26.72-87.46a8.4,8.4,0,0,1,8-10.87h29.32l278.61,279.87Z"/><polygon class="cls-75" points="2592.2 953.57 2862.32 1233.65 2937.26 1233.65 2673.95 953.57 2592.2 953.57"/><polygon class="cls-75" points="3073.95 1181.45 2849.66 953.57 2872.62 953.57 3067.02 1153.22 3067.79 1156.38 3073.95 1181.45"/><path class="cls-66" d="M3259.73,1658.71c167.85-222.86,76.23-584.17,73.43-592.55l38.19-17.51c45.28,232.5,94.25,541.76,94.25,541.76C3383.78,1634,3309.35,1651.61,3259.73,1658.71Z"/><path class="cls-62" d="M3203.56,1344.42a22,22,0,0,1-27.78-13.54l-10-28.49-30.85-87.4,135.74-82.84a34.81,34.81,0,0,0,15.71-37.85l-49.73-207.17,73-82.39s2.37,1.09,6.53,3.4c26.83,14.94,128,81,146.83,236.12C3495,1308.44,3274.48,1320,3203.56,1344.42Z"/><path class="cls-66" d="M3203.56,1344.42a22,22,0,0,1-27.78-13.54l-10-28.49c32.77-3.16,194.46-27,255.83-190.61,61-162.74-75.23-280.15-105.43-303.64,26.83,14.94,128,81,146.83,236.12C3495,1308.44,3274.48,1320,3203.56,1344.42Z"/><path class="cls-66" d="M3279.64,1066.4s-68.45-135.66,1.09-229.07C3280.73,837.33,3234.67,952.58,3279.64,1066.4Z"/><rect class="cls-76" x="692" y="1806" width="271.77" height="193.8" rx="27.14"/><text class="cls-77" transform="translate(745.09 1940.47)">&lt;/&gt;</text><g class="cls-78"><path class="cls-79" d="M2652.61,727.79a71.38,71.38,0,0,0-60.84-34.07,74.43,74.43,0,0,0-20.08,2.89,86.44,86.44,0,0,0-158.14,29.18c-1.25-.08-2.49-.23-3.78-.23a64.65,64.65,0,0,0,0,129.29h226.41a64.58,64.58,0,0,0,16.43-127.06Z"/></g><path class="cls-80" d="M2659.37,722.72a71.33,71.33,0,0,0-60.83-34.08,74.12,74.12,0,0,0-20.09,2.9,86.44,86.44,0,0,0-158.14,29.18c-1.25-.08-2.49-.23-3.78-.23a64.64,64.64,0,0,0,0,129.28h226.41a64.58,64.58,0,0,0,16.43-127Z"/><path class="cls-81" d="M2484.59,748a5.47,5.47,0,0,1,1.53,4.06v40.73a5.59,5.59,0,0,1-1.53,4.1,6.08,6.08,0,0,1-8.09,0,5.69,5.69,0,0,1-1.49-4.14V776.57h-23.59v16.26a5.59,5.59,0,0,1-1.53,4.1,5.34,5.34,0,0,1-4,1.56,5.48,5.48,0,0,1-4.07-1.52,5.63,5.63,0,0,1-1.52-4.14V752.1a5.25,5.25,0,0,1,5.59-5.59,5.38,5.38,0,0,1,4,1.53,5.56,5.56,0,0,1,1.49,4.06v15.47H2475V752.1a5.56,5.56,0,0,1,1.49-4.06,5.37,5.37,0,0,1,4-1.53A5.47,5.47,0,0,1,2484.59,748Z"/><path class="cls-81" d="M2509.68,796.9a5.43,5.43,0,0,1-1.56-4.07V756.09h-11.76c-3.59,0-5.38-1.54-5.38-4.64s1.79-4.58,5.38-4.58h34.85q5.37,0,5.37,4.58c0,3.1-1.79,4.64-5.37,4.64h-11.77v36.74a5.48,5.48,0,0,1-1.52,4.07,6.34,6.34,0,0,1-8.24,0Z"/><path class="cls-81" d="M2590.77,748.07a5.58,5.58,0,0,1,1.49,4v41.24a5.07,5.07,0,0,1-1.38,3.77,4.91,4.91,0,0,1-3.63,1.38,4.8,4.8,0,0,1-3.55-1.38,5.07,5.07,0,0,1-1.38-3.77V767.71L2572,787.1a8,8,0,0,1-2.22,2.75,4.67,4.67,0,0,1-2.86.88,4.76,4.76,0,0,1-2.84-.88,7.84,7.84,0,0,1-2.25-2.75l-10.31-19v25.27a5.14,5.14,0,0,1-1.38,3.74,4.85,4.85,0,0,1-3.63,1.41,4.8,4.8,0,0,1-3.55-1.38,5.07,5.07,0,0,1-1.38-3.77V752.1a5.58,5.58,0,0,1,1.49-4,5.11,5.11,0,0,1,3.88-1.56c2.32,0,4.09,1.24,5.3,3.7l14.74,28,14.66-28c1.31-2.46,3.05-3.7,5.23-3.7A5.11,5.11,0,0,1,2590.77,748.07Z"/><path class="cls-81" d="M2604,796.68a5.31,5.31,0,0,1-1.38-3.92V752.1a5.47,5.47,0,0,1,1.53-4.06,6.37,6.37,0,0,1,8.28,0,5.5,5.5,0,0,1,1.52,4.06v36.74h18.59q5.3,0,5.3,4.64t-5.3,4.58h-24.62A5.31,5.31,0,0,1,2604,796.68Z"/></g></g></svg>