<svg xmlns="http://www.w3.org/2000/svg" xmlns:xlink="http://www.w3.org/1999/xlink" viewBox="0 0 4680 3120"><defs><style>.cls-1{isolation:isolate;}.cls-2{fill:#fff;}.cls-3{fill:url(#linear-gradient);}.cls-4{fill:url(#linear-gradient-2);}.cls-5{fill:url(#linear-gradient-3);}.cls-6{fill:url(#linear-gradient-4);}.cls-10,.cls-11,.cls-55,.cls-68,.cls-69,.cls-7,.cls-8,.cls-9{fill-rule:evenodd;}.cls-7{fill:url(#linear-gradient-5);}.cls-8{fill:#0e2d34;}.cls-9{fill:url(#linear-gradient-6);}.cls-10{fill:#5f9850;}.cls-11{fill:url(#linear-gradient-7);}.cls-12{fill:#3030b5;}.cls-13{fill:#0e5b9b;}.cls-14{fill:#1869c9;}.cls-15{fill:#2d71d3;}.cls-16{fill:#b6d4ff;}.cls-17{fill:#1a6be2;}.cls-18{fill:#ff5d98;}.cls-19{fill:#2d1f7c;}.cls-20{fill:#2064d1;}.cls-21{fill:#62d3bd;}.cls-22{fill:#ff7bad;}.cls-23{fill:#443096;}.cls-24{fill:#5193f4;}.cls-25{fill:#dcecff;}.cls-26{fill:#4d388a;}.cls-27{fill:#f7622a;}.cls-28{fill:#22a851;}.cls-29{fill:#fcd740;}.cls-30{fill:#4a9cff;}.cls-31{fill:#3fc9ee;}.cls-32{fill:#4a4ac6;}.cls-33{fill:#0cf;}.cls-34{fill:#ff56a9;}.cls-35{fill:#e3eaff;}.cls-36{fill:#ffc359;}.cls-37{fill:#c9c9c9;opacity:0.55;}.cls-37,.cls-44,.cls-75,.cls-77{mix-blend-mode:multiply;}.cls-38{fill:#4a22c6;}.cls-39{fill:#ffb0d0;}.cls-40{fill:#09089f;}.cls-41{fill:#5240a0;}.cls-42{fill:#4c7bed;}.cls-43{fill:#336bdd;}.cls-44{fill:#c4c4c4;opacity:0.73;}.cls-45{fill:#5b4ced;}.cls-46{fill:#2f36ad;}.cls-47{font-size:95.07px;fill:#e7f2f2;font-family:Nunito-Bold, Nunito;font-weight:700;}.cls-48{fill:#ff6b6e;}.cls-49{fill:#ffc54f;}.cls-50{fill:#c1cc8c;}.cls-51{fill:#8dc1ff;opacity:0.62;}.cls-52{fill:#ffba94;}.cls-53{fill:#f24959;}.cls-54{fill:#e3e9ea;}.cls-55{fill:#1b2a6b;}.cls-56,.cls-61,.cls-69,.cls-75,.cls-77{opacity:0.6;}.cls-56{fill:url(#linear-gradient-8);}.cls-57{fill:#253984;}.cls-58{fill:#5a1103;}.cls-59,.cls-67{fill:none;stroke:#1b2a6b;stroke-miterlimit:10;}.cls-59{stroke-width:2.98px;}.cls-60{fill:#fca286;}.cls-61{fill:url(#linear-gradient-9);}.cls-62{fill:#ea426e;}.cls-63{fill:#4638a8;}.cls-64{fill:#6553bc;}.cls-65{fill:#ababff;}.cls-66{fill:#f94b70;}.cls-67{stroke-width:2.49px;}.cls-68{fill:#21367f;}.cls-69{fill:url(#linear-gradient-10);}.cls-70{fill:#f29a30;}.cls-71{fill:#fabf44;}.cls-72{fill:#f4ad2f;}.cls-73{fill:#ffd07d;}.cls-74{fill:#352d29;}.cls-75{fill:url(#linear-gradient-11);}.cls-76{fill:#443a36;}.cls-77{fill:url(#linear-gradient-12);}</style><linearGradient id="linear-gradient" x1="2135.22" y1="479.75" x2="2254.65" y2="2504.86" gradientUnits="userSpaceOnUse"><stop offset="0" stop-color="#fff"/><stop offset="1" stop-color="#87c5f5"/></linearGradient><linearGradient id="linear-gradient-2" x1="2191.88" y1="2360.09" x2="2191.88" y2="2039.39" gradientTransform="matrix(0.89, 0, 0, 0.76, 463.14, 994.82)" gradientUnits="userSpaceOnUse"><stop offset="0" stop-color="#fff"/><stop offset="1" stop-color="#94a3f5"/></linearGradient><linearGradient id="linear-gradient-3" x1="1308.63" y1="2125.37" x2="1838.2" y2="2896.27" gradientUnits="userSpaceOnUse"><stop offset="0" stop-color="#00b488"/><stop offset="0.92" stop-color="#007bc0"/></linearGradient><linearGradient id="linear-gradient-4" x1="3746.73" y1="1886.23" x2="2891.8" y2="3158.69" xlink:href="#linear-gradient-3"/><linearGradient id="linear-gradient-5" x1="2783.19" y1="2096.23" x2="3921.91" y2="2096.23" gradientTransform="translate(813.34 -393.53) rotate(8.95)" xlink:href="#linear-gradient-3"/><linearGradient id="linear-gradient-6" x1="3091.08" y1="1873.26" x2="3989.8" y2="1873.26" gradientUnits="userSpaceOnUse"><stop offset="0" stop-color="#8ccc6d"/><stop offset="0.19" stop-color="#81c768"/><stop offset="0.54" stop-color="#62b85b"/><stop offset="0.92" stop-color="#39a54a"/></linearGradient><linearGradient id="linear-gradient-7" x1="4114.8" y1="1925.66" x2="4876.26" y2="1925.66" gradientTransform="matrix(-1, 0, 0, 1, 5408.9, 0)" xlink:href="#linear-gradient-6"/><linearGradient id="linear-gradient-8" x1="3689.29" y1="2500.32" x2="3505.36" y2="2028.51" gradientUnits="userSpaceOnUse"><stop offset="0" stop-color="#172652" stop-opacity="0.6"/><stop offset="1" stop-color="#17263f"/></linearGradient><linearGradient id="linear-gradient-9" x1="3498.93" y1="2500.56" x2="3330.29" y2="2067.96" xlink:href="#linear-gradient-8"/><linearGradient id="linear-gradient-10" x1="1209.84" y1="2269.52" x2="1691.85" y2="2269.52" xlink:href="#linear-gradient-8"/><linearGradient id="linear-gradient-11" x1="4028.85" y1="486.54" x2="4015.62" y2="564.02" gradientTransform="translate(-2108.08 2938.95) rotate(-29)" gradientUnits="userSpaceOnUse"><stop offset="0" stop-color="#fff" stop-opacity="0.5"/><stop offset="1"/></linearGradient><linearGradient id="linear-gradient-12" x1="4633.21" y1="696.35" x2="4620.53" y2="770.61" gradientTransform="matrix(0.73, -0.69, 0.69, 0.73, -2170.96, 4063.04)" xlink:href="#linear-gradient-11"/></defs><title>05</title><g class="cls-1"><g id="_05" data-name="05"><rect class="cls-2" width="4680" height="3120"/><path class="cls-3" d="M3650.77,1191.62c-139.06-229.06-387.67-382.14-672.23-382.14-77,0-151.13,12.35-221.94,32.48C2587.79,568.72,2288.9,386.24,1947,386.24c-464.53,0-852,336.9-937.8,783-13.88-.94-27.51-2.6-41.8-2.6-394.37,0-714.23,324.8-714.23,724.72,0,400.41,319.86,725.11,714.23,725.11h2501.8c394.68,0,714.59-324.7,714.59-725.11C4183.78,1555,3957.68,1272.74,3650.77,1191.62Z"/><polygon class="cls-4" points="562.6 2616.67 369.8 2815.53 4438.48 2817.29 4178.4 2618.24 562.6 2616.67"/><path class="cls-5" d="M2472.22,2432.86s-289.09-482.54-667.13-275.22c0,0-98.2-250.83-400.27-177.8-268.36,64.89-436,235.14-436,235.14s-298.56-189-407.58,72.07C466.75,2513.21,860,2614.79,860,2614.79H2472.22Z"/><path class="cls-6" d="M2678.48,2231.13c101.08-119.29,254.76-227.08,431.73-101.93,0,0,148.89-368.48,335-191.88s148.89,368.56,148.89,368.56,344.56-396.59,567.64-130c273.64,327-260.56,446.69-260.56,446.69H2551.88C2551.88,2470.27,2598.23,2325.84,2678.48,2231.13Z"/><path class="cls-7" d="M4164.3,2312.38c-40.57,28.25-101.35,64.54-175.66,106.86a0,0,0,0,0,0,0c-56.52,32.16-120.77,67.69-189.79,105.83-63.33,34.94-130.65,72-199.63,110.46l-269.89-42.5-8.85,8.06-8-10.71L3182,2569.87l-5.93-75.46q17.72-19.34,35.8-38.44v0c2.07-2.12,4-4.14,6-6.27,4.42-4.68,8.83-9.29,13.25-13.94q3.95-4.11,7.88-8.21v-.08c6.64-6.91,13.27-13.73,19.9-20.56.88-.86,1.72-1.72,2.56-2.62v0q22.14-22.62,44.49-44.95c103.6-103.37,211.44-200.69,317.62-284.64,0,0,0-.07.1-.11q21.51-17,42.94-33.3s.1-.06.06-.11c93.54-71,184.95-130.83,270.37-174.51,37.86-19.39,73.88-34.81,108-46.59,2-.68,3.94-1.37,5.91-2C4441.74,1686.22,4563.35,2033.89,4164.3,2312.38Z"/><path class="cls-8" d="M4260.74,1970.62c-1.31.71-187.91,90.47-427.21,243.69-3.19,2.07-6.37,4.14-9.59,6.2-84.18,54.15-174.54,116-265.49,184.55q-44,33.17-88,68.34-45,36-89.39,74.17-19.83,17-39.4,34.48c-.53.45-1.07.95-1.59,1.4-3.61,3.2-7.22,6.37-10.8,9.61l-8.85,8.06-8-10.71-8.69-1.37c1.46-1.39,3-2.76,4.5-4.14l.05,0q10.36-9.43,20.85-18.8l.05,0c.57-.49,1.11-1,1.64-1.48,10.59-9.4,21.3-18.73,32-27.95,3.51-3.05,7.09-6.09,10.6-9.14l.09-.07q34.76-29.7,70-58.26,39.75-32.2,79.7-62.84c112.84-86.47,225.53-162.85,327.43-227.21,3.08-2,6.17-3.92,9.25-5.84,223-140.13,391.89-221.45,393.19-222a9.58,9.58,0,0,1,13.27,5.16A11.39,11.39,0,0,1,4260.74,1970.62Z"/><path class="cls-9" d="M3967.64,1624.06q-7.12,34.26-16.23,69.91c-30.35,118.84-76.42,248-133.58,380.67-6.34,14.81-12.9,29.72-19.56,44.66-30.57,68.54-64,137.78-99.49,206.82q-16,31.13-32.58,62.16-11.62,21.76-23.49,43.41c-8.4,15.41-32,64.94-60.93,126.26-2.17,4.57-4.35,9.22-6.57,13.91-5.46,11.63-11.1,23.59-16.82,35.79-7.31,15.48-14.74,31.34-22.22,47.22h-440c-1.76-5-3.45-10.14-5.1-15.23,6.44-25.78,13.52-53.11,21.15-81.69,99.64-374.26,290.78-963.74,339.12-1102.69C3649.37,885.76,4093.74,1018,3967.64,1624.06Z"/><path class="cls-10" d="M3794.14,1274c-.32,1.67-90.16,340.56-223.72,738.55-47.27,140.84-100,289.06-156.2,432.36q-11,28-22.09,55.62-5.6,13.88-11.21,27.66-6.08,15-12.21,29.73c-.62,1.46-1.21,2.9-1.81,4.34-1.32,3.21-2.66,6.39-4,9.57q-17.55,42.09-35.44,83H3303q17.89-40.82,35.57-83c1.94-4.59,3.85-9.22,5.79-13.86a.08.08,0,0,1,0-.05q9.61-23.19,19.14-46.68,12-29.45,23.73-59.27c51.67-131,100.58-266.69,145.12-397.44,142-417,239.48-783.66,239.8-785.4,1.24-6.51,7.13-10.71,13.2-9.37S3795.36,1267.5,3794.14,1274Z"/><path class="cls-11" d="M551.42,1714.52q6,29,13.75,59.23c25.71,100.69,64.75,210.15,113.18,322.53,5.37,12.55,10.93,25.18,16.57,37.84,25.9,58.08,54.2,116.74,84.3,175.24q13.54,26.37,27.6,52.66,9.85,18.45,19.9,36.79c7.12,13.05,27.12,55,51.63,107,1.83,3.87,3.69,7.81,5.56,11.79,4.63,9.85,9.41,20,14.26,30.32,6.19,13.12,12.48,26.55,18.82,40h372.8q2.24-6.42,4.31-12.91c-5.45-21.83-11.45-45-17.92-69.21-84.41-317.1-246.36-816.55-287.32-934.28C821.08,1089,444.58,1201,551.42,1714.52Z"/><path class="cls-10" d="M698.42,1418c.27,1.41,76.39,288.54,189.55,625.75C928,2163,972.73,2288.62,1020.32,2410q9.28,23.68,18.72,47.13,4.74,11.74,9.5,23.43,5.14,12.67,10.33,25.19c.53,1.24,1,2.46,1.54,3.68,1.12,2.72,2.25,5.41,3.37,8.11q14.88,35.66,30,70.33h20.74q-15.16-34.59-30.13-70.33c-1.65-3.9-3.27-7.81-4.91-11.75a.06.06,0,0,0,0,0q-8.15-19.65-16.22-39.55-10.12-24.95-20.1-50.22c-43.78-111-85.22-226-123-336.74-120.34-353.34-202.9-664-203.18-665.45-1-5.52-6-9.07-11.18-7.94S697.39,1412.41,698.42,1418Z"/><path class="cls-12" d="M4289.08,2606.41a48.62,48.62,0,0,1-48.46,48.46H515.21a48.46,48.46,0,0,1,0-96.92H4240.62A48.58,48.58,0,0,1,4289.08,2606.41Z"/><rect class="cls-13" x="1873.85" y="2095.26" width="691.79" height="378.18"/><rect class="cls-14" x="1985.29" y="2101.5" width="691.79" height="371.95"/><rect class="cls-13" x="786.18" y="492.69" width="2827.88" height="1786.92" rx="142.22"/><rect class="cls-15" x="883.73" y="492.69" width="2827.88" height="1786.92" rx="142.22"/><rect class="cls-16" x="962.86" y="552.34" width="2670.49" height="1662.64" rx="88.4"/><path class="cls-13" d="M3056.39,2513.21a44.9,44.9,0,0,1-44.73,44.74H1570.2a44.74,44.74,0,0,1,0-89.47H3011.66A44.86,44.86,0,0,1,3056.39,2513.21Z"/><path class="cls-17" d="M3056.39,2513.21a44.9,44.9,0,0,1-44.73,44.74H1749.14a44.74,44.74,0,0,1,0-89.47H3011.66A44.86,44.86,0,0,1,3056.39,2513.21Z"/><path class="cls-18" d="M1307.27,1130.91a174.24,174.24,0,0,0,0-26.58s-7.74-6.86-7.74-15.53a118.43,118.43,0,0,1,94.84-116v-219c-174.5,12.09-312.31,157.46-312.31,335a334.5,334.5,0,0,0,36,151.36Z"/><path class="cls-19" d="M1441.49,972.75a118.32,118.32,0,0,1,67.18,40L1698,903.44c1.8-7.14,0-26.58,0-26.58s-169.34-117.05-256.54-123.09Z"/><path class="cls-20" d="M1529.08,1059.8c3.34,11,7.25,17,7.25,29a118.37,118.37,0,0,1-203.82,81.94L1142.21,1254v26.58c60.69,87.07,161.54,144.06,275.72,144.06,185.49,0,335.86-150.38,335.86-335.87a334.53,334.53,0,0,0-32.53-144.36l-190.09,83.16Z"/><path class="cls-21" d="M1307.27,1104.33a118.42,118.42,0,0,1,87.1-158.16v-219c-174.5,12.09-312.31,157.46-312.31,335a334.5,334.5,0,0,0,36,151.36Z"/><path class="cls-21" d="M1441.49,946.17a118.32,118.32,0,0,1,67.18,40L1698,876.86a335.63,335.63,0,0,0-256.54-149.67Z"/><path class="cls-21" d="M1531.17,1027.6a118.38,118.38,0,0,1-198.66,116.56L1142.21,1254c60.69,87.07,161.54,144,275.72,144,185.49,0,335.86-150.37,335.86-335.86a334.53,334.53,0,0,0-32.53-144.36Z"/><path class="cls-22" d="M1307.27,1104.33a118.42,118.42,0,0,1,87.1-158.16v-219c-174.5,12.09-312.31,157.46-312.31,335a334.5,334.5,0,0,0,36,151.36Z"/><path class="cls-23" d="M1441.49,946.17a118.32,118.32,0,0,1,67.18,40L1698,876.86a335.63,335.63,0,0,0-256.54-149.67Z"/><path class="cls-24" d="M1531.17,1027.6a118.38,118.38,0,0,1-198.66,116.56L1142.21,1254c60.69,87.07,161.54,144,275.72,144,185.49,0,335.86-150.37,335.86-335.86a334.53,334.53,0,0,0-32.53-144.36Z"/><rect class="cls-25" x="2701" y="1034.48" width="857.16" height="450.06" rx="16.23"/><path class="cls-26" d="M2713.37,1029.51h832.42a12.37,12.37,0,0,1,12.37,12.37v56.95a0,0,0,0,1,0,0H2701a0,0,0,0,1,0,0v-56.95A12.37,12.37,0,0,1,2713.37,1029.51Z"/><path class="cls-27" d="M3440.74,1064.17a9.9,9.9,0,1,0-9.89,9.89A9.89,9.89,0,0,0,3440.74,1064.17Z"/><path class="cls-28" d="M3478.22,1064.17a9.9,9.9,0,1,0-9.9,9.89A9.9,9.9,0,0,0,3478.22,1064.17Z"/><path class="cls-29" d="M3515.69,1064.17a9.9,9.9,0,1,0-9.89,9.89A9.89,9.89,0,0,0,3515.69,1064.17Z"/><rect class="cls-27" x="2754.92" y="1146.61" width="47.61" height="17.43"/><rect class="cls-29" x="2828.84" y="1146.61" width="85.91" height="17.43"/><rect class="cls-30" x="2787.63" y="1183.65" width="178.43" height="17.43"/><rect class="cls-31" x="2992.36" y="1183.65" width="47.61" height="17.43"/><rect class="cls-30" x="2787.63" y="1220.69" width="178.43" height="17.43"/><rect class="cls-31" x="2992.36" y="1220.69" width="47.61" height="17.43"/><rect class="cls-30" x="2787.63" y="1257.73" width="178.43" height="17.43"/><rect class="cls-31" x="2992.36" y="1257.73" width="47.61" height="17.43"/><rect class="cls-27" x="2754.92" y="1294.77" width="47.61" height="17.43"/><rect class="cls-29" x="2828.84" y="1294.77" width="85.91" height="17.43"/><rect class="cls-31" x="2787.63" y="1331.81" width="89.21" height="17.43"/><rect class="cls-30" x="2903.15" y="1331.81" width="136.83" height="17.43"/><rect class="cls-31" x="2787.63" y="1368.85" width="89.21" height="17.43"/><rect class="cls-30" x="2903.15" y="1368.85" width="136.83" height="17.43"/><rect class="cls-31" x="2787.63" y="1405.89" width="89.21" height="17.43"/><rect class="cls-30" x="2903.15" y="1405.89" width="136.83" height="17.43"/><rect class="cls-25" x="1898.26" y="2008.7" width="685.93" height="121.78" rx="32.43"/><rect class="cls-32" x="1897.37" y="1052.38" width="686.82" height="888.22" rx="25.3"/><path class="cls-33" d="M2050.82,1171.44h-45.76c-2.44,0-4.41-4-4.41-8.85h0c0-4.89,2-8.85,4.41-8.85h45.76c2.43,0,4.4,4,4.4,8.85h0C2055.22,1167.48,2053.25,1171.44,2050.82,1171.44Z"/><path class="cls-33" d="M2334.13,1171.44H2072.36c-2.43,0-4.41-4-4.41-8.85h0c0-4.89,2-8.85,4.41-8.85h261.77c2.43,0,4.4,4,4.4,8.85h0C2338.53,1167.48,2336.56,1171.44,2334.13,1171.44Z"/><path class="cls-34" d="M2155.86,1208h-83.5c-2.43,0-4.41-4-4.41-8.85h0c0-4.89,2-8.85,4.41-8.85h83.5c2.44,0,4.41,4,4.41,8.85h0C2160.27,1204.05,2158.3,1208,2155.86,1208Z"/><path class="cls-35" d="M2293.2,1208H2172.86c-2.43,0-4.4-4-4.4-8.85h0c0-4.89,2-8.85,4.4-8.85H2293.2c2.43,0,4.41,4,4.41,8.85h0C2297.61,1204.05,2295.63,1208,2293.2,1208Z"/><path class="cls-35" d="M2334.13,1386.08H2072.36c-2.43,0-4.41-4-4.41-8.85h0c0-4.89,2-8.85,4.41-8.85h261.77c2.43,0,4.4,4,4.4,8.85h0C2338.53,1382.12,2336.56,1386.08,2334.13,1386.08Z"/><path class="cls-33" d="M2050.82,1422.65h-45.76c-2.44,0-4.41-4-4.41-8.85h0c0-4.88,2-8.85,4.41-8.85h45.76c2.43,0,4.4,4,4.4,8.85h0C2055.22,1418.69,2053.25,1422.65,2050.82,1422.65Z"/><path class="cls-35" d="M2155.86,1422.65h-83.5c-2.43,0-4.41-4-4.41-8.85h0c0-4.88,2-8.85,4.41-8.85h83.5c2.44,0,4.41,4,4.41,8.85h0C2160.27,1418.69,2158.3,1422.65,2155.86,1422.65Z"/><path class="cls-34" d="M2293.2,1422.65H2172.86c-2.43,0-4.4-4-4.4-8.85h0c0-4.88,2-8.85,4.4-8.85H2293.2c2.43,0,4.41,4,4.41,8.85h0C2297.61,1418.69,2295.63,1422.65,2293.2,1422.65Z"/><path class="cls-34" d="M2399,1244.58H2072.36c-2.43,0-4.41-4-4.41-8.85h0c0-4.88,2-8.85,4.41-8.85H2399c2.44,0,4.41,4,4.41,8.85h0C2403.45,1240.62,2401.48,1244.58,2399,1244.58Z"/><rect class="cls-33" x="2249.86" y="1263.46" width="85.38" height="17.7" rx="0.69"/><path class="cls-35" d="M2180.88,1281.15H2072.36c-2.43,0-4.41-4-4.41-8.84h0c0-4.89,2-8.85,4.41-8.85h108.52c2.43,0,4.4,4,4.4,8.85h0C2185.28,1277.19,2183.31,1281.15,2180.88,1281.15Z"/><path class="cls-33" d="M2238.63,1281.15h-43c-2.44,0-4.41-4-4.41-8.84h0c0-4.89,2-8.85,4.41-8.85h43c2.43,0,4.41,4,4.41,8.85h0C2243,1277.19,2241.06,1281.15,2238.63,1281.15Z"/><path class="cls-35" d="M2050.82,1316.51h-45.76c-2.44,0-4.41-4-4.41-8.85h0c0-4.89,2-8.85,4.41-8.85h45.76c2.43,0,4.4,4,4.4,8.85h0C2055.22,1312.55,2053.25,1316.51,2050.82,1316.51Z"/><path class="cls-35" d="M2399,1316.51H2072.36c-2.43,0-4.41-4-4.41-8.85h0c0-4.89,2-8.85,4.41-8.85H2399c2.44,0,4.41,4,4.41,8.85h0C2403.45,1312.55,2401.48,1316.51,2399,1316.51Z"/><path class="cls-35" d="M2050.82,1456.52h-45.76c-2.44,0-4.41-4-4.41-8.84h0c0-4.89,2-8.85,4.41-8.85h45.76c2.43,0,4.4,4,4.4,8.85h0C2055.22,1452.56,2053.25,1456.52,2050.82,1456.52Z"/><rect class="cls-35" x="2249.86" y="1438.83" width="118.12" height="17.7" rx="0.81"/><path class="cls-35" d="M2180.88,1456.52H2072.36c-2.43,0-4.41-4-4.41-8.84h0c0-4.89,2-8.85,4.41-8.85h108.52c2.43,0,4.4,4,4.4,8.85h0C2185.28,1452.56,2183.31,1456.52,2180.88,1456.52Z"/><path class="cls-35" d="M2238.63,1456.52h-43c-2.44,0-4.41-4-4.41-8.84h0c0-4.89,2-8.85,4.41-8.85h43c2.43,0,4.41,4,4.41,8.85h0C2243,1452.56,2241.06,1456.52,2238.63,1456.52Z"/><path class="cls-36" d="M2050.82,1491.88h-45.76c-2.44,0-4.41-4-4.41-8.85h0c0-4.89,2-8.85,4.41-8.85h45.76c2.43,0,4.4,4,4.4,8.85h0C2055.22,1487.92,2053.25,1491.88,2050.82,1491.88Z"/><path class="cls-33" d="M2128.92,1491.88h-56.56c-2.43,0-4.41-4-4.41-8.85h0c0-4.89,2-8.85,4.41-8.85h56.56c2.43,0,4.41,4,4.41,8.85h0C2133.33,1487.92,2131.35,1491.88,2128.92,1491.88Z"/><path class="cls-33" d="M2005.06,1353.08c-2.44,0-4.41-4-4.41-8.84h0c0-4.89,2-8.85,4.41-8.85h45.76c2.43,0,4.4,4,4.4,8.85h0c0,4.88-2,8.84-4.4,8.84"/><rect class="cls-35" x="2249.86" y="1335.39" width="133.47" height="17.7" rx="0.87"/><path class="cls-36" d="M2180.88,1353.08H2072.36c-2.43,0-4.41-4-4.41-8.84h0c0-4.89,2-8.85,4.41-8.85h108.52c2.43,0,4.4,4,4.4,8.85h0C2185.28,1349.12,2183.31,1353.08,2180.88,1353.08Z"/><path class="cls-36" d="M2238.63,1353.08h-43c-2.44,0-4.41-4-4.41-8.84h0c0-4.89,2-8.85,4.41-8.85h43c2.43,0,4.41,4,4.41,8.85h0C2243,1349.12,2241.06,1353.08,2238.63,1353.08Z"/><path class="cls-35" d="M2334.13,1529.48H2072.36c-2.43,0-4.41-4-4.41-8.85h0c0-4.89,2-8.85,4.41-8.85h261.77c2.43,0,4.4,4,4.4,8.85h0C2338.53,1525.52,2336.56,1529.48,2334.13,1529.48Z"/><path class="cls-35" d="M2155.86,1566.05h-83.5c-2.43,0-4.41-4-4.41-8.85h0c0-4.88,2-8.84,4.41-8.84h83.5c2.44,0,4.41,4,4.41,8.84h0C2160.27,1562.09,2158.3,1566.05,2155.86,1566.05Z"/><path class="cls-35" d="M2293.2,1566.05H2172.86c-2.43,0-4.4-4-4.4-8.85h0c0-4.88,2-8.84,4.4-8.84H2293.2c2.43,0,4.41,4,4.41,8.84h0C2297.61,1562.09,2295.63,1566.05,2293.2,1566.05Z"/><path class="cls-35" d="M2334.13,1744.12H2072.36c-2.43,0-4.41-4-4.41-8.85h0c0-4.88,2-8.85,4.41-8.85h261.77c2.43,0,4.4,4,4.4,8.85h0C2338.53,1740.16,2336.56,1744.12,2334.13,1744.12Z"/><path class="cls-34" d="M2050.82,1780.69h-45.76c-2.44,0-4.41-4-4.41-8.85h0c0-4.88,2-8.84,4.41-8.84h45.76c2.43,0,4.4,4,4.4,8.84h0C2055.22,1776.73,2053.25,1780.69,2050.82,1780.69Z"/><path class="cls-33" d="M2155.86,1780.69h-83.5c-2.43,0-4.41-4-4.41-8.85h0c0-4.88,2-8.84,4.41-8.84h83.5c2.44,0,4.41,4,4.41,8.84h0C2160.27,1776.73,2158.3,1780.69,2155.86,1780.69Z"/><path class="cls-35" d="M2293.2,1780.69H2172.86c-2.43,0-4.4-4-4.4-8.85h0c0-4.88,2-8.84,4.4-8.84H2293.2c2.43,0,4.41,4,4.41,8.84h0C2297.61,1776.73,2295.63,1780.69,2293.2,1780.69Z"/><path class="cls-34" d="M2050.82,1602.62h-45.76c-2.44,0-4.41-4-4.41-8.84h0c0-4.89,2-8.85,4.41-8.85h45.76c2.43,0,4.4,4,4.4,8.85h0C2055.22,1598.66,2053.25,1602.62,2050.82,1602.62Z"/><rect class="cls-34" x="2067.95" y="1584.93" width="243.41" height="17.7" rx="0.79"/><path class="cls-35" d="M2050.82,1639.2h-45.76c-2.44,0-4.41-4-4.41-8.85h0c0-4.89,2-8.85,4.41-8.85h45.76c2.43,0,4.4,4,4.4,8.85h0C2055.22,1635.24,2053.25,1639.2,2050.82,1639.2Z"/><path class="cls-35" d="M2180.88,1639.2H2072.36c-2.43,0-4.41-4-4.41-8.85h0c0-4.89,2-8.85,4.41-8.85h108.52c2.43,0,4.4,4,4.4,8.85h0C2185.28,1635.24,2183.31,1639.2,2180.88,1639.2Z"/><path class="cls-35" d="M2238.63,1639.2h-43c-2.44,0-4.41-4-4.41-8.85h0c0-4.89,2-8.85,4.41-8.85h43c2.43,0,4.41,4,4.41,8.85h0C2243,1635.24,2241.06,1639.2,2238.63,1639.2Z"/><path class="cls-35" d="M2050.82,1674.55h-45.76c-2.44,0-4.41-4-4.41-8.85h0c0-4.88,2-8.85,4.41-8.85h45.76c2.43,0,4.4,4,4.4,8.85h0C2055.22,1670.59,2053.25,1674.55,2050.82,1674.55Z"/><rect class="cls-35" x="2067.95" y="1656.85" width="306.5" height="17.7" rx="0.89"/><path class="cls-35" d="M2050.82,1814.56h-45.76c-2.44,0-4.41-4-4.41-8.84h0c0-4.89,2-8.85,4.41-8.85h45.76c2.43,0,4.4,4,4.4,8.85h0C2055.22,1810.6,2053.25,1814.56,2050.82,1814.56Z"/><path class="cls-35" d="M2398.7,1814.56H2254.26c-2.43,0-4.4-4-4.4-8.84h0c0-4.89,2-8.85,4.4-8.85H2398.7c2.43,0,4.41,4,4.41,8.85h0C2403.11,1810.6,2401.13,1814.56,2398.7,1814.56Z"/><path class="cls-35" d="M2180.88,1814.56H2072.36c-2.43,0-4.41-4-4.41-8.84h0c0-4.89,2-8.85,4.41-8.85h108.52c2.43,0,4.4,4,4.4,8.85h0C2185.28,1810.6,2183.31,1814.56,2180.88,1814.56Z"/><path class="cls-35" d="M2238.63,1814.56h-43c-2.44,0-4.41-4-4.41-8.84h0c0-4.89,2-8.85,4.41-8.85h43c2.43,0,4.41,4,4.41,8.85h0C2243,1810.6,2241.06,1814.56,2238.63,1814.56Z"/><rect class="cls-36" x="2067.95" y="1832.22" width="202.48" height="17.7" rx="0.72"/><rect class="cls-34" x="2249.86" y="1693.43" width="141.31" height="17.7" rx="0.89"/><path class="cls-36" d="M2180.88,1711.12H2072.36c-2.43,0-4.41-4-4.41-8.84h0c0-4.89,2-8.85,4.41-8.85h108.52c2.43,0,4.4,4,4.4,8.85h0C2185.28,1707.16,2183.31,1711.12,2180.88,1711.12Z"/><path class="cls-36" d="M2238.63,1711.12h-43c-2.44,0-4.41-4-4.41-8.84h0c0-4.89,2-8.85,4.41-8.85h43c2.43,0,4.41,4,4.41,8.85h0C2243,1707.16,2241.06,1711.12,2238.63,1711.12Z"/><path class="cls-37" d="M2399,791.87H1886.74a75.33,75.33,0,0,0,0,150.65h37.66l36.41,36.41,36.41-36.41H2399a75.33,75.33,0,0,0,0-150.65Z"/><path class="cls-38" d="M2407,779.86H1894.75a75.33,75.33,0,0,0,0,150.65h37.67l36.4,36.4,36.41-36.4H2407a75.33,75.33,0,0,0,0-150.65Z"/><path class="cls-2" d="M2260.4,879.19H1923.35a8.43,8.43,0,0,1-8.43-8.42h0a8.43,8.43,0,0,1,8.43-8.43H2260.4a8.42,8.42,0,0,1,8.43,8.43h0A8.42,8.42,0,0,1,2260.4,879.19Z"/><path class="cls-2" d="M2155.07,832.85H1923.35a8.43,8.43,0,0,1-8.43-8.43h0a8.43,8.43,0,0,1,8.43-8.42h231.72a8.42,8.42,0,0,1,8.43,8.42h0A8.42,8.42,0,0,1,2155.07,832.85Z"/><path class="cls-39" d="M2749.49,1814.45c-.24,1.78-.41,3.56-.58,5.33C2749.07,1818,2749.26,1816.22,2749.49,1814.45Z"/><path class="cls-22" d="M2930.85,1611.15c-132.43,0-239.78,107.36-239.78,239.78s107.35,239.79,239.78,239.79,239.78-107.36,239.78-239.79S3063.27,1611.15,2930.85,1611.15Zm0,416.9A177.12,177.12,0,1,1,3108,1850.93,177.11,177.11,0,0,1,2930.85,2028.05Z"/><path class="cls-39" d="M3169.16,1825.51a239.42,239.42,0,0,0-173.9-204.79c-127.54-35.62-259.81,38.88-295.45,166.43a245.59,245.59,0,0,0-6.13,28.36c-.27,1.66-.49,3.35-.71,5-.32,2.58-.6,5.16-.84,7.76-11.29,113.71,60.27,222.53,174.09,254.32a245.58,245.58,0,0,0,24.85,5.55l.13-.7,11-61a170.07,170.07,0,0,1-19.08-4.2,177.14,177.14,0,0,1-127.95-193.54c0-.44.11-.87.16-1.31a177.14,177.14,0,0,1,352.37,33.54c-.15,2.65-.33,5.29-.6,7.91,0,.65-.13,1.33-.22,2-.13,1.2-.27,2.4-.43,3.6-.11.87-.25,1.77-.38,2.64-.06.52-.14,1.06-.25,1.58-.16,1.2-.35,2.43-.6,3.63-.24,1.44-.52,2.88-.82,4.33-.81,4.22-1.85,8.47-3,12.7a176.13,176.13,0,0,1-39,70.92l45.94,41.94.35.32a238.31,238.31,0,0,0,53.08-96.32q1.56-5.55,2.81-11.11c.44-1.94.87-3.87,1.25-5.84s.79-3.89,1.15-5.85.62-3.68.92-5.54a1.84,1.84,0,0,1,.06-.4c.27-1.88.54-3.79.79-5.7a2.72,2.72,0,0,0,0-.49c.25-1.85.47-3.71.66-5.56,0-.24,0-.46,0-.68.19-1.88.36-3.76.49-5.64.14-1.63.25-3.27.33-4.9.11-1.86.19-3.71.25-5.59,0-1,.05-1.88.08-2.83,0-.49,0-1,0-1.53A239.41,239.41,0,0,0,3169.16,1825.51Z"/><path class="cls-22" d="M2695,1808.13q-.69,3.69-1.27,7.38c-.27,1.66-.49,3.35-.71,5a244.37,244.37,0,0,0-1.9,30.41c0,118.91,86.56,217.63,200.13,236.52l11-61a170.07,170.07,0,0,1-19.08-4.2,177.14,177.14,0,0,1-127.95-193.54c0-.44.11-.87.16-1.31a177.16,177.16,0,0,1,254.36-135.09l28-55.35.3-.59a238.35,238.35,0,0,0-107.06-25.21C2813.05,1611.15,2715.13,1696.12,2695,1808.13Z"/><path class="cls-39" d="M3108.26,2012.19a240,240,0,0,1-217.06,75.26l11-61a170.07,170.07,0,0,1-19.08-4.2c-84-23.49-136.84-103.77-128.59-187.7q-.75,8.1-.75,16.39a177.13,177.13,0,0,0,350.62,35.7c-.81,4.22-1.85,8.47-3,12.7a176.13,176.13,0,0,1-39,70.92Z"/><path class="cls-40" d="M3169.3,1825.51l-62.43,5.94a177.05,177.05,0,0,0-97.22-139.15l28.26-55.94A239.82,239.82,0,0,1,3169.3,1825.51Z"/><path class="cls-22" d="M3355.88,1780.09a155.32,155.32,0,1,0,155.31,155.31A155.31,155.31,0,0,0,3355.88,1780.09Zm0,270A114.72,114.72,0,1,1,3470.6,1935.4,114.72,114.72,0,0,1,3355.88,2050.12Z"/><path class="cls-39" d="M3510.24,1918.94a155.33,155.33,0,0,0-304-24.85,158.18,158.18,0,0,0-4,18.37c-.18,1.07-.32,2.17-.46,3.25-.21,1.66-.39,3.34-.55,5A155.32,155.32,0,0,0,3314,2085.46a160.2,160.2,0,0,0,16.09,3.6l.09-.46,7.1-39.52a108.47,108.47,0,0,1-12.36-2.72A114.74,114.74,0,0,1,3242.06,1921c0-.28.07-.56.11-.85a114.8,114.8,0,0,1,144.51-94.76,114.78,114.78,0,0,1,83.73,116.49c-.1,1.71-.22,3.42-.39,5.12,0,.42-.09.86-.14,1.3-.09.78-.18,1.56-.29,2.33-.07.57-.15,1.15-.24,1.72,0,.33-.09.68-.16,1-.11.78-.23,1.57-.39,2.35-.16.93-.33,1.87-.53,2.8-.53,2.74-1.2,5.49-2,8.23a114.12,114.12,0,0,1-25.27,45.94l29.75,27.16.23.21a154.25,154.25,0,0,0,34.38-62.39c.68-2.4,1.28-4.8,1.82-7.2.29-1.25.57-2.5.81-3.78s.52-2.52.75-3.79.4-2.38.6-3.58a1.24,1.24,0,0,1,0-.27q.27-1.83.51-3.69a1.65,1.65,0,0,0,0-.31q.24-1.8.42-3.6a3.27,3.27,0,0,1,0-.45c.12-1.21.23-2.43.31-3.65.09-1.06.16-2.12.22-3.18s.12-2.4.16-3.61c0-.62,0-1.22,0-1.84,0-.32,0-.65,0-1A154.46,154.46,0,0,0,3510.24,1918.94Z"/><path class="cls-22" d="M3203.08,1907.67c-.3,1.6-.57,3.19-.82,4.79-.18,1.07-.32,2.17-.46,3.25a158.07,158.07,0,0,0-1.23,19.69,155.35,155.35,0,0,0,129.63,153.2l7.1-39.52a108.47,108.47,0,0,1-12.36-2.72A114.74,114.74,0,0,1,3242.06,1921c0-.28.07-.56.11-.85a114.74,114.74,0,0,1,164.75-87.5L3425,1796.8l.19-.39a155.33,155.33,0,0,0-222.14,111.26Z"/><path class="cls-39" d="M3470.79,2039.85a155.44,155.44,0,0,1-140.59,48.75l7.1-39.52a108.47,108.47,0,0,1-12.36-2.72,114.72,114.72,0,0,1-83.29-121.57c-.32,3.49-.49,7-.49,10.61a114.73,114.73,0,0,0,227.11,23.12c-.53,2.74-1.2,5.49-2,8.23a114.12,114.12,0,0,1-25.27,45.94Z"/><path class="cls-40" d="M3510.33,1918.94l-40.44,3.84a114.65,114.65,0,0,0-63-90.13l18.3-36.24A155.35,155.35,0,0,1,3510.33,1918.94Z"/><rect class="cls-26" x="2700.09" y="743.7" width="788.74" height="130.75"/><rect class="cls-41" x="2700.09" y="897.46" width="788.74" height="65.38"/><rect class="cls-16" x="1047.39" y="1541.14" width="788.74" height="65.38"/><rect class="cls-30" x="1047.39" y="1629.52" width="788.74" height="65.38"/><rect class="cls-42" x="1047.39" y="1783.27" width="788.74" height="65.38"/><rect class="cls-43" x="1047.39" y="1872.86" width="788.74" height="65.38"/><rect class="cls-20" x="1047.39" y="1962.33" width="788.74" height="125.9"/><rect class="cls-44" x="466" y="1173.33" width="652.63" height="870.77" rx="24.95"/><rect class="cls-2" x="453.05" y="1158.74" width="652.63" height="870.77" rx="24.95"/><path class="cls-45" d="M1070.36,1619.12v335.52a9.72,9.72,0,0,1-9.72,9.73H511.93a9.74,9.74,0,0,1-9.74-9.73V1619.12a9.74,9.74,0,0,1,9.74-9.73h548.71A9.72,9.72,0,0,1,1070.36,1619.12Z"/><path class="cls-46" d="M1070.36,1619.12v26.5H502.19v-26.5a9.74,9.74,0,0,1,9.74-9.73h548.71A9.72,9.72,0,0,1,1070.36,1619.12Z"/><path class="cls-2" d="M1004.87,1628.65a7.21,7.21,0,1,1-7.21-7.21A7.2,7.2,0,0,1,1004.87,1628.65Z"/><path class="cls-2" d="M1030.2,1628.65a7.21,7.21,0,1,1-7.21-7.21A7.2,7.2,0,0,1,1030.2,1628.65Z"/><path class="cls-2" d="M1055.53,1628.65a7.21,7.21,0,1,1-7.21-7.21A7.2,7.2,0,0,1,1055.53,1628.65Z"/><rect class="cls-2" x="546.76" y="1659.61" width="3.09" height="24.27"/><text class="cls-47" transform="translate(660.47 1824.34)">HTML</text><rect class="cls-48" x="560.36" y="1682.05" width="275.57" height="6.57" rx="1.47"/><rect class="cls-49" x="560.36" y="1883.54" width="307.56" height="6.47" rx="1.47"/><path class="cls-2" d="M909,1700.42H563.17a2.81,2.81,0,0,0-2.81,2.8h0a2.81,2.81,0,0,0,2.81,2.81H909a2.8,2.8,0,0,0,2.8-2.81h0A2.8,2.8,0,0,0,909,1700.42Z"/><rect class="cls-50" x="560.36" y="1901.49" width="297.29" height="6.35" rx="1.47"/><rect class="cls-48" x="560.36" y="1867.18" width="351.74" height="6.66" rx="1.64"/><rect class="cls-50" x="926.17" y="1700.12" width="86.84" height="5.98" rx="1.47"/><rect class="cls-2" x="559.55" y="1664.22" width="100.85" height="6.44" rx="1.47"/><path class="cls-33" d="M568.22,1263H528.43c-2.11,0-3.83-3.44-3.83-7.69h0c0-4.25,1.72-7.69,3.83-7.69h39.79c2.12,0,3.83,3.44,3.83,7.69h0C572.05,1259.58,570.34,1263,568.22,1263Z"/><path class="cls-33" d="M814.54,1263H587c-2.11,0-3.83-3.44-3.83-7.69h0c0-4.25,1.72-7.69,3.83-7.69H814.54c2.12,0,3.84,3.44,3.84,7.69h0C818.38,1259.58,816.66,1263,814.54,1263Z"/><path class="cls-34" d="M659.55,1294.82H587c-2.11,0-3.83-3.44-3.83-7.69h0c0-4.25,1.72-7.69,3.83-7.69h72.6c2.12,0,3.83,3.44,3.83,7.69h0C663.38,1291.38,661.67,1294.82,659.55,1294.82Z"/><path class="cls-35" d="M779,1294.82H674.33c-2.11,0-3.83-3.44-3.83-7.69h0c0-4.25,1.72-7.69,3.83-7.69H779c2.11,0,3.83,3.44,3.83,7.69h0C782.79,1291.38,781.07,1294.82,779,1294.82Z"/><path class="cls-35" d="M814.54,1449.64H587c-2.11,0-3.83-3.44-3.83-7.69h0c0-4.25,1.72-7.69,3.83-7.69H814.54c2.12,0,3.84,3.44,3.84,7.69h0C818.38,1446.2,816.66,1449.64,814.54,1449.64Z"/><path class="cls-33" d="M568.22,1481.44H528.43c-2.11,0-3.83-3.44-3.83-7.69h0c0-4.25,1.72-7.7,3.83-7.7h39.79c2.12,0,3.83,3.45,3.83,7.7h0C572.05,1478,570.34,1481.44,568.22,1481.44Z"/><path class="cls-35" d="M659.55,1481.44H587c-2.11,0-3.83-3.44-3.83-7.69h0c0-4.25,1.72-7.7,3.83-7.7h72.6c2.12,0,3.83,3.45,3.83,7.7h0C663.38,1478,661.67,1481.44,659.55,1481.44Z"/><path class="cls-34" d="M779,1481.44H674.33c-2.11,0-3.83-3.44-3.83-7.69h0c0-4.25,1.72-7.7,3.83-7.7H779c2.11,0,3.83,3.45,3.83,7.7h0C782.79,1478,781.07,1481.44,779,1481.44Z"/><path class="cls-34" d="M871,1326.62H587c-2.11,0-3.83-3.44-3.83-7.69h0c0-4.25,1.72-7.7,3.83-7.7H871c2.11,0,3.83,3.45,3.83,7.7h0C874.82,1323.18,873.1,1326.62,871,1326.62Z"/><rect class="cls-33" x="741.28" y="1343.03" width="74.23" height="15.39" rx="0.41"/><path class="cls-35" d="M681.3,1358.42H587c-2.11,0-3.83-3.45-3.83-7.7h0c0-4.24,1.72-7.69,3.83-7.69H681.3c2.12,0,3.83,3.45,3.83,7.69h0C685.13,1355,683.42,1358.42,681.3,1358.42Z"/><path class="cls-33" d="M731.51,1358.42H694.1c-2.12,0-3.83-3.45-3.83-7.7h0c0-4.24,1.71-7.69,3.83-7.69h37.41c2.12,0,3.83,3.45,3.83,7.69h0C735.34,1355,733.63,1358.42,731.51,1358.42Z"/><path class="cls-35" d="M568.22,1389.16H528.43c-2.11,0-3.83-3.45-3.83-7.7h0c0-4.25,1.72-7.69,3.83-7.69h39.79c2.12,0,3.83,3.44,3.83,7.69h0C572.05,1385.71,570.34,1389.16,568.22,1389.16Z"/><path class="cls-35" d="M871,1389.16H587c-2.11,0-3.83-3.45-3.83-7.7h0c0-4.25,1.72-7.69,3.83-7.69H871c2.11,0,3.83,3.44,3.83,7.69h0C874.82,1385.71,873.1,1389.16,871,1389.16Z"/><path class="cls-35" d="M568.22,1510.89H528.43c-2.11,0-3.83-3.44-3.83-7.69h0c0-4.25,1.72-7.7,3.83-7.7h39.79c2.12,0,3.83,3.45,3.83,7.7h0C572.05,1507.45,570.34,1510.89,568.22,1510.89Z"/><rect class="cls-35" x="741.28" y="1495.5" width="102.7" height="15.39" rx="0.48"/><path class="cls-35" d="M681.3,1510.89H587c-2.11,0-3.83-3.44-3.83-7.69h0c0-4.25,1.72-7.7,3.83-7.7H681.3c2.12,0,3.83,3.45,3.83,7.7h0C685.13,1507.45,683.42,1510.89,681.3,1510.89Z"/><path class="cls-35" d="M731.51,1510.89H694.1c-2.12,0-3.83-3.44-3.83-7.69h0c0-4.25,1.71-7.7,3.83-7.7h37.41c2.12,0,3.83,3.45,3.83,7.7h0C735.34,1507.45,733.63,1510.89,731.51,1510.89Z"/><path class="cls-36" d="M568.22,1541.63H528.43c-2.11,0-3.83-3.44-3.83-7.69h0c0-4.25,1.72-7.7,3.83-7.7h39.79c2.12,0,3.83,3.45,3.83,7.7h0C572.05,1538.19,570.34,1541.63,568.22,1541.63Z"/><path class="cls-33" d="M636.13,1541.63H587c-2.11,0-3.83-3.44-3.83-7.69h0c0-4.25,1.72-7.7,3.83-7.7h49.18c2.11,0,3.83,3.45,3.83,7.7h0C640,1538.19,638.24,1541.63,636.13,1541.63Z"/><path class="cls-33" d="M528.43,1421c-2.11,0-3.83-3.45-3.83-7.7h0c0-4.25,1.72-7.69,3.83-7.69h39.79c2.12,0,3.83,3.44,3.83,7.69h0c0,4.25-1.71,7.7-3.83,7.7"/><rect class="cls-35" x="741.28" y="1405.57" width="116.05" height="15.39" rx="0.51"/><path class="cls-36" d="M681.3,1421H587c-2.11,0-3.83-3.45-3.83-7.7h0c0-4.25,1.72-7.69,3.83-7.69H681.3c2.12,0,3.83,3.44,3.83,7.69h0C685.13,1417.51,683.42,1421,681.3,1421Z"/><path class="cls-36" d="M731.51,1421H694.1c-2.12,0-3.83-3.45-3.83-7.7h0c0-4.25,1.71-7.69,3.83-7.69h37.41c2.12,0,3.83,3.44,3.83,7.69h0C735.34,1417.51,733.63,1421,731.51,1421Z"/><ellipse class="cls-51" cx="3462.01" cy="2694.35" rx="446.56" ry="28.56"/><polygon class="cls-52" points="3100.76 1370.57 3127.71 1374.33 3145.26 1354.28 3107.66 1326.7 3100.76 1370.57"/><polygon class="cls-52" points="3348.64 2407.9 3340.65 2570 3272.87 2571.06 3256.68 2413.31 3348.64 2407.9"/><path class="cls-53" d="M3351.45,2561.1l7.48,118.74-60.8,2.16-2.42-11.41-18.62,14.33-122.75-.4s-3.09-21.53,7.78-26.68,37.8-15.72,37.8-15.72l56.7-41.47,3.78-50.67Z"/><ellipse class="cls-54" cx="3307.93" cy="2605.2" rx="20.9" ry="23.68" transform="translate(305.66 5557.45) rotate(-82.74)"/><polygon class="cls-52" points="3641.88 2351.75 3719.52 2494.26 3662.22 2530.49 3566.2 2404.28 3641.88 2351.75"/><path class="cls-53" d="M3718.76,2467.5l79.86,88.19-46.2,39.58-9-7.41-5.62,22.82-96.24,76.2s-15.84-14.92-10.54-25.72,19.76-35.85,19.76-35.85l18.48-67.78-28.62-42Z"/><path class="cls-55" d="M3704.24,2419.6l-57,30L3609,2469.74s-210.56-183-223.1-401.07-15-235.62-15-235.62l73.93,7.39,101.54,10.15,35.09,280.75s20.06,12.53,12.54,25.07Z"/><path class="cls-56" d="M3704.24,2419.6l-57,30c-118.49-109.51-166.11-258.08-166.11-258.08h-22.56l10-20.05c-32.58-45.12-50.48-281.15-50.48-281.15s18.17-30.63,26.65-49.86l101.54,10.15,35.09,280.75s20.06,12.53,12.54,25.07Z"/><rect class="cls-57" x="3593.98" y="2427.62" width="129.73" height="39.72" rx="9.47" transform="translate(-741.62 2332.4) rotate(-32.28)"/><polygon class="cls-58" points="3301.15 1222.32 3292.9 1268.91 3317.68 1241.22 3301.15 1222.32"/><path class="cls-58" d="M3431.22,1241.07s25.59-5.89,27.2,19.3-35.42,50.72-35.42,50.72l-7.8-7.67Z"/><ellipse class="cls-59" cx="3288.05" cy="1275.75" rx="25.41" ry="6.29" transform="matrix(0.22, -0.98, 0.98, 0.22, 1322.11, 4203.86)"/><path class="cls-52" d="M3284.35,1352c13.57,37.41,86.43,52.12,120.67-28.27,30-70.42,4.39-116.78-35.18-115.19s-63.55,18.49-63.55,18.49-7.45,19.52-13.69,43c-3.2,12-8.6,30.16-10,42.15C3281,1326.24,3278.65,1336.32,3284.35,1352Z"/><path class="cls-58" d="M3415.2,1303.42s7.06-40.88,1.66-40.06-110.62-7.53-106.9-41.27,39.2-25.86,39.2-25.86S3477.73,1205.46,3415.2,1303.42Z"/><path class="cls-58" d="M3439.75,1246.62s14-38.63-25.34-50.34-31.15-8.54-47.4-28.19-51.6-12.07-57.29,8.7,9.15,38.42,9.15,38.42Z"/><path class="cls-58" d="M3327.16,1197s-32.87-17.69-36.7,6c-5.13,31.74,44.45,45.07,44.45,45.07Z"/><path class="cls-60" d="M3282.62,1312.18c9.65-3.67,18.28-18.69,16.66-29.31a22.27,22.27,0,0,0-6.68-12.84C3289.4,1282.08,3284,1300.19,3282.62,1312.18Z"/><polygon class="cls-52" points="3318.22 1374.33 3320.72 1429.48 3395.92 1429.48 3387 1359.92 3318.22 1374.33"/><path class="cls-58" d="M3345.79,1226.44s-17.55,25.07-20.05,60.16c0,0,5-2.51,5,5s-10,57.66-2.51,72.7,57.65,10,65.17,5,55.15-57.65,55.15-70.19-10-22.56-10-22.56-17.54-72.69-52.64-87.73S3345.79,1226.44,3345.79,1226.44Z"/><path class="cls-55" d="M3448.56,1888.19c-10,120.32-92.74,606.61-92.74,606.61H3250.54c-45.12-366-20.06-591.57-20.06-591.57l29.78-2Z"/><path class="cls-61" d="M3448.56,1888.19c-10,120.32-92.74,606.61-92.74,606.61h-47.48c-64.2-413.44-54.35-554.44-48.08-593.62Z"/><rect class="cls-57" x="3240.51" y="2469.74" width="122.83" height="37.6" rx="12.69"/><path class="cls-62" d="M3441,1434.49H3471s74.83,35,122.23,169.56-24.95,145.34-47.4,131.88S3441,1434.49,3441,1434.49Z"/><polygon class="cls-52" points="3125.2 1411.93 3127.71 1374.33 3090.11 1366.81 3080.08 1401.9 3125.2 1411.93"/><polygon class="cls-63" points="3105.15 1246.49 3100.14 1251.51 3117.68 1369.32 3122.7 1366.81 3105.15 1246.49"/><polygon class="cls-64" points="3105.15 1246.49 3122.7 1366.81 3187.87 1359.29 3172.83 1241.48 3105.15 1246.49"/><path class="cls-65" d="M3110,1254.76l15.8,103.83a3,3,0,0,0,3.28,2.48l51.49-6.44a2.94,2.94,0,0,0,2.55-3.31l-13.56-101.69a3,3,0,0,0-3.15-2.55l-53.73,4.3A3,3,0,0,0,3110,1254.76Z"/><polygon class="cls-64" points="3116.04 1248.21 3121.01 1253.18 3160.77 1250.7 3163.26 1245.73 3116.04 1248.21"/><path class="cls-52" d="M3100.14,1379.34l-10-12.53-2.51-60.16s32.59-50.13,37.6-47.62,5,20-10,42.61c0,0,10,55.15-1.26,72.69S3100.14,1379.34,3100.14,1379.34Z"/><path class="cls-66" d="M3558.41,1886.92c-136.69,77-327.93,16.31-327.93,16.31,10-130.33-7.53-300.79-5-303.3.33-.33-2.13-.13-6.68.37-31.32,3.43-162.54,21.1-180.66-16.43-.22-.5-.44-1-.64-1.49-17.55-45.11,37.6-195.52,37.6-195.52l60.14,15,2.51,60.17,82.74-10c15-12.53,80.2-30.07,80.2-30.07,40.11-52.64,95.26-40.12,95.26-40.12l15,30.1c17.45,4.35,42.5,14.64,60.47,22.49a67.9,67.9,0,0,1,34.69,34C3567.73,1603.73,3558.41,1886.92,3558.41,1886.92Z"/><path class="cls-62" d="M3411,1411.93s-45.12-5-97.76,12.53c0,0,77.48-9.29,129-2.14C3442.18,1422.32,3418.48,1411.93,3411,1411.93Z"/><polygon class="cls-63" points="3117.68 1369.32 3185.36 1361.8 3187.87 1359.29 3122.7 1366.81 3117.68 1369.32"/><line class="cls-67" x1="3283.79" y1="1271.82" x2="3335.98" y2="1284.25"/><path class="cls-60" d="M3327.13,1277.87l2.41.81a2.18,2.18,0,0,1,1.48,1.66c1.36,6.79,6.22,39-22,46.17a2.31,2.31,0,0,1-1.57-.18l-.65-.32a2.23,2.23,0,0,1-.25-3.85c7.16-4.83,22.85-18.37,17.72-41.67A2.23,2.23,0,0,1,3327.13,1277.87Z"/><path class="cls-62" d="M3222.9,1536.5v62.13l-4.12,1.67c-31.32,3.43-162.54,21.1-180.66-16.43.28-.87.58-1.74.87-2.63C3039,1581.24,3068.82,1621,3222.9,1536.5Z"/><ellipse class="cls-51" cx="1525.17" cy="2694.35" rx="446.56" ry="28.56"/><path class="cls-68" d="M1719.32,1950.17v343l-7.46,320.6h-74.55l-24.86-318.11s-19-131.45-41.2-201c-4.4-13.82-9-25.2-13.47-32.61-27.34-44.73-12.43-111.83-12.43-111.83Z"/><path class="cls-68" d="M1594.34,1950.17l-9.23,121.77-13.86,22.67-13.47,22.07-109.35,178.94L1267,2516.81l-26.54-17.3-30.62-20S1354,2255.85,1354,2250.88V2236l17.39-12.42L1441,2034.67l29.82-109.36Z"/><path class="cls-69" d="M1681.94,2613.73h-44.63l-24.86-318.11s-19-131.45-41.2-201l-1-.3h0a15.33,15.33,0,0,0-27.94-1.52c-29.79,57.93-96,180.84-141,220.22-47.3,41.38-128.94,145.22-160.75,186.5l-30.62-20S1354,2255.85,1354,2250.88V2236l17.39-12.42L1441,2034.67l29.82-109.36,123.55,24.86h57.8l29.8,25.84S1704.23,2124.13,1681.94,2613.73Z"/><path class="cls-70" d="M1475.76,1895.49l-3.67,6.43a20.71,20.71,0,0,0,2.16,23.62c12.5,14.91,41.22,38.7,100.92,47,66.08,9.18,113.17-2,133.29-8.44a15.64,15.64,0,0,0,10.86-14.91v-13.93Z"/><path class="cls-71" d="M1774,1786.14c-14.91,29.82-29.82,27.34-22.36,82s-14.91,64.62-19.88,67.1c-1.32.65-12.36,4.2-29.83,7.53-6,1.15-12.8,2.27-20.2,3.21a.24.24,0,0,0-.13,0c-10.09,1.31-21.32,2.33-33.37,2.73-51.42,1.74-117.76-7.68-172.46-53.26,0,0-22.36-29.82,24.86-69.59s39.06-149.66,49.7-178.94c6.16-17,19-48.24,43.32-69.56,14.86-13.07,34-22.39,58.58-22.39,0,0,28.7-1.79,61.73,20.55a142.58,142.58,0,0,1,17.8,14.24s34.79,9.94,49.7,24.86S1788.91,1756.32,1774,1786.14Z"/><path class="cls-72" d="M1723.35,1655.79a60.29,60.29,0,0,0-1.5,16c.58,17.72-2.58,65.63,24.81,124.31,0,0-27.16-24.34-33.28-32.31-11.46-14.91,1,9.94,1,9.94s19.88,64.62,19.88,109.35c0,28.62-7.08,51.1-32.31,59.72-5.29,1.82-11.83,2.91-20,3.21h-.22a.24.24,0,0,0-.13,0c-8.92.32-20.33,1.56-33.37,2.73-51.42,1.74-117.76-7.68-172.46-53.26,0,0-22.36-29.82,24.86-69.59s39.06-149.66,49.7-178.94c6.16-17,19-48.24,43.32-69.56,40.78-2.06,85.64-3.38,120.31-1.84a142.58,142.58,0,0,1,17.8,14.24s34.79,9.94,49.7,24.86C1781.45,1614.66,1735.17,1605.71,1723.35,1655.79Z"/><path class="cls-70" d="M1552.81,1594.77s-9.94,52.19,22.36,67.11,129.24-52.19,129.24-52.19,24.46-19.31,45.78-13.38c0,0-6-9-18.44-6.51,0,0-2.49-14.91-19.89-14.91C1711.86,1574.89,1552.81,1617.14,1552.81,1594.77Z"/><path class="cls-73" d="M1712.5,1574.59s-166.12,84.48-159.69,20.18c2.48-24.85,79.52-39.76,79.52-39.76S1678.34,1542,1712.5,1574.59Z"/><path class="cls-2" d="M1846.07,1624.6s14.91-24.86,12.42-99.41c0,0,47.22,24.85,72.08,29.82s84.5,5,84.5,5l-24.86,47.22L1948,1671.82l-62.13,82-37.59,2.49-58.66-87.26S1826.19,1654.42,1846.07,1624.6Z"/><polygon class="cls-52" points="1873.4 1748.86 1913.17 1689.21 1938.02 1696.67 1920.63 1776.2 1873.4 1748.86"/><path class="cls-71" d="M1851,1751.35s14.91-22.37,29.82-19.89c0,0,12.43,19.89,49.71,17.4,0,0,12.42,2.49,2.48,37.28s-69.6,87-109.35,74.58S1851,1751.35,1851,1751.35Z"/><path class="cls-71" d="M1716.83,1681.76s12.43-87,64.62-67.1,89.47,159,89.47,159,24.85,54.68-2.49,77-50.51,22.11-104.38-49.71C1719.32,1741.4,1716.83,1681.76,1716.83,1681.76Z"/><path class="cls-72" d="M1880.86,1731.46l7.46-9.94s12.42,12.43,42.25,14.91v12.43S1893.29,1753.83,1880.86,1731.46Z"/><path class="cls-53" d="M1625.64,2571.45l-2.85,123.06,61.67-.23,2-14.14,19.44,13.78,124.32-.2s2.27-27-8.94-31.8-38.92-14.42-38.92-14.42l-59.08-39.76-5.84-51.17Z"/><ellipse class="cls-54" cx="1671.48" cy="2614.39" rx="24.01" ry="21.19" transform="translate(-408.78 311.91) rotate(-9.51)"/><path class="cls-53" d="M1215.15,2452.69l-91.94,81.85,42.24,44.94,11.7-8.18,3.18,23.61,85,90.78s21.31-16.77,17.15-28.23-16-38.3-16-38.3l-11.22-70.32,33.43-39.17Z"/><path class="cls-52" d="M1913.17,1714.07l22.37-7.46,33-31.82a24.71,24.71,0,0,0,8.55-13.91l8.1-46.22L1948,1671.82l-34.79,17.39-7.46,18.23Z"/><path class="cls-52" d="M1938,1689.21l9.6-12.79a29.79,29.79,0,0,0,5.9-15.93l1.9-28.44s-9.94-5-14.91,14.91-27.34,7.46-34.8,59.65Z"/><path class="cls-52" d="M1736.37,1421.43a307,307,0,0,1,9.94,32.77,236,236,0,0,1,5,26.32c2.52,20,.17,37.6-9.74,49.28-2.69,3.16-3.73,3.06-7.31,5.33-52.19,7.45-48.6,9.83-70.44-11.94-28.24-28.13-52.1-70.52-52.1-70.52l58.78-54.87,37.37,2.77Z"/><path class="cls-74" d="M1696.13,1407.91a38.94,38.94,0,0,1-6.59,1.61s-15.38-2.12-16.39,6.72,7.89,54.8-35.57,78.88l.16,1,4.34,28.43s-52.67-7.49-59.25-64.2,38.27-69.72,38.27-69.72,16.83-40.1,62.44-13.31C1716.37,1396.63,1705.05,1404.82,1696.13,1407.91Z"/><path class="cls-74" d="M1746.64,1402.22c3.23,5.46,1.71,13.27-3.63,19a152.59,152.59,0,0,1-19.7,17.62c-1.75,1.32-3.37,2.48-4.83,3.48-3.59,2.49-8,1.8-9.38-1.51a60,60,0,0,0-4-7.42,89.8,89.8,0,0,0-25.74-26.64L1662.24,1395l-2.25-1.54s.87-1.28,2.47-3.26c1-1.18,2.22-2.61,3.71-4.15,8.29-8.62,24.3-20.91,44.09-14.69C1729.19,1377.35,1740.8,1392.36,1746.64,1402.22Z"/><path class="cls-74" d="M1727.75,1436.56a14.36,14.36,0,0,0,3.44-.61c1.2-.31,2.41-.61,3.47-.85s2.29-.48,3.51-.71a13.67,13.67,0,0,0,3.36-.9c.85-.44,1.07-1.19-.2-1.77s-4.06-.85-7.57-.07-5.92,2.23-6.7,3.25S1726.77,1436.53,1727.75,1436.56Z"/><path class="cls-60" d="M1747,1457.66a225.2,225.2,0,0,1,4.76,25.24,32,32,0,0,1-4.72-11A30.83,30.83,0,0,1,1747,1457.66Z"/><path class="cls-75" d="M1696.13,1407.91a38.94,38.94,0,0,1-6.59,1.61s-15.38-2.12-16.39,6.72,7.89,54.8-35.57,78.88l.16,1c-4,.42-3.59-1.16,5.18-6.35,31.18-18.47,19.87-66.63,25.21-82.61s21.26-8,21.26-8Z"/><path class="cls-74" d="M1679.55,1403.41s24.86,19.88,22.37,52.19-19.88-22.37-29.82,0,64.62,62.13,47.22,109.35-62.13,27.34-82,62.13-14.92,101.9-64.62,104.38-49.71-32.31-32.31-62.13-27.34-57.16,7.46-94.44,11.9-109.55,35.77-140.51C1583.61,1434.38,1632.33,1371.1,1679.55,1403.41Z"/><path class="cls-76" d="M1638.29,1478.38s-35.54-23-35.68-55.46C1602.61,1422.92,1609.4,1458.14,1638.29,1478.38Z"/><path class="cls-76" d="M1656.38,1455.78s-40.65-11.73-50.15-42.81C1606.23,1413,1622.89,1444.74,1656.38,1455.78Z"/><path class="cls-77" d="M1722.39,1435.37c.36,1.18.66,2.33.92,3.44-1.75,1.32-3.37,2.48-4.83,3.48-3.59,2.49-8,1.8-9.38-1.51a60,60,0,0,0-4-7.42,89.8,89.8,0,0,0-25.74-26.64l-19.51-13.36c0-1.85,2.4-1.79,2.6-3.13.47-3,1.59-4.57,3.61-4.17l.1,0C1668.49,1386.38,1709.36,1392.33,1722.39,1435.37Z"/><path class="cls-74" d="M1637.46,1388.15s-18.86-54.05-56.17-11.81-1.57,70,20,64.18C1637.31,1430.75,1637.46,1388.15,1637.46,1388.15Z"/><path class="cls-71" d="M1632.56,1377.94s12.2,23-7.68,47.84C1624.88,1425.78,1657.64,1397.2,1632.56,1377.94Z"/><path class="cls-60" d="M1678.65,1450.72l-1.91.64a1.73,1.73,0,0,0-1.17,1.31c-1.07,5.37-4.91,30.85,17.4,36.5a1.72,1.72,0,0,0,1.24-.14l.52-.25a1.76,1.76,0,0,0,.2-3c-5.67-3.83-18.07-14.53-14-33A1.76,1.76,0,0,0,1678.65,1450.72Z"/></g></g></svg>