<svg xmlns="http://www.w3.org/2000/svg" xmlns:xlink="http://www.w3.org/1999/xlink" viewBox="0 0 4680 3120"><defs><style>.cls-1,.cls-38,.cls-39,.cls-46,.cls-49{fill:none;}.cls-2{isolation:isolate;}.cls-3,.cls-68,.cls-9{fill:#fff;}.cls-4{fill:url(#linear-gradient);}.cls-5{clip-path:url(#clip-path);}.cls-6{fill:url(#linear-gradient-2);}.cls-14,.cls-7{fill:#c9c9c9;}.cls-10,.cls-11,.cls-55,.cls-7,.cls-8,.cls-9{fill-rule:evenodd;}.cls-14,.cls-7,.cls-75{opacity:0.55;}.cls-14,.cls-52,.cls-53,.cls-7,.cls-82{mix-blend-mode:multiply;}.cls-18,.cls-8{fill:#9570ee;}.cls-10,.cls-12{fill:#baa3d4;}.cls-11{fill:#592ba3;}.cls-13{fill:#683ba4;}.cls-15{fill:#f0f4ff;}.cls-16{fill:#cfddff;}.cls-17{fill:#6db8ff;}.cls-19{fill:#f9fbfc;}.cls-20{fill:#cdd4ff;}.cls-21{fill:#ffc240;}.cls-22{fill:#90c240;}.cls-23{fill:#eb4f24;}.cls-24{fill:#fd4940;}.cls-25{fill:#4a4ac6;}.cls-26{fill:#0cf;}.cls-27{fill:#ff56a9;}.cls-28{fill:#e3eaff;}.cls-29{fill:#ffc359;}.cls-30{fill:#ff50b0;}.cls-31{clip-path:url(#clip-path-2);}.cls-32{fill:url(#linear-gradient-3);}.cls-33{fill:#e83a3a;}.cls-34{fill:#f44545;}.cls-35{fill:#2b2421;}.cls-36{fill:url(#linear-gradient-4);}.cls-37{fill:#3a72ef;}.cls-38{stroke:#dd2a2a;}.cls-38,.cls-39,.cls-46,.cls-49{stroke-miterlimit:10;}.cls-38,.cls-46{stroke-width:7.24px;}.cls-39{stroke:#443a36;stroke-width:2.41px;}.cls-40{fill:#4f80ff;}.cls-41{fill:#2d6cf9;}.cls-42{fill:#f4a07a;}.cls-43{fill:#f9a880;}.cls-44{fill:#ffba94;}.cls-45{fill:#352d29;}.cls-46{stroke:#ce2828;}.cls-47{fill:#ff6c6c;}.cls-48{fill:#fca286;}.cls-49{stroke:#1f267f;stroke-width:4.82px;}.cls-50{fill:#ff806d;}.cls-51{fill:#443a36;}.cls-52,.cls-53,.cls-60,.cls-61,.cls-67,.cls-72,.cls-73,.cls-81{opacity:0.6;}.cls-52{fill:url(#linear-gradient-5);}.cls-53{fill:url(#linear-gradient-6);}.cls-54{fill:#3763ef;}.cls-55{fill:#441e8c;}.cls-56{fill:#fabf44;}.cls-57{fill:#5a1103;}.cls-58{fill:#f27c49;}.cls-59{fill:#703127;}.cls-60{fill:url(#linear-gradient-7);}.cls-61{fill:url(#linear-gradient-8);}.cls-62{fill:url(#linear-gradient-9);}.cls-63{fill:#229;}.cls-64{fill:#2e2eaa;}.cls-65{fill:#4643dd;}.cls-66{fill:#5b4ced;}.cls-67{fill:url(#linear-gradient-10);}.cls-68{opacity:0.7;}.cls-69{fill:#2b2ba5;}.cls-70{fill:#3030b5;}.cls-71{fill:#3e3ed6;}.cls-72{fill:url(#linear-gradient-11);}.cls-73{fill:url(#linear-gradient-12);}.cls-74{fill:#4040c6;}.cls-75{fill:url(#linear-gradient-13);}.cls-76{fill:#6562f4;}.cls-77{fill:#2775f2;}.cls-78,.cls-81{fill:#3888fc;}.cls-79{fill:#5598f9;}.cls-80{fill:#70a3ff;}.cls-82{opacity:0.47;}.cls-83{fill:#a0a0a0;}</style><linearGradient id="linear-gradient" x1="2260.5" y1="538.26" x2="2382.75" y2="2611.21" gradientUnits="userSpaceOnUse"><stop offset="0" stop-color="#fff"/><stop offset="1" stop-color="#87c5f5"/></linearGradient><clipPath id="clip-path"><rect class="cls-1" x="2803.17" y="1816.54" width="1129.65" height="908.2" transform="translate(6735.98 4541.28) rotate(180)"/></clipPath><linearGradient id="linear-gradient-2" x1="4794.7" y1="2949.88" x2="5668.54" y2="2949.88" gradientTransform="matrix(0.94, -0.35, 0.35, 0.94, -2449.48, 1467.72)" gradientUnits="userSpaceOnUse"><stop offset="0" stop-color="#00b488"/><stop offset="0.92" stop-color="#007bc0"/></linearGradient><clipPath id="clip-path-2"><rect class="cls-1" x="535.99" y="1537.49" width="1129.65" height="1185.3"/></clipPath><linearGradient id="linear-gradient-3" x1="535.99" y1="2294.15" x2="1648.93" y2="2294.15" gradientTransform="matrix(1, 0, 0, 1, 0, 0)" xlink:href="#linear-gradient-2"/><linearGradient id="linear-gradient-4" x1="1377.29" y1="2033.72" x2="1320.6" y2="1890.21" gradientUnits="userSpaceOnUse"><stop offset="0" stop-color="#f45b5b"/><stop offset="1" stop-color="#f43856"/></linearGradient><linearGradient id="linear-gradient-5" x1="1840.16" y1="1123.25" x2="1809.33" y2="1303.8" gradientUnits="userSpaceOnUse"><stop offset="0" stop-color="#fff" stop-opacity="0.5"/><stop offset="1"/></linearGradient><linearGradient id="linear-gradient-6" x1="1939.08" y1="1074.32" x2="1909.53" y2="1247.38" xlink:href="#linear-gradient-5"/><linearGradient id="linear-gradient-7" x1="2629.62" y1="2086.66" x2="2898.16" y2="2266.76" gradientUnits="userSpaceOnUse"><stop offset="0" stop-color="#f85254"/><stop offset="1" stop-color="#f79865" stop-opacity="0.6"/></linearGradient><linearGradient id="linear-gradient-8" x1="2411.5" y1="2236.78" x2="2654.59" y2="2399.81" xlink:href="#linear-gradient-7"/><linearGradient id="linear-gradient-9" x1="2669.94" y1="2199.91" x2="2731.69" y2="2241.33" xlink:href="#linear-gradient-7"/><linearGradient id="linear-gradient-10" x1="2873.52" y1="2143.9" x2="3444.79" y2="2143.9" gradientUnits="userSpaceOnUse"><stop offset="0" stop-color="#664bb2"/><stop offset="1" stop-color="#0c2bcd"/></linearGradient><linearGradient id="linear-gradient-11" x1="1727.54" y1="2156.37" x2="1673.81" y2="2106.44" gradientUnits="userSpaceOnUse"><stop offset="0" stop-color="#6663b2"/><stop offset="1" stop-color="#372bcd"/></linearGradient><linearGradient id="linear-gradient-12" x1="2103.2" y1="2221.91" x2="1950.41" y2="2079.94" xlink:href="#linear-gradient-11"/><linearGradient id="linear-gradient-13" x1="1878.2" y1="1624.95" x2="1880.46" y2="1868.08" xlink:href="#linear-gradient-11"/></defs><title>02</title><g class="cls-2"><g id="_02" data-name="02"><rect class="cls-3" width="4680" height="3120"/><path class="cls-3" d="M3801.22,1267c-142.34-234.47-396.83-391.17-688.11-391.17-78.84,0-154.7,12.65-227.18,33.26-172.79-279.7-478.75-466.49-828.73-466.49-475.5,0-872.12,344.85-960,801.48-14.2-1-28.16-2.66-42.78-2.66-403.68,0-731.1,332.48-731.1,741.84,0,409.87,327.42,742.24,731.1,742.24h2560.9c404,0,731.46-332.37,731.46-742.24C4346.82,1638.86,4115.39,1350,3801.22,1267Z"/><path class="cls-4" d="M3811.85,1267c-142.34-234.47-396.83-391.17-688.1-391.17-78.85,0-154.71,12.65-227.18,33.26-172.8-279.7-478.76-466.49-828.74-466.49-475.5,0-872.11,344.85-960,801.48-14.2-1-28.16-2.66-42.78-2.66-403.68,0-731.1,332.48-731.1,741.84,0,409.87,327.42,742.24,731.1,742.24H3626c404,0,731.46-332.37,731.46-742.24C4357.45,1638.86,4126,1350,3811.85,1267Z"/><g class="cls-5"><path class="cls-6" d="M3869.59,2208.12c13.81-5.23,22.55-28.15-3.69-55.72s-79.9-131.35-79.9-131.35c-16.62,6.3-112.72-25.84-130-34s-21.1,123.94-39.15,130.78,13.67-122.71,4.47-147-61.6-28.88-97.59-15.23,2.56,282.48-14.06,288.78-38-275.6-53.34-282.84-53.78-12.29-116.42,22.88,84.52,310.78,70.2,344S3293.77,2021.54,3290.52,2013s-77.63,45.76-95.37,86.74,138.17,301.88,125.53,331.18-138.56-252.78-149.91-282.73-38.74-22.89-76.7,102.54c-10.52,34.59-3,65.34,13,92-97.45,98.2-.3,283.68,70.71,317a115.43,115.43,0,0,0,38.64,10.57,117.35,117.35,0,0,0,34.85-2.15,129.37,129.37,0,0,0,20.8-6c-1.31,1.7-2.6,3.33-3.87,5l29-1.79-3.59,35.07c2.23,14.51,6.93,32.5,15.39,54.83,39.51,104.24,312.65,40.08,258.94,14.91s-143.46-132.08-122.7-139.95,104.6,108.86,170.26,115,103.16-91.33,103.16-91.33-224.88-69-214.36-93.45,229.2,99.26,277.2,100.62,92.82-110.28,92.82-110.28-346.6-49.81-348.84-80,329.89,67.63,365.16,39.56,38.49-124,38.49-124-329.1,8.86-327.26-19.61,284.25,14.73,314.78-5-23.44-112-29.92-129-195.25,25.81-219.28,14.55S3855.74,2213.38,3869.59,2208.12Zm-623.72,259.29c-7.16,16.6-95.32-25.9-103.57-68.51a109.79,109.79,0,0,0-5.53-18.88C3184.38,2428,3250.08,2457.7,3245.87,2467.41Z"/></g><rect class="cls-3" x="3157.7" y="1604.66" width="262.1" height="27.94"/><rect class="cls-3" x="3157.7" y="1661.7" width="184.16" height="27.72"/><rect class="cls-3" x="3157.7" y="1718.5" width="337.98" height="27.94"/><rect class="cls-3" x="3157.7" y="1775.54" width="472.82" height="27.72"/><rect class="cls-3" x="3157.7" y="1401.95" width="280.73" height="40.08"/><rect class="cls-3" x="3157.7" y="1453.03" width="381.43" height="12.6"/><path class="cls-7" d="M3815.28,871.67H2844.73a31.91,31.91,0,0,0-31.91,31.9v597a62.34,62.34,0,0,0,62.35,62.34h909.67a62.34,62.34,0,0,0,62.35-62.34v-597A31.91,31.91,0,0,0,3815.28,871.67Z"/><path class="cls-8" d="M2823.47,850.41H3794a31.91,31.91,0,0,1,31.91,31.9V940.5H2791.56V882.31A31.91,31.91,0,0,1,2823.47,850.41Z"/><path class="cls-9" d="M2791.56,940.5H3825.93v538.82a62.35,62.35,0,0,1-62.35,62.34H2853.9a62.34,62.34,0,0,1-62.34-62.34Z"/><path class="cls-10" d="M3201.69,1081h357.8a27.69,27.69,0,0,1,27.61,27.61V1336a27.69,27.69,0,0,1-27.61,27.62h-357.8a27.69,27.69,0,0,1-27.61-27.62V1108.65a27.69,27.69,0,0,1,27.61-27.61Z"/><path class="cls-11" d="M3177.84,1058.39h375a29,29,0,0,1,28.83,29v238.18a28.88,28.88,0,0,1-28.83,28.82h-375a28.91,28.91,0,0,1-29-28.82V1087.39a29.06,29.06,0,0,1,29-29Z"/><rect class="cls-12" x="2828.15" y="1116.55" width="131.17" height="21.06"/><rect class="cls-13" x="2828.15" y="1159.53" width="92.17" height="20.88"/><rect class="cls-12" x="2828.15" y="1202.34" width="169.15" height="21.06"/><rect class="cls-13" x="2828.15" y="1245.31" width="236.63" height="20.88"/><rect class="cls-13" x="2828.15" y="963.8" width="140.49" height="30.2"/><rect class="cls-12" x="2828.15" y="1002.29" width="190.89" height="9.49"/><path class="cls-9" d="M3604.83,882.68a25.71,25.71,0,1,1,9.32,35,25.56,25.56,0,0,1-9.32-35Z"/><path class="cls-9" d="M3739.45,882.68A25.71,25.71,0,1,1,3784,908.4a25.83,25.83,0,0,1-35.2,9.32,25.51,25.51,0,0,1-9.33-35Z"/><path class="cls-9" d="M3672.14,882.68a25.71,25.71,0,1,1,9.32,35,25.56,25.56,0,0,1-9.32-35Z"/><path class="cls-3" d="M3193.71,1219.08v-23l121.51-55.92v24.68l-96.31,42.81,96.31,43.49v24.51Zm136,90.78,53.51-206.77h18.29l-53.68,206.77Zm207.46-90.78-121.5,56.61v-24.51l96-43.49-96-42.81V1140.2l121.5,55.92Z"/><path class="cls-9" d="M2917,1505.6s16.79,57.88-10.63,124.91l188.88-118.82Z"/><rect class="cls-14" x="721.38" y="690.17" width="1560.85" height="1084.22" rx="74.83"/><rect class="cls-15" x="759.18" y="664.06" width="1496.14" height="1084.22" rx="55.75"/><rect class="cls-16" x="864.18" y="894.19" width="512.81" height="747.93" rx="11.04"/><rect class="cls-17" x="952.09" y="963.79" width="332.1" height="73.26" rx="10.35"/><path class="cls-17" d="M1063.21,1444.23h-66a28.06,28.06,0,0,1-28.07-28.07h0a28.07,28.07,0,0,1,28.07-28.07h66a28.07,28.07,0,0,1,28.07,28.07h0A28.07,28.07,0,0,1,1063.21,1444.23Z"/><path class="cls-18" d="M1253.68,1444.23h-66a28.07,28.07,0,0,1-28.07-28.07h0a28.07,28.07,0,0,1,28.07-28.07h66a28.08,28.08,0,0,1,28.08,28.07h0A28.07,28.07,0,0,1,1253.68,1444.23Z"/><rect class="cls-19" x="944.77" y="1110.31" width="356.52" height="56.16" rx="7.6"/><rect class="cls-19" x="944.77" y="1205.54" width="356.52" height="56.16" rx="7.6"/><rect class="cls-20" x="1021.69" y="1297.12" width="205.12" height="12.82" rx="6.41"/><path class="cls-16" d="M1220.48,874.8H909.25a45.69,45.69,0,0,1-45.69-45.69h0a45.69,45.69,0,0,1,45.69-45.69h311.23a45.69,45.69,0,0,1,45.68,45.69h0A45.69,45.69,0,0,1,1220.48,874.8Z"/><path class="cls-21" d="M994.34,829.11A25.13,25.13,0,1,1,969.21,804,25.13,25.13,0,0,1,994.34,829.11Z"/><path class="cls-22" d="M1092.37,829.11A25.13,25.13,0,1,1,1067.24,804,25.13,25.13,0,0,1,1092.37,829.11Z"/><path class="cls-23" d="M1182.79,829.11A25.13,25.13,0,1,1,1157.66,804,25.13,25.13,0,0,1,1182.79,829.11Z"/><rect class="cls-16" x="1424.77" y="979.31" width="344.02" height="225.98" rx="5.43"/><path class="cls-24" d="M1597.12,1090.55h-.67a9,9,0,0,1-4.39-1.14l-132.61-73.67a9,9,0,1,1,8.78-15.8l128.56,71.41,128.55-71.41a9,9,0,1,1,8.78,15.8l-132.61,73.67A9,9,0,0,1,1597.12,1090.55Z"/><rect class="cls-25" x="1862.57" y="611.83" width="487.17" height="630.02" rx="22.72"/><path class="cls-26" d="M1971.41,696.28H1939c-1.72,0-3.12-2.81-3.12-6.28h0c0-3.46,1.4-6.27,3.12-6.27h32.46c1.73,0,3.13,2.81,3.13,6.27h0C1974.54,693.47,1973.14,696.28,1971.41,696.28Z"/><path class="cls-26" d="M2172.37,696.28H1986.69c-1.72,0-3.12-2.81-3.12-6.28h0c0-3.46,1.4-6.27,3.12-6.27h185.68c1.72,0,3.12,2.81,3.12,6.27h0C2175.49,693.47,2174.09,696.28,2172.37,696.28Z"/><path class="cls-27" d="M2045.92,722.22h-59.23c-1.72,0-3.12-2.81-3.12-6.28h0c0-3.46,1.4-6.27,3.12-6.27h59.23c1.73,0,3.13,2.81,3.13,6.27h0C2049.05,719.41,2047.65,722.22,2045.92,722.22Z"/><path class="cls-28" d="M2143.33,722.22H2058c-1.73,0-3.13-2.81-3.13-6.28h0c0-3.46,1.4-6.27,3.13-6.27h85.35c1.73,0,3.13,2.81,3.13,6.27h0C2146.46,719.41,2145.06,722.22,2143.33,722.22Z"/><path class="cls-28" d="M2172.37,848.53H1986.69c-1.72,0-3.12-2.81-3.12-6.28h0c0-3.47,1.4-6.28,3.12-6.28h185.68c1.72,0,3.12,2.81,3.12,6.28h0C2175.49,845.72,2174.09,848.53,2172.37,848.53Z"/><path class="cls-26" d="M1971.41,874.47H1939c-1.72,0-3.12-2.81-3.12-6.28h0c0-3.46,1.4-6.27,3.12-6.27h32.46c1.73,0,3.13,2.81,3.13,6.27h0C1974.54,871.66,1973.14,874.47,1971.41,874.47Z"/><path class="cls-28" d="M2045.92,874.47h-59.23c-1.72,0-3.12-2.81-3.12-6.28h0c0-3.46,1.4-6.27,3.12-6.27h59.23c1.73,0,3.13,2.81,3.13,6.27h0C2049.05,871.66,2047.65,874.47,2045.92,874.47Z"/><path class="cls-27" d="M2143.33,874.47H2058c-1.73,0-3.13-2.81-3.13-6.28h0c0-3.46,1.4-6.27,3.13-6.27h85.35c1.73,0,3.13,2.81,3.13,6.27h0C2146.46,871.66,2145.06,874.47,2143.33,874.47Z"/><path class="cls-27" d="M2218.41,748.16H1986.69c-1.72,0-3.12-2.81-3.12-6.27h0c0-3.47,1.4-6.28,3.12-6.28h231.72c1.73,0,3.13,2.81,3.13,6.28h0C2221.54,745.35,2220.14,748.16,2218.41,748.16Z"/><rect class="cls-26" x="2112.59" y="761.55" width="60.56" height="12.55" rx="0.62"/><path class="cls-28" d="M2063.66,774.1h-77c-1.72,0-3.12-2.81-3.12-6.27h0c0-3.47,1.4-6.28,3.12-6.28h77c1.73,0,3.13,2.81,3.13,6.28h0C2066.79,771.29,2065.39,774.1,2063.66,774.1Z"/><path class="cls-26" d="M2104.63,774.1h-30.52c-1.73,0-3.13-2.81-3.13-6.27h0c0-3.47,1.4-6.28,3.13-6.28h30.52c1.72,0,3.12,2.81,3.12,6.28h0C2107.75,771.29,2106.35,774.1,2104.63,774.1Z"/><path class="cls-28" d="M1971.41,799.18H1939c-1.72,0-3.12-2.81-3.12-6.27h0c0-3.47,1.4-6.28,3.12-6.28h32.46c1.73,0,3.13,2.81,3.13,6.28h0C1974.54,796.37,1973.14,799.18,1971.41,799.18Z"/><path class="cls-28" d="M2218.41,799.18H1986.69c-1.72,0-3.12-2.81-3.12-6.27h0c0-3.47,1.4-6.28,3.12-6.28h231.72c1.73,0,3.13,2.81,3.13,6.28h0C2221.54,796.37,2220.14,799.18,2218.41,799.18Z"/><path class="cls-28" d="M1971.41,898.49H1939c-1.72,0-3.12-2.81-3.12-6.27h0c0-3.47,1.4-6.28,3.12-6.28h32.46c1.73,0,3.13,2.81,3.13,6.28h0C1974.54,895.68,1973.14,898.49,1971.41,898.49Z"/><rect class="cls-28" x="2112.59" y="885.94" width="83.79" height="12.55" rx="0.73"/><path class="cls-28" d="M2063.66,898.49h-77c-1.72,0-3.12-2.81-3.12-6.27h0c0-3.47,1.4-6.28,3.12-6.28h77c1.73,0,3.13,2.81,3.13,6.28h0C2066.79,895.68,2065.39,898.49,2063.66,898.49Z"/><path class="cls-28" d="M2104.63,898.49h-30.52c-1.73,0-3.13-2.81-3.13-6.27h0c0-3.47,1.4-6.28,3.13-6.28h30.52c1.72,0,3.12,2.81,3.12,6.28h0C2107.75,895.68,2106.35,898.49,2104.63,898.49Z"/><path class="cls-29" d="M1971.41,923.57H1939c-1.72,0-3.12-2.81-3.12-6.28h0c0-3.46,1.4-6.27,3.12-6.27h32.46c1.73,0,3.13,2.81,3.13,6.27h0C1974.54,920.76,1973.14,923.57,1971.41,923.57Z"/><path class="cls-26" d="M2026.81,923.57h-40.12c-1.72,0-3.12-2.81-3.12-6.28h0c0-3.46,1.4-6.27,3.12-6.27h40.12c1.73,0,3.13,2.81,3.13,6.27h0C2029.94,920.76,2028.54,923.57,2026.81,923.57Z"/><path class="cls-26" d="M1939,825.12c-1.72,0-3.12-2.81-3.12-6.27h0c0-3.47,1.4-6.28,3.12-6.28h32.46c1.73,0,3.13,2.81,3.13,6.28h0c0,3.46-1.4,6.27-3.13,6.27"/><rect class="cls-28" x="2112.59" y="812.57" width="94.67" height="12.55" rx="0.78"/><path class="cls-29" d="M2063.66,825.12h-77c-1.72,0-3.12-2.81-3.12-6.27h0c0-3.47,1.4-6.28,3.12-6.28h77c1.73,0,3.13,2.81,3.13,6.28h0C2066.79,822.31,2065.39,825.12,2063.66,825.12Z"/><path class="cls-29" d="M2104.63,825.12h-30.52c-1.73,0-3.13-2.81-3.13-6.27h0c0-3.47,1.4-6.28,3.13-6.28h30.52c1.72,0,3.12,2.81,3.12,6.28h0C2107.75,822.31,2106.35,825.12,2104.63,825.12Z"/><path class="cls-28" d="M2172.37,950.24H1986.69c-1.72,0-3.12-2.81-3.12-6.27h0c0-3.47,1.4-6.28,3.12-6.28h185.68c1.72,0,3.12,2.81,3.12,6.28h0C2175.49,947.43,2174.09,950.24,2172.37,950.24Z"/><path class="cls-28" d="M2045.92,976.18h-59.23c-1.72,0-3.12-2.81-3.12-6.27h0c0-3.47,1.4-6.28,3.12-6.28h59.23c1.73,0,3.13,2.81,3.13,6.28h0C2049.05,973.37,2047.65,976.18,2045.92,976.18Z"/><path class="cls-28" d="M2143.33,976.18H2058c-1.73,0-3.13-2.81-3.13-6.27h0c0-3.47,1.4-6.28,3.13-6.28h85.35c1.73,0,3.13,2.81,3.13,6.28h0C2146.46,973.37,2145.06,976.18,2143.33,976.18Z"/><path class="cls-28" d="M2172.37,1102.49H1986.69c-1.72,0-3.12-2.81-3.12-6.28h0c0-3.46,1.4-6.27,3.12-6.27h185.68c1.72,0,3.12,2.81,3.12,6.27h0C2175.49,1099.68,2174.09,1102.49,2172.37,1102.49Z"/><path class="cls-27" d="M1971.41,1128.43H1939c-1.72,0-3.12-2.81-3.12-6.28h0c0-3.46,1.4-6.27,3.12-6.27h32.46c1.73,0,3.13,2.81,3.13,6.27h0C1974.54,1125.62,1973.14,1128.43,1971.41,1128.43Z"/><path class="cls-26" d="M2045.92,1128.43h-59.23c-1.72,0-3.12-2.81-3.12-6.28h0c0-3.46,1.4-6.27,3.12-6.27h59.23c1.73,0,3.13,2.81,3.13,6.27h0C2049.05,1125.62,2047.65,1128.43,2045.92,1128.43Z"/><path class="cls-28" d="M2143.33,1128.43H2058c-1.73,0-3.13-2.81-3.13-6.28h0c0-3.46,1.4-6.27,3.13-6.27h85.35c1.73,0,3.13,2.81,3.13,6.27h0C2146.46,1125.62,2145.06,1128.43,2143.33,1128.43Z"/><path class="cls-27" d="M1971.41,1002.13H1939c-1.72,0-3.12-2.82-3.12-6.28h0c0-3.47,1.4-6.28,3.12-6.28h32.46c1.73,0,3.13,2.81,3.13,6.28h0C1974.54,999.31,1973.14,1002.13,1971.41,1002.13Z"/><rect class="cls-27" x="1983.57" y="989.57" width="172.65" height="12.55" rx="0.71"/><path class="cls-28" d="M1971.41,1028.07H1939c-1.72,0-3.12-2.81-3.12-6.28h0c0-3.47,1.4-6.28,3.12-6.28h32.46c1.73,0,3.13,2.81,3.13,6.28h0C1974.54,1025.26,1973.14,1028.07,1971.41,1028.07Z"/><path class="cls-28" d="M2063.66,1028.07h-77c-1.72,0-3.12-2.81-3.12-6.28h0c0-3.47,1.4-6.28,3.12-6.28h77c1.73,0,3.13,2.81,3.13,6.28h0C2066.79,1025.26,2065.39,1028.07,2063.66,1028.07Z"/><path class="cls-28" d="M2104.63,1028.07h-30.52c-1.73,0-3.13-2.81-3.13-6.28h0c0-3.47,1.4-6.28,3.13-6.28h30.52c1.72,0,3.12,2.81,3.12,6.28h0C2107.75,1025.26,2106.35,1028.07,2104.63,1028.07Z"/><path class="cls-28" d="M1971.41,1053.14H1939c-1.72,0-3.12-2.81-3.12-6.27h0c0-3.47,1.4-6.28,3.12-6.28h32.46c1.73,0,3.13,2.81,3.13,6.28h0C1974.54,1050.33,1973.14,1053.14,1971.41,1053.14Z"/><rect class="cls-28" x="1983.57" y="1040.59" width="217.41" height="12.55" rx="0.8"/><path class="cls-28" d="M1971.41,1152.46H1939c-1.72,0-3.12-2.81-3.12-6.28h0c0-3.47,1.4-6.28,3.12-6.28h32.46c1.73,0,3.13,2.81,3.13,6.28h0C1974.54,1149.65,1973.14,1152.46,1971.41,1152.46Z"/><path class="cls-28" d="M2218.17,1152.46H2115.72c-1.73,0-3.13-2.81-3.13-6.28h0c0-3.47,1.4-6.28,3.13-6.28h102.45c1.72,0,3.12,2.81,3.12,6.28h0C2221.29,1149.65,2219.89,1152.46,2218.17,1152.46Z"/><path class="cls-28" d="M2063.66,1152.46h-77c-1.72,0-3.12-2.81-3.12-6.28h0c0-3.47,1.4-6.28,3.12-6.28h77c1.73,0,3.13,2.81,3.13,6.28h0C2066.79,1149.65,2065.39,1152.46,2063.66,1152.46Z"/><path class="cls-28" d="M2104.63,1152.46h-30.52c-1.73,0-3.13-2.81-3.13-6.28h0c0-3.47,1.4-6.28,3.13-6.28h30.52c1.72,0,3.12,2.81,3.12,6.28h0C2107.75,1149.65,2106.35,1152.46,2104.63,1152.46Z"/><rect class="cls-29" x="1983.57" y="1164.98" width="143.62" height="12.55" rx="0.65"/><rect class="cls-27" x="2112.59" y="1066.53" width="100.23" height="12.55" rx="0.8"/><path class="cls-29" d="M2063.66,1079.09h-77c-1.72,0-3.12-2.81-3.12-6.28h0c0-3.47,1.4-6.28,3.12-6.28h77c1.73,0,3.13,2.81,3.13,6.28h0C2066.79,1076.28,2065.39,1079.09,2063.66,1079.09Z"/><path class="cls-29" d="M2104.63,1079.09h-30.52c-1.73,0-3.13-2.81-3.13-6.28h0c0-3.47,1.4-6.28,3.13-6.28h30.52c1.72,0,3.12,2.81,3.12,6.28h0C2107.75,1076.28,2106.35,1079.09,2104.63,1079.09Z"/><circle class="cls-30" cx="2310.46" cy="624.84" r="102.56"/><path class="cls-19" d="M2303,615.22l-40.73,14.92L2303,645v15.29l-58.23-22.14V622.19L2303,600.05Z"/><path class="cls-19" d="M2316.33,600.05l58.23,22.14V638.1l-58.23,22.14V645l40.73-14.81-40.73-14.92Z"/><path class="cls-14" d="M1563.82,520.93H980.5a85.78,85.78,0,1,0,0,171.56h42.89L1064.86,734l41.46-41.46h457.5a85.78,85.78,0,0,0,0-171.56Z"/><path class="cls-18" d="M1572.94,507.25H989.63a85.78,85.78,0,1,0,0,171.56h42.89L1074,720.27l41.46-41.46h457.5a85.78,85.78,0,0,0,0-171.56Z"/><path class="cls-3" d="M1406,620.37H1022.19a9.59,9.59,0,0,1-9.59-9.59h0a9.59,9.59,0,0,1,9.59-9.6H1406a9.59,9.59,0,0,1,9.59,9.6h0A9.59,9.59,0,0,1,1406,620.37Z"/><path class="cls-3" d="M1286.08,567.6H1022.19a9.59,9.59,0,0,1-9.59-9.6h0a9.59,9.59,0,0,1,9.59-9.59h263.89a9.59,9.59,0,0,1,9.6,9.59h0A9.6,9.6,0,0,1,1286.08,567.6Z"/><g class="cls-31"><path class="cls-32" d="M536,2186.68s7.06-3.66,18.89-8.37c54.17-16.7,168.87-11.45,211.26,6.77,25.3,10.88,84.22,39.6,134.67,64.51-18.53,2.16-63.09,14.25-77.25-.35,0,0-30.53,73.93-18.16,105.8s149.38,45.68,122.59,53.11-131.87-15.51-131.87-15.51-9.27,76.06,19.58,90.93S996,2476.13,981.57,2491s-153,30.28-169,13.81c0,0-3.09,91.35,47.39,100.92s188.64-68,176.74-46.74-139.66,82.85-178.8,59.48c0,0,35,87.11,67,87.11s110.72-112.08,126.7-95.6-69,96.66-116.4,106.22c0,0,18.55,49.92,79.34,35.05s50.48-112.6,69-104.09,1,115.78-60.79,115.78c0,0,101,24.43,124.66-31.87,6.67-15.83,9.92-28.8,11.25-39.39,9.24,44.47,14.49,98.11,17.09,151.89h-92.1c-138.82,47.59-133,143.48,11.9,187.44h278c145-44,150.69-139.87,11.91-187.44h-75.25c17.48-142.72,43.37-261.35,64.49-342.9,3.33,9.52,8.8,21.7,16.93,30.09,15.16,15.62,44.3-37.63,44.3-64.19s-31.36-1.06-31.36-15.93,4.58-7.44,44.76-7.44,54.6-85,54.6-85-60.79,7.43-60.79-4.25,48.43-5.32,79.33-13.81,48.42-77.54,48.42-77.54-88.6,26.55-88.6,14.86,68.52-22.83,81.39-36.11,17.51-73.3,17.51-73.3-58.72,56.3-68,56.3,62.33-62.14,55.63-69-9.27-36.25-9.27-36.25c-12.81,13.21-34-4.12-47.39,9.69s-37.61,119.5-47.39,129.59,27.3-84.44,10.3-102-63,26.88-72.11,36.24,21.63,111.94,9.27,124.69-9.84-90.24-19.68-100.38-36,15.93-43.68,46.2,59.49,82.06,40.18,102-37.09-55.77-54.09-73.29c-12.57-13-38.6,12.39-51.35,34.86,3-91.67,7.57-173.32,14.44-231.59,13.77,38.26,84.86,84.12,134.83,31.62,10.65,8.67,23.81,12.53,40.18,6.44,59.4-22.05,64.86-37.27,52.36-43.31s-128.57-73.38-114.39-80.63,118.28,76.87,138.14,66.73,50.39-51.79,46.81-53.51-147.65-55.34-131.57-63.56,127.47,71,148.45,36,21.88-56.15,19.93-64.62-126.63-17.93-122.43-27.18,121.58,9.86,130.68-10.17,11.39-49,1.27-53.9-70.85,13.7-66.29,3.68,64.08-13.21,61.87-22.74-8.65-62.44-4.45-71.69c0,0-42.1-28.79-52.29-43.11s-21.19-9.3-24.69-1.59-31.21,125.42-34.27,112.19,31.86-118,24.72-121.51-44-32.54-55.41-15.48-15.44,173-28.36,174.26,18.34-181,18.34-181-43.28,2.59-58.79,22.35.79,202.77-12.56,201.79-6.95-192.42-6.95-192.42-53.79,25.7-57.15,52.27,34,146.56,22.14,152.6S1344,1790.79,1344,1790.79s-46.82,21.55-49.51,57.84,42.73,81.73,37.48,93.29-45.78-37.26-52.61-66.76-58.27,122.22-14.81,143.21c13.13,6.34,23,8.61,30.47,8.75-21.52,57.18-27.94,283.9-29.72,345.54-8.23-8-13.82-13.91-13.82-13.91-11.45,4.55-18.24,19.44-21.4,38.66-5.65-7.21-9.62-11.57-9.62-11.57s-4.62,16-11.6,37.54c-7.26-57.78-6.44-42.36-6.64-54.71,1.14-7.28,1.16-13.32-.28-17.65-5.88-368.19-4.26-344.82-6-346.84.84-25.35,9-248.7,39.07-308.79,31.94-63.73,52.55-138.09,52.55-138.09s-27.31,44.08-51.51,69-45.33,29.75-45.33,52.05,31.93,94.54,11.33,83.92-15.46-54.17-22.67-54.17-37.09,99.84-37.09,105.16,51.52,46.74,38.12,60.55-35-53.12-43.27-44.62-10.3,81.79-10.3,100.91,39.67,9,21.63,27.62-21.59,92.68-21.63,126.92c-42.83-101.14-81.32-127.16-144.22-165.4,13.69,0,31.11-3.7,45.58-18.61,28.49-29.38,41.58-137.86-24.12-167.76,2.9-16,.86-32.4-10.66-47.35-41.72-54.17-56.4-52.58-56.4-35.85s-9.27,177.66-20.86,165.71,16.22-168.1,0-184.83-62.59-29.47-62.59-24.7,13.13,189.62,0,176.07,7.73-175.27-29.36-180.84-54.87,4-61,10.35,35.54,147.9,26.26,147.9S749.25,1621,729.16,1621s-44.82,12-44.82,25.5,39.41,70.9,29.36,70.9-36.31-63.73-43.27-56.56-47.9,40.62-57.17,40.62c0,0-7,60.56-14.69,78.88s.78,27.89,8.5,27.89,115.52-28.29,105.86-18.33-109.72,23.9-109.72,33.46-9.27,64.53,9.27,68.51,148.36-69.31,154.54-55.77-156.08,70.11-156.08,70.11,19.32,46.21,41.72,53.38,166.4-102,170.9-86.84-155.44,103.57-155.44,103.57,42.49,46.21,65.68,36.65,107-110.34,116.67-100.38-87.31,85.24-87.31,85.24,36.31,40.63,67.22,25.49,50.22-87.63,61.81-87.63-12.45,68.8-34,91,123.62,3,123.62-55.17c0-24.61-4-38.3-8.65-46,25.75,15.91,53.6,30.74,77.78,56.68,62.66,64.85,102.89,192.77,128.84,340.79-9-6.36-15.87-5.7-15.87,2.25,0,13.82-32.45,157.75-48.43,141.28s45.34-147.65,23.7-170c-12.84-13.24-42.7-30.52-66.17-39.11,0,0,0-.05,0-.07-10.13-10.45-40.92-21.36-31.45-51.64s-40.38-57.35-40.38-57.35-30.91,46.2-58.72,46.2,35.54-30.27,35.54-47.8-95.81-49.39-95.81-49.39,26.88,79.18,26.73,103c-11.42-8.24-23.64-12.06-34.09-17.88-9.06-26.12-13.22-77.63-28.18-83.51-15.56-6.11-38.12-21.78-48.54-10.7,30.64,80.34-3,64.76-18.49,58.95-7.48-19.46-25.66-84.9-30.33-84.9-5.07,0-14.3,6.2-28.94,10.5,10.93,21.6,35.38,73.19,21.7,77.3-12.74,3.81-47-47-64.29-74.17-1.87-.24-3.79-.53-5.74-.88-13.13-2.33-22-3.4-28.85-2.79,10.32,15.36,24.91,40.24,19.13,50.67-5.18,9.32-29.3-12.46-47.9-31.53-5,5.43-10.92,12.14-18.83,20.3A491.31,491.31,0,0,0,536,2186.68Zm423.43-367.27c-3.85-4,22.72-30.58,37.08-62.84a55.56,55.56,0,0,0,.78,10.25C1001.14,1789.13,966,1826.18,959.42,1819.41Zm429,231.54c4.71-2.4,12.56,33.7,30.15,59.67a35.39,35.39,0,0,0-8-2.93C1392.14,2103.5,1380.39,2055.06,1388.43,2051Zm-195.06,267.51c-11.71-67.27-27-130.84-54-202.31,8.58,5.47,20.23,3.27,30.72-7.55,18.13-18.69,10.67-86.48,22.56-99.78C1191.47,2036.87,1192.06,2163.65,1193.37,2318.46ZM1262,2529.84l-.15,12.17c-12,16.34-26,35.12-36.9,36.57q-1-11.26-2-22.49c7.12-9,17.72-20.29,27.4-34C1255.87,2529,1259.08,2529.17,1262,2529.84Zm74.47-110.53c-7.79,8-33.5-11.93-54.62-31,.22-9.43.46-18.81.72-28.09C1300.2,2380.84,1347.88,2407.55,1336.48,2419.31Zm-57.54,424.26c-.43-70.38-.63-151.7-.16-235.5,9.33-30,10.63-63.62,8.83-80.33,28.42-7.85,63.53-29.11,77.06-37.74-21.65,82.5-48.85,205.11-67,353.57Zm-37.4,0c-2.41-56.54-5.65-117.16-9.91-178.61,12-4.25,20.35-9.39,29.24-20.75-.45,71-.45,139.19-.23,199.36Zm-30.51,0c-1-45.63-2.14-102.55-3.51-173.92a82.78,82.78,0,0,0,9.8-1.06c3.67,61.14,6,120.25,7.59,175ZM1159.85,2658a96.31,96.31,0,0,0,37,11.3c.7,63.29,1.39,122.81,2,174.25h-11.8C1183.33,2777.9,1175.18,2711.25,1159.85,2658Zm32.56-253.62c2.34,17.06,1.77,6.8,2.3,60.23-14.27,39-31.29,76.84-42.12,72C1137.79,2530.14,1173.58,2458.54,1192.41,2404.4Zm-169.94-122.59c6.12-1.82,12.41-3.77,18.42-5.79,2.88,41.91,16.93,131.07-9.87,131.07C1006.78,2407.09,1022.62,2326.88,1022.47,2281.81ZM911.71,2255l21.44,10.63c11.1,24.92,31.8,75.39,15.45,71.37C930.39,2332.51,922.39,2273.59,911.71,2255Z"/></g><polygon class="cls-33" points="1746.04 2064.3 1799.11 2467.11 1490.37 2467.11 1478.31 2143.9 1746.04 2064.3"/><path class="cls-34" d="M1334.39,1883.4s-164.82,67.54-186.53,323.21,12.06,516.18,12.06,516.18h330.45L1541,2111.74S1472.68,1861.7,1334.39,1883.4Z"/><path class="cls-35" d="M1818.4,1051.26s-45.83-72.37-147.13-24.12c-98.67,47-176.08,501.7-260.5,578.88s-120.6,120.6-84.42,171.25-16.89,31.36-14.47,74.78,43.41,48.24,43.41,48.24l294.27-371.45Z"/><path class="cls-36" d="M1274,1924.41s21,91.65,139.17,106.13l-14.47-96.48-77.19-45.83S1289.21,1909.94,1274,1924.41Z"/><path class="cls-37" d="M1428.89,1686.42l-35,88.44s-86.84,55.48-82,77.19,8.44,36,8.44,36,37.38,58,78.39,70.11,50.65-132.67,50.65-132.67l2.41-234-6.89,38.59A292.61,292.61,0,0,1,1428.89,1686.42Z"/><path class="cls-38" d="M1250.37,2121s123-16.89,180.9-156.78"/><path class="cls-39" d="M1777.4,1048.84s-96.48-55.47-130.25,31.36-26.53,205-91.66,279.79"/><path class="cls-40" d="M2242.92,1741.09H1905.23c-21.7,31.36-131.45,243.62-131.45,243.62l-148.34,188.14-135.07,21.7s-67.54-14.47-101.31-67.53,77.19-412.46,60.3-559.59,0-188.14,62.71-214.19,147.14,26,147.14,26,217.08,16.88,260.5,24.12c18.11,3,45,36.28,72.77,77.35,38.66,57.36,78.8,129.92,98.48,156.62C2124.73,1683.21,2242.92,1741.09,2242.92,1741.09Z"/><path class="cls-41" d="M1768,1516.7s125.8-3.13,189.58-80.2L1912.44,1378l-101,66.44Z"/><path class="cls-42" d="M1811.17,1446.83l-4.55,27.29a50.87,50.87,0,0,1-59.6,41.68c-34.31-6.51-74.79-23.9-85.4-69-7.24-30.76-9.72-53.71-1.61-66.57,11.26-17.85,20.91-37.15,20.91-37.15S1823.23,1345.52,1811.17,1446.83Z"/><path class="cls-43" d="M2001.72,1239.39s-29,195.38-111.9,226.73a97.31,97.31,0,0,1-28.53,6c-51.31,3-109.63-25.23-131.24-100.08-25.79-89.24,18-207.43,18-207.43L1889.82,1114l4.25,2.8,73.06,47.85Z"/><path class="cls-44" d="M2001.72,1239.39a714.69,714.69,0,0,1-16.77,78,543.79,543.79,0,0,1-19.61,59.24c-17.51,43.73-42.14,76.85-75.52,89.46a97.31,97.31,0,0,1-28.53,6c-48.07-2.75-102.56-38.28-122.49-107.31-25.78-89.25-26.53-202.61-26.53-202.61l181.8-45.44,73.06,47.85Z"/><path class="cls-45" d="M1935,1166.36a91,91,0,0,1-15.26-4.15s-29-21.71-41-4.83S1832.87,1278,1717.1,1278l-.85,2.26L1693,1343.11s-98.9-74.77-48.24-197.79,156.78-98.89,156.78-98.89,79.59-62.71,142.31,43.42C1989,1166.24,1956.63,1170.14,1935,1166.36Z"/><path class="cls-45" d="M2035.56,1219.69c-3.26,14.42-18.36,25.2-36.52,26.31a357.2,357.2,0,0,1-61.58-1.71c-5.07-.58-9.67-1.21-13.75-1.83-10.06-1.55-16.33-9.7-13.46-17.59a138.54,138.54,0,0,0,5.11-19,208.91,208.91,0,0,0-.91-86.32l-10.28-47.23-1.35-6.2s3.52-.79,9.41-1.57c3.54-.43,7.93-.86,12.93-1.08,27.83-1.33,74.63,3.5,98.17,45.73C2045.83,1149.64,2041.47,1193.64,2035.56,1219.69Z"/><path class="cls-46" d="M1358.91,1935.26s-112.16,95.28-126.63,271.35,0,516.18,0,516.18"/><path class="cls-47" d="M1205.51,1988.71l22.09,12.62a5.62,5.62,0,0,1,2.24,7.4c-8.37,16.71-36.16,76.1-48.64,151.61a27.5,27.5,0,0,1-37.34,21h0a4.57,4.57,0,0,1-2.86-4.77c2.27-19.76,15.28-119.38,53.27-184.9A8.26,8.26,0,0,1,1205.51,1988.71Z"/><path class="cls-45" d="M1829.8,1248.19c4.65.75,10.18-.8,15.6-2s10.93-2.58,15.73-3.51,10.38-1.85,15.92-2.64,11.23-1.52,15.2-3.94,4.7-6.84-1.2-11.09c-5.58-4.18-18.66-7.35-34.6-4.29s-26.65,10.93-30.08,16.85C1822.68,1243.65,1825.33,1247.53,1829.8,1248.19Z"/><path class="cls-45" d="M1969.05,1249.52c1.94,1.85,5,2.34,7.94,3s5.92,1.32,8.45,2,5.44,1.67,8.28,2.7,5.73,2.13,8.34,1.58,4.35-3.46,2.93-8.13c-1.3-4.51-6.42-10.48-14.83-12.88s-15.9.05-19.36,3.23C1967.15,1244.31,1967.17,1247.78,1969.05,1249.52Z"/><path class="cls-48" d="M1985,1317.42a543.79,543.79,0,0,1-19.61,59.24,77.76,77.76,0,0,1,3-29C1971.85,1335.44,1977.84,1325,1985,1317.42Z"/><ellipse class="cls-49" cx="1981.68" cy="1309.34" rx="46.19" ry="30.06" transform="translate(232.15 2915.77) rotate(-76.01)"/><path class="cls-44" d="M1941.41,1328.64l7.24,21.71s8.62-8,3.42-16.28C1948.65,1328.64,1941.41,1328.64,1941.41,1328.64Z"/><path class="cls-50" d="M1943,1357.56h-.61l-8-.33a1.81,1.81,0,0,1-1.52-2c0-1.06.77-2,1.58-1.85l8.05.34c2.35.1,4.57-1.23,6.3-3.7a18.11,18.11,0,0,0,2.9-9.93V1339c.05-3-1.38-5.46-3.19-5.54-2.69-.11-5.17-1.77-7-4.66a18.67,18.67,0,0,1-2.61-10.19l.33-16a1.76,1.76,0,0,1,1.59-1.83,1.82,1.82,0,0,1,1.51,2l-.34,16a14.24,14.24,0,0,0,2,7.74c1.23,2,2.87,3.1,4.61,3.17,3.52.15,6.31,4.39,6.23,9.47l0,1.12a22.23,22.23,0,0,1-3.63,12.3C1948.87,1355.71,1946,1357.47,1943,1357.56Z"/><ellipse class="cls-48" cx="1807.55" cy="1329.84" rx="49.45" ry="54.27" transform="translate(-228.84 387.06) rotate(-11.5)"/><ellipse class="cls-49" cx="1871.94" cy="1297.59" rx="52.25" ry="47.67" transform="matrix(0.18, -0.98, 0.98, 0.18, 265.27, 2912.05)"/><path class="cls-49" d="M1919.71,1304.52s26.61-9.65,31.39,4.82"/><path class="cls-50" d="M1913.27,1401.8s-37-5.63-51.45-17.69c0,0-9.65,45.83,9.65,45.83S1913.27,1401.8,1913.27,1401.8Z"/><line class="cls-49" x1="1825.64" y1="1282.81" x2="1729.16" y2="1275.57"/><path class="cls-45" d="M1889.17,1299.88c-.89,7-6.12,12.12-11.68,11.41s-9.34-7-8.44-14,6.13-12.12,11.68-11.41S1890.07,1292.87,1889.17,1299.88Z"/><path class="cls-45" d="M1873.88,1292.46a18,18,0,0,1-7.24-7.24s1.27,6.39,3,9.23S1873.88,1292.46,1873.88,1292.46Z"/><path class="cls-45" d="M1963.06,1307.08c-1.37,6.54,1.17,12.85,5.69,14.1s9.28-3,10.65-9.57-1.17-12.86-5.68-14.11S1964.44,1300.54,1963.06,1307.08Z"/><path class="cls-45" d="M1977.1,1305.66a13.91,13.91,0,0,0,7.73-4s-2.86,5.26-5.08,7.18S1977.1,1305.66,1977.1,1305.66Z"/><path class="cls-51" d="M1737.44,1244.66s-46.5-87-10.06-153.35C1727.38,1091.31,1701.43,1170.78,1737.44,1244.66Z"/><path class="cls-51" d="M1799.86,1219s-69.61-69.85-53.87-143.94C1746,1075.1,1744.06,1158.68,1799.86,1219Z"/><path class="cls-52" d="M1935,1166.36a91,91,0,0,1-15.26-4.15s-29-21.71-41-4.83S1832.87,1278,1717.1,1278l-.85,2.26c-8.58-3.64-6-6.41,17.73-7.09,84.42-2.41,115.78-113.36,144.72-139.9s52.37,7.75,52.37,7.75Z"/><path class="cls-53" d="M1941.41,1237c-1.27,2.58-2.6,5-4,7.31-5.07-.58-9.67-1.21-13.75-1.83-10.06-1.55-16.33-9.7-13.46-17.59a138.54,138.54,0,0,0,5.11-19,208.91,208.91,0,0,0-.91-86.32l-11.63-53.86c2.87-3.21,6.92.79,9.41-1.14,5.57-4.31,10-5.21,12.78-1.27l.15.19C1928.61,1067.73,1988.28,1143.25,1941.41,1237Z"/><path class="cls-44" d="M1732.44,1272.46s-15.16-38.52-50.42-24.09-31.2,74.37-2.38,101.35,56.2-4.75,56.2-4.75Z"/><path class="cls-50" d="M1697.52,1328.16a4.46,4.46,0,0,0,3.08-1.41l18.57-19.42-27-30.23a4.44,4.44,0,0,0-6.62-.15,5.35,5.35,0,0,0-.11,7.15L1706,1307l-11.88,12.44a5.33,5.33,0,0,0-.09,7.15A4.48,4.48,0,0,0,1697.52,1328.16Z"/><polygon class="cls-54" points="1624.53 1710.23 1609.47 1628.35 1649.96 1710.23 1624.53 1710.23"/><path class="cls-54" d="M1620.1,1508.26s23.92,53.15-10.63,119.59l13.29,41.44s15.94,3.74,26.57-41.44l-19.93,9.74S1652,1582.67,1620.1,1508.26Z"/><path class="cls-54" d="M1896.49,1598.61s18.61,87.71,8,111.62h29.23S1917.75,1633.16,1896.49,1598.61Z"/><path class="cls-55" d="M2535.65,1627.85v155.47l-97,97H2066.58V1744.6a114.09,114.09,0,0,1,114.09-114.09h210.14Z"/><path class="cls-11" d="M2535.65,1631.49v151.83l-97,97H2119.73V1747.25a114.09,114.09,0,0,1,114.1-114.09H2444Z"/><path class="cls-56" d="M2841.1,2008.83v306.33c-48.72-14.11-92-40.48-121.83-62.09a452.27,452.27,0,0,1-39.12-31.55c-1.77-1.59-2.78-2.58-3-2.8l-.05,0s-2.43,6.88-6.27,18.46c-5.57,16.74-14.13,43.29-22.67,73.2-11.94,41.8-4.83,79.6-4.83,79.6H2139.2c-195.37-67.54-180.9-308.74-77.18-460.7,105.26-154.22,284.61-188.14,284.61-188.14l33.77,7.24,241.21,24.12s72.36,45.83,103.71,77.19S2841.1,2008.83,2841.1,2008.83Z"/><path class="cls-43" d="M2435.88,1644.61l-9.65,98.9s12.06,89.24,72.36,91.65,82-16.88,91.66-28.94l9.65-115.78Z"/><polygon class="cls-57" points="2628.84 1388.94 2662.27 1487.83 2599.04 1435.64 2628.84 1388.94"/><path class="cls-57" d="M2351.35,1472.91s-57.78-4.37-53,51.1,94.07,98.89,94.07,98.89l14.48-19.29Z"/><path class="cls-58" d="M2595.07,1733.86s2.41,57.89-35.13,93.64c0,0,28.8,30.92,47.14,55.58a12.34,12.34,0,0,0,20.6-1.17c10.37-18.22,16.1-67.85,8.4-109.46Z"/><path class="cls-44" d="M2708.44,1666.32c-17.22,86.1-171.26,142.31-272.56-21.71-88.73-143.66-48.24-253.26,38.59-262.91s144.72,19.3,144.72,19.3,22.72,40.11,44.1,89.17c11,25.23,21.61,52.82,28.6,78.54C2700.12,1598.83,2715.67,1630.14,2708.44,1666.32Z"/><path class="cls-44" d="M2428.13,1593.83s-27.75-26.85-52.73,0,2.77,77.57,38.85,89.51,47.18-26.85,47.18-26.85Z"/><path class="cls-57" d="M2406.94,1603.61s-29-86.83-16.89-86.83,238.79-53.07,219.5-125.43-94.07-43.42-94.07-43.42S2238.09,1410.65,2406.94,1603.61Z"/><path class="cls-57" d="M2334.57,1487.83s-43.41-79.6,38.6-118.19,65.12-28.94,94.07-77.18,108.54-43.42,127.83,0-7.23,86.83-7.23,86.83Z"/><path class="cls-57" d="M2563.72,1342.22s65.82-49.47,82,.89c21.7,67.54-82,113-82,113Z"/><path class="cls-50" d="M2636.62,1603.87l-1,.46-13.8,5.53a2.86,2.86,0,1,1-2.13-5.31l13.8-5.53c4.05-1.61,7-5.1,8.48-9.81a23.89,23.89,0,0,0-.93-15.9l-.63-1.57c-1.66-4.15-5.54-6.52-8.65-5.28a16.78,16.78,0,0,1-14.57-1.25,23.92,23.92,0,0,1-10.39-12.15l-8.86-22.45a3,3,0,0,1,1.61-3.72,2.86,2.86,0,0,1,3.71,1.61l8.86,22.45a18.16,18.16,0,0,0,7.85,9.25,11.15,11.15,0,0,0,9.66,1c6-2.42,13.26,1.38,16.09,8.46l.63,1.57a29.67,29.67,0,0,1,1.09,19.73A20.7,20.7,0,0,1,2636.62,1603.87Z"/><path class="cls-59" d="M2478.5,1527.17c4.48-1.05,8.85-4.55,13.25-7.72s8.83-6.47,12.79-9.13,8.62-5.58,13.31-8.38,9.52-5.61,12.14-9.33c2.56-3.54,1.53-8.08-5.47-9.81-6.68-1.78-19.74.17-32.89,9s-19.7,20.06-20.45,26.83C2470.28,1525.62,2474.21,1528.22,2478.5,1527.17Z"/><path class="cls-59" d="M2596.62,1491.73c3.69.74,8.21-.23,12.63-1s8.91-1.55,12.82-2.07,8.43-1,12.92-1.41,9.1-.73,12.41-2.41,4.13-5-.4-8.46c-4.26-3.37-14.61-6.27-27.57-4.54s-22,7.28-25,11.65C2591.13,1488,2593.06,1491.06,2596.62,1491.73Z"/><path class="cls-59" d="M2547.8,1553.39c2.83,7.36.43,15.14-5.36,17.36s-12.77-1.94-15.6-9.3-.43-15.14,5.36-17.36S2545,1546,2547.8,1553.39Z"/><path class="cls-59" d="M2641.09,1519.62c2.28,7.55-.69,15.13-6.62,16.92s-12.6-2.87-14.88-10.42.68-15.13,6.62-16.92S2638.81,1512.07,2641.09,1519.62Z"/><circle class="cls-48" cx="2487.74" cy="1609.64" r="49.45"/><path class="cls-48" d="M2691.89,1568.71a49.43,49.43,0,0,1-28.6-78.54C2674.26,1515.4,2684.9,1543,2691.89,1568.71Z"/><path class="cls-57" d="M2406.94,1504.72s-21.27,53.47,15.89,125.63l-49.58-79.44,3.8-74.48Z"/><path class="cls-43" d="M2513.06,1796.57l-14.47,38.59,26.11,101.16c2.74,10.61,18.07,9.78,19.64-1.07l19.38-133.86Z"/><path class="cls-58" d="M2436.85,1745c9.93,27.23,29.47,68.66,61.74,90.17,0,0-16.41,32.84-56,45.68-16.39,5.32-34.37-1.43-43.72-15.91-14.92-23.09-36.82-65-47.39-123.84,0,0,14.47-31.35,79.3-44h0A109.07,109.07,0,0,0,2436.85,1745Z"/><path class="cls-60" d="M2845.92,2221.91v93.25c-90.23-26.13-161.75-94.31-164-96.44l0,0,50.65-166.42C2769.82,2129.86,2803.83,2174.37,2845.92,2221.91Z"/><path class="cls-50" d="M2414.07,1661a3.36,3.36,0,0,0,1.65-1.92l6.49-19-27.71-12a3.31,3.31,0,0,0-4.53,2,4,4,0,0,0,2.16,4.88l21,9.13-4.15,12.13a4,4,0,0,0,2.18,4.87A3.36,3.36,0,0,0,2414.07,1661Z"/><path class="cls-58" d="M2095.78,2230.73s48.24-45.82,140.12-24.12c114,26.94,185.51,106.13,185.51,123,0,0,15.5-15.27-14.47-53.07C2351.46,2206.61,2144,2139.08,2095.78,2230.73Z"/><path class="cls-58" d="M2296,1881s12.06,55.48,0,115.78c-13.54,67.73-69.95,156.78-69.95,156.78l-9.64-39.8S2288.75,2023.3,2296,1881Z"/><path class="cls-61" d="M2670.81,2237.13c-5.57,16.74-14.13,43.29-22.67,73.2-11.94,41.8-4.83,79.6-4.83,79.6H2381.08C2559.79,2364.77,2638.27,2286.62,2670.81,2237.13Z"/><path class="cls-62" d="M2719.27,2253.07a452.27,452.27,0,0,1-39.12-31.55c8.9-16.38,11.74-27,11.74-27Z"/><path class="cls-50" d="M2653.92,1643.79s-34.55,18.61-66.45,8a40.55,40.55,0,0,0,34.55,18.6C2651.26,1670.37,2653.92,1643.79,2653.92,1643.79Z"/><path class="cls-63" d="M2797.68,2389.93h-65.87a8.89,8.89,0,0,1-8.9-8.9v-17.15a8.46,8.46,0,0,1,.29-2.2,8.87,8.87,0,0,1,7.36-6.61l65.72-9.31.2,6.18Z"/><path class="cls-64" d="M2796.48,2351.94l-1.21,1.81-72.07,7.93a8.87,8.87,0,0,1,7.36-6.61l65.72-9.31Z"/><path class="cls-65" d="M2834.78,1949.39l-39.51,404.36h576.47l50.66-419.69H2851.68A17,17,0,0,0,2834.78,1949.39Z"/><path class="cls-66" d="M3444.68,1949.18l-48.82,404.57H2819.39l41-419.69h570.9A13.49,13.49,0,0,1,3444.68,1949.18Z"/><path class="cls-67" d="M3444.68,1949.18l-48.82,404.57H2873.52c355.94-98.87,462.77-355.94,484.16-419.69h73.62A13.49,13.49,0,0,1,3444.68,1949.18Z"/><ellipse class="cls-68" cx="3160.19" cy="2141.28" rx="53.93" ry="41.55" transform="translate(689.75 5051.4) rotate(-83.79)"/><path class="cls-69" d="M3405.51,2364.6v7.24a18.1,18.1,0,0,1-18.09,18.09H2806.13a18.11,18.11,0,0,1-18.1-18.09v-7.24a18.11,18.11,0,0,1,18.1-18.09h581.29A18.1,18.1,0,0,1,3405.51,2364.6Z"/><path class="cls-70" d="M3366.92,2350.13v7.24a18.1,18.1,0,0,1-18.09,18.09H2788.4a18,18,0,0,1-.37-3.62v-7.24a18.11,18.11,0,0,1,18.1-18.09h560.43A18,18,0,0,1,3366.92,2350.13Z"/><rect class="cls-71" x="1543.43" y="1709.74" width="726.02" height="496.88" rx="33.55"/><path class="cls-66" d="M2242.92,1734.12v448.11a24.39,24.39,0,0,1-24.39,24.38H1541.28a24.39,24.39,0,0,1-24.38-24.38V1734.12a24.37,24.37,0,0,1,24.38-24.38h677.25a24.37,24.37,0,0,1,24.39,24.38Z"/><polygon class="cls-72" points="1726.74 2064.3 1683.33 2206.61 1712.27 2206.61 1726.74 2064.3"/><polygon class="cls-73" points="2004.13 2064.3 2083.72 2064.3 2206.74 2206.61 1936.59 2206.61 2004.13 2064.3"/><path class="cls-74" d="M1746,2064.31l-49.75,279.81a39,39,0,0,0,38.38,45.81h216.39l53.07-325.62Z"/><path class="cls-70" d="M1726.74,2064.31,1677,2344.12a39,39,0,0,0,38.38,45.81h216.39l53.06-325.62Z"/><path class="cls-70" d="M1926.94,2351.34h195.22c8.08,0,14.63,8.64,14.63,19.29h0c0,10.66-6.55,19.3-14.63,19.3H1926.94Z"/><path class="cls-75" d="M2228.86,1712l-101.72,103.84H1589.26S1547,1741,1529.18,1713a24.18,24.18,0,0,1,12.1-3.21h677.25A24.3,24.3,0,0,1,2228.86,1712Z"/><rect class="cls-76" x="1697.8" y="1864.11" width="328.04" height="19.3" rx="9.65"/><rect class="cls-76" x="1697.8" y="1905.11" width="328.04" height="19.3" rx="9.65"/><rect class="cls-76" x="1697.8" y="1946.12" width="328.04" height="19.3" rx="9.65"/><rect class="cls-76" x="1697.8" y="1984.71" width="328.04" height="19.3" rx="9.65"/><rect class="cls-77" x="1490.37" y="2452.64" width="212.26" height="270.15"/><rect class="cls-78" x="1702.62" y="2452.64" width="1690.83" height="270.15"/><rect class="cls-78" x="1700.84" y="2452.64" width="1756.37" height="270.15"/><path class="cls-79" d="M3575.72,2433.34a42.59,42.59,0,0,1-13.2,30.71,45.94,45.94,0,0,1-31.89,12.71H1451c-24.9,0-45.09-19.44-45.09-43.42a42.58,42.58,0,0,1,13.2-30.7,45.94,45.94,0,0,1,31.89-12.71H3530.63C3555.53,2389.93,3575.72,2409.37,3575.72,2433.34Z"/><path class="cls-80" d="M3473,2389.93a42.53,42.53,0,0,1-13.21,30.7,45.92,45.92,0,0,1-31.89,12.71H1406a42.58,42.58,0,0,1,13.2-30.7,45.94,45.94,0,0,1,31.89-12.71Z"/><path class="cls-81" d="M1676.09,2389.93v86.83H1445.48c-21.83,0-39.53-19.44-39.53-43.42a45.59,45.59,0,0,1,11.57-30.7,37.8,37.8,0,0,1,28-12.71Z"/><path class="cls-44" d="M2335,2390.59S2368.52,2287,2484.32,2287s103.62,51.81,94.48,61S2335,2390.59,2335,2390.59Z"/><path class="cls-64" d="M2627.34,2366.67v23.92H2406v-5.75c2.63-5.68,7.49-11.87,14.14-18.17,24.9-23.52,75-47.84,127.43-47.84,28.33,0,47,8.72,59.11,18.71C2623,2350.93,2627.34,2366.67,2627.34,2366.67Z"/><path class="cls-63" d="M2608.74,2342.75h0a23.92,23.92,0,0,1-23.92,23.92H2420.18c24.9-23.52,75-47.84,127.43-47.84,28.33,0,47,8.72,59.11,18.71A40.31,40.31,0,0,1,2608.74,2342.75Z"/><g class="cls-82"><path class="cls-83" d="M3401.05,2379.55c16.61-11.9,34.76,5,35.53,22.78.81,18.58-10.56,36.35-23.43,48.47-28.27,26.65-72.29,28.4-108.61,31.32-80.62,6.48-161.6-9.39-241.95.45-33.78,4.13-67,12.86-97,29.47-29.77,16.48-55.77,40.24-87.43,53.14-26.42,10.78-59,12.55-87.08,9.17a187.59,187.59,0,0,1-86.64-33.69c-31.27-22.66-50.49-54.39-67-88.91-15.21-31.73-35.92-65.94-73.21-71.89-10-1.61-14.36,14-4.23,15.66,43.13,6.89,57.42,54.39,75.36,88.34,15.87,30,39,56.43,67.17,75,52,34.41,127.87,45.1,185.6,19.55,34.12-15.1,62-41.24,95.5-57.54,39-19,83.14-24.51,125.94-25.09,88.78-1.2,180,15.37,267.53-7.88,35.51-9.44,70.78-38,75.09-77.39,1.81-16.56-3.33-33.35-17-43.3-12.52-9.12-29.22-11-42.13-1.72-8.33,6-.37,20.06,8.05,14Z"/></g><path class="cls-63" d="M3406.36,2373.87c16.62-11.69,34.77,4.94,35.54,22.34.81,18.24-10.57,35.68-23.43,47.58-28.28,26.15-72.29,27.87-108.62,30.73-80.62,6.36-161.6-9.21-241.95.44-33.77,4.06-67,12.63-97,28.93-29.76,16.17-55.76,39.49-87.42,52.16-26.42,10.57-59,12.31-87.09,9-30.75-3.63-61.41-15.11-86.63-33.06-31.28-22.24-50.5-53.38-67.05-87.26-15.22-31.14-35.93-64.71-73.21-70.56-10-1.57-14.36,13.79-4.24,15.38,43.14,6.76,57.43,53.37,75.36,86.7,15.87,29.49,39,55.38,67.17,73.64,52,33.77,127.88,44.26,185.6,19.19,34.12-14.82,62-40.48,95.51-56.48,39-18.64,83.13-24.05,125.94-24.62,88.78-1.18,180,15.09,267.53-7.73,35.51-9.27,70.77-37.26,75.08-75.95,1.81-16.26-3.33-32.74-17-42.5-12.52-8.95-29.22-10.77-42.13-1.69-8.33,5.85-.37,19.69,8.05,13.77Z"/><path class="cls-44" d="M2573.52,2318.83s6,17.18-16.61,32.51-150.15,39.25-150.15,39.25H2335S2479.84,2292.25,2573.52,2318.83Z"/></g></g></svg>