<svg xmlns="http://www.w3.org/2000/svg" xmlns:xlink="http://www.w3.org/1999/xlink" viewBox="0 0 4680 3120"><defs><style>.cls-1{isolation:isolate;}.cls-2,.cls-79{fill:#fff;}.cls-3{fill:url(#linear-gradient);}.cls-11,.cls-12,.cls-36,.cls-37,.cls-38,.cls-4,.cls-41,.cls-42,.cls-43,.cls-44,.cls-5,.cls-52,.cls-53,.cls-54,.cls-55,.cls-56,.cls-58,.cls-59,.cls-6,.cls-62,.cls-64,.cls-65,.cls-66,.cls-67,.cls-7,.cls-74,.cls-79,.cls-8,.cls-9{fill-rule:evenodd;}.cls-4{fill:url(#linear-gradient-2);}.cls-5{fill:#0e2d34;}.cls-6{fill:#1b7154;}.cls-7{fill:url(#linear-gradient-3);}.cls-8{fill:#5f9850;}.cls-9{fill:url(#linear-gradient-4);}.cls-10{fill:#5326aa;}.cls-11{fill:url(#linear-gradient-5);}.cls-12{fill:url(#linear-gradient-6);}.cls-13{fill:#cc273f;}.cls-14{fill:#f24959;}.cls-15{mix-blend-mode:darken;fill:url(#linear-gradient-7);}.cls-16{fill:#b5b5b5;opacity:0.77;}.cls-16,.cls-56,.cls-60,.cls-70,.cls-71{mix-blend-mode:multiply;}.cls-17{fill:#e1ebff;}.cls-18{fill:#6db8ff;}.cls-19{fill:#9570ee;}.cls-20{fill:#f9fbfc;}.cls-21{fill:#cdd4ff;}.cls-22{fill:#0e5b9b;}.cls-23{fill:#1869c9;}.cls-24{fill:#2d71d3;}.cls-25{fill:#83c7ff;}.cls-26{fill:#4a82f4;}.cls-27{fill:#678eef;}.cls-28{fill:#654eac;}.cls-29{fill:#4d388a;}.cls-30{fill:#1a6be2;}.cls-31{fill:#eff4f7;}.cls-32{fill:#e3e9ea;}.cls-33{fill:#bdc2c3;}.cls-34{fill:#dae0e1;}.cls-35{fill:#ccd3d7;}.cls-36{fill:#dce4ff;}.cls-37{fill:#1b2a6b;}.cls-38{fill:#152359;}.cls-39{fill:#ffba94;}.cls-40{fill:#f9b08c;}.cls-41{fill:#eef1ff;}.cls-42{fill:#f48f4a;}.cls-43{fill:#ff954d;}.cls-44{fill:#f98435;}.cls-45{fill:#f9a880;}.cls-46{fill:#5a1103;}.cls-47{fill:#fca286;}.cls-48,.cls-51,.cls-61{fill:none;}.cls-48,.cls-51{stroke:#5a1103;stroke-miterlimit:10;}.cls-48{stroke-width:2.56px;}.cls-49{fill:#ff806d;}.cls-50{fill:#703127;}.cls-51{stroke-width:2.78px;}.cls-52{fill:#8dd1ff;}.cls-53{fill:#44a8e0;}.cls-54{fill:#53b1f2;}.cls-55{fill:#7bc3ff;}.cls-56{fill:#c9c9c9;opacity:0.5;}.cls-57{fill:#e54159;}.cls-58{fill:#14245b;}.cls-59{fill:#253984;}.cls-60{opacity:0.55;fill:url(#linear-gradient-8);}.cls-62{fill:#3c4d88;}.cls-63{fill:#352d29;}.cls-64{fill:#1d72d8;}.cls-65{fill:#38457e;}.cls-66,.cls-73{fill:#3888fc;}.cls-67{fill:#217edb;}.cls-68,.cls-74{fill:#ff9b57;}.cls-69{fill:#443a36;}.cls-70,.cls-71{opacity:0.6;}.cls-70{fill:url(#linear-gradient-9);}.cls-71{fill:url(#linear-gradient-10);}.cls-72{fill:#211e1c;}.cls-75{fill:#f7fafc;}.cls-76{fill:#f44545;}.cls-77{fill:#ffac27;}.cls-78{fill:#fabf44;}</style><linearGradient id="linear-gradient" x1="2401.4" y1="2677.96" x2="2401.4" y2="2255.87" gradientUnits="userSpaceOnUse"><stop offset="0" stop-color="#fff"/><stop offset="1" stop-color="#94a3f5"/></linearGradient><linearGradient id="linear-gradient-2" x1="2300.24" y1="355.72" x2="2310.26" y2="2509.52" gradientUnits="userSpaceOnUse"><stop offset="0" stop-color="#fff"/><stop offset="0.05" stop-color="#eceffd"/><stop offset="0.14" stop-color="#ccd5f9"/><stop offset="0.24" stop-color="#b2c0f6"/><stop offset="0.35" stop-color="#9daff3"/><stop offset="0.47" stop-color="#8fa3f1"/><stop offset="0.62" stop-color="#879cf0"/><stop offset="0.86" stop-color="#849af0"/></linearGradient><linearGradient id="linear-gradient-3" x1="11629.53" y1="766.23" x2="11999.72" y2="1852.13" gradientTransform="matrix(-1, 0.09, 0.09, 1, 15640.58, -722.24)" gradientUnits="userSpaceOnUse"><stop offset="0" stop-color="#8ccc6d"/><stop offset="0.19" stop-color="#81c768"/><stop offset="0.54" stop-color="#62b85b"/><stop offset="0.92" stop-color="#39a54a"/></linearGradient><linearGradient id="linear-gradient-4" x1="12711.21" y1="361.14" x2="12906.98" y2="1078.95" gradientTransform="matrix(-0.97, 0.25, 0.25, 0.97, 15916.6, -2060.81)" gradientUnits="userSpaceOnUse"><stop offset="0" stop-color="#00b488"/><stop offset="0.92" stop-color="#007bc0"/></linearGradient><linearGradient id="linear-gradient-5" x1="-1075.17" y1="1540.32" x2="-701.93" y2="2635.18" gradientTransform="translate(1714.72 -722.24) rotate(4.94)" xlink:href="#linear-gradient-3"/><linearGradient id="linear-gradient-6" x1="267.72" y1="3204.62" x2="466.45" y2="3933.28" gradientTransform="translate(1438.7 -2060.81) rotate(14.32)" xlink:href="#linear-gradient-4"/><linearGradient id="linear-gradient-7" x1="16673.16" y1="2417.75" x2="16228.23" y2="1940.19" gradientTransform="matrix(-1, 0, 0, 1, 17355.3, 0)" gradientUnits="userSpaceOnUse"><stop offset="0" stop-color="#f45b5b"/><stop offset="1" stop-color="#f42432"/></linearGradient><linearGradient id="linear-gradient-8" x1="15083.6" y1="581.06" x2="14978.9" y2="312.49" gradientTransform="matrix(-0.99, 0.17, 0.17, 0.99, 17630.79, -1315.84)" gradientUnits="userSpaceOnUse"><stop offset="0" stop-color="#172652" stop-opacity="0"/><stop offset="1" stop-color="#17263f"/></linearGradient><linearGradient id="linear-gradient-9" x1="13028.99" y1="-1015.36" x2="13011.8" y2="-914.67" gradientTransform="matrix(-0.98, 0.19, 0.19, 0.98, 15981.62, -622.03)" gradientUnits="userSpaceOnUse"><stop offset="0" stop-color="#fff" stop-opacity="0.5"/><stop offset="1"/></linearGradient><linearGradient id="linear-gradient-10" x1="13084.16" y1="-1042.64" x2="13067.68" y2="-946.13" xlink:href="#linear-gradient-9"/></defs><title>10</title><g class="cls-1"><g id="_10" data-name="10"><rect class="cls-2" width="4680" height="3120"/><polygon class="cls-3" points="582.3 2410.89 745.2 2716.1 4053.53 2716.1 4220.5 2372.54 582.3 2410.89"/><path class="cls-4" d="M4025.47,1431.74h-387a230.83,230.83,0,0,0,78.64-173.49v-47.67a229.76,229.76,0,0,0-38-126.76h63.82c68.13,0,123.88-56.09,123.88-124.63h0c0-68.55-55.75-124.64-123.88-124.64H2806.79a123.31,123.31,0,0,0,7-40.91V696.31c0-68.2-55.46-124-123.25-124H727.8c-67.79,0-123.25,55.8-123.25,124v97.33c0,68.2,55.46,124,123.25,124H782a124.16,124.16,0,0,0-7.15,41.55h0A124.93,124.93,0,0,0,776.65,980h-170c-126.08,0-229.23,103.78-229.23,230.62v47.67c0,126.84,103.15,230.62,229.23,230.62H959.09a209,209,0,0,0-65.46,150.59H715.28c-157.43,0-286.23,129.58-286.23,288v130.32c0,158.38,128.8,288,286.23,288H3482.45c157.42,0,286.23-129.58,286.23-288V1927.42a287.3,287.3,0,0,0-10.65-77.64h267.44c114.27,0,207.76-94.06,207.76-209h0C4233.23,1525.8,4139.74,1431.74,4025.47,1431.74Z"/><path class="cls-5" d="M3977.12,2260.76c92.69-20.5,222.19-63.55,343.32-153.74,171.63-127.79-209.57-59.65-513.92,56.15l130.59,84.73Z"/><path class="cls-6" d="M4272.27,2024.67c-56.8,56.36-208.53,171.67-354.7,293.31L3751.17,2390,3708,2300.62C3811.51,2122,3955,1936.13,4086.55,1836.84,4317.33,1662.65,4471.58,1826.88,4272.27,2024.67Z"/><path class="cls-5" d="M3749,2385.61c170.16-291.69,522.05-544.38,523.33-545.31a5.94,5.94,0,0,1,8,.93,5.16,5.16,0,0,1-1.09,7.52c-1.26.92-347.52,249.59-517.26,536.59l-10.85,4.69Z"/><path class="cls-7" d="M3841.38,1452.06c-25.1,85.3-54.62,283.28-93,488.77,37.57,79.05,23.92,283.77,107.94,324.27,118.35-201,297.47-568.83,322-743.39C4226.22,1180,3937,1127.36,3841.38,1452.06Z"/><path class="cls-8" d="M3847.27,2066.9c160.2-335.5,204.9-728.7,205.09-730.34a7.17,7.17,0,0,0-14.2-1.68c-.2,1.63-44.4,390.28-201.88,722.46C3839.89,2060.58,3843.54,2063.77,3847.27,2066.9Z"/><path class="cls-9" d="M3769.11,1712.56c20.88,72.8,76.91,377.82,108.54,551.87l-60.15,29.81-108.86-19.87C3599,2098.57,3505.27,1890,3486.4,1739.09,3453.31,1474.44,3695.88,1457.09,3769.11,1712.56Z"/><path class="cls-5" d="M3812.11,2293.25c-178.38-287.92-216.67-684.11-216.82-685.56-.29-2.83,2.14-5.17,5.44-5.22s6.17,2.22,6.46,5.06c.15,1.44,37.85,391.29,212,676.26l-1.74,10.45Z"/><rect class="cls-10" x="486.61" y="2248.26" width="3812.79" height="158.69" rx="78.39"/><path class="cls-5" d="M692.54,2064.36c-93-29.18-222.41-92.48-341.68-229.77-169-194.52,214-99.82,517.68,71.83L733.45,2043Z"/><path class="cls-6" d="M391,1711.79C441.3,1769,575.58,1886,704.94,2009.36l147.26,73.09,38.17-90.71c-91.57-181.22-218.54-369.77-335-470.5C351.15,1344.52,214.64,1511.14,391,1711.79Z"/><path class="cls-5" d="M854.09,2078c-150.59-295.92-462-552.28-463.15-553.22a4.8,4.8,0,0,0-7.08,1,5.71,5.71,0,0,0,1,7.62c1.11.93,307.56,253.21,457.77,544.37l9.6,4.76Z"/><path class="cls-11" d="M772.37,1130.88c22.22,86.53,48.34,287.38,82.3,495.86-33.25,80.19-21.17,287.88-95.53,329-104.74-203.88-263.26-577.08-284.93-754.17C431.79,854.9,687.77,801.46,772.37,1130.88Z"/><path class="cls-8" d="M767.15,1754.63c-141.77-340.36-181.33-739.26-181.5-740.92a6.84,6.84,0,0,1,5.59-7.6,6.32,6.32,0,0,1,7,5.89c.18,1.65,39.3,395.94,178.66,732.93Q772.1,1749.87,767.15,1754.63Z"/><path class="cls-12" d="M836.33,1395.16c-18.48,73.85-68.07,383.3-96.06,559.87l53.24,30.24,96.33-20.16c97-178.34,180-390,196.69-543C1115.81,1153.58,901.14,1136,836.33,1395.16Z"/><path class="cls-5" d="M798.27,1984.27c157.87-292.1,191.76-694,191.89-695.51a4.82,4.82,0,0,0-4.81-5.29,5.72,5.72,0,0,0-5.72,5.14c-.13,1.45-33.5,397-187.66,686.06l1.54,10.6Z"/><path class="cls-13" d="M469.46,2017.89v17c0,7.19,17.68,13,39.53,13h982v-30c0-17.29-42.63-31.32-95.18-31.32H564.63C512.08,1986.57,469.46,2000.6,469.46,2017.89Z"/><path class="cls-14" d="M519.62,2047.87l9.22,25.9,122.78,317.36h6.24c29.39,9.94,160.52,17.44,317.85,17.44,66.11,0,127.61-1.32,178.86-3.59,15.18-.69,29.44-1.43,42.68-2.25,63.18-4,102.6-9.59,102.6-15.83,0-1.46-2.22-2.88-6.23-4.26l137.74-334.77Z"/><path class="cls-15" d="M469.46,2017.89v17c0,7.19,17.68,13,39.53,13h10.63l9.22,25.9s624.1,60.77,668.41,328.94v0c63.18-4,102.6-9.59,102.6-15.83,0-1.46-2.22-2.88-6.23-4.26l137.74-334.77H1491v-30c0-17.29-42.63-31.32-95.18-31.32H564.63C512.08,1986.57,469.46,2000.6,469.46,2017.89Z"/><path class="cls-16" d="M2345.31,494.36h778.81a17.52,17.52,0,0,1,17.52,17.52v1152a17.52,17.52,0,0,1-17.52,17.52h-778.8a17.53,17.53,0,0,1-17.53-17.53v-1152A17.52,17.52,0,0,1,2345.31,494.36Z"/><rect class="cls-17" x="2352.84" y="447.03" width="813.86" height="1187.01" rx="17.52"/><rect class="cls-18" x="2492.36" y="557.49" width="527.07" height="116.26" rx="16.43"/><path class="cls-18" d="M2668.71,1320H2564a44.55,44.55,0,0,1-44.55-44.55h0a44.56,44.56,0,0,1,44.55-44.55h104.67a44.55,44.55,0,0,1,44.55,44.55h0A44.54,44.54,0,0,1,2668.71,1320Z"/><path class="cls-19" d="M2971,1320H2866.33a44.54,44.54,0,0,1-44.55-44.55h0a44.55,44.55,0,0,1,44.55-44.55H2971a44.55,44.55,0,0,1,44.55,44.55h0A44.54,44.54,0,0,1,2971,1320Z"/><rect class="cls-20" x="2480.73" y="790.01" width="565.82" height="89.14" rx="12.06"/><rect class="cls-20" x="2480.73" y="941.16" width="565.82" height="89.14" rx="12.06"/><rect class="cls-21" x="2602.81" y="1086.49" width="325.54" height="20.35" rx="10.17"/><rect class="cls-22" x="1304.49" y="2015.28" width="544.28" height="310.99"/><path class="cls-22" d="M2462.1,2106.28h-1679c-51.85,0-93.89-45.15-93.89-100.84V940.11c0-55.7,42-100.84,93.89-100.84h1679c51.85,0,93.88,45.14,93.88,100.84V2005.44C2556,2061.13,2514,2106.28,2462.1,2106.28Z"/><rect class="cls-23" x="1392.17" y="2019.07" width="544.28" height="307.2"/><path class="cls-24" d="M2526.49,2106.28h-1679c-51.85,0-93.88-45.15-93.88-100.84V940.11c0-55.7,42-100.84,93.88-100.84h1679c51.85,0,93.88,45.14,93.88,100.84V2005.44C2620.37,2061.13,2578.34,2106.28,2526.49,2106.28Z"/><rect class="cls-2" x="825.3" y="908.37" width="1722.73" height="1097.88"/><rect class="cls-25" x="838.36" y="929.44" width="1695.56" height="1046.94"/><rect class="cls-26" x="838.36" y="929.44" width="1695.56" height="87.24"/><rect class="cls-26" x="838.36" y="1910.95" width="1695.56" height="65.43"/><rect class="cls-27" x="1006.54" y="1016.69" width="1228.52" height="894.26"/><rect class="cls-25" x="838.36" y="1016.69" width="168.18" height="894.26"/><rect class="cls-2" x="884.38" y="1084.17" width="76.15" height="77.7"/><rect class="cls-2" x="884.38" y="1222.19" width="76.15" height="77.7"/><rect class="cls-2" x="884.38" y="1360.22" width="76.15" height="77.7"/><rect class="cls-2" x="884.38" y="1498.24" width="76.15" height="77.7"/><rect class="cls-28" x="2260.45" y="1084.17" width="243.67" height="23.86"/><rect class="cls-29" x="2260.45" y="1108.02" width="243.67" height="190.85"/><rect class="cls-28" x="2260.45" y="1359.19" width="243.67" height="23.86"/><rect class="cls-29" x="2260.45" y="1383.05" width="243.67" height="190.85"/><rect class="cls-28" x="2260.45" y="1606.61" width="243.67" height="23.86"/><rect class="cls-29" x="2260.45" y="1630.47" width="243.67" height="190.85"/><rect class="cls-2" x="2454.62" y="957.53" width="30.46" height="31.08"/><rect class="cls-2" x="2405.76" y="957.53" width="30.46" height="31.08"/><rect class="cls-2" x="2356.9" y="957.53" width="30.46" height="31.08"/><rect class="cls-22" x="1119.45" y="2326.27" width="1009.1" height="111.3" rx="49.16"/><rect class="cls-30" x="1207.26" y="2326.27" width="921.29" height="111.3" rx="49.04"/><rect class="cls-2" x="1124.02" y="1440.54" width="261.61" height="45.11"/><rect class="cls-2" x="1463.24" y="1399.04" width="124.23" height="42"/><rect class="cls-2" x="1654.05" y="1399.04" width="436.95" height="42"/><rect class="cls-2" x="1124.02" y="1532.46" width="183.82" height="29.57"/><rect class="cls-2" x="1373.14" y="1484.63" width="183.82" height="27.53"/><rect class="cls-2" x="1124.02" y="1624.14" width="337.34" height="12.12"/><rect class="cls-2" x="1563.95" y="1569.98" width="337.34" height="11.28"/><rect class="cls-2" x="1632.85" y="1670.68" width="337.34" height="11.28"/><rect class="cls-2" x="1124.02" y="1716.36" width="471.93" height="44.74"/><rect class="cls-2" x="1124.02" y="1113.31" width="280.2" height="64.71"/><rect class="cls-2" x="1124.02" y="1195.77" width="380.71" height="20.34"/><path class="cls-31" d="M4166.42,1936.6q0,8.54-.46,17.07c-6.28,134.11-86.63,240.52-184.54,240.52H3800.05V2067.77h181.37c51.9,0,94.2-58.79,94.2-131.17s-42.3-131.17-94.2-131.17H3833.49V1679h147.93C4083.41,1679,4166.42,1794.58,4166.42,1936.6Z"/><path class="cls-31" d="M4166,1953.67c-6.28,134.11-86.63,240.52-184.54,240.52H3800.05V2067.77h181.37c48.42,0,88.45-51.21,93.67-116.84.3-4.74.53-9.48.53-14.33,0-72.27-42.3-131.17-94.2-131.17H3833.49V1713h147.93C4079.33,1713,4159.76,1819.55,4166,1953.67Z"/><path class="cls-32" d="M4166,1953.67c-6.28,134.11-86.63,240.52-184.54,240.52H3800.05v-97.87h181.37c51.9,0,94.2-58.79,94.2-131.17,0-4.85-.15-9.59-.53-14.22.3-4.74.53-9.48.53-14.33,0-72.27-42.3-131.17-94.2-131.17H3833.49V1713h147.93C4079.33,1713,4159.76,1819.55,4166,1953.67Z"/><path class="cls-33" d="M4104.05,2418c0,63.19-304,132.08-678.92,132.08-26.41,0-52.51-.26-78.16-.77-304-5.83-550.79-60.15-596.81-110.76-5.2-5.67-7.92-11.54-7.92-17.47,0-63.13,307.93-99.67,682.89-99.67S4104.05,2374,4104.05,2418Z"/><path class="cls-31" d="M4104.05,2418c0,55.08-304.85,99.69-680.9,99.69-26.49,0-52.67-.22-78.39-.67-304.85-5.08-548.42-39.67-594.57-83.79-5.22-4.94-8-10.06-8-15.23,0-55,304.85-99.64,680.91-99.64S4104.05,2363,4104.05,2418Z"/><path class="cls-34" d="M4076.51,2416c0,48-292.52,87-653.36,87-6.28,0-12.56,0-18.84-.05-316.13-1.17-576.11-32.25-625.82-72.78-5.76-4.62-8.71-9.34-8.71-14.15,0-33.2,140.21-62.09,346.17-76.73,91.55-6.52,196.12-10.2,307.2-10.2C3784,2329.07,4076.51,2368,4076.51,2416Z"/><path class="cls-35" d="M3662,2441.79l-257.71,61.14c-316.13-1.17-576.11-32.25-625.82-72.78-5.76-4.62-8.71-9.34-8.71-14.15,0-33.2,140.21-62.09,346.17-76.73l307.2,20.71Z"/><path class="cls-32" d="M3880,1535.91c-6.81,98.72-13.55,237-20.36,335.69q-5.22,76.17-10.52,152.44c-5.52,80.81-10.06,161.3-41.08,232-2.2,4.95-4.39,9.7-6.74,14.54a376.75,376.75,0,0,1-27.69,47.73,358.34,358.34,0,0,1-33,41.61,349.93,349.93,0,0,1-104.27,77.23,382,382,0,0,1-35.25,14.85,446.37,446.37,0,0,1-54.71,16c-41.16,9.06-82.93,12.53-123.41,12.64h-51c-109.41-.42-228.73-24.87-317.64-120.74-26.71-28.76-49.78-63.74-67.41-103.88-31-70.69-35.57-151.18-41.17-232q-5.22-76.17-10.44-152.44c-6.81-98.72-13.62-237-20.35-335.69Z"/><path class="cls-31" d="M3801.33,1535.91l-27.69,782.39a358.34,358.34,0,0,1-33,41.61,349.93,349.93,0,0,1-104.27,77.23V1535.91Z"/><path class="cls-31" d="M3601.13,1535.91V2452a446.37,446.37,0,0,1-54.71,16v-932.1Z"/><rect class="cls-31" x="2875.91" y="1506.76" width="1026.48" height="81.43" rx="29.61"/><path class="cls-32" d="M3601.36,1506.76v9.87a29.7,29.7,0,0,1-29.61,29.61H2875.91v-9.87a29.7,29.7,0,0,1,29.61-29.61Z"/><path class="cls-36" d="M2050.6,1841.8l-22.27-2.78,21.21,30.84S2061.73,1866.86,2050.6,1841.8Z"/><path class="cls-37" d="M2374.26,2549.41l-25.09.36-329.61,4.73-364.29-61.25c22.77-175.39,230-181,230-181s284.59,11.14,364.28,8.36c65.16-2.29,130.32,23.35,161.88,84.55a171,171,0,0,1,15.71,46.29C2445.31,2546.15,2374.26,2549.41,2374.26,2549.41Z"/><path class="cls-38" d="M2374.26,2549.41l-25.09.36-26.8-31.46-17.56-132.21s56.7-18.82,106.58,19.1a171,171,0,0,1,15.71,46.29C2445.31,2546.15,2374.26,2549.41,2374.26,2549.41Z"/><path class="cls-39" d="M2384.67,2537.8c-11.65,9.29-28.12,16.42-41.06,22.27L2056,2576.77l-29.83-72.1s19.38-11.11,48.93-26.59c77.27-40.45,224.19-110.75,276.88-90.62C2409.5,2409.45,2432.88,2499.35,2384.67,2537.8Z"/><path class="cls-40" d="M2383.8,2537.27c-8.18,12.47-27.25,16.95-40.19,22.8L2056,2576.77l-29.83-72.1s19.38-11.11,48.93-26.59C2131.8,2499.32,2236.83,2530,2383.8,2537.27Z"/><path class="cls-39" d="M2364.74,2628.33a22.34,22.34,0,0,1-1,6.74,22.92,22.92,0,0,1-29.18,15l-19.48-6.48-219.94-36.19-.44-.31v.31H1737.23s-94.71-22.28-80.15-114.2c8.41-53,48.19-90,92.32-87.92,50.7,2.42,140.9,24.33,293.29,108.38h0q24.88,13.74,52,29.7v.06l.44-.06,32.16-21.4a72.3,72.3,0,0,1,51.42-11.22l1.39.22a72.26,72.26,0,0,1,41.9,22.52l19.29,21,77.73,27.14a50.28,50.28,0,0,1,17.7,10.67l20.69,19.21A22.83,22.83,0,0,1,2364.74,2628.33Z"/><path class="cls-41" d="M2364.74,2628.33a22.34,22.34,0,0,1-1,6.74,22.92,22.92,0,0,1-29.18,15l-19.48-6.48-219.94-36.19-.44-.31v.31h-56.3c8.86-32.63,4.29-93.74,4.29-93.74h0q24.88,13.74,52,29.7v.06l.44-.06,32.16-21.4a72.3,72.3,0,0,1,51.42-11.22l1.39.22a72.26,72.26,0,0,1,41.9,22.52l19.29,21,77.73,27.14a50.28,50.28,0,0,1,17.7,10.67l20.69,19.21A22.83,22.83,0,0,1,2364.74,2628.33Z"/><path class="cls-42" d="M2174.54,2359c-16.59,11.28-40.28,22.87-73.84,34.05-70.56,23.54-146,12.69-206.27-5.41,0,0,0,0,0,0-68.07-20.48-116.63-50.25-116.63-50.25q-1.54-13-2.67-26C1761.73,2157.32,1791.7,2020,1791.7,2020l94.12,43.13,15.2,7,222,101.79,2.72,1.23,10.69,15.28,61.92,88.46,5.33,7.64S2232.28,2319.75,2174.54,2359Z"/><polygon class="cls-36" points="2015.33 1837.82 2008.84 1839.02 2033.89 1914.19 2061.73 1880.78 2053.38 1872.43 2015.33 1837.82"/><path class="cls-39" d="M2406.52,1522.73s101.74-91.36,110.56-82.76c10.28,10-47.61,56.49-47.61,56.49s13.44,9.86,14.49,15.1c0,0-4-3.56,5.67,6.51s3.58,23.29,3.58,23.29,7.77,3.35-1.25,18.26-52.45,37.81-52.45,37.81l-25.81-.83Z"/><polygon class="cls-39" points="2342.91 1691.47 2385.21 1589.23 2440.19 1597.89 2420.87 1733.23 2342.91 1691.47"/><path class="cls-39" d="M2410.37,1613.43l-25.23-20.56-6.93-48.32,20.22-40.83,35.34-35.57s14.24,6,1.16,25.6c-7.43,11.13-21.82,26.36-21.82,26.36S2451.52,1552.56,2410.37,1613.43Z"/><path class="cls-43" d="M2423.65,1730.45s.52,280.32-241.31,340.85c-2.13.54-4.28,1-6.46,1.57l-103-225.5,156.42-11.95a36.81,36.81,0,0,0,27.77-16.25L2343.81,1689l67.77,35.18Z"/><path class="cls-36" d="M1901.54,1847.83l-32.83,31.56s12.07,43.15,84.45,43.15,64-19.49,64-19.49l-39-30.62Z"/><path class="cls-44" d="M2174.54,2359a152.1,152.1,0,0,1-10.84,16.93,334.33,334.33,0,0,1-27.69,32.61l-35.31,9.59-200.45-8.36c-6.66-.31-11.12-5.28-11.12-12a13.15,13.15,0,0,1,5.28-10.16c-68.07-20.48-116.63-50.25-116.63-50.25s-10.31-4.44-23.82-15l21.15-11,15.56-8.11,78.71-41,6.93-16.64.18-.46,5.23-12.59,0,0s70,91.89,216,83.38q8.19-.47,16.69-1.38c1-.13,2.1-.23,3.15-.36,28.74-3.36,46.23-1,55.59,5.07C2185.62,2327.39,2183.62,2342.15,2174.54,2359Z"/><path class="cls-43" d="M2203.72,2317.87l-30.56,1.41-60,2.75-16.59.74-47.17,2.15L1797,2336.49l-19.2.87s-10.31-4.44-23.82-15c-38-29.53-101.3-107-31.87-269,52.17-121.71,117.84-157.6,139.24-175.4a9.34,9.34,0,0,1,12,0c15,12.67,69.48,40,119.81,32.15,15.21-2.38,27-6.58,36.18-12a58.47,58.47,0,0,0,13.07-10.43c14.59-15.69,1.67-26.9-1.87-45.2a3.15,3.15,0,0,1,4-3.62c20,6.23,96.1-.08,114.63,25.21,13.13,17.89,17.82,121.37,24.93,236.65,3.64,58.89,7.92,120.86,14.28,176.09C2200,2291,2201.8,2304.75,2203.72,2317.87Z"/><polygon class="cls-41" points="2006.9 1807.74 2030.43 1819.99 2053.96 1872.93 2008.86 1841.56 1999.06 1822.12 2006.9 1807.74"/><path class="cls-45" d="M2032.39,1896.46c-3.55,3.8-7.84,5.88-15.68,7.84-16-9.65-40.63-32.88-52.86-31.61-30.51,3.16-53.43-31.19-53.43-31.19l-8.88-70.15,100.91,4,12.3,74.09S2028.25,1879.44,2032.39,1896.46Z"/><path class="cls-41" d="M1894.7,1847.37l4.59-29.84a5.66,5.66,0,0,1,7.15-4.59l61,17.44a17.22,17.22,0,0,1,12.32,14.13l6.78,47.4Z"/><path class="cls-44" d="M1828.36,1926.41s97.43,76.92,66.66,187.17-5.12,143.58-5.12,143.58l-33.33-28.2s-15.39-33.33,20.51-115.38S1828.36,1926.41,1828.36,1926.41Z"/><path class="cls-44" d="M2423.65,1730.45s.52,280.32-241.31,340.85l-2.57-42.38s226-52.56,229.55-301.88l2.26-2.84Z"/><polygon class="cls-46" points="2003.62 1604.67 2028.14 1661.51 1988.25 1633.71 2003.62 1604.67"/><path class="cls-46" d="M1843.65,1667.67s-34.36.2-28.84,32.75,60.36,53.92,60.36,53.92l7.63-12.1Z"/><path class="cls-39" d="M2064,1764.79c-6,51.71-94.36,92.36-162.14.29-59.37-80.64-40.71-147.37,10.15-157.25s86.46,4.43,86.46,4.43,15.37,22.62,30.36,50.59c7.7,14.38,15.32,30.18,20.69,45C2055.85,1725.3,2066.56,1743.05,2064,1764.79Z"/><path class="cls-39" d="M1894.85,1735.44s-17.69-14.53-31.16,2.54,5.37,45.72,27.27,51,26.6-18.14,26.6-18.14Z"/><path class="cls-47" d="M2049.54,1707.89a29.31,29.31,0,0,1-20.69-45C2036.55,1677.23,2044.17,1693,2049.54,1707.89Z"/><ellipse class="cls-48" cx="2025.15" cy="1674.89" rx="29.35" ry="32.14" transform="translate(-566.13 1236.97) rotate(-30)"/><path class="cls-49" d="M2018.57,1731.33l-.59.32-7.89,3.94a1.7,1.7,0,0,1-1.52-3l7.89-3.93a8.77,8.77,0,0,0,4.54-6.21,14.2,14.2,0,0,0-1.31-9.35l-.45-.9c-1.19-2.37-3.6-3.59-5.37-2.7a10,10,0,0,1-8.67,0,14.2,14.2,0,0,1-6.73-6.68l-6.32-12.84a1.77,1.77,0,0,1,.77-2.28,1.72,1.72,0,0,1,2.28.78l6.31,12.83a10.81,10.81,0,0,0,5.09,5.1,6.62,6.62,0,0,0,5.76.09c3.45-1.72,7.9.18,9.91,4.23l.45.89a17.6,17.6,0,0,1,1.59,11.61A12.26,12.26,0,0,1,2018.57,1731.33Z"/><path class="cls-50" d="M1989.52,1665c2.22.26,4.84-.53,7.42-1.18s5.19-1.34,7.48-1.84,4.93-1,7.57-1.45,5.34-.88,7.22-2,2.2-3.16-.65-5c-2.68-1.79-8.94-3-16.51-1.35s-12.64,5.36-14.23,8.09S1987.39,1664.79,1989.52,1665Z"/><path class="cls-50" d="M1969.55,1696.89c2.11,4.4.66,9.48-3.25,11.36s-8.78-.16-10.9-4.55-.65-9.48,3.25-11.36S1967.44,1692.5,1969.55,1696.89Z"/><path class="cls-50" d="M2019.11,1676.58c1.71,4.35.32,9-3.1,10.32s-7.58-1.1-9.29-5.45-.33-9,3.09-10.32S2017.4,1672.22,2019.11,1676.58Z"/><circle class="cls-47" cx="1938.69" cy="1741.91" r="29.32"/><path class="cls-46" d="M1878,1683.79s-10,32.63,15.45,73.49l-33.13-44.56-1.34-44.21Z"/><path class="cls-49" d="M1889.78,1775.83a2,2,0,0,0,.88-1.21l2.93-11.53-17-5.77a2,2,0,0,0-2.59,1.38,2.38,2.38,0,0,0,1.52,2.78l12.87,4.38-1.87,7.37a2.36,2.36,0,0,0,1.52,2.78A2,2,0,0,0,1889.78,1775.83Z"/><path class="cls-49" d="M2030.71,1754.1s-19.52,12.66-38.88,7.91a24,24,0,0,0,21.31,9.33C2030.42,1769.93,2030.71,1754.1,2030.71,1754.1Z"/><path class="cls-50" d="M1935.61,1697.77c2.19-.79,4.29-2.73,6.41-4.52s4.26-3.63,6.17-5.15,4.16-3.2,6.42-4.83,4.61-3.28,5.84-5.21.63-3.94-2.85-4.32c-3.32-.43-9.72,1.33-16.07,6.34s-9.39,10.8-9.66,14.07S1933.51,1698.54,1935.61,1697.77Z"/><path class="cls-46" d="M1843.11,1610s-4-63.25,63.45-70.3c0,0,31.68-.26,35.41,18,0,0,28.14-31,64.78,4.79,0,0,63.55-12.93,34.61,67.73,0,0,12,5.23-3.78,16.59s-84.47.69-84.47.69,3.28,75.87-69.55,71.73l-6.29,25.75a21.19,21.19,0,0,1-21.59,9.27c-14-2.43-33.25-8.67-34.58-24.67,0,0-36.69-.88-6.92-39,0,0-31.68.26-21.27-22.3s-2.25-47.89,28.88-45.77S1843.11,1610,1843.11,1610Z"/><path class="cls-46" d="M1883.38,1684.71s2,54.89,17.65,80.38c0,0-21.6-17.21-32.37-38S1865.73,1674.9,1883.38,1684.71Z"/><path class="cls-46" d="M1874,1630.68s-15.47-33.87,15.16-36.65,36.19-39,66.81-27.84,41.76,2.78,41.76,2.78"/><path d="M1874,1630.68a49.83,49.83,0,0,1-3.28-9.93,34.77,34.77,0,0,1-.8-10.48,22.15,22.15,0,0,1,1.15-5.18,16.16,16.16,0,0,1,6.68-8.17,21.74,21.74,0,0,1,4.88-2.18c.42-.13.85-.27,1.28-.39l1.3-.29a23.13,23.13,0,0,1,2.62-.45l2.59-.34a24.41,24.41,0,0,0,2.54-.41,37.43,37.43,0,0,0,9.69-3.38c6.15-3.11,11.37-7.76,16.5-12.46,2.59-2.33,5.2-4.68,8-6.81a36.44,36.44,0,0,1,9.24-5.23,24.88,24.88,0,0,1,10.54-1.42,21.55,21.55,0,0,1,2.65.33,21.09,21.09,0,0,1,2.6.55c.43.12.86.21,1.29.34l1.25.42,2.49.85a93.55,93.55,0,0,0,20.14,5.16,48.06,48.06,0,0,0,10.38.4,31.89,31.89,0,0,0,5.14-.77,16.17,16.17,0,0,0,4.85-1.87,16.33,16.33,0,0,1-4.79,2.07,32.21,32.21,0,0,1-5.17.94,48.41,48.41,0,0,1-10.49-.1,93.43,93.43,0,0,1-20.41-4.82,39.12,39.12,0,0,0-10-2.29,23.58,23.58,0,0,0-10,1.4,35,35,0,0,0-8.86,5.1c-2.74,2.1-5.31,4.44-7.89,6.79-5.15,4.66-10.5,9.38-16.87,12.55a38.57,38.57,0,0,1-10,3.43c-3.52.67-7,.7-10.25,1.72a20.79,20.79,0,0,0-4.68,2,15.93,15.93,0,0,0-3.87,3.26,16.12,16.12,0,0,0-2.59,4.36,22.64,22.64,0,0,0-1.21,5,34.5,34.5,0,0,0,.49,10.33A53.77,53.77,0,0,0,1874,1630.68Z"/><path class="cls-46" d="M1885,1626s-13.92-19.48,16.71-22.27,25-16.7,44.54-22.27,22.27,19.49,36.19,11.14"/><path d="M1885,1626a18.66,18.66,0,0,1-3.37-7.29,10.76,10.76,0,0,1,1.38-8.08,15.12,15.12,0,0,1,6.56-5.14,34.34,34.34,0,0,1,7.88-2.3c1.33-.27,2.68-.42,4-.6l3.91-.53c1.31-.14,2.58-.43,3.86-.69l1.92-.39c.63-.16,1.25-.36,1.87-.54a31.52,31.52,0,0,0,13.42-7.17c1.95-1.69,3.76-3.63,5.79-5.48A33.55,33.55,0,0,1,1939,1583a20.16,20.16,0,0,1,1.89-.88,20,20,0,0,1,1.92-.8l2-.64a14.77,14.77,0,0,1,2-.56,18,18,0,0,1,8.44-.14,16.4,16.4,0,0,1,4,1.47,20.5,20.5,0,0,1,3.49,2.27,74.51,74.51,0,0,1,5.94,5.49c1.88,1.82,3.85,3.63,6.28,4.46a7.91,7.91,0,0,0,3.81.29,13.34,13.34,0,0,0,3.72-1.32,13.79,13.79,0,0,1-3.63,1.73,8.4,8.4,0,0,1-4.11,0c-2.74-.68-4.94-2.49-7-4.19a78.1,78.1,0,0,0-6.1-5,20,20,0,0,0-3.3-1.93,14,14,0,0,0-3.54-1.16,16.86,16.86,0,0,0-7.4.38,15.45,15.45,0,0,0-1.83.57l-1.82.64c-.62.2-1.17.53-1.76.78s-1.17.5-1.71.85a31.67,31.67,0,0,0-6.16,4.52c-1.9,1.75-3.72,3.74-5.78,5.56a34.09,34.09,0,0,1-14.57,7.62c-.66.17-1.32.36-2,.51l-2,.36c-1.34.24-2.67.51-4,.62l-4,.43c-1.3.13-2.61.22-3.89.43a34,34,0,0,0-7.53,1.84,13.68,13.68,0,0,0-6.14,4.24,9.74,9.74,0,0,0-1.74,7.18,16.44,16.44,0,0,0,.93,3.81A19.32,19.32,0,0,0,1885,1626Z"/><path d="M1930.89,1548a46.27,46.27,0,0,0-8.68-4.12,36.49,36.49,0,0,0-9.3-2.13,23.67,23.67,0,0,0-9.33,1,20.45,20.45,0,0,0-7.91,4.81,25.77,25.77,0,0,0-3,3.55c-.91,1.27-1.67,2.63-2.56,4a40.8,40.8,0,0,1-14,13.59c-2.82,1.69-5.76,3.09-8.64,4.5a83.33,83.33,0,0,0-8.34,4.53,37.55,37.55,0,0,0-7.19,5.91,41.37,41.37,0,0,0-5.58,7.48l-1.15,2c-.37.69-.68,1.39-1,2.08a27.25,27.25,0,0,0-1.54,4.3,17,17,0,0,0-.12,8.8,17.25,17.25,0,0,0,4.56,7.54,31,31,0,0,0,7.44,5.36,42.48,42.48,0,0,0,8.61,3.46l-.53,2.82a42.29,42.29,0,0,0-8.27,0,27.35,27.35,0,0,0-7.93,1.81,12.53,12.53,0,0,0-6,4.71,10.58,10.58,0,0,0-1.39,3.52,14.77,14.77,0,0,0-.26,3.92c.34,5.29,3.83,10.12,5.85,15.65a31.64,31.64,0,0,1,2,8.65,33.85,33.85,0,0,1-.47,8.83,58,58,0,0,1-5.83,16.4c-1.34,2.57-2.84,5-4.39,7.46s-3.17,4.78-4.63,7.22a27.77,27.77,0,0,0-3.41,7.66,15.31,15.31,0,0,0,.32,8.27,29.11,29.11,0,0,0,3.85,7.55,62.33,62.33,0,0,0,5.35,6.7,64.52,64.52,0,0,1-5.66-6.48,28.65,28.65,0,0,1-4.19-7.56,16.12,16.12,0,0,1-.61-8.68,28.58,28.58,0,0,1,3.27-8.09c2.85-5,6.12-9.72,8.61-14.81a55.5,55.5,0,0,0,5.31-16,31.59,31.59,0,0,0,.26-8.29,29.25,29.25,0,0,0-2-8c-1-2.59-2.34-5.08-3.59-7.71a24.76,24.76,0,0,1-2.63-8.62,17.54,17.54,0,0,1,.25-4.63,13.66,13.66,0,0,1,1.7-4.44,15,15,0,0,1,7.22-5.86,30.28,30.28,0,0,1,8.75-2.05,45.54,45.54,0,0,1,8.89,0l-.53,2.82a45.81,45.81,0,0,1-9.27-3.68,33.18,33.18,0,0,1-8.14-5.9,20.23,20.23,0,0,1-5.25-8.82,19.82,19.82,0,0,1,.15-10.26,30,30,0,0,1,1.73-4.76c.38-.74.74-1.51,1.14-2.23l1.23-2.14a44.22,44.22,0,0,1,6-7.89,40.24,40.24,0,0,1,7.74-6.22,74,74,0,0,1,8.68-4.53c2.92-1.35,5.83-2.66,8.57-4.22a40.07,40.07,0,0,0,7.61-5.5,39.52,39.52,0,0,0,6.08-7.18c.87-1.3,1.71-2.72,2.7-4a26.93,26.93,0,0,1,3.31-3.69,21.21,21.21,0,0,1,8.6-4.85,24.76,24.76,0,0,1,9.76-.64A42.07,42.07,0,0,1,1930.89,1548Z"/><circle class="cls-51" cx="1955.94" cy="1710.96" r="33.41"/><line class="cls-48" x1="1925.6" y1="1724.88" x2="1886.34" y2="1749.47"/><path class="cls-51" d="M1986.57,1695.88s7-8.59,15.31-5.8"/><polygon class="cls-52" points="1903.05 2384.68 2110.34 2337.91 2100.71 2393.03 1903.05 2384.68"/><polygon class="cls-53" points="2356.84 2323.44 2356.84 2348.49 2136.01 2408.51 2100.7 2418.1 2100.7 2393.02 2163.7 2375.89 2356.84 2323.44"/><polygon class="cls-54" points="2100.71 2393.03 2150.82 2106.28 2401.38 2064.52 2356.84 2323.43 2100.71 2393.03"/><path class="cls-55" d="M2100.7,2393v25.08l-200.45-8.36c-6.66-.31-11.12-5.28-11.12-12a13.15,13.15,0,0,1,5.28-10.16s0,0,0,0a13.18,13.18,0,0,1,8.08-2.92h.54l138.55,5.84,18.46.77Z"/><polygon class="cls-55" points="2134.12 2109.06 2150.82 2106.28 2100.71 2393.03 2084.35 2392.1 2134.12 2109.06"/><path class="cls-39" d="M1797.26,2337.35s-36.2-100.22,58.46-108.58l105.79,83.52s64.25-15,109.49,28.8-22.57,52.8-22.57,52.8L1997.84,2369s-26.75,4.23-40.63,2a71,71,0,0,1-24.62-9.13Z"/><path class="cls-56" d="M3260.74,1559l-47.26,49.35a14.14,14.14,0,0,0-2,2.69l-44.3,76.85a15.73,15.73,0,0,0-1.84,5.09l-18.71,103.35c-1.94,10.72,6.43,20.73,15.86,19h0c10.26-1.91,18.91,10,15.33,21.08-11.51,35.74-32.62,102.39-47.52,156-13.49,48.54-50.48,82.48-95.08,87.2l-17.57,1.86c-8,.85-15.2-6.66-15.24-15.95l-1.64-346a17,17,0,0,1,.26-3.12L3028,1565c1.13-6.34,5.67-11,11.3-11.54l210.36-21.39C3262.51,1530.77,3270.1,1549.2,3260.74,1559Z"/><polygon class="cls-45" points="2788.35 1703.77 2832.56 1814.27 2902.83 1796.58 2874.65 1689.85 2788.35 1703.77"/><path class="cls-57" d="M2907.08,1778.18,2956,1904.82,2906.17,1924l-9.82-12.63-10.63,23.94-133.86,51.42s-14.18-19.59-6.3-30.39,33.16-27.41,33.16-27.41L2822.1,1863l-11.74-47.68Z"/><path class="cls-58" d="M2746.07,1712.85,2874,1691.37l.72-.88L3032.63,1502l36.3-26.72,49-36-42.71-43.48-47.77-48.65s-75.09-11.18-155-12.89c-72.62-1.59-149.19,4.62-177.21,34C2636.3,1430.09,2746.07,1712.85,2746.07,1712.85Z"/><path class="cls-59" d="M2751.33,1739.66l166.13-27.89a4.9,4.9,0,0,0,4-5.65L2913,1655.2a4.91,4.91,0,0,0-5.66-4l-174.62,29.31a4.91,4.91,0,0,0-3.83,6.44l17,49.49A4.92,4.92,0,0,0,2751.33,1739.66Z"/><path class="cls-60" d="M3027.37,1392.31l-187.29,76.28s-27.55-40.38-32-25.78,19.68,34.77,19.68,34.77l-23.56,4,30.89,19,26.56,158.25-39.15,6.57a7.82,7.82,0,0,0-5,12.32l20.46,28.06a34.5,34.5,0,0,0,33.6,13.7l77.73-13L3037,1383.61"/><path class="cls-61" d="M2852.92,1658.77c-3.23-14.19-6.41-28.59-9.51-42.91l-50,10.84c3.15,14.51,6.33,28.92,9.64,43.5Z"/><polygon class="cls-62" points="2819.06 1632.89 2824.06 1631.79 2822.31 1623.77 2817.31 1624.86 2819.06 1632.89"/><polygon class="cls-62" points="2822.24 1647.28 2827.24 1646.17 2825.46 1638.15 2820.46 1639.26 2822.24 1647.28"/><polygon class="cls-62" points="2825.45 1661.61 2830.44 1660.48 2828.64 1652.48 2823.64 1653.6 2825.45 1661.61"/><polygon class="cls-61" points="2843.41 1615.86 2834.31 1572.82 2784.16 1583.15 2793.36 1626.7 2843.41 1615.86"/><polygon class="cls-62" points="2809.79 1589.6 2814.8 1588.55 2813.13 1580.52 2808.12 1581.56 2809.79 1589.6"/><polygon class="cls-62" points="2812.83 1604.02 2817.84 1602.96 2816.14 1594.93 2811.13 1595.98 2812.83 1604.02"/><polygon class="cls-62" points="2815.91 1618.38 2820.91 1617.3 2819.19 1609.28 2814.18 1610.35 2815.91 1618.38"/><path class="cls-61" d="M2834.31,1572.82q-4.44-21.54-8.59-43l-50.29,9.64q4.21,21.94,8.73,43.74Z"/><polygon class="cls-62" points="2800.98 1546.21 2806.01 1545.23 2804.44 1537.17 2799.41 1538.14 2800.98 1546.21"/><polygon class="cls-62" points="2803.86 1560.67 2808.88 1559.66 2807.27 1551.61 2802.25 1552.61 2803.86 1560.67"/><polygon class="cls-62" points="2806.78 1575.07 2811.8 1574.04 2810.16 1566 2805.14 1567.01 2806.78 1575.07"/><path class="cls-61" d="M2825.72,1529.77c-2.75-14.35-5.38-28.68-7.77-42.94l-50.51,8.44c2.49,14.83,5.18,29.51,8,44.14Z"/><polygon class="cls-62" points="2792.85 1502.68 2797.9 1501.79 2796.5 1493.72 2791.45 1494.57 2792.85 1502.68"/><polygon class="cls-62" points="2795.46 1517.19 2800.5 1516.27 2799.03 1508.2 2793.99 1509.1 2795.46 1517.19"/><polygon class="cls-62" points="2798.16 1531.64 2803.2 1530.68 2801.67 1522.62 2796.64 1523.56 2798.16 1531.64"/><path class="cls-61" d="M2818,1486.83c-2.36-14.22-4.58-28.56-5.91-42l-51,4.89c1.58,15.87,3.92,30.7,6.37,45.59Z"/><polygon class="cls-62" points="2786.04 1458.87 2791.13 1458.23 2790.18 1450.13 2785.08 1450.68 2786.04 1458.87"/><polygon class="cls-62" points="2788.07 1473.5 2793.14 1472.75 2791.98 1464.65 2786.9 1465.35 2788.07 1473.5"/><polygon class="cls-62" points="2790.36 1488.03 2795.41 1487.2 2794.11 1479.12 2789.05 1479.91 2790.36 1488.03"/><path class="cls-61" d="M2812,1444.79l-.36-4.12-13.78-49.49c-7.19,1.47-14.34,3.37-20.37,6.53-2.89,1.71-5.82,3.36-7.84,5.93-1.07,1.22-2.32,2.38-3.31,3.74s-1.62,2.88-2.42,4.28c-3,5.73-3.78,12.87-3.84,20.12,0,3.59.14,7.47.38,10.73l.16,2.54.14,1.61.27,3Z"/><path class="cls-62" d="M2792.44,1417.15l3.52,4.3c2.27-.74,4.6-1.28,6.93-1.79l-2-4.81A70.85,70.85,0,0,0,2792.44,1417.15Z"/><path class="cls-62" d="M2784,1428.47l5.08,2.24a26.71,26.71,0,0,1,.38-3.56,5.46,5.46,0,0,1,1.42-3.2l-4.49-3.61a7.17,7.17,0,0,0-1.8,3.85A30.6,30.6,0,0,0,2784,1428.47Z"/><path class="cls-62" d="M2784.45,1444l5.11-.42c-.22-2.58-.38-4.88-.45-7.28l-5.17-1C2784,1438.26,2784.22,1441.23,2784.45,1444Z"/><path class="cls-61" d="M2811.68,1440.67l2.64-.45,5-.75c3.37-.48,6.82-.92,10.31-1.32,7-.81,14.09-1.5,21.26-2.11l-4.37-51c-7.54.64-15.11,1.37-22.78,2.25-3.84.45-7.7.93-11.63,1.49l-5.95.9-3,.51c-.6.1-1.62.28-2.5.47l-2.71.53Z"/><polygon class="cls-62" points="2837.08 1409.78 2837.58 1414.88 2845.73 1414.12 2845.28 1409.02 2837.08 1409.78"/><polygon class="cls-62" points="2822.39 1411.41 2823.02 1416.49 2831.13 1415.55 2830.58 1410.46 2822.39 1411.41"/><path class="cls-62" d="M2807.78,1413.52l.86,5c2.66-.46,5.34-.86,8-1.24l-.71-5.07C2813.22,1412.64,2810.5,1413.05,2807.78,1413.52Z"/><path class="cls-61" d="M2850.88,1436c14.33-1.22,28.84-2.17,43.39-3l-2.87-51.13c-14.9.85-29.83,1.82-44.89,3.11Z"/><polygon class="cls-62" points="2881.26 1406.36 2881.58 1411.47 2889.76 1410.98 2889.47 1405.86 2881.26 1406.36"/><polygon class="cls-62" points="2866.55 1407.33 2866.91 1412.44 2875.09 1411.88 2874.75 1406.77 2866.55 1407.33"/><polygon class="cls-62" points="2851.88 1408.45 2852.3 1413.55 2860.47 1412.91 2860.09 1407.8 2851.88 1408.45"/><path class="cls-61" d="M2894.27,1433.05q21.84-1.23,43.79-2.08l-2-51.17q-22.28.9-44.61,2.12Z"/><polygon class="cls-62" points="2925.49 1404.06 2925.71 1409.17 2933.91 1408.83 2933.7 1403.71 2925.49 1404.06"/><polygon class="cls-62" points="2910.76 1404.73 2911.01 1409.85 2919.2 1409.46 2918.97 1404.35 2910.76 1404.73"/><polygon class="cls-62" points="2896.09 1405.49 2896.36 1410.61 2904.56 1410.17 2904.29 1405.06 2896.09 1405.49"/><path class="cls-61" d="M2938.06,1431q21.95-.88,43.94-1.5l-1.47-51.19q-22.25.65-44.52,1.52Z"/><polygon class="cls-62" points="2969.73 1402.41 2969.89 1407.53 2978.09 1407.28 2977.94 1402.16 2969.73 1402.41"/><polygon class="cls-62" points="2955 1402.9 2955.18 1408.02 2963.38 1407.74 2963.21 1402.62 2955 1402.9"/><polygon class="cls-62" points="2940.32 1403.44 2940.52 1408.56 2948.72 1408.25 2948.53 1403.13 2940.32 1403.44"/><path class="cls-61" d="M2982,1429.47c14.63-.42,29.37-.78,43.89-1l-.78-51.2c-15,.25-29.73.61-44.58,1Z"/><polygon class="cls-62" points="3013.98 1401.25 3014.09 1406.37 3022.29 1406.21 3022.2 1401.09 3013.98 1401.25"/><polygon class="cls-62" points="2999.25 1401.59 2999.37 1406.7 3007.58 1406.51 3007.46 1401.39 2999.25 1401.59"/><polygon class="cls-62" points="2984.56 1401.97 2984.71 1407.09 2992.91 1406.87 2992.78 1401.75 2984.56 1401.97"/><path class="cls-63" d="M2919.2,907.55s33.41,11.14,19.49,52.9,27.84,41.76,27.84,83.52-64,58.46-27.84,83.52-10.66,38.44,5.8,47.06,38.74-5.3,38.74-5.3l94.65-111.36-33.4-122.5S2922,854.66,2919.2,907.55Z"/><path class="cls-64" d="M3034.9,1021.48l-1.56-8.13s28.59-108.86,72.76-83.66-28.22,122.63-28.22,122.63Z"/><polygon class="cls-39" points="3019.42 1859.67 3011.73 2021.64 2944.01 2022.82 2927.55 1865.24 3019.42 1859.67"/><path class="cls-14" d="M3025,1998.39l22.4,116.75-60,9.81-3.84-11-16.64,16.57-121.71,15.09s-5.78-20.95,4.35-27.42,35.48-20.35,35.48-20.35l50.95-48.27-2.65-50.69Z"/><path class="cls-37" d="M2901.19,1894.52l134.7-1.84,67-302s100.23-25.72,172.92-52.15c18-6.55,34.32-13.13,47-19.38,0,0,3.78-121.8-171.37-154.72,0,0-33,12.84-76.29,31.4-30.77,13.2-66.74,29.27-99.82,45.69-48.54,24.08-90.8,48.89-101,66.36-12.07,20.68-7.88,100.71.37,182.65C2884.87,1791.08,2901.19,1894.52,2901.19,1894.52Z"/><path class="cls-59" d="M3045.92,1846.38l-149.77.89a10.63,10.63,0,0,0-10.55,11.08l2.05,47.6a10.62,10.62,0,0,0,10.81,10.17l140.07-2.73a10.62,10.62,0,0,0,10.27-8.86l7.66-45.77A10.63,10.63,0,0,0,3045.92,1846.38Z"/><path class="cls-61" d="M3281.16,1444.8c-14.87,6.08-29.54,12.18-44.27,18.38l19.86,47.2c14.55-6.12,29.2-12.22,43.73-18.16Z"/><polygon class="cls-65" points="3258.92 1483.67 3256.94 1478.94 3248.78 1482.36 3250.76 1487.08 3258.92 1483.67"/><polygon class="cls-65" points="3273.56 1477.57 3271.6 1472.84 3263.42 1476.24 3265.39 1480.96 3273.56 1477.57"/><polygon class="cls-65" points="3288.17 1471.55 3286.22 1466.81 3278.04 1470.18 3279.99 1474.91 3288.17 1471.55"/><path class="cls-61" d="M3236.89,1463.18q-22.07,9.27-44.06,18.78l20.32,47q21.73-9.4,43.6-18.58Z"/><polygon class="cls-65" points="3215.06 1502.23 3213.04 1497.53 3204.91 1501.03 3206.94 1505.73 3215.06 1502.23"/><polygon class="cls-65" points="3229.64 1496.01 3227.64 1491.3 3219.5 1494.77 3221.51 1499.47 3229.64 1496.01"/><polygon class="cls-65" points="3244.19 1489.85 3242.21 1485.13 3234.05 1488.57 3236.05 1493.29 3244.19 1489.85"/><path class="cls-61" d="M3192.83,1482q-22,9.52-43.95,19.36l21,46.69q21.51-9.66,43.26-19Z"/><polygon class="cls-65" points="3171.41 1521.28 3169.33 1516.6 3161.25 1520.2 3163.34 1524.88 3171.41 1521.28"/><polygon class="cls-65" points="3185.91 1514.87 3183.86 1510.18 3175.75 1513.75 3177.82 1518.43 3185.91 1514.87"/><polygon class="cls-65" points="3200.4 1508.56 3198.36 1503.86 3190.24 1507.39 3192.29 1512.08 3200.4 1508.56"/><path class="cls-61" d="M3148.88,1501.32c-14.63,6.59-29.23,13.29-43.87,20.4l22.35,46.06c13.94-6.76,28.21-13.31,42.53-19.77Z"/><polygon class="cls-65" points="3128.11 1541.05 3125.92 1536.41 3117.92 1540.23 3120.14 1544.84 3128.11 1541.05"/><polygon class="cls-65" points="3142.47 1534.36 3140.33 1529.7 3132.29 1533.43 3134.46 1538.07 3142.47 1534.36"/><polygon class="cls-65" points="3156.84 1527.8 3154.73 1523.13 3146.67 1526.79 3148.8 1531.45 3156.84 1527.8"/><path class="cls-61" d="M3105,1521.72q-11,5.28-22.05,11.08c-3.71,2-7.43,4-11.24,6.16s-7.62,4.47-12.11,7.53l29.45,41.9c2.07-1.41,5.1-3.28,8.13-5s6.35-3.53,9.66-5.28c6.68-3.49,13.52-6.95,20.51-10.32Z"/><path class="cls-65" d="M3085.75,1562.52l-2.54-4.44c-2.6,1.45-5.17,3-7.73,4.63l2.77,4.31C3080.7,1565.47,3083.2,1564,3085.75,1562.52Z"/><path class="cls-65" d="M3099.64,1555l-2.35-4.55c-2.64,1.34-5.26,2.75-7.88,4.16l2.44,4.5C3094.44,1557.75,3097,1556.36,3099.64,1555Z"/><polygon class="cls-65" points="3113.74 1547.96 3111.49 1543.36 3103.53 1547.3 3105.83 1551.88 3113.74 1547.96"/><path class="cls-61" d="M3059.61,1546.49a95.55,95.55,0,0,0-10.39,9,53.45,53.45,0,0,0-5.24,8.59l-2.25,4.52c-.66,1.52-1.05,2.89-1.41,3.86l-1.08,3.15c-.33,1-.56,1.92-.85,2.89-.53,1.88-1.14,3.85-1.59,5.65-1.88,7.3-3.45,14.33-4.83,21.25l50.19,10.18c1.26-6.37,2.67-12.57,4.16-18.4.37-1.49.78-2.75,1.16-4.13.2-.66.39-1.41.58-2l.58-1.65.3-.93.12-.07Z"/><path class="cls-65" d="M3061.43,1598.79l-5-1.15c-.63,2.9-1.34,5.8-1.91,8.71l5,1C3060.11,1604.51,3060.8,1601.66,3061.43,1598.79Z"/><path class="cls-65" d="M3065.47,1583.61l-4.88-1.56c-.87,2.9-1.75,5.79-2.46,8.69l4.95,1.28C3063.78,1589.18,3064.63,1586.4,3065.47,1583.61Z"/><path class="cls-65" d="M3072.68,1570.93l-3.48-3.75a30.78,30.78,0,0,0-2.8,2.56,21.65,21.65,0,0,0-3.13,5.28l4.52,2.37a16.92,16.92,0,0,1,2.57-4.36A24.29,24.29,0,0,1,3072.68,1570.93Z"/><path class="cls-61" d="M3032,1605.38c-3.28,16.25-5.91,32.18-8.38,48.11l50.6,7.83c2.4-15.45,4.95-30.88,8-45.76Z"/><polygon class="cls-65" points="3052.61 1645.48 3047.56 1644.66 3046.16 1653.41 3051.22 1654.21 3052.61 1645.48"/><polygon class="cls-65" points="3055.26 1629.87 3050.22 1628.98 3048.71 1637.72 3053.76 1638.57 3055.26 1629.87"/><polygon class="cls-65" points="3058.12 1614.36 3053.1 1613.37 3051.45 1622.1 3056.48 1623.03 3058.12 1614.36"/><path class="cls-61" d="M3023.59,1653.49c-2.46,15.92-4.71,31.79-6.85,47.66l50.75,6.83q3.15-23.42,6.7-46.66Z"/><polygon class="cls-65" points="3045.58 1692.56 3040.51 1691.86 3039.31 1700.63 3044.38 1701.32 3045.58 1692.56"/><polygon class="cls-65" points="3047.81 1676.87 3042.74 1676.14 3041.49 1684.9 3046.56 1685.62 3047.81 1676.87"/><polygon class="cls-65" points="3050.14 1661.25 3045.07 1660.47 3043.75 1669.23 3048.82 1669.98 3050.14 1661.25"/><path class="cls-61" d="M3016.74,1701.15q-3.21,23.79-6.1,47.56l50.83,6.22q2.88-23.52,6-47Z"/><polygon class="cls-65" points="3039.37 1739.78 3034.29 1739.14 3033.2 1747.92 3038.29 1748.55 3039.37 1739.78"/><polygon class="cls-65" points="3041.38 1724.05 3036.3 1723.39 3035.17 1732.17 3040.25 1732.82 3041.38 1724.05"/><polygon class="cls-65" points="3043.43 1708.38 3038.36 1707.7 3037.19 1716.48 3042.27 1717.14 3043.43 1708.38"/><polygon class="cls-61" points="3010.64 1748.71 3005.05 1796.26 3055.93 1802.02 3061.47 1754.93 3010.64 1748.71"/><polygon class="cls-65" points="3033.69 1787.06 3028.6 1786.48 3027.6 1795.27 3032.69 1795.85 3033.69 1787.06"/><polygon class="cls-65" points="3035.54 1771.32 3030.45 1770.71 3029.42 1779.5 3034.5 1780.1 3035.54 1771.32"/><polygon class="cls-65" points="3037.42 1755.62 3032.34 1755.01 3031.27 1763.79 3036.36 1764.4 3037.42 1755.62"/><polygon class="cls-61" points="3005.05 1796.26 2999.87 1843.91 3050.81 1849.1 3055.93 1802.02 3005.05 1796.26"/><polygon class="cls-65" points="3028.43 1834.4 3023.34 1833.86 3022.41 1842.66 3027.5 1843.19 3028.43 1834.4"/><polygon class="cls-65" points="3030.14 1818.64 3025.05 1818.08 3024.09 1826.88 3029.18 1827.42 3030.14 1818.64"/><polygon class="cls-65" points="3031.89 1802.93 3026.8 1802.36 3025.81 1811.15 3030.9 1811.71 3031.89 1802.93"/><ellipse class="cls-32" cx="2987.4" cy="2047.59" rx="23.66" ry="20.88"/><path class="cls-66" d="M3049.29,1424.7c4.16-.17,8.61-.41,13.38-.79a124.08,124.08,0,0,1,36.06,2.48c90.79,19.74,136.12,136.8,136.12,136.8,9-10.22,28.28-17.81,45.4-22.9a306.44,306.44,0,0,1,32.63-7.72c90.77-24.48,39.65-239.65,26.37-290-1.81-6.73-2.9-10.51-2.9-10.51L3017,1200.37l-1.46,178.34S2953.31,1428.32,3049.29,1424.7Z"/><path class="cls-66" d="M3155.29,962.72s89.79,6.33,150.88,89.6,122.72,206.6,102.26,234.32-108.76,94.29-180.21,108.11c0,0,11.69-85.94-41.76-108.58l-145.81-5.56-139.54,17.27s50.88-154.28,79.33-209.37,72.39-83.52,72.39-83.52Z"/><path class="cls-67" d="M3033.34,1121.92s-8.35,83.52,0,105.79c17.64,47,45.72,72.71,47.33,83.52,3.68,24.78,8.35,58.46,8.35,58.46l-52-28.47-20.35-116.29S3016.64,1166.46,3033.34,1121.92Z"/><path class="cls-39" d="M3305.78,1335s10.57-81.39-69.13-81.86l-149.18,101.2s-65.15-37.53-104.94,14.15c0,0-15.68,30.32,20.25,38.14s94.86,8.31,94.86,8.31Z"/><path class="cls-45" d="M3070.73,911.32l46.13,71.4s37.88,11.55,13.61,59.18c-10.11,19.84-21.76,50.26-35.91,50.91-19.82.9-40.6-36.45-34.18-65.73l-18.69-33.22Z"/><path class="cls-66" d="M3100.78,930.66a33.85,33.85,0,0,1,1.13,14.64c-2.67,21.36-11.32,70.51-35.16,79.18-30.63,11.14-34.11-12.35-34.11-12.35a41.32,41.32,0,0,0,9.05,29.06c11.14,13.92-30.62,86.3,44.55,69.59s72.38-119.71,72.38-119.71l-2.78-27.84S3094.66,911.85,3100.78,930.66Z"/><path class="cls-67" d="M3225.43,1044s-25,30.62,5.57,103,33.41,72.38,33.41,72.38,16.7-22.27,41.76-8.35c0,0-20.68-1.39-32.61,11.83,0,0,10.09.9,26.92,5.67,0,0-27.72-9.15-41.64,4.77S3183.67,1077.38,3225.43,1044Z"/><path class="cls-63" d="M3082.12,923.92s4.52,51.55,30.76,66.31,12.33,56.52,51.31,53.74,17.41-76.35,40.72-68.8a147.85,147.85,0,0,1,39.28,19.53s17.44-31.47-24.32-39.82-69.6-8.35-69.6-41.76-26.51-107.18-70.33-124.58S3082.12,923.92,3082.12,923.92Z"/><path class="cls-45" d="M2916.83,902.85s36.27,104,85,112.5a54,54,0,0,0,16.26.31c28.41-3.72,57.41-25.28,61.43-68.53,4.8-51.59-31.56-111.75-31.56-111.75L2965,822.45l-2,2-35,33.85Z"/><path class="cls-39" d="M2916.83,902.85a396.25,396.25,0,0,0,17.34,41,303.21,303.21,0,0,0,16.93,30.4c14.16,22.13,31.11,37.69,50.72,41.11a54,54,0,0,0,16.26.31c26-6.53,52.18-31.69,55.88-71.58,4.79-51.58-6.65-113.76-6.65-113.76L2963,824.42l-35,33.85Z"/><path class="cls-63" d="M2987.09,771.2s-26.13-69.66,46.25-58.52,61.25,89.08,33.41,80.73S2987.09,771.2,2987.09,771.2Z"/><path class="cls-68" d="M2987.09,771.2s22.35-15,66.07,3.25l-53.93,16.09Z"/><path class="cls-63" d="M2945.76,855.87a51.88,51.88,0,0,0,7.93-3.87s13.58-14.92,21.95-6.93,37.71,61.27,101.13,49.17l.7,1.16,19.32,32s46.36-51.3,5.76-113.39-96.22-37.79-96.22-37.79-50.16-26-73.42,38.66C2916.17,861.44,2934.29,860.2,2945.76,855.87Z"/><path class="cls-63" d="M2896.23,895.59c3.29,7.56,12.69,11.89,22.76,10.6a199.47,199.47,0,0,0,33.55-7.37c2.71-.85,5.17-1.68,7.34-2.45,5.35-1.89,7.93-7,5.53-11a80.24,80.24,0,0,1-4.78-9.86,116.52,116.52,0,0,1-8.52-47.38l.69-26.94.1-3.54s-2-.07-5.32.12c-2,.14-4.44.36-7.2.76-15.38,2.18-40.51,9.72-49,35.31C2883.28,858.29,2890.27,881.94,2896.23,895.59Z"/><path class="cls-63" d="M2994.14,890.45a40,40,0,0,1-7.74.29c-2.76-.06-5.53-.09-7.94-.08s-5.19.06-7.95.15a39.14,39.14,0,0,1-7.72-.23c-2.06-.39-2.89-1.54-.41-3,2.33-1.4,8.39-2.92,16.39-3s13.89,1.46,16.08,2.83S2996.24,890,2994.14,890.45Z"/><path class="cls-63" d="M2938,910.78a17.65,17.65,0,0,1-3.94,2.25c-1.46.68-2.91,1.4-4.17,2s-2.68,1.42-4.09,2.21a17.26,17.26,0,0,1-4.11,1.89c-1.21.28-2.05-.29-1.27-1.93s3.34-4.22,7.5-6.37,7.76-2.69,9.39-2.33S2939,909.93,2938,910.78Z"/><path class="cls-47" d="M2936.37,947.85A292.19,292.19,0,0,0,2952.61,977a41.4,41.4,0,0,0-4.46-14.93A40.05,40.05,0,0,0,2936.37,947.85Z"/><path class="cls-39" d="M2960.37,949.38l-1.63,12.13s-5.33-3.34-3.42-8.21C2956.57,950.11,2960.37,949.38,2960.37,949.38Z"/><path class="cls-49" d="M2962.46,964.73a1.65,1.65,0,0,0,.32-.06l4.2-1a1,1,0,0,0,.6-1.18c-.12-.55-.6-1-1-.81l-4.2,1a4,4,0,0,1-3.68-1.32,9.68,9.68,0,0,1-2.52-4.92l-.12-.59c-.32-1.56.18-3,1.12-3.23a4.77,4.77,0,0,0,3.21-3.15,10.07,10.07,0,0,0,.35-5.62l-1.78-8.4a.94.94,0,0,0-1-.8,1,1,0,0,0-.6,1.19l1.79,8.4a7.66,7.66,0,0,1-.26,4.26,3.16,3.16,0,0,1-2.1,2.13c-1.83.43-2.88,2.94-2.32,5.59l.12.59a12,12,0,0,0,3.14,6.11A5.59,5.59,0,0,0,2962.46,964.73Z"/><ellipse class="cls-47" cx="3032.64" cy="932.1" rx="30.26" ry="27.57" transform="translate(2063.65 3953.16) rotate(-89.3)"/><path class="cls-49" d="M2977.93,979s19.67-7,26.34-15.06c0,0,10.07,24.09-.5,26.11S2977.93,979,2977.93,979Z"/><path class="cls-63" d="M2980.48,920.62c1.22,3.75,4.62,6,7.59,5s4.39-4.79,3.16-8.54-4.62-6-7.59-5S2979.26,916.88,2980.48,920.62Z"/><path class="cls-63" d="M2988.08,915a10.09,10.09,0,0,0,3.21-4.72,20.48,20.48,0,0,1-.7,5.37C2989.91,917.35,2988.08,915,2988.08,915Z"/><path class="cls-63" d="M2946.49,936.43c1.38,3.3.67,6.87-1.57,8s-5.18-.67-6.56-4-.68-6.88,1.57-8S2945.11,933.13,2946.49,936.43Z"/><path class="cls-63" d="M2939,937.09a7.51,7.51,0,0,1-4.46-1.32,18.66,18.66,0,0,0,3.39,3.26C2939.25,939.82,2939,937.09,2939,937.09Z"/><path class="cls-69" d="M3062.14,878.12s16.39-52.5-10.51-85.06C3051.63,793.06,3074.15,833.88,3062.14,878.12Z"/><path class="cls-69" d="M3025.28,870.6s30.82-45.53,14.46-84.47C3039.74,786.13,3049.53,831.71,3025.28,870.6Z"/><path class="cls-70" d="M2945.76,855.87a51.88,51.88,0,0,0,7.93-3.87s13.58-14.92,21.95-6.93,37.71,61.27,101.13,49.17l.7,1.16c4.32-2.9,2.62-4.15-10.45-2-46.5,7.5-75.27-50-93.9-61.51s-27.87,9.71-27.87,9.71Z"/><path class="cls-71" d="M2949.61,895.23c1,1.28,1.95,2.47,2.93,3.59,2.71-.85,5.17-1.68,7.34-2.45,5.35-1.89,7.93-7,5.53-11a80.24,80.24,0,0,1-4.78-9.86,116.52,116.52,0,0,1-8.52-47.38l.74-30.72c-1.91-1.46-3.71,1.16-5.27.36-3.5-1.78-6-1.8-7.14.64l-.06.12C2938.94,801.17,2914.14,848.78,2949.61,895.23Z"/><path class="cls-72" d="M3011,901.66c6.07,9.5-.75,21.05-8.37,27.34-8.26,6.81-25.41,12.81-33.17,1.89-6.35-8.92.78-20.81,7.79-26.84,8.52-7.33,25.42-13.26,33.75-2.39.94,1.23,3.06,0,2.11-1.24-13.94-18.21-44.11.35-48,18.34-1.82,8.44,2.17,16.65,10.57,19.42,10.55,3.47,22.66-1.74,30.35-9s13.26-19.08,7.05-28.8C3012.22,899.1,3010.11,900.33,3011,901.66Z"/><path class="cls-72" d="M2915.8,947.3c6.43,21.72,45,12.31,39.39-9.8s-43.82-12.44-39.39,9.8c.31,1.54,2.67.89,2.36-.65-3.82-19.2,30-27.56,34.67-8.5s-29.11,27.29-34.67,8.5A1.22,1.22,0,0,0,2915.8,947.3Z"/><path class="cls-72" d="M2968.4,931.23c-6.17-2.5-14.51-2.07-15.66,5.9-.22,1.54,2.14,2.2,2.36.65,1-6.62,7.72-6.19,12.65-4.2,1.46.59,2.09-1.77.65-2.35Z"/><path class="cls-72" d="M3012.21,902.19l49.72-15.86c1.5-.47.86-2.83-.65-2.35l-49.72,15.85c-1.49.48-.86,2.84.65,2.36Z"/><path class="cls-39" d="M3059,884.24s-.64-23.08,20.61-23.38,32.25,31.34,23.36,51.48-29.87,9.85-29.87,9.85Z"/><path class="cls-49" d="M3089.12,905.19a2.53,2.53,0,0,1-1.89-.05l-13.77-5.91,7.22-21.4a2.47,2.47,0,0,1,3.36-1.52,3,3,0,0,1,1.62,3.64l-5.48,16.24L3089,900a3,3,0,0,1,1.61,3.65A2.56,2.56,0,0,1,3089.12,905.19Z"/><circle class="cls-73" cx="3080.67" cy="921.47" r="8.35"/><polygon class="cls-39" points="2860.73 1266.69 2718.75 1233.28 2716.7 1248.66 2713.18 1275.04 2885.79 1361.34 2860.73 1266.69"/><path class="cls-39" d="M2735.46,1252.77l-16.71-19.49-30.62-33.41-44.55-30.62s-8.35,11.13,13.92,30.62,16.71,44.55,19.49,47.33,16.71,27.84,36.19,27.84S2735.46,1252.77,2735.46,1252.77Z"/><path class="cls-39" d="M2679.45,1211h-33.74s-25.95-16.71-46.72-11.14-18.16,11.14-18.16,11.14-20.77,0-20.77,8.35,33.74,39,72.67,47.33,80.45,8.35,80.45,8.35Z"/><path class="cls-74" d="M2732.23,1237.83c1.87,8.52,2.94,24-5.77,43.8a5.27,5.27,0,0,0,2.45,6.84l2.2,1.1a5.27,5.27,0,0,0,7-2.25c4.17-7.86,11.25-25.83,6.33-50.91a4.8,4.8,0,0,0-3.79-3.76l-2.75-.55A4.83,4.83,0,0,0,2732.23,1237.83Z"/><polyline class="cls-39" points="3035.81 1301.47 3053.79 1344.89 3088.76 1370.48 3087.47 1354.37"/><path class="cls-75" d="M3047.23,1329.05l-55.65-134.75s-183.74,44.55-208.8-16.7l83.52,183.74-30.62,130.85s30.62,39,111.36,36.19,125.28-39,125.28-39Z"/><path class="cls-39" d="M3041.69,1325.15l-20.44,2.25s-78.61-7.58-72.49,1.78,15,7.87,15,7.87-8.85,1.49-7.72,8.22,28.81,9,28.81,9-21.75-.77-22.68,3.8c-2.17,10.75,20.52,10.41,20.52,10.41s-14-1.94-12.71,5.59c1.13,6.73,79.57,24.76,79.57,24.76s10.24,22.48,45.64,16.54c29-4.87-1.46-50.07-20.06-68C3070.8,1343.28,3048.49,1316.89,3041.69,1325.15Z"/><path class="cls-76" d="M3218.21,802.13l278.73,1a15.46,15.46,0,0,0,15.52-15.4l.4-110.63a15.46,15.46,0,0,0-15.4-15.51l-240.22-.87a15.46,15.46,0,0,0-15.52,15.4l-.35,98.47a9.28,9.28,0,0,1-3.35,7.1l-20.9,17.38A1.72,1.72,0,0,0,3218.21,802.13Z"/><circle class="cls-2" cx="3324.65" cy="732.38" r="9.44"/><circle class="cls-2" cx="3376.8" cy="732.57" r="9.44"/><circle class="cls-2" cx="3429.72" cy="732.76" r="9.44"/><path class="cls-77" d="M1747.14,1400.54v144.74a40.15,40.15,0,0,1-40.15,40.16h-54.65l7.2,74.49-93.11-74.49H1417.12a40.15,40.15,0,0,1-40.16-40.16V1400.54a40.14,40.14,0,0,1,40.16-40.15H1707A40.14,40.14,0,0,1,1747.14,1400.54Z"/><path class="cls-78" d="M1730.19,1400.54v144.74a40.15,40.15,0,0,1-40.16,40.16h-54.65l24.16,74.49-104.41-74.49H1411.46a40.15,40.15,0,0,1-40.15-40.16V1400.54a40.14,40.14,0,0,1,40.15-40.15H1690A40.14,40.14,0,0,1,1730.19,1400.54Z"/><circle class="cls-2" cx="1636.32" cy="1473.93" r="15.01"/><circle class="cls-2" cx="1553.4" cy="1473.93" r="15.01"/><circle class="cls-2" cx="1469.27" cy="1473.93" r="15.01"/><path class="cls-79" d="M2069.23,757.12Zm-17.84-67.92a34.31,34.31,0,1,0,10.05,24.26,34.21,34.21,0,0,0-10.05-24.26Zm-7.41-34a60.65,60.65,0,0,1,25.25,14.62,2.09,2.09,0,0,0,2.51.3l15.94-9.2.09,0a4,4,0,0,1,5.31,1.5l.07.11,11.21,19.43a4,4,0,0,1-1.45,5.4l-.1.06L2087,696.49a2.11,2.11,0,0,0-1,2.33h0a58.73,58.73,0,0,1,1.34,7.25,62.28,62.28,0,0,1,0,14.78,60.66,60.66,0,0,1-1.34,7.25,2.1,2.1,0,0,0,1.12,2.39l15.8,9.13h0a4,4,0,0,1,1.45,5.41l-11.28,19.54h0a4,4,0,0,1-2.4,1.83,3.92,3.92,0,0,1-3-.39l-.11-.06-15.84-9.14a2.08,2.08,0,0,0-2.5.31,61.88,61.88,0,0,1-11.8,8.89,60.67,60.67,0,0,1-13.54,5.75,2.1,2.1,0,0,0-1.53,2v18.38a4,4,0,0,1-3.95,4h-22.56a4,4,0,0,1-3.95-4V773.79a2.11,2.11,0,0,0-1.62-2.06,60.56,60.56,0,0,1-13.45-5.72,61.88,61.88,0,0,1-11.8-8.89,2.09,2.09,0,0,0-2.61-.25L1966.58,766a4,4,0,0,1-5.4-1.45l-.07-.12L1949.89,745h0a3.92,3.92,0,0,1-.39-3,4,4,0,0,1,1.83-2.41l15.93-9.19a2.1,2.1,0,0,0,1-2.32h0a59.24,59.24,0,0,1-1.34-7.26,62.28,62.28,0,0,1,0-14.78,58.73,58.73,0,0,1,1.34-7.25,2.11,2.11,0,0,0-1.12-2.39l-15.81-9.13a4,4,0,0,1-1.44-5.4l.06-.11,11.22-19.43h0a4,4,0,0,1,5.4-1.45h0l15.94,9.2a2.09,2.09,0,0,0,2.56-.35,61.29,61.29,0,0,1,11.75-8.84,60.21,60.21,0,0,1,13.54-5.75,2.12,2.12,0,0,0,1.53-2v-18.4a4,4,0,0,1,3.95-3.94h22.56a4,4,0,0,1,3.95,3.94v18.4A2.1,2.1,0,0,0,2044,655.19Z"/><path class="cls-79" d="M2201.9,627.32Zm-22-83.59a42.22,42.22,0,1,0,12.37,29.86,42.07,42.07,0,0,0-12.37-29.86Zm-9.12-41.85a74.48,74.48,0,0,1,31.07,18,2.61,2.61,0,0,0,3.09.37l19.63-11.33.1-.06a4.89,4.89,0,0,1,6.54,1.84l.08.14,13.8,23.91a4.88,4.88,0,0,1-1.78,6.65l-.13.08-19.46,11.23a2.58,2.58,0,0,0-1.22,2.86h0a73.54,73.54,0,0,1,1.64,8.92,75.47,75.47,0,0,1,0,18.19,73.54,73.54,0,0,1-1.64,8.92,2.58,2.58,0,0,0,1.37,2.94l19.45,11.23h0a4.9,4.9,0,0,1,2.26,3,4.85,4.85,0,0,1-.48,3.69l-13.88,24h0a4.9,4.9,0,0,1-6.64,1.78l-.15-.08L2205,626.94a2.59,2.59,0,0,0-3.08.38,75.46,75.46,0,0,1-14.51,10.94,74.45,74.45,0,0,1-16.67,7.08,2.58,2.58,0,0,0-1.88,2.49v22.63a4.88,4.88,0,0,1-4.86,4.86H2136.2a4.88,4.88,0,0,1-4.86-4.86V647.83a2.59,2.59,0,0,0-2-2.52,74.61,74.61,0,0,1-31.07-18,2.57,2.57,0,0,0-3.22-.3l-19.49,11.25a4.89,4.89,0,0,1-3.69.47,4.83,4.83,0,0,1-3-2.25l-.09-.14L2055,612.43h0a4.84,4.84,0,0,1-.48-3.67,4.92,4.92,0,0,1,2.25-3l19.61-11.31a2.6,2.6,0,0,0,1.22-2.86h0a76.06,76.06,0,0,1-1.63-8.93,75.47,75.47,0,0,1,0-18.19,75.52,75.52,0,0,1,1.63-8.92,2.59,2.59,0,0,0-1.37-3l-19.46-11.23a4.88,4.88,0,0,1-1.77-6.64l.07-.15,13.81-23.91h0a4.89,4.89,0,0,1,6.64-1.79h0l19.63,11.33a2.58,2.58,0,0,0,3.15-.43,75.19,75.19,0,0,1,14.46-10.89,74.37,74.37,0,0,1,16.66-7.08,2.59,2.59,0,0,0,1.88-2.5V476.72a4.88,4.88,0,0,1,4.86-4.85H2164a4.88,4.88,0,0,1,4.86,4.85v22.63A2.6,2.6,0,0,0,2170.82,501.88Z"/><path class="cls-79" d="M981.41,2063.55a7.69,7.69,0,1,1,15.37,0v18.06h18.06a7.69,7.69,0,1,1,0,15.37H996.78v18.07a7.69,7.69,0,0,1-15.37,0V2097H963.34a7.69,7.69,0,1,1,0-15.37h18.07Z"/><path class="cls-79" d="M3474.27,956.17a7.69,7.69,0,0,1,15.37,0v18.07h18.07a7.69,7.69,0,0,1,0,15.38h-18.07v18.06a7.69,7.69,0,1,1-15.37,0V989.62H3456.2a7.69,7.69,0,0,1,0-15.38h18.07Z"/><path class="cls-79" d="M656.08,2229.23a7.69,7.69,0,1,1,15.37,0v18.07h18.06a7.69,7.69,0,1,1,0,15.37H671.45v18.07a7.69,7.69,0,0,1-15.37,0v-18.07H638a7.69,7.69,0,0,1,0-15.37h18.08Z"/><path class="cls-79" d="M883,646.79a7.69,7.69,0,1,1,15.37,0v18.06h18.07a7.69,7.69,0,0,1,0,15.38H898.38v18.06a7.69,7.69,0,0,1-15.37,0V680.23H865a7.69,7.69,0,1,1,0-15.38H883Z"/><path class="cls-79" d="M1047.27,719.17a7.69,7.69,0,1,1,15.37,0v18.07h18.06a7.69,7.69,0,1,1,0,15.37h-18.06v18.07a7.69,7.69,0,0,1-15.37,0V752.61H1029.2a7.69,7.69,0,1,1,0-15.37h18.07Z"/><path class="cls-79" d="M3614.32,1296.84a7.68,7.68,0,1,1,15.36,0v18.06h18.07a7.69,7.69,0,1,1,0,15.37h-18.07v18.07a7.68,7.68,0,1,1-15.36,0v-18.07h-18.08a7.69,7.69,0,0,1,0-15.37h18.08Z"/></g></g></svg>