<svg xmlns="http://www.w3.org/2000/svg" xmlns:xlink="http://www.w3.org/1999/xlink" viewBox="0 0 4680 3120"><defs><style>.cls-1{fill:none;}.cls-2{isolation:isolate;}.cls-3,.cls-76{fill:#fff;}.cls-4,.cls-5,.cls-6,.cls-7,.cls-75,.cls-76{fill-rule:evenodd;}.cls-4{fill:url(#linear-gradient);}.cls-5{fill:#83d9ff;}.cls-6{fill:#4fbafc;}.cls-7{fill:#44b8f2;}.cls-75,.cls-8{fill:#c9c9c9;}.cls-65,.cls-72,.cls-75,.cls-8{opacity:0.55;}.cls-33,.cls-42,.cls-43,.cls-45,.cls-48,.cls-50,.cls-75,.cls-8,.cls-80{mix-blend-mode:multiply;}.cls-9{fill:#d0e0f0;}.cls-10{fill:#91c1f1;}.cls-11{fill:#ff5c98;}.cls-12{fill:#09089f;}.cls-13{fill:#4c73dc;}.cls-14{fill:#8cb3de;}.cls-15{fill:#62d3bd;}.cls-16{fill:#ff5d98;}.cls-17{fill:#00007f;}.cls-18{fill:#ff7bad;}.cls-19{fill:#a2f2e3;}.cls-20{fill:#f4387c;}.cls-21{fill:#ff4881;}.cls-22{clip-path:url(#clip-path);}.cls-23{fill:url(#linear-gradient-2);}.cls-24{fill:#6933d1;}.cls-25{fill:#7e3fe0;}.cls-26{fill:#5227ba;}.cls-27{fill:#6426db;}.cls-28{fill:#1676d6;}.cls-29{fill:#1a55d8;}.cls-30{fill:#2966ef;}.cls-31{fill:#70a3ff;}.cls-32{fill:#3a79f9;}.cls-33{fill:#ccc;}.cls-33,.cls-64{opacity:0.7;}.cls-34{fill:#352d29;}.cls-35{fill:#ffba94;}.cls-36{fill:#ff9b57;}.cls-37{fill:#f78d46;}.cls-38{fill:#f9a880;}.cls-39{fill:#fca286;}.cls-40{fill:#ff806d;}.cls-41{fill:#443a36;}.cls-42,.cls-43,.cls-53,.cls-54,.cls-68,.cls-70{opacity:0.6;}.cls-42{fill:url(#linear-gradient-3);}.cls-43{fill:url(#linear-gradient-4);}.cls-44{fill:#211e1c;}.cls-45,.cls-48{opacity:0.5;}.cls-45{fill:url(#linear-gradient-5);}.cls-46{fill:#f44545;}.cls-47{fill:#e07127;}.cls-48{fill:url(#linear-gradient-6);}.cls-49{fill:#f48337;}.cls-50{fill:#bcbcbc;opacity:0.61;}.cls-51{fill:#fabf44;}.cls-52{fill:#f27c49;}.cls-53{fill:url(#linear-gradient-7);}.cls-54{fill:url(#linear-gradient-8);}.cls-55{fill:url(#linear-gradient-9);}.cls-56{fill:#282863;}.cls-57{fill:#222254;}.cls-58{fill:#703127;}.cls-59{fill:#191944;}.cls-60{opacity:0.9;fill:url(#linear-gradient-10);}.cls-60,.cls-64,.cls-66{mix-blend-mode:screen;}.cls-61{fill:#3e93f9;}.cls-62{fill:#5b4ced;}.cls-63{fill:#2b2ba5;}.cls-64{fill:url(#linear-gradient-11);}.cls-65{fill:url(#linear-gradient-12);}.cls-66{opacity:0.42;fill:url(#linear-gradient-13);}.cls-67{fill:#3e3ed6;}.cls-68{fill:url(#linear-gradient-14);}.cls-69{fill:#4040c6;}.cls-70{fill:url(#linear-gradient-15);}.cls-71{fill:#3030b5;}.cls-72{fill:url(#linear-gradient-16);}.cls-73{fill:#6562f4;}.cls-74{fill:#5454d6;}.cls-77{fill:#ffac27;}.cls-78{fill:#ffc64a;}.cls-79{fill:#3131c9;}.cls-80{fill:#6060cc;opacity:0.56;}</style><linearGradient id="linear-gradient" x1="2132.29" y1="8.72" x2="2355.73" y2="2259.42" gradientUnits="userSpaceOnUse"><stop offset="0" stop-color="#fff"/><stop offset="1" stop-color="#3bd8ff"/></linearGradient><clipPath id="clip-path"><rect class="cls-1" x="428.83" y="1294.79" width="1281.76" height="1344.91"/></clipPath><linearGradient id="linear-gradient-2" x1="428.83" y1="2153.34" x2="1691.64" y2="2153.34" gradientUnits="userSpaceOnUse"><stop offset="0" stop-color="#00b488"/><stop offset="0.92" stop-color="#007bc0"/></linearGradient><linearGradient id="linear-gradient-3" x1="-5613.09" y1="-286.96" x2="-5639.67" y2="-131.23" gradientTransform="matrix(-0.93, -0.36, -0.36, 0.93, -2694.97, -617.85)" gradientUnits="userSpaceOnUse"><stop offset="0" stop-color="#fff" stop-opacity="0.5"/><stop offset="1"/></linearGradient><linearGradient id="linear-gradient-4" x1="-5527.77" y1="-329.16" x2="-5553.25" y2="-179.9" xlink:href="#linear-gradient-3"/><linearGradient id="linear-gradient-5" x1="2618.19" y1="1782.04" x2="2573.36" y2="1915.52" gradientUnits="userSpaceOnUse"><stop offset="0" stop-color="#ffcf3d"/><stop offset="1" stop-color="#f15a24"/></linearGradient><linearGradient id="linear-gradient-6" x1="2485.7" y1="1950.48" x2="2182.64" y2="1963" xlink:href="#linear-gradient-5"/><linearGradient id="linear-gradient-7" x1="1936.53" y1="1735.23" x2="2359.62" y2="2018.98" gradientUnits="userSpaceOnUse"><stop offset="0" stop-color="#f85254"/><stop offset="1" stop-color="#f79865" stop-opacity="0.6"/></linearGradient><linearGradient id="linear-gradient-8" x1="1711.19" y1="1906.17" x2="1968.14" y2="2078.49" xlink:href="#linear-gradient-7"/><linearGradient id="linear-gradient-9" x1="1868.16" y1="1608" x2="1943.03" y2="1658.22" gradientTransform="translate(207.47 159.45) rotate(3.21)" xlink:href="#linear-gradient-7"/><linearGradient id="linear-gradient-10" x1="1849.8" y1="1172.61" x2="1549.52" y2="1648.37" gradientUnits="userSpaceOnUse"><stop offset="0" stop-color="#172652" stop-opacity="0"/><stop offset="1" stop-color="#00579f"/></linearGradient><linearGradient id="linear-gradient-11" x1="2197.65" y1="1651.42" x2="1680.71" y2="2150.02" gradientUnits="userSpaceOnUse"><stop offset="0" stop-color="#172652" stop-opacity="0.6"/><stop offset="1" stop-color="#00579f"/></linearGradient><linearGradient id="linear-gradient-12" x1="1948.87" y1="2301.82" x2="1174.09" y2="1807.84" gradientUnits="userSpaceOnUse"><stop offset="0" stop-color="#6062ac"/><stop offset="1" stop-color="#3053a4"/></linearGradient><linearGradient id="linear-gradient-13" x1="3187.85" y1="1559.4" x2="3310.73" y2="1664.22" gradientUnits="userSpaceOnUse"><stop offset="0" stop-color="#172652" stop-opacity="0"/><stop offset="0.6" stop-color="#094380" stop-opacity="0.6"/><stop offset="1" stop-color="#00579f"/></linearGradient><linearGradient id="linear-gradient-14" x1="-7038.33" y1="1964.83" x2="-7220.84" y2="1795.24" gradientTransform="matrix(-1, 0, 0, 1, -4046.5, 0)" gradientUnits="userSpaceOnUse"><stop offset="0" stop-color="#6663b2"/><stop offset="1" stop-color="#372bcd"/></linearGradient><linearGradient id="linear-gradient-15" x1="3453.25" y1="1914.31" x2="3611.21" y2="1767.53" gradientTransform="matrix(1, 0, 0, 1, 0, 0)" xlink:href="#linear-gradient-14"/><linearGradient id="linear-gradient-16" x1="-7312.64" y1="1199.31" x2="-7309.4" y2="1548" xlink:href="#linear-gradient-14"/></defs><title>06</title><g class="cls-2"><g id="_06" data-name="06"><rect class="cls-3" width="4680" height="3120"/><path class="cls-4" d="M4194.07,2034.24a210.11,210.11,0,0,1-55.86,56.57c-35.26,24.17-80.11,38.83-134.52,38.83a202.84,202.84,0,0,0-120.47,39.57c-48.69,35.75-81.14,92.5-83.65,156.62-.11,2.67-.16,5.37-.16,8.06,0,102.49-41.94,195.65-109.46,263.2s-160.71,109.45-263.19,109.45H921.17c-266.28,0-484.13-217.85-484.13-484.12a479.19,479.19,0,0,1,38.29-188.18,487.49,487.49,0,0,1,103.92-153.73C667,1792.77,788,1738.3,921.17,1738.3h12.72c53.43,0,97.14-43.73,97.14-97.14A97.46,97.46,0,0,0,933.89,1544H880.46c-129.9,0-236.19-106.27-236.19-236.16A236.87,236.87,0,0,1,880,1071.64h230.47c112.32,0,204.25-91.91,204.25-204.25,0-102.48,41.91-195.64,109.46-263.19s160.71-109.49,263.19-109.49H3591.8c266.27,0,484.12,217.85,484.12,484.12,0,133.14-54.46,254.18-142.2,341.92S3724.94,1463,3591.8,1463a97.15,97.15,0,0,0,0,194.3h411.89C4223.5,1657.26,4287,1896.23,4194.07,2034.24Z"/><path class="cls-5" d="M287.45,2090.81h.06q-4.75,5-9.24,10C281.24,2097.46,284.32,2094.11,287.45,2090.81Z"/><path class="cls-5" d="M455.33,2090.81H4138.21c-35.26,24.17-80.11,38.83-134.52,38.83a202.84,202.84,0,0,0-120.47,39.57c-48.69,35.75-81.14,92.5-83.65,156.62-18,23.92-28.39,51.55-28.39,80.93,0,82.42-44.66,157.38-116.57,211.72s-171.15,88.06-280.28,88.06H921.17c-266.28,0-484.13-217.85-484.13-484.12a480.3,480.3,0,0,1,18.29-131.61Z"/><path class="cls-6" d="M4188.13,2169.21c1.28-1.39,2.56-2.78,3.79-4.17-1.23,1.39-2.42,2.8-3.7,4.17Z"/><path class="cls-7" d="M4194.07,2034.24a210.11,210.11,0,0,1-55.86,56.57c-35.26,24.17-80.11,38.83-134.52,38.83a202.84,202.84,0,0,0-120.47,39.57H440a478.76,478.76,0,0,1,35.37-135Z"/><path class="cls-8" d="M3779.12,556.37a50.7,50.7,0,1,0,0-101.39H2227a50.7,50.7,0,1,0,0,101.39h40.3V1812.13h-3.67a33.63,33.63,0,0,0-21.28,7.26c-5.47,4.47-8.85,10.65-8.85,17.44,0,13.59,13.55,24.7,30.13,24.7H3771.09a33.63,33.63,0,0,0,21.28-7.25c5.47-4.48,8.85-10.66,8.85-17.45,0-13.59-13.55-24.7-30.13-24.7H3731V556.37Z"/><rect class="cls-3" x="2298.17" y="488.48" width="1463.76" height="1307.76"/><polygon class="cls-9" points="3673.19 1640.3 3110.53 1640.3 3110.53 791.37 3554.73 791.37 3673.19 913.94 3673.19 1640.3"/><polygon class="cls-10" points="3554.73 791.37 3673.19 913.94 3555.55 913.94 3554.73 791.37"/><path class="cls-11" d="M3357.27,1192.74a76.41,76.41,0,0,1-41.15-57.67l-147.25,16.37a224.45,224.45,0,0,0,128.94,177Z"/><path class="cls-12" d="M3429.34,1057.94a76.44,76.44,0,0,1-64.16,138.26L3305.72,1332c112.71,46.86,242.65-5,291.83-117.28,48.74-111.27.08-240.6-108.68-292.62Z"/><path class="cls-13" d="M3315.42,1126.45a76.43,76.43,0,0,1,106.15-72.3L3481,918.46c-113.39-49.06-245.23,2.71-294.85,116A223.45,223.45,0,0,0,3168,1142.85Z"/><rect class="cls-14" x="3167.29" y="1492.51" width="46.62" height="67.92"/><rect class="cls-13" x="3224.79" y="1463.78" width="46.62" height="96.65"/><rect class="cls-11" x="3282.29" y="1436.55" width="46.62" height="123.88"/><rect class="cls-12" x="3339.8" y="1459.24" width="46.62" height="101.19"/><rect class="cls-14" x="3397.3" y="1447.14" width="46.63" height="113.29"/><rect class="cls-13" x="3454.8" y="1421.43" width="46.62" height="139"/><rect class="cls-15" x="3512.3" y="1397.23" width="46.62" height="163.2"/><rect class="cls-12" x="3569.8" y="1373.03" width="46.62" height="187.4"/><path class="cls-16" d="M2608.92,951.4a147.35,147.35,0,0,0,0-22.51s-6.55-5.81-6.55-13.15a100.31,100.31,0,0,1,80.33-98.3V632c-147.81,10.24-264.54,133.37-264.54,283.79a283.17,283.17,0,0,0,30.48,128.2Z"/><path class="cls-17" d="M2722.61,817.44a100.21,100.21,0,0,1,56.91,33.89l160.4-92.6c1.52-6.05,0-22.52,0-22.52S2796.48,637.07,2722.61,632Z"/><path class="cls-15" d="M2796.81,891.18c2.83,9.27,6.14,14.35,6.14,24.56a100.26,100.26,0,0,1-172.64,69.4l-161.2,70.55v22.52a284.15,284.15,0,0,0,233.55,122c157.12,0,284.49-127.37,284.49-284.49a283.35,283.35,0,0,0-27.55-122.28l-161,70.44Z"/><path class="cls-15" d="M2608.92,928.89a100.33,100.33,0,0,1,73.78-134V609.43c-147.81,10.25-264.54,133.38-264.54,283.79a283.21,283.21,0,0,0,30.48,128.21Z"/><path class="cls-15" d="M2722.61,794.92a100.17,100.17,0,0,1,56.91,33.9l160.4-92.61a284.31,284.31,0,0,0-217.31-126.78Z"/><path class="cls-15" d="M2798.58,863.9a100.27,100.27,0,0,1-168.27,98.73l-161.2,93.06a284.13,284.13,0,0,0,233.55,122c157.12,0,284.49-127.38,284.49-284.5a283.42,283.42,0,0,0-27.55-122.28Z"/><path class="cls-18" d="M2608.92,928.89a100.33,100.33,0,0,1,73.78-134V609.43c-147.81,10.25-264.54,133.38-264.54,283.79a283.21,283.21,0,0,0,30.48,128.21Z"/><path class="cls-12" d="M2722.61,794.92a100.17,100.17,0,0,1,56.91,33.9l160.4-92.61a284.31,284.31,0,0,0-217.31-126.78Z"/><path class="cls-19" d="M2798.58,863.9a100.27,100.27,0,0,1-168.27,98.73l-161.2,93.06a284.13,284.13,0,0,0,233.55,122c157.12,0,284.49-127.38,284.49-284.5a283.42,283.42,0,0,0-27.55-122.28Z"/><rect class="cls-12" x="3111.95" y="730.27" width="571.98" height="28.6"/><rect class="cls-12" x="3111.95" y="667.87" width="457.59" height="28.6"/><rect class="cls-12" x="3111.95" y="605.48" width="457.59" height="28.6"/><path class="cls-20" d="M3860.72,489.78a50.86,50.86,0,0,1-50.69,50.7H2257.87a50.7,50.7,0,0,1,0-101.4H3810A50.83,50.83,0,0,1,3860.72,489.78Z"/><path class="cls-21" d="M3655.33,489.78a50.87,50.87,0,0,1-50.7,50.7H2242.27a50.7,50.7,0,0,1,0-101.4H3604.63A50.83,50.83,0,0,1,3655.33,489.78Z"/><path class="cls-20" d="M3832.13,1820.94c0,6.79-3.39,13-8.86,17.44a33.53,33.53,0,0,1-21.28,7.26H2294.51c-16.58,0-30.14-11.11-30.14-24.7,0-6.79,3.39-13,8.86-17.44a33.53,33.53,0,0,1,21.28-7.26H3802C3818.57,1796.24,3832.13,1807.35,3832.13,1820.94Z"/><path class="cls-21" d="M3719.32,1820.94c0,6.79-3.38,13-8.85,17.44a33.57,33.57,0,0,1-21.28,7.26H2294.51c-16.58,0-30.14-11.11-30.14-24.7,0-6.79,3.39-13,8.86-17.44a33.53,33.53,0,0,1,21.28-7.26H3689.19C3705.77,1796.24,3719.32,1807.35,3719.32,1820.94Z"/><path class="cls-19" d="M2452,1273.66h514a68,68,0,0,1,68,68v389.59a0,0,0,0,1,0,0H2384a0,0,0,0,1,0,0V1341.65A68,68,0,0,1,2452,1273.66Z"/><g class="cls-22"><path class="cls-23" d="M428.83,2031.4s8-4.15,21.44-9.49c61.47-19,191.61-13,239.71,7.67,28.7,12.34,95.56,44.93,152.8,73.2-21,2.46-71.58,16.17-87.65-.39,0,0-34.64,83.88-20.61,120s169.5,51.83,139.1,60.26S724,2265.09,724,2265.09s-10.53,86.3,22.21,103.17,204.57-8.43,188.2,8.44-173.59,34.35-191.71,15.67c0,0-3.5,103.65,53.77,114.5s214-77.14,200.54-53-158.46,94-202.88,67.5c0,0,39.75,98.83,76,98.83S995.74,2493,1013.87,2511.7s-78.29,109.67-132.07,120.52c0,0,21.05,56.65,90,39.77s57.28-127.75,78.32-118.11,1.17,131.38-69,131.38c0,0,114.56,27.71,141.44-36.16,7.57-18,11.25-32.68,12.77-44.7,10.48,50.46,16.43,111.33,19.39,172.35H1050.26c-157.51,54-150.94,162.8,13.5,212.67h315.39c164.49-49.88,171-158.7,13.5-212.67h-85.37c19.83-161.94,49.21-296.54,73.17-389.08,3.78,10.8,10,24.62,19.21,34.14,17.2,17.73,50.26-42.7,50.26-72.83s-35.58-1.2-35.58-18.08,5.19-8.44,50.79-8.44,61.95-96.41,61.95-96.41-69,8.43-69-4.83,54.94-6,90-15.67,54.94-88,54.94-88-100.53,30.13-100.53,16.87,77.74-25.91,92.35-41,19.87-83.16,19.87-83.16-66.63,63.88-77.15,63.88,70.72-70.51,63.13-78.35-10.53-41.12-10.53-41.12c-14.54,15-38.57-4.67-53.77,11s-42.67,135.59-53.77,147,31-95.82,11.69-115.71-71.53,30.5-81.83,41.12,24.55,127,10.52,141.48-11.16-102.39-22.33-113.9-40.79,18.08-49.56,52.43,67.51,93.11,45.59,115.71-42.08-63.28-61.37-83.16c-14.26-14.71-43.8,14.05-58.27,39.55,3.38-104,8.59-196.66,16.39-262.77,15.62,43.42,96.28,95.45,153,35.88,12.08,9.83,27,14.21,45.59,7.31,67.39-25,73.59-42.29,59.41-49.15s-145.88-83.26-129.79-91.48,134.2,87.21,156.73,75.71,57.18-58.76,53.12-60.72-167.53-62.79-149.29-72.11,144.64,80.53,168.44,40.85,24.83-63.72,22.61-73.32-143.68-20.36-138.91-30.85,137.95,11.19,148.28-11.54,12.92-55.61,1.43-61.16-80.38,15.55-75.21,4.18,72.71-15,70.21-25.8-9.83-70.85-5-81.34c0,0-47.77-32.67-59.34-48.92s-24-10.55-28-1.8-35.42,142.3-38.89,127.29,36.15-134,28-137.87-50-36.92-62.87-17.57-17.52,196.28-32.17,197.72,20.8-205.34,20.8-205.34-49.11,2.93-66.71,25.36.9,230.07-14.25,229-7.89-218.33-7.89-218.33-61,29.17-64.84,59.32,38.53,166.29,25.12,173.14-27.39-133.72-27.39-133.72-53.12,24.46-56.18,65.63,48.49,92.74,42.53,105.85-51.94-42.28-59.7-75.75-66.11,138.67-16.79,162.5c14.89,7.19,26.1,9.76,34.56,9.92-24.41,64.88-31.7,322.13-33.72,392.08-9.34-9.13-15.68-15.79-15.68-15.79-13,5.16-20.69,22.06-24.28,43.87-6.41-8.18-10.92-13.13-10.92-13.13s-5.23,18.13-13.15,42.59c-8.24-65.56-7.31-48.06-7.54-62.07,1.29-8.26,1.32-15.11-.32-20-6.67-417.77-4.83-391.26-6.82-393.54.94-28.77,10.16-282.19,44.33-350.38,36.24-72.31,59.61-156.68,59.61-156.68s-31,50-58.44,78.34-51.44,33.75-51.44,59.06,36.24,107.27,12.86,95.22-17.54-61.47-25.72-61.47-42.08,113.29-42.08,119.32,58.45,53,43.25,68.7-39.74-60.27-49.09-50.62-11.7,92.8-11.7,114.5,45,10.24,24.55,31.33-24.5,105.17-24.54,144c-48.6-114.75-92.27-144.28-163.65-187.67,15.54,0,35.3-4.19,51.72-21.12,32.33-33.34,47.19-156.42-27.36-190.35,3.29-18.17,1-36.75-12.1-53.72-47.34-61.47-64-59.66-64-40.68s-10.51,201.59-23.67,188,18.42-190.74,0-209.72-71-33.44-71-28,14.9,215.15,0,199.79,8.77-198.88-33.32-205.2-62.25,4.51-69.26,11.74,40.33,167.81,29.81,167.81-45.59-157-68.39-157-50.85,13.56-50.85,28.93S641.88,1499,630.48,1499s-41.2-72.32-49.1-64.18-54.36,46.1-64.87,46.1c0,0-7.9,68.7-16.67,89.49s.88,31.65,9.65,31.65,131.07-32.1,120.11-20.8-124.49,27.13-124.49,38-10.52,73.22,10.52,77.74S684,1618.28,691,1633.65s-177.09,79.55-177.09,79.55,21.91,52.43,47.34,60.56,188.8-115.7,193.91-98.53-176.38,117.52-176.38,117.52,48.22,52.43,74.53,41.58,121.42-125.2,132.38-113.9-99.07,96.72-99.07,96.72,41.21,46.11,76.28,28.93,57-99.43,70.13-99.43-14.13,78.06-38.57,103.27,140.27,3.39,140.27-62.6c0-27.92-4.56-43.46-9.81-52.19,29.21,18,60.81,34.88,88.25,64.32,71.1,73.57,116.74,218.71,146.18,386.67-10.15-7.22-18-6.47-18,2.56,0,15.67-36.82,179-55,160.3s51.45-167.53,26.89-192.84c-14.57-15-48.45-34.64-75.08-44.39,0,0,0-.05,0-.08-11.5-11.85-46.44-24.23-35.69-58.58S956.62,1988,956.62,1988s-35.07,52.42-66.63,52.42,40.33-34.35,40.33-54.24-108.71-56-108.71-56S852.11,2020,851.93,2047c-12.95-9.35-26.81-13.69-38.67-20.28-10.28-29.65-15-88.09-32-94.76-17.65-6.93-43.25-24.72-55.07-12.14,34.76,91.15-3.45,73.47-21,66.89-8.48-22.08-29.1-96.33-34.41-96.33-5.75,0-16.23,7-32.84,11.91,12.4,24.5,40.15,83,24.63,87.7-14.45,4.33-53.34-53.28-73-84.15-2.13-.28-4.3-.6-6.51-1-14.9-2.65-24.94-3.86-32.74-3.17,11.71,17.43,28.27,45.66,21.7,57.5-5.87,10.57-33.24-14.14-54.35-35.78-5.61,6.16-12.38,13.77-21.36,23C454.77,1989.33,428.83,2031.4,428.83,2031.4Zm480.45-416.73c-4.36-4.5,25.78-34.7,42.07-71.3a64.27,64.27,0,0,0,.89,11.64C956.62,1580.32,916.73,1622.35,909.28,1614.67Zm486.79,262.73c5.33-2.73,14.24,38.24,34.21,67.7a39.86,39.86,0,0,0-9.1-3.32C1400.28,1937,1386.94,1882.06,1396.07,1877.4Zm-221.33,303.53c-13.29-76.33-30.66-148.46-61.27-229.55,9.74,6.19,23,3.7,34.86-8.58,20.58-21.21,12.11-98.12,25.6-113.21C1172.58,1861.42,1173.25,2005.26,1174.74,2180.93Zm77.88,239.84c0,4.61-.12,9.2-.17,13.8-13.57,18.55-29.46,39.86-41.87,41.51q-1.1-12.79-2.23-25.53c8.08-10.17,20.11-23,31.1-38.53C1245.65,2419.86,1249.3,2420,1252.62,2420.77Zm84.5-125.42c-8.84,9.11-38-13.53-62-35.22q.38-16.05.82-31.87C1296,2251.71,1350.05,2282,1337.12,2295.35Zm-65.29,481.4c-.49-79.86-.71-172.13-.18-267.21,10.58-34.07,12-72.19,10-91.16,32.25-8.9,72.09-33,87.44-42.82-24.56,93.61-55.43,232.74-76,401.19Zm-42.44,0c-2.73-64.16-6.41-132.94-11.25-202.66,13.65-4.83,23.1-10.67,33.19-23.55-.52,80.56-.51,157.94-.26,226.21Zm-34.62,0c-1.08-51.78-2.43-116.37-4-197.35a93.3,93.3,0,0,0,11.13-1.2c4.15,69.38,6.81,136.44,8.61,198.55Zm-58.07-210.54a109.28,109.28,0,0,0,42,12.82c.79,71.81,1.58,139.34,2.26,197.72h-13.38C1163.34,2702.23,1154.09,2626.61,1136.7,2566.21Zm37-287.77c2.65,19.36,2,7.71,2.61,68.34-16.2,44.23-35.5,87.18-47.8,81.75C1111.67,2421.11,1152.28,2339.87,1173.65,2278.44Zm-192.82-139.1c6.94-2.06,14.08-4.28,20.9-6.57,3.26,47.56,19.2,148.72-11.21,148.72C963,2281.49,981,2190.48,980.83,2139.34ZM855.15,2108.9,879.48,2121c12.59,28.27,36.08,85.54,17.53,81C876.35,2196.87,867.27,2130,855.15,2108.9Z"/></g><path class="cls-24" d="M1307.6,2020.92h-65a31.29,31.29,0,0,1-31.19-31.2V1544.25c0-58.14,47.57-105.71,105.71-105.71h65c-58.14,0-105.72,47.57-105.72,105.71v445.47A31.29,31.29,0,0,0,1307.6,2020.92Z"/><path class="cls-25" d="M1858.79,1469.73v520a31.29,31.29,0,0,1-31.2,31.2h-520a31.29,31.29,0,0,1-31.2-31.2V1544.25c0-58.14,47.58-105.71,105.72-105.71h445.47A31.28,31.28,0,0,1,1858.79,1469.73Z"/><path class="cls-26" d="M2302.39,2020.92h-60.82a29.3,29.3,0,0,1-29.19-29.25V1574c0-54.5,44.52-99.11,98.91-99.11h60.83c-54.4,0-98.92,44.61-98.92,99.11v417.63A29.3,29.3,0,0,0,2302.39,2020.92Z"/><path class="cls-27" d="M2818.16,1504.18v487.49a29.31,29.31,0,0,1-29.2,29.25H2302.39a29.3,29.3,0,0,1-29.19-29.25V1574c0-54.5,44.52-99.11,98.92-99.11H2789A29.32,29.32,0,0,1,2818.16,1504.18Z"/><rect class="cls-28" x="1156.81" y="2340.71" width="2449.13" height="363.99" rx="30.02"/><rect class="cls-29" x="1000.81" y="2340.71" width="210.59" height="421.19" rx="31.2"/><rect class="cls-30" x="1000.81" y="2340.71" width="163.8" height="421.19" rx="31.2"/><rect class="cls-29" x="3501.94" y="2340.71" width="210.59" height="421.19" rx="31.2"/><rect class="cls-30" x="3551.33" y="2340.71" width="161.2" height="421.19" rx="31.2"/><polygon class="cls-31" points="3839.93 2288.71 891.62 2288.71 1142.56 1987.33 3582.53 1987.33 3668.3 2087.76 3839.93 2288.71"/><rect class="cls-32" x="870.82" y="2288.71" width="2989.91" height="104" rx="30.02"/><path class="cls-33" d="M3109.35,1997.62s-148.52-249.14-221.87-395.84c-15.93-31.85-41.84-55.59-70.68-73.26-45.24-70.52-8.13-128.55-5.44-166.5,5.35-75.38-1.14-254.07-141.09-260.25-12-4.43-19.65-4.25-19.76-4.25-17.2-12.72-44.8-22.63-82.21-3.45a5.63,5.63,0,0,0-1.24.64l-.14.08-.05,0c-21.94-9.8-61-20.62-93.21,5.91-30.77,25.38-41.08,62.09-44.51,84.87-1.81,11.92,5.91,24.54,18.78,31.46a385.22,385.22,0,0,0-15.64,37.54c-8.6,1.9-15.64,7.38-18.27,15.36-2.82,8.53.12,17.77,6.81,24.58-7,32.14-9.17,68,.22,103,11.78,43.88-12.35,67.32-41.13,87.86H2290.5c-54.4,0-98.92,44.61-98.92,99.11v417.63a29.31,29.31,0,0,0,29.19,29.25h547.39a29.32,29.32,0,0,0,29.2-29.25v-4.55Z"/><path class="cls-34" d="M2487.24,1172.76s-73.12,110.94-45.39,214.31-143.71,93.28-105.89,199.17,176.49,73.12,176.49,73.12,156.31,78.16,247.08,50.42,123.54-121,78.16-191.61-8.22-128.67-5.53-166.65c5.53-77.91-1.58-266.17-155.6-260.28Z"/><path class="cls-35" d="M2555.31,1419.84l-7.57,78.16s42.87,141.19,116,126.06,12.61-156.31,12.61-156.31l-12.61-126.06Z"/><path class="cls-36" d="M3130.15,1987.12H2363.7a389.76,389.76,0,0,1-20.45-34.9c-21.61-40.91-51.71-111.76-45.11-179.41,7.32-74.88,57-157.7,83.76-197.66,10.36-15.43,24.35-30.56,40.77-39.26l122.55-58.06s60.51,161.36,123.54,141.19c32.3-10.34,7.57-151.27,7.57-151.27s176.48,12.6,232,123.54C2981.63,1738,3130.15,1987.12,3130.15,1987.12Z"/><path class="cls-37" d="M2542.7,1480.35l4.79-42.85s51.08,64.28,72.31,169.54C2619.8,1607,2542.7,1520.69,2542.7,1480.35Z"/><path class="cls-38" d="M2470.94,1201.55s-38.11,166,18.67,217.27a83.73,83.73,0,0,0,21,13.78c40.27,18.52,96,14.17,136.85-39.16,48.74-63.59,50.66-172.29,50.66-172.29l-97.94-85.2-4.28.91-73.72,15.49Z"/><path class="cls-35" d="M2470.94,1201.55a614.82,614.82,0,0,0-11,67.94,471,471,0,0,0-2.86,53.75c.33,40.62,9.71,75,32.57,95.58a83.73,83.73,0,0,0,21,13.78c39.48,12.89,94.4,1.47,132.09-47.72,48.74-63.59,84.95-154.42,84.95-154.42l-131.75-93.6-73.72,15.49Z"/><path class="cls-36" d="M2671.3,1087s41.62-1.24,83.83,58.64l-83.85-23.32Z"/><path class="cls-34" d="M2547.49,1163.85a78.13,78.13,0,0,0,13.57,1.46s30.06-8.35,34.45,9-1.07,111.26,91.93,147.63l0,2.08-1,57.8s102.92-29,100.87-143.72-94.87-128.68-94.87-128.68-44.24-75.37-128-9.82C2504.17,1146.8,2528.9,1160.09,2547.49,1163.85Z"/><path class="cls-34" d="M2450,1175.09c-1.92,12.61,6.83,26,21.07,32.61a308.2,308.2,0,0,0,50,18c4.25,1.12,8.14,2.07,11.62,2.84,8.56,1.92,16.16-2.66,16.33-9.89a120.65,120.65,0,0,1,1.85-16.84,180.25,180.25,0,0,1,27.85-69l23.08-34.71,3-4.56s-2.58-1.74-7.07-4.21c-2.71-1.46-6.1-3.19-10-4.93-21.94-9.81-61-20.63-93.22,5.9C2463.69,1115.6,2453.38,1152.31,2450,1175.09Z"/><path class="cls-34" d="M2582.36,1249c-3.22-1.22-6.82-3.69-10.37-6s-7.15-4.67-10.32-6.65-6.85-4.18-10.53-6.34-7.47-4.33-9.92-6.65-2.51-4.4,1.91-4.23c4.2.09,13.39,3.07,23.89,9.6s17,13.34,18.73,16.94C2587.64,1249.41,2585.46,1250.15,2582.36,1249Z"/><path class="cls-34" d="M2492.16,1229.37a27.37,27.37,0,0,1-7-.29c-2.47-.3-5-.57-7.14-.75s-4.69-.35-7.18-.48a27,27,0,0,1-6.93-.9c-1.83-.64-2.45-2.08-.08-3.58s7.85-2.78,15.07-2.17,12.37,2.87,14.21,4.69S2494.1,1229.06,2492.16,1229.37Z"/><path class="cls-39" d="M2459.48,1276.56a451.8,451.8,0,0,0-2.74,51.55,64.35,64.35,0,0,0,6.45-23.23A61.91,61.91,0,0,0,2459.48,1276.56Z"/><path class="cls-35" d="M2489.64,1298.32l-12.11,14.55s-4.23-8.78,2.27-13.58C2484.07,1296.14,2489.64,1298.32,2489.64,1298.32Z"/><path class="cls-40" d="M2479.75,1320.14l.47.19,6.3,2.16a1.48,1.48,0,0,0,1.76-1,1.4,1.4,0,0,0-.66-1.9l-6.3-2.16c-1.85-.63-3.15-2.32-3.74-4.75a15,15,0,0,1,.76-8.53l.32-.87c.86-2.3,2.72-3.79,4.13-3.3,2.11.72,4.52.19,6.8-1.49a15.59,15.59,0,0,0,5.08-7.06l4.57-12.47a1.46,1.46,0,0,0-.67-1.89,1.51,1.51,0,0,0-1.76,1.07l-4.57,12.46a11.82,11.82,0,0,1-3.84,5.38,4.94,4.94,0,0,1-4.51,1c-2.75-1-6.18,1.48-7.65,5.41l-.32.88a18.44,18.44,0,0,0-.91,10.57C2475.75,1316.93,2477.42,1319.15,2479.75,1320.14Z"/><ellipse class="cls-39" cx="2598.5" cy="1335.19" rx="46.81" ry="42.65" transform="matrix(0.54, -0.84, 0.84, 0.54, 67.12, 2793.64)"/><path class="cls-40" d="M2488.28,1351.52s31.47,7.1,46.89,2c0,0-6.65,39.85-22.15,33.78S2488.28,1351.52,2488.28,1351.52Z"/><path class="cls-34" d="M2539.65,1277.22c-1.48,5.91,1.11,11.66,5.8,12.84s9.69-2.67,11.17-8.59-1.12-11.66-5.8-12.83S2541.13,1271.31,2539.65,1277.22Z"/><path class="cls-34" d="M2554.27,1276.06a15.49,15.49,0,0,0,8.08-3.54s-3,4.74-5.34,6.46S2554.27,1276.06,2554.27,1276.06Z"/><path class="cls-34" d="M2482.13,1269.93c-.91,5.45-4.77,9.55-8.62,9.16s-6.24-5.14-5.33-10.59,4.78-9.55,8.63-9.16S2483,1264.48,2482.13,1269.93Z"/><path class="cls-34" d="M2471.75,1264.61a11.52,11.52,0,0,1-4.76-5.4s.62,4.91,1.75,7.06S2471.75,1264.61,2471.75,1264.61Z"/><path class="cls-41" d="M2681.56,1288.79s64.66-55.24,56.25-120C2737.81,1168.77,2733.7,1240.75,2681.56,1288.79Z"/><path class="cls-41" d="M2639.48,1248.6s77.84-34.24,88.47-98.69C2728,1149.91,2703.25,1217.64,2639.48,1248.6Z"/><path class="cls-42" d="M2547.49,1163.85a78.13,78.13,0,0,0,13.57,1.46s30.06-8.35,34.45,9-1.07,111.26,91.93,147.63l0,2.08c8-.23,6.84-3.26-12-11.26-67-28.45-57.39-127.43-72.31-157.83s-44.49-10.23-44.49-10.23Z"/><path class="cls-43" d="M2520.13,1218.55q.33,3.72.89,7.12c4.25,1.12,8.14,2.07,11.62,2.84,8.56,1.92,16.16-2.66,16.33-9.89a120.65,120.65,0,0,1,1.85-16.84,180.25,180.25,0,0,1,27.85-69l26.25-39.61c-1.3-3.48-5.81-1.54-7.2-3.87-3.12-5.22-6.4-7.33-9.86-5l-.18.11C2583.58,1086.63,2511.93,1128.54,2520.13,1218.55Z"/><path class="cls-44" d="M2595.16,1277.54c.29,13.92-12.42,23.2-24.54,26.93-13.88,4.26-30.73,3.16-42.89-5.29-11-7.67-14.66-21.34-5.92-32.27,9-11.31,25.21-15.44,39.1-14.6,14.39.87,33,8.73,34.25,25.23.18,2.41,4,2.43,3.78,0-1.16-15.35-15.3-24.75-29.23-27.79-16.3-3.56-35.81-.2-48.07,11.75-9.85,9.6-11.71,24.08-2.62,34.87,11,13.05,30.75,16.19,46.7,13.19,15.75-3,33.6-14.08,33.22-32C2598.89,1275.11,2595.11,1275.1,2595.16,1277.54Z"/><path class="cls-44" d="M2433,1259c-7.71,25.87,25.47,44.39,46.92,33.79,10.59-5.23,16.25-17,12.86-28.47-3.54-11.94-14.93-20.25-26.89-22.28-13.55-2.29-28,3.5-32.89,17-.83,2.29,2.82,3.27,3.65,1,10.38-28.44,62-11.24,52.37,17.5s-61,11.49-52.37-17.5C2437.34,1257.61,2433.69,1256.62,2433,1259Z"/><path class="cls-44" d="M2515.34,1281.48c-6.16-8.5-17.33-15.09-25.66-5.42-1.58,1.83,1.08,4.52,2.67,2.67,6.58-7.63,15-1.92,19.73,4.66,1.41,1.95,4.69.07,3.26-1.91Z"/><path class="cls-44" d="M2596.41,1279.22l78.15,20.17c2.36.61,3.37-3,1-3.65l-78.16-20.17c-2.36-.61-3.36,3-1,3.65Z"/><path class="cls-35" d="M2672.45,1294.24s18.15-30.74,46.22-13.64,16.44,67.58-11.79,86.64-47.21-11.71-47.21-11.71Z"/><path class="cls-40" d="M2694.59,1346.44a3.92,3.92,0,0,1-2.43-1.62L2679,1325.74l27.07-22.07a3.83,3.83,0,0,1,5.66.77,4.6,4.6,0,0,1-.88,6.11l-20.54,16.74,8.42,12.21a4.6,4.6,0,0,1-.9,6.1A3.9,3.9,0,0,1,2694.59,1346.44Z"/><path class="cls-37" d="M2671.28,1404.93s-40.51,102.94,12.61,188.88l8.22-124.29Z"/><path class="cls-45" d="M2443.77,1789.52s5.2-15.6,54.6-7.8c0,0-15.6-119.59-65-221,0,0,57.36,92.92,98.8,197.6,49.39,124.79,333.14,15,330.19,49.39-23.4,273-442,18.2-442,18.2Z"/><path class="cls-46" d="M2830.45,1167.08h212.27a11.77,11.77,0,0,0,11.77-11.78v-84.24a11.77,11.77,0,0,0-11.77-11.77H2859.78a11.77,11.77,0,0,0-11.77,11.77v75a7.08,7.08,0,0,1-2.54,5.43l-15.86,13.29A1.31,1.31,0,0,0,2830.45,1167.08Z"/><circle class="cls-3" cx="2911.31" cy="1113.67" r="7.19"/><circle class="cls-3" cx="2951.03" cy="1113.67" r="7.19"/><circle class="cls-3" cx="2991.33" cy="1113.67" r="7.19"/><path class="cls-47" d="M2703.66,1905.56s17.21-6.9,20-5.73.51,19.4.51,19.4-18.33,83.68-35.37,85.13,3.47-66.9,3.47-66.9Z"/><path class="cls-35" d="M2652.24,1904.4l69.46,4.74a60.88,60.88,0,0,0,33.67-7.46c25-13.83,72.6-39.9,87-46.15,10.56-4.59,29.6-8.64,45.09-11.42a6.19,6.19,0,0,1,4.82,11L2854,1884.21a10.49,10.49,0,0,0,3.64,18.5l46.51,12.4a46.49,46.49,0,0,0,19.71.92c19.09-3.23,62-9.17,86.4-2.22a4,4,0,0,1,.46,7.6l-17.71,7.7-35.72,10-1.66,7-21.06,31.18a59.77,59.77,0,0,1-12.59,13.54l-24.84,19.53a47.57,47.57,0,0,1-38.23,9.35L2722.34,1994a92.05,92.05,0,0,0-14.89-1.55l-75-1.68Z"/><path class="cls-36" d="M2654.85,1940.4c-3.14,13.44-4.21,30.51-.75,51.75.48,3,1.05,6,1.71,9.11,0,0,0,0,0,0-3.28,1.5-167.49,76.59-284.79-9.14L2414.26,1882a71.92,71.92,0,0,1,9.71-12.83c17.14-18.75,59-50.29,140.69-38.85,113.94,16,113.94,68.36,113.94,68.36S2661.71,1910.64,2654.85,1940.4Z"/><path class="cls-48" d="M2655.81,2001.26s0,0,0,0c-3.28,1.5-167.49,76.59-284.79-9.14a353.91,353.91,0,0,1-18.49-31.54l61.78-78.57a71.92,71.92,0,0,1,9.71-12.83c20.8,34.8,77.43,78.07,230.88,71.19-3.14,13.44-4.21,30.51-.75,51.75C2654.58,1995.11,2655.15,1998.14,2655.81,2001.26Z"/><path class="cls-49" d="M2678.6,1898.72s-41,22.79-22.79,102.54l29.44,3.47a8.17,8.17,0,0,0,9.13-8.09c.07-21.36,2.95-74.11,28.7-94.25a2,2,0,0,0-1.21-3.67Z"/><path class="cls-50" d="M2814,1532.82c-3.77-13.17-112.46,6.35-172.17,18.14a233.74,233.74,0,0,0,21.57-9.12c32.41-16.16,18-35,18-35l-74.28,20.48-58.12,39-26.15,66-102,78.07-4.26-5.58-98.3,55.38q-8.62,4-16.64,8.11c-4.76,2.41-9.36,4.88-13.83,7.35L2277,1764l-58-62.5-.33.13h0c-6.22-7.61-101.49-123.71-130.67-156.33-21.23-23.75-62.71-55.94-85.43-72.93-.25-3.31-.56-6.6-1-9.85,17.92-5.61,33.65-15.52,45.12-29.16,24.22-28.81,25.66-64.46,33.09-95.44,6.35-26.44,10.38-56.35,12.94-84.3.08-.87.15-1.74.23-2.61v0l15.95-89.88c19.43-9,35.63-23.71,40.26-47.71,4.51-23.41-9.19-34.14-25.9-38.83a73.37,73.37,0,0,0,3.41-18.89h0a81.69,81.69,0,0,0,2-12.45c4-48.31-64.8-91.68-114.37-62.72s-29.72,28.61-122,22.9c-69.92-4.32-87,47.68-91.16,73.17-16.3-3.68-38.3-1.68-51.48,28.25-8.37,19-5.84,42.13.73,63.8l0,0s3.35,34.8,8.9,64.18c-6.88,22.36-1.18,52.13,14.93,70.34.55,13.79,2.87,43.68,12.83,47.66a31.36,31.36,0,0,0,18.86,1.5l-5.14,21c-66.55,9.24-83,40.27-83,40.27.09.72.2,1.4.29,2.11l-9.6-2.62s-208.66,40-351.58,166c-186,164-287,402.12-91.81,482.11l553.79,23.32h0v49.4l154.76,6.54s-5.07-38.91,9.47-80.82c7.18-20.7,14.28-39.78,20.17-55.11H1985c3.62-10.32,7.2-20.17,10.58-29.28,2.67-7.21,5.23-14,7.59-20.12,2.66-6.86,5-13,7.11-18.16h0c3.92-9.92,6.6-16.37,7.28-18,6.31,6.93,20.07,24.31,41,36.87l.21.15,2.64,1.67,2.76,1.76.49.3c51.21,32.24,103,56.69,126.57,62.9a119.63,119.63,0,0,0,60.27,11.43l13.18,1.25c14.54-1.92,26.08-6.29,35.26-12.48,29.84-11.59,59.09-31,86.26-53.66,7-5.85,13.83-11.88,20.46-18,61.57-56.71,105.82-120.74,105.82-120.74L2491,1802.36l99.92-117.6-4.28-3.44,3.73,2.3s75.39,2.6,98.79-10.4,15.6-23.4,15.6-23.4,18.2-13,13-33.8-2.6-13-2.6-13c2.6-7.8-7.8-31.2-7.8-31.2S2820,1554,2814,1532.82Z"/><path class="cls-35" d="M2581.56,1542.53s205.4-44.2,210.6-26c6.06,21.21-106.6,39-106.6,39s10.4,23.4,7.8,31.2c0,0-2.6-7.8,2.6,13s-13,33.8-13,33.8,7.8,10.4-15.6,23.4-98.8,10.4-98.8,10.4l-33.79-20.8Z"/><path class="cls-51" d="M2197.15,1685.76l-8.56,157.43-2,37.19L2180,2000.59l-.4,7.19c-.19,0-.42,0-.64-.07-19.06-2-83-30.09-142.08-68a148.93,148.93,0,0,1-25.68-21c-.07-.07-.12-.15-.22-.25-5.57-5.64-9.53-10.42-12.14-13.11-1.72-1.72-2.66-2.79-2.89-3l0,0s-2.88,6.87-7.46,18.44c-2.07,5.2-4.46,11.29-7.12,18.16-5.87,15.33-13,34.41-20.15,55.12-14.56,41.9-9.48,80.81-9.48,80.81L1797,2068.22l-553.79-23.32c-195.18-80-94.23-318.09,91.81-482.11,142.92-126,351.58-166,351.58-166l34,9.28,244.34,38.37s71.09,50.81,101.24,84.55c29.19,32.62,124.46,148.72,130.68,156.33C2197.05,1685.63,2197.15,1685.76,2197.15,1685.76Z"/><path class="cls-38" d="M1799.91,1271.05l-32.41,132.78s7.19,91.6,68.48,97.5,84.51-12.51,95-24.25l16.44-117.39Z"/><path class="cls-52" d="M1940.06,1403.64s-.85,59.11-41.14,93.39c0,0,27.58,33.15,44.84,59.32a12.6,12.6,0,0,0,21.06,0c11.6-18,20.28-68.2,14.81-111Z"/><path class="cls-38" d="M1852.93,1462.84l-17,38.49,20.82,104.55c2.18,11,17.85,11,20.07,0l27.39-135.26Z"/><path class="cls-52" d="M1782.63,1406.19c8.56,28.3,26.1,71.63,57.75,95.39,0,0-18.6,32.51-59.68,43.34-17,4.48-34.94-3.43-43.64-18.71-13.87-24.37-33.8-68.28-41.2-128.87,0,0,16.53-31.11,83.3-40.3h0A111.22,111.22,0,0,0,1782.63,1406.19Z"/><path class="cls-51" d="M2314.86,1917.31c-2.65,34.63-8.84,70.33-36.78,89.2-9.18,6.19-20.73,10.56-35.26,12.48l-13.18-1.24-33.83-3.23-16.53-5.59-.29-1.22-32.57-132.49-7.36-30-31.2-126.82,88.94-33.05.34-.13,58,62.5,10.79,11.63,30.68,33S2319.41,1857.46,2314.86,1917.31Z"/><path class="cls-51" d="M2490.62,1814.12s-44.25,64-105.82,120.74c-6.63,6.11-13.47,12.14-20.46,18-27.17,22.7-56.42,42.07-86.26,53.66-16,6.24-32.27,10.22-48.44,11.24a122.21,122.21,0,0,1-32-2,120.15,120.15,0,0,1-28.29-9.43c-14-6.69-27.79-16.46-41.1-29.83-.6-.59-1.17-1.27-1.74-1.92a79.38,79.38,0,0,1-.81-8.45c-.86-15.39.16-50.26,20.7-90.89,2.67-5.28,5.66-10.64,9-16.07,2.67-4.37,5.61-8.76,8.78-13.18a243.15,243.15,0,0,1,21.3-25.69c19.76-20.88,45.89-41.7,80.41-60.91,4.48-2.47,9.08-4.94,13.83-7.36,5.33-2.76,10.9-5.46,16.64-8.11l98.31-55.38,4.26,5.59,70.23,92Z"/><path class="cls-53" d="M2401.05,1909.61c-5.2,8.71-10.61,17.16-16.25,25.25-6.63,6.11-13.47,12.14-20.46,18-27.17,22.7-56.42,42.07-86.26,53.66-9.18,6.19-20.73,10.56-35.26,12.48l-13.18-1.24a122.21,122.21,0,0,1-32-2c-2.18-.78-4.39-1.58-6.6-2.47l-11.78-4.34-2.78-1.22a51.29,51.29,0,0,1-7.13-1.4c-24.46-6.45-79.37-32.56-132.46-66.64a148.31,148.31,0,0,1-25.66-21l-.24-.26c-9.59-10.92-14.79-17.94-15.23-18.38l-.06-.08,66.22-164.1c13.47,32.68,38.61,74.28,77.12,109.4q7.8,7.14,16.38,13.91c6.78,5.36,14,10.48,21.47,15.31,3.15,2,6.35,4,9.65,5.93,35.17,20.62,77.74,34.89,128.3,36.92C2341.36,1918.4,2370.06,1916.11,2401.05,1909.61Z"/><path class="cls-52" d="M1403,1881.31s51.76-43.93,144.13-16.57c114.61,34,182.91,118.72,181.95,135.92,0,0,16.67-14.67-11.71-54.89C1664.88,1871.34,1457.41,1790.69,1403,1881.31Z"/><path class="cls-52" d="M1627,1536.45s9.11,57.2-6.62,118c-17.66,68.22-80.21,155.72-80.21,155.72l-7.56-41.09S1611.46,1681,1627,1536.45Z"/><path class="cls-54" d="M1988.47,1920.67c-2.06,5.19-4.45,11.3-7.11,18.16-5.89,15.33-13,34.41-20.17,55.11-14.54,41.91-9.47,80.82-9.47,80.82L1797,2066.09l-112.38-6.31c42.59-3.58,79.83-10.36,112.38-19.31,91.13-25,145.39-66.78,176.65-101.64C1979.3,1932.5,1984.22,1926.41,1988.47,1920.67Z"/><path class="cls-55" d="M2036.93,1939.68c-22.54-13.49-36.82-32.63-42.44-38.37,5-14.93,17.42-39.81,17.42-39.81Z"/><path class="cls-56" d="M1752.19,1279.94s0,49.4,13,54.6a30.38,30.38,0,0,0,23.4,0l11.69-41-24.69-8.45Z"/><polygon class="cls-57" points="2089.74 1129.88 2071.12 1234.76 2040.16 1157.05 2089.74 1129.88"/><path class="cls-56" d="M1728.53,1152.36s9.79,101.89,23.66,104.18,6.5-53.3,6.5-53.3Z"/><path class="cls-56" d="M1800.28,1068.87s-49.54-32.27-72.45,19.73,35.64,134.63,35.64,134.63l22.42-10.17Z"/><path class="cls-35" d="M2024.86,1417.09c-57.65,68.58-223,43.3-233.2-153.14-8.9-172.06,81.1-250.25,163.52-216.28s120,88.27,120,88.27.64,47-4.31,101.41c-2.56,28-6.58,57.86-12.93,84.3C2050.52,1352.63,2049.08,1388.28,2024.86,1417.09Z"/><path class="cls-35" d="M1809.64,1214.72s-11.65-37.64-47.17-25.87-35.58,70.76-9.15,99.13,55.38-.87,55.38-.87Z"/><path class="cls-56" d="M1785.89,1213.06s16.7-91.88,27.49-86,239.67,69.68,257.91-4.53-62.86-85-62.86-85S1729.51,957.59,1785.89,1213.06Z"/><path class="cls-56" d="M1778,1074s.21-92.51,92.52-86.8,72.46,6.06,122-22.9,118.41,14.41,114.37,62.72-49.07,74.13-49.07,74.13Z"/><path class="cls-56" d="M2054.4,1056.13s83.15-12,72.93,41c-13.72,71.07-128.82,60.87-128.82,60.87Z"/><path class="cls-40" d="M2007.25,1319.68a21.09,21.09,0,0,1-16,6.31c-.38,0-.77-.06-1.16-.1l-15.06-1.82a2.92,2.92,0,0,1,.7-5.8l15.06,1.82c4.41.55,8.77-1.12,12.4-4.61a24.41,24.41,0,0,0,7-14.68l.21-1.71c.54-4.54-1.77-8.56-5.15-9a17.09,17.09,0,0,1-12.42-8.27,24.42,24.42,0,0,1-3.34-16l3.09-24.44a3,3,0,0,1,3.26-2.53,2.92,2.92,0,0,1,2.53,3.26l-3.09,24.43a18.56,18.56,0,0,0,2.49,12.13,11.36,11.36,0,0,0,8.18,5.59c6.58.8,11.18,7.74,10.24,15.46l-.2,1.71a30.32,30.32,0,0,1-8.71,18.19"/><path class="cls-56" d="M1887.42,1179.79c4.52,1.26,10.15.27,15.64-.41s11.07-1.45,15.92-1.88,10.45-.77,16-1,11.26-.35,15.43-2.38,5.34-6.48-.08-11.47c-5.1-4.87-17.73-9.53-33.81-8.12s-27.47,8.29-31.46,14C1880.82,1174.37,1883.06,1178.62,1887.42,1179.79Z"/><path class="cls-56" d="M2010.47,1206c2.94,2.47,7.46,3.82,11.78,5.33s8.73,3,12.48,4.44,8,3.23,12.25,5.08,8.5,3.81,12.29,3.93,6.15-2.46,3.79-7.76c-2.16-5.11-10-12.78-22.44-17.59s-23.23-4.26-28.1-1.86C2007.38,1200,2007.62,1203.69,2010.47,1206Z"/><path class="cls-58" d="M1944.35,1237.25c-1.08,8-7,13.75-13.31,12.9s-10.48-8-9.4-16,7-13.75,13.31-12.9S1945.43,1229.27,1944.35,1237.25Z"/><path class="cls-58" d="M2041.77,1252.81c-1.66,7.87-8,13.19-14.22,11.89s-9.86-8.76-8.19-16.63,8-13.2,14.22-11.89S2043.44,1244.93,2041.77,1252.81Z"/><circle class="cls-39" cx="1860.42" cy="1265.9" r="50.45"/><path class="cls-39" d="M2058,1321.65a50.44,50.44,0,0,1,12.93-84.3C2068.32,1265.31,2064.3,1295.21,2058,1321.65Z"/><path class="cls-56" d="M1834.41,1124.59s-22.42,48.75-43.22,150.15l-9.59-125.35,40-64.77Z"/><path class="cls-40" d="M1764.11,1267.93a3.41,3.41,0,0,0,2.41-.91l15.11-13.78-18.89-24.36a3.38,3.38,0,0,0-5-.47,4.08,4.08,0,0,0-.45,5.43l14.33,18.48-9.67,8.83a4.07,4.07,0,0,0-.44,5.42A3.45,3.45,0,0,0,1764.11,1267.93Z"/><path class="cls-40" d="M1987.13,1370.19s-40-.31-63.35-25.46a41.35,41.35,0,0,0,21.78,33.59C1971.71,1392.66,1987.13,1370.19,1987.13,1370.19Z"/><path class="cls-31" d="M1961.19,2043.34c-14.54,41.91-9.47,80.82-9.47,80.82L1797,2117.63v-129.4h184.4C1975.47,2003.56,1968.37,2022.64,1961.19,2043.34Z"/><polygon class="cls-35" points="2393.59 1698.22 2502.4 1614.96 2569.12 1668.47 2457.2 1800.19 2393.59 1698.22"/><path class="cls-35" d="M2517.5,1666.43l-18-46.68,27.63-69.72,58.12-39,74.28-20.48s14.41,18.86-18,35c-18.4,9.18-49.21,18.51-49.21,18.51S2618.81,1616.66,2517.5,1666.43Z"/><path class="cls-59" d="M1986.18,1001.75a150,150,0,0,1-54,15.12,116.21,116.21,0,0,1-28.25-1.12,264.59,264.59,0,0,0-27.78-3,154.53,154.53,0,0,0-27.8.81c-9.15,1.19-18.26,3.51-26.33,7.92a42.68,42.68,0,0,0-10.84,8.37,39,39,0,0,0-7.37,11.57,48.61,48.61,0,0,0-3.38,13.43,76,76,0,0,0-.17,14,68.7,68.7,0,0,1-.51-14,49.31,49.31,0,0,1,2.9-13.84,39.81,39.81,0,0,1,7.32-12.19,44.89,44.89,0,0,1,11.07-9,59.92,59.92,0,0,1,13.1-5.62,92.89,92.89,0,0,1,13.89-3,152.55,152.55,0,0,1,28.25-1,263.31,263.31,0,0,1,28,3.1,117,117,0,0,0,13.81,1.59,131.73,131.73,0,0,0,13.91,0,148.06,148.06,0,0,0,27.56-4.26A160,160,0,0,0,1986.18,1001.75Z"/><path class="cls-60" d="M2065.48,1005.65c-5.2,26-75.4,36.4-166.83,22.39s-90.56,45.21-90.56,45.21"/><path class="cls-59" d="M1825.57,1097.11a17.21,17.21,0,0,1,4.25-2.62,31.86,31.86,0,0,1,4.74-1.7,49,49,0,0,1,9.93-1.53,87,87,0,0,1,20,1.43,149.81,149.81,0,0,1,19.47,5c6.35,2.12,12.69,4,19.15,5.65a332.51,332.51,0,0,0,79,10,248.89,248.89,0,0,0,39.72-2.68,153.73,153.73,0,0,0,38.18-10.69,91.86,91.86,0,0,0,17.18-9.82,69.53,69.53,0,0,0,14.18-13.76,62.52,62.52,0,0,0,9.45-17.38,75.85,75.85,0,0,0,4-19.52,81.44,81.44,0,0,1-1,10,70.19,70.19,0,0,1-2.36,9.77,63.36,63.36,0,0,1-9.09,17.92,70.33,70.33,0,0,1-14.21,14.31,93.71,93.71,0,0,1-17.34,10.32c-12.23,5.7-25.4,9-38.63,11.21a249.5,249.5,0,0,1-40.11,2.94,327.46,327.46,0,0,1-40.08-2.86q-10-1.3-19.83-3.22-4.93-1-9.84-2.07t-9.74-2.46c-6.47-1.73-12.88-3.79-19.16-6a148.72,148.72,0,0,0-19.2-5.3,85.9,85.9,0,0,0-19.77-2,49.08,49.08,0,0,0-9.87,1.22,31.88,31.88,0,0,0-4.75,1.49A16.81,16.81,0,0,0,1825.57,1097.11Z"/><path class="cls-59" d="M1788.15,1073.25a45.2,45.2,0,0,0-5.79-1,47.52,47.52,0,0,0-5.84-.32,28.58,28.58,0,0,0-11.29,2.19,16.47,16.47,0,0,0-8.18,7.45,24.57,24.57,0,0,0-2.53,11c-.13,7.67,2,15.26,4.53,22.58s5.73,14.53,8.89,21.71,6.31,14.39,9.25,21.7,5.66,14.72,7.85,22.31a167.44,167.44,0,0,1,5.13,23.1,123.14,123.14,0,0,1,1,23.57,137.4,137.4,0,0,0-2.3-23.37,169.08,169.08,0,0,0-5.79-22.71c-4.83-14.88-11.23-29.19-17.58-43.56-3.11-7.21-6.25-14.45-8.82-21.95a93.71,93.71,0,0,1-3.18-11.48,46.17,46.17,0,0,1-1-12,26.42,26.42,0,0,1,3.09-11.69,17.82,17.82,0,0,1,9.13-7.84,29.74,29.74,0,0,1,11.79-1.7A45.23,45.23,0,0,1,1788.15,1073.25Z"/><path class="cls-59" d="M1766.49,1068.05a37.42,37.42,0,0,0-18.07,4.66,25.78,25.78,0,0,0-3.79,2.66c-.56.53-1.15,1-1.67,1.59a19,19,0,0,0-1.48,1.75,23,23,0,0,0-3.94,8.2,19,19,0,0,0-.49,2.24c-.1.77-.28,1.51-.32,2.28l-.19,2.3v2.32c0,.77,0,1.54.1,2.32s.08,1.54.2,2.31c.23,1.54.38,3.09.73,4.61l.46,2.29.56,2.28c.37,1.51.79,3,1.23,4.56l2.59,9.17c3.35,12.24,6.81,24.49,9.16,37a99.14,99.14,0,0,1,1.88,19.08,33,33,0,0,1-5.39,18.17,33.69,33.69,0,0,0,4.11-18.17,98.55,98.55,0,0,0-2.56-18.68c-2.79-12.33-6.3-24.52-9.71-36.75l-2.52-9.18c-.43-1.52-.84-3.06-1.22-4.64l-.57-2.34-.44-2.39c-.33-1.58-.46-3.2-.66-4.81-.11-.8-.1-1.62-.16-2.43s-.1-1.62-.06-2.43a32.21,32.21,0,0,1,1.37-9.69,24.72,24.72,0,0,1,4.57-8.68,23.86,23.86,0,0,1,7.61-6.09,33.23,33.23,0,0,1,9.15-3A37.65,37.65,0,0,1,1766.49,1068.05Z"/><polygon class="cls-61" points="1323.2 2208.11 1125.61 2288.71 1921.18 2288.71 2063.98 2199.8 1323.2 2208.11"/><polygon class="cls-62" points="2175.98 2092.94 1968.92 2092.94 2041.71 2165.72 2175.98 2092.94"/><polygon class="cls-63" points="2175.98 2092.94 2036.96 2167.79 2036.96 2215.91 2175.98 2133.04 2175.98 2092.94"/><path class="cls-64" d="M1206.21,1758.33,1809.39,710.56s1310.36,280.79,1404,1276.56L2039.48,2167.81Z"/><path class="cls-63" d="M1205.54,1758.77l17.58-10.55a38.6,38.6,0,0,1,19.84-5.49h678.43a22.06,22.06,0,0,1,21.21,16l113.07,398.35L2037,2167.79Z"/><path class="cls-62" d="M2037,2167.79H1331.18l-125.62-409h711.15a10.46,10.46,0,0,1,10.09,7.67l87,317Z"/><rect class="cls-63" x="1323.17" y="2167.79" width="721.81" height="48.12" rx="6.37"/><rect class="cls-3" x="1554.6" y="1929.92" width="83.2" height="15.6" rx="7.51" transform="translate(3192.39 3875.44) rotate(180)"/><rect class="cls-3" x="1570.19" y="1955.92" width="83.2" height="15.6" rx="7.51" transform="translate(3223.59 3927.44) rotate(-180)"/><rect class="cls-3" x="1588.39" y="1979.32" width="83.2" height="15.6" rx="7.51" transform="translate(3259.99 3974.24) rotate(180)"/><path class="cls-65" d="M2037,2167.79H1331.18l-125.62-409h140.55c103,92,347.53,279.9,667.71,324.68Z"/><polygon class="cls-61" points="3839.93 2288.71 3221.14 2288.71 3044.35 2166.51 3483.74 2093.72 3725.53 2156.11 3839.93 2288.71"/><path class="cls-66" d="M3683.93,1324.14,3462.94,994s-881.38,143-769.58,943.77l977.57-39Z"/><path class="cls-67" d="M3627.42,1320.18l-790.91,24.06c-22.24,0-40.27,18.31-40.27,40.91v524.11c0,22.59,18,40.91,40.27,40.91l790.91-52.93c22.24,0,40.26-18.32,40.26-40.91V1361.09C3667.68,1338.49,3649.66,1320.18,3627.42,1320.18Z"/><path class="cls-62" d="M3699.53,1349.92V1867.5a29.53,29.53,0,0,1-29.27,29.74l-24.23,1.58-282.45,18.39-506.22,33a29.53,29.53,0,0,1-29.27-29.74V1374a29.8,29.8,0,0,1,16.89-27,28.84,28.84,0,0,1,12.38-2.79l812.9-24.06a28.74,28.74,0,0,1,14.54,3.92A29.9,29.9,0,0,1,3699.53,1349.92Z"/><polygon class="cls-68" points="3114.71 1781.44 3019.17 1786.25 2871.52 1950.17 3195.77 1928.52 3114.71 1781.44"/><path class="cls-69" d="M3424.49,1759.78l59.71,334c5.1,29.13-16.95,55.86-46.07,55.86l-259.73,24.06-63.69-392.28Z"/><polygon class="cls-70" points="3646.03 1898.82 3363.58 1917.21 3443.44 1759.78 3557.44 1753.26 3646.03 1898.82"/><path class="cls-71" d="M3447.65,1759.78l59.71,334c5.1,29.13-17,55.86-46.07,55.86l-259.73,24.06-63.69-392.28Z"/><path class="cls-72" d="M2845,1347l122.09,126.63L3598.24,1440s65.22-81.65,86.55-115.89a28.66,28.66,0,0,0-14.53-3.91l-812.9,24.06A28.74,28.74,0,0,0,2845,1347Z"/><path class="cls-73" d="M3097.25,1556,3473.8,1532a8.67,8.67,0,0,0,8.59-8.74v-6.06a8.66,8.66,0,0,0-8.59-8.73l-376.55,24.06a8.67,8.67,0,0,0-8.6,8.73v6.07A8.67,8.67,0,0,0,3097.25,1556Z"/><path class="cls-73" d="M3097.25,1606,3473.8,1582a8.66,8.66,0,0,0,8.59-8.73v-6.06a8.67,8.67,0,0,0-8.59-8.74l-376.55,24.06a8.67,8.67,0,0,0-8.6,8.74v6.06A8.67,8.67,0,0,0,3097.25,1606Z"/><path class="cls-73" d="M3097.25,1656,3473.8,1632a8.67,8.67,0,0,0,8.59-8.74v-6.06a8.66,8.66,0,0,0-8.59-8.73l-376.55,24.06a8.67,8.67,0,0,0-8.6,8.73v6.06A8.67,8.67,0,0,0,3097.25,1656Z"/><path class="cls-73" d="M3097.25,1703.09,3473.8,1679a8.66,8.66,0,0,0,8.59-8.73v-6.07a8.66,8.66,0,0,0-8.59-8.73l-376.55,24.06a8.67,8.67,0,0,0-8.6,8.73v6.07A8.67,8.67,0,0,0,3097.25,1703.09Z"/><path class="cls-71" d="M3202.21,2174.31l-159.41-8.64a20.48,20.48,0,0,1-19.21-19.47l-.13-2.45a20.49,20.49,0,0,1,20.82-21.78l157.93,4.22Z"/><polygon class="cls-74" points="3043.55 2121.38 3166.65 2101.33 3170.57 2125.49 3043.55 2121.38"/><path class="cls-75" d="M1537.36,741.09H838a36.15,36.15,0,0,0-36.15,36.15V1197.9a58.86,58.86,0,0,0,58.86,58.86h468.87a12.23,12.23,0,0,1,8.17,3.1c25.37,22.54,73.77,56.84,157.34,87.63l-.26-.21.33.21a203.48,203.48,0,0,1-15-78.46,12.34,12.34,0,0,1,12.35-12.27h22.17a58.85,58.85,0,0,0,58.85-58.86V777.24A36.14,36.14,0,0,0,1537.36,741.09Z"/><path class="cls-76" d="M1543.89,731.31H851.07a39.41,39.41,0,0,0-39.41,39.4v414.16A62.12,62.12,0,0,0,873.78,1247h464.37a15.67,15.67,0,0,1,10.35,3.92c25.61,22.54,73.84,56.39,156.4,86.81l-.26-.21.33.21a203.5,203.5,0,0,1-15-74.92,15.62,15.62,0,0,1,15.61-15.81h15.65a62.11,62.11,0,0,0,62.11-62.11V770.71A39.4,39.4,0,0,0,1543.89,731.31Z"/><path class="cls-77" d="M1013.44,1100.4q-20.25-18-20.25-57.21V1032h74.37v7.85q0,18.6,7,25.61t18.59,7q12,0,18.38-7.85a29.09,29.09,0,0,0,6.41-19q0-14.06-8.89-22.31a80.91,80.91,0,0,0-22.3-14.26q-13.44-6-29.13-12a125.58,125.58,0,0,1-29.12-15.7A78.09,78.09,0,0,1,1006.21,956q-8.9-15.69-8.88-40.89,0-77.25,75.6-89.65v-24h38v24q41.31,4.13,59.91,25t18.59,63.42h-71.89v-6.2a42.7,42.7,0,0,0-5.36-21.69q-5.39-9.3-16.53-9.29-12.39,0-18.18,8a29.46,29.46,0,0,0-5.78,17.56q0,14.46,9.29,22.72a84.75,84.75,0,0,0,23.34,14.25q14.06,6,30.16,11.57a120.53,120.53,0,0,1,30.17,15.49,80.63,80.63,0,0,1,23.33,26q9.3,16.11,9.3,43,0,42.14-21.9,62.38t-64.45,24.79v37.18h-38v-37.18Q1033.68,1118.37,1013.44,1100.4Z"/><path class="cls-78" d="M997.84,1100.4q-20.25-18-20.25-57.21V1032H1052v7.85q0,18.6,7,25.61t18.59,7q12,0,18.38-7.85a29.09,29.09,0,0,0,6.41-19q0-14.06-8.89-22.31a80.91,80.91,0,0,0-22.3-14.26q-13.44-6-29.13-12a125.58,125.58,0,0,1-29.12-15.7A78.09,78.09,0,0,1,990.61,956q-8.9-15.69-8.88-40.89,0-77.25,75.6-89.65v-24h38v24q41.31,4.13,59.91,25t18.59,63.42h-71.89v-6.2a42.7,42.7,0,0,0-5.36-21.69q-5.38-9.3-16.53-9.29-12.39,0-18.18,8a29.46,29.46,0,0,0-5.78,17.56q0,14.46,9.29,22.72a84.75,84.75,0,0,0,23.34,14.25q14.05,6,30.16,11.57a120.53,120.53,0,0,1,30.17,15.49,80.63,80.63,0,0,1,23.33,26q9.3,16.11,9.31,43,0,42.14-21.91,62.38t-64.45,24.79v37.18h-38v-37.18Q1018.08,1118.37,997.84,1100.4Z"/><path class="cls-77" d="M1259.39,1110.73q-16.73-14.84-16.72-47.25v-9.21h61.41v6.48q0,15.36,5.8,21.15c3.86,3.88,9,5.8,15.35,5.8q9.9,0,15.18-6.48a24,24,0,0,0,5.29-15.69q0-11.6-7.34-18.42a66.76,66.76,0,0,0-18.41-11.77q-11.1-5-24.06-9.9a104,104,0,0,1-24.05-13,64.7,64.7,0,0,1-18.43-21q-7.34-13-7.33-33.78,0-63.79,62.43-74V863.9h31.39v19.79q34.11,3.42,49.47,20.64t15.35,52.37h-59.37v-5.12a35.34,35.34,0,0,0-4.42-17.91c-3-5.12-7.51-7.68-13.66-7.68q-10.23,0-15,6.66a24.36,24.36,0,0,0-4.77,14.5q0,11.94,7.67,18.76a70,70,0,0,0,19.28,11.77q11.6,5,24.9,9.55a99.28,99.28,0,0,1,24.91,12.8,66.36,66.36,0,0,1,19.27,21.49q7.68,13.31,7.69,35.48,0,34.8-18.09,51.52T1339.89,1129v30.71h-31.38V1129Q1276.1,1125.58,1259.39,1110.73Z"/><path class="cls-78" d="M1246.5,1110.73q-16.73-14.84-16.72-47.25v-9.21h61.41v6.48q0,15.36,5.8,21.15c3.87,3.88,9,5.8,15.36,5.8q9.89,0,15.18-6.48a24,24,0,0,0,5.28-15.69q0-11.6-7.33-18.42a66.82,66.82,0,0,0-18.42-11.77q-11.1-5-24-9.9a104.08,104.08,0,0,1-24.06-13,64.79,64.79,0,0,1-18.42-21q-7.33-13-7.33-33.78,0-63.79,62.43-74V863.9H1327v19.79q34.13,3.42,49.48,20.64t15.35,52.37h-59.37v-5.12a35.24,35.24,0,0,0-4.43-17.91q-4.44-7.68-13.65-7.68-10.23,0-15,6.66a24.36,24.36,0,0,0-4.77,14.5q0,11.94,7.67,18.76a70,70,0,0,0,19.28,11.77q11.6,5,24.9,9.55a99.28,99.28,0,0,1,24.91,12.8,66.36,66.36,0,0,1,19.27,21.49q7.68,13.31,7.68,35.48,0,34.8-18.09,51.52T1327,1129v30.71h-31.38V1129Q1263.21,1125.58,1246.5,1110.73Z"/><rect class="cls-3" x="1970.1" y="596.83" width="256.41" height="27.34"/><rect class="cls-3" x="2046.35" y="652.62" width="180.16" height="27.11"/><rect class="cls-3" x="1895.88" y="708.19" width="330.64" height="27.34"/><rect class="cls-3" x="1763.96" y="763.99" width="462.56" height="27.11"/><path class="cls-76" d="M1728,689.56Zm-16-61a30.83,30.83,0,1,0,9,21.8,30.7,30.7,0,0,0-9-21.8ZM1705.26,598a54.49,54.49,0,0,1,22.68,13.14,1.9,1.9,0,0,0,2.26.28l14.33-8.27.08-.05a3.57,3.57,0,0,1,4.77,1.35l.06.1L1759.52,622a3.58,3.58,0,0,1-1.3,4.85l-.1.06-14.21,8.2a1.88,1.88,0,0,0-.89,2.09h0a53.2,53.2,0,0,1,1.2,6.52,55.31,55.31,0,0,1,0,13.28,52.7,52.7,0,0,1-1.2,6.51,1.9,1.9,0,0,0,1,2.15l14.21,8.2h0a3.5,3.5,0,0,1,1.64,2.16,3.54,3.54,0,0,1-.34,2.69l-10.14,17.56h0a3.58,3.58,0,0,1-2.16,1.65,3.5,3.5,0,0,1-2.69-.35l-.1,0-14.23-8.22a1.91,1.91,0,0,0-2.26.28,54.43,54.43,0,0,1-22.76,13.16,1.89,1.89,0,0,0-1.38,1.82v16.52a3.55,3.55,0,0,1-3.55,3.55H1680a3.55,3.55,0,0,1-3.55-3.55V704.54a1.91,1.91,0,0,0-1.46-1.85,54.32,54.32,0,0,1-22.68-13.13,1.89,1.89,0,0,0-2.36-.22l-14.22,8.22a3.59,3.59,0,0,1-4.86-1.31l-.06-.1-10.08-17.46h0a3.58,3.58,0,0,1,1.3-4.84l14.31-8.26a1.9,1.9,0,0,0,.9-2.09h0A53.2,53.2,0,0,1,1636,657a55.31,55.31,0,0,1,0-13.28,53.2,53.2,0,0,1,1.2-6.52,1.91,1.91,0,0,0-1-2.15l-14.21-8.2a3.51,3.51,0,0,1-1.64-2.15,3.56,3.56,0,0,1,.34-2.7l.06-.11,10.08-17.45h0a3.58,3.58,0,0,1,4.85-1.31h0l14.33,8.27a1.89,1.89,0,0,0,2.3-.32,54.83,54.83,0,0,1,10.56-7.95,54.17,54.17,0,0,1,12.16-5.16,1.9,1.9,0,0,0,1.38-1.83V579.59a3.55,3.55,0,0,1,3.55-3.54h20.27a3.55,3.55,0,0,1,3.55,3.54v16.53A1.88,1.88,0,0,0,1705.26,598Z"/><path class="cls-76" d="M2147.72,946.74Zm-17-64.92a32.82,32.82,0,1,0,9.6,23.19,32.69,32.69,0,0,0-9.6-23.19Zm-7.09-32.51a57.57,57.57,0,0,1,12.86,5.48,58.24,58.24,0,0,1,11.28,8.5,2,2,0,0,0,2.4.29l15.24-8.8.08,0a3.81,3.81,0,0,1,5.08,1.43l.06.11,10.72,18.57a3.81,3.81,0,0,1-1.38,5.17l-.11.06-15.11,8.73a2,2,0,0,0-.95,2.22h0A59.7,59.7,0,0,1,2165,898a58.25,58.25,0,0,1,0,14.13,59.7,59.7,0,0,1-1.27,6.93,2,2,0,0,0,1.06,2.28l15.11,8.73h0a3.81,3.81,0,0,1,1.38,5.17l-10.78,18.67h0a3.75,3.75,0,0,1-2.3,1.75,3.7,3.7,0,0,1-2.86-.36l-.11-.06-15.14-8.74a2,2,0,0,0-2.39.29,57.93,57.93,0,0,1-24.22,14,2,2,0,0,0-1.46,1.94v17.57a3.79,3.79,0,0,1-3.78,3.78h-21.57a3.79,3.79,0,0,1-3.77-3.78V962.68a2,2,0,0,0-1.55-2,58,58,0,0,1-24.13-14,2,2,0,0,0-2.5-.23l-15.14,8.74a3.72,3.72,0,0,1-2.87.36,3.76,3.76,0,0,1-2.29-1.75l-.06-.1-10.73-18.58h0a3.76,3.76,0,0,1-.37-2.85A3.83,3.83,0,0,1,2035,930l15.23-8.79a2,2,0,0,0,.95-2.22h0a57.66,57.66,0,0,1-1.27-6.93,58.25,58.25,0,0,1,0-14.13,57.66,57.66,0,0,1,1.27-6.93,2,2,0,0,0-1.06-2.29L2035,880a3.8,3.8,0,0,1-1.38-5.16l.06-.11,10.73-18.58h0a3.79,3.79,0,0,1,5.16-1.38h0l15.24,8.8a2,2,0,0,0,2.44-.34,58.54,58.54,0,0,1,11.24-8.45,57.25,57.25,0,0,1,12.93-5.5,2,2,0,0,0,1.47-1.94V829.77a3.79,3.79,0,0,1,3.77-3.77h21.57a3.79,3.79,0,0,1,3.78,3.77v17.58A2,2,0,0,0,2123.58,849.31Z"/><path class="cls-76" d="M1118.16,1300.65a6.91,6.91,0,0,1,13.81,0v16.24h16.24a6.91,6.91,0,1,1,0,13.81H1132v16.24a6.91,6.91,0,0,1-13.81,0V1330.7h-16.24a6.91,6.91,0,0,1,0-13.81h16.24Z"/><path class="cls-76" d="M3833.63,1008.53a6.91,6.91,0,0,1,13.82,0v16.24h16.23a6.91,6.91,0,1,1,0,13.82h-16.23v16.23a6.91,6.91,0,1,1-13.82,0v-16.23H3817.4a6.91,6.91,0,0,1,0-13.82h16.23Z"/><path class="cls-76" d="M825.81,1449.54a6.91,6.91,0,0,1,13.81,0v16.24h16.24a6.91,6.91,0,0,1,0,13.81H839.62v16.24a6.91,6.91,0,0,1-13.81,0v-16.24H809.57a6.91,6.91,0,0,1,0-13.81h16.24Z"/><path class="cls-76" d="M3854.21,1833.78a6.91,6.91,0,1,1,13.81,0V1850h16.24a6.91,6.91,0,0,1,0,13.81H3868v16.23a6.91,6.91,0,0,1-13.81,0v-16.23H3838a6.91,6.91,0,0,1,0-13.81h16.24Z"/><path class="cls-76" d="M3989.51,1925.09a6.91,6.91,0,1,1,13.81,0v16.23h16.23a6.91,6.91,0,1,1,0,13.81h-16.23v16.24a6.91,6.91,0,1,1-13.81,0v-16.24h-16.24a6.91,6.91,0,1,1,0-13.81h16.24Z"/><path class="cls-79" d="M2847,2178.91c23,10.65,47,21.65,65,40.06,18.67,19.11,27.24,44.89,36.29,69.4,17.92,48.52,38,96.53,64.08,141.29,25.79,44.24,57.76,85.28,97.6,117.72,39.48,32.16,85.43,55.93,134.12,70.65,51,15.42,105,19.93,158.08,19.88,54.43,0,108.94-8,159.1-29.87,10.69-4.65,20.6-9.89,29.82-17.06a208,208,0,0,0,26.28-24.68c16.68-18.41,30.47-38.28,36.45-62.72,10.15-41.48,6.61-85.9-2.22-127.25a450.24,450.24,0,0,0-46.74-124.24c-18.85-33.87-42.63-66.65-73.8-90.21a146.36,146.36,0,0,0-20.6-13.09c-4.44-2.31-8.39,4.42-3.93,6.74,32.2,16.76,57,45.93,76.65,75.8,23.65,35.93,41.36,75.85,53.34,117.11,11.55,39.79,18.2,81.88,14.54,123.35-2.18,24.74-8.11,48.27-22.71,68.68-13.59,19-30.54,37.47-50.22,50.26-10.23,6.64-21.86,11.3-33.2,15.64a332.76,332.76,0,0,1-38.91,12.18,405.39,405.39,0,0,1-79,11,674.6,674.6,0,0,1-80.68-1.63c-26.24-1.94-52.19-5.12-77.8-11.31-48.49-11.72-94.83-32.31-135.47-61.31-41.48-29.61-75.43-68.21-102.72-111.07-27.14-42.64-48.07-88.92-66.27-136-9.12-23.58-16.35-48.44-28.73-70.58-12.2-21.8-30.67-37.49-52.25-49.58-10.44-5.84-21.28-10.89-32.13-15.9-4.53-2.09-8.49,4.63-3.94,6.73Z"/><path class="cls-71" d="M2869.32,2178.79a22.57,22.57,0,0,1-1.74,3.43c-8.32,13.52-31.61,23.24-75.42,23.24a341.69,341.69,0,0,1-52-3.61c-45.86-7.07-68.29-23.27-79.27-37a28.45,28.45,0,0,1,4.06-39.68c15.78-13.15,46.77-28.36,103.79-23.74a155.88,155.88,0,0,1,47.52,11.57C2854.3,2129,2878.19,2157.62,2869.32,2178.79Z"/><path class="cls-62" d="M2867.58,2182.22c-8.32,13.52-31.61,23.24-75.42,23.24a341.69,341.69,0,0,1-52-3.61c10.43-53,52-77,52-77C2829.75,2134.77,2856.82,2167.27,2867.58,2182.22Z"/><path class="cls-62" d="M2869.32,2178.79c-24.2-39.65-72-56.53-72-56.53,4.13-2.08,11-5.43,18.92-9.23C2854.3,2129,2878.19,2157.62,2869.32,2178.79Z"/><path class="cls-80" d="M2869.32,2178.79a22.57,22.57,0,0,1-1.74,3.43c-8.32,13.52-31.61,23.24-75.42,23.24a341.69,341.69,0,0,1-52-3.61c-45.86-7.07-68.29-23.27-79.27-37a28.12,28.12,0,0,1-6-14.82c12.58,6.39,29.3,12,51.53,15.39a340.17,340.17,0,0,0,52,3.61c43.81,0,67.1-9.72,75.42-23.24a22.57,22.57,0,0,0,1.74-3.43c2.55-6.06,2.4-12.72,0-19.53C2861.91,2139.16,2876.58,2161.47,2869.32,2178.79Z"/></g></g></svg>