<svg xmlns="http://www.w3.org/2000/svg" xmlns:xlink="http://www.w3.org/1999/xlink" viewBox="0 0 4680 3120"><defs><style>.cls-1{isolation:isolate;}.cls-2,.cls-67{fill:#fff;}.cls-3{fill:url(#linear-gradient);}.cls-4{fill:#ebf9ff;}.cls-5{fill:#51d7ed;}.cls-6{fill:#abdfff;}.cls-7{fill:#68e5f2;}.cls-8{fill:url(#linear-gradient-2);}.cls-9{fill:#84e3ef;}.cls-10{fill:#c7ecff;}.cls-11{fill:#a6def4;}.cls-12{fill:#66c1f2;}.cls-13{fill:#b6e7ff;}.cls-14{fill:url(#linear-gradient-3);}.cls-15{fill:url(#linear-gradient-4);}.cls-16{fill:url(#linear-gradient-5);}.cls-17{fill:#2863c9;}.cls-18{fill:#1c50c4;}.cls-19,.cls-45,.cls-46,.cls-57,.cls-68{opacity:0.6;}.cls-19,.cls-25,.cls-45,.cls-46,.cls-51,.cls-52,.cls-57,.cls-59,.cls-60,.cls-68,.cls-75{mix-blend-mode:multiply;}.cls-19{fill:url(#linear-gradient-6);}.cls-20{fill:#0c46c6;}.cls-21{fill:#3071e2;}.cls-22,.cls-25,.cls-37,.cls-51,.cls-52,.cls-59{opacity:0.55;}.cls-22{fill:url(#linear-gradient-7);}.cls-23{fill:#2263d6;}.cls-24{fill:#114db7;}.cls-25{fill:url(#linear-gradient-8);}.cls-26{fill:#0e2d34;}.cls-26,.cls-27,.cls-28,.cls-29,.cls-30,.cls-67{fill-rule:evenodd;}.cls-27{fill:#1b7154;}.cls-28{fill:url(#linear-gradient-9);}.cls-29{fill:#5f9850;}.cls-30{fill:url(#linear-gradient-10);}.cls-31{fill:#cc273f;}.cls-32{fill:#f24959;}.cls-33{mix-blend-mode:darken;fill:url(#linear-gradient-11);}.cls-34{fill:#0f4491;}.cls-35{fill:#ffbd5c;}.cls-36{fill:#e28f20;}.cls-37{fill:url(#linear-gradient-12);}.cls-38,.cls-40,.cls-60{opacity:0.5;}.cls-38{fill:url(#linear-gradient-13);}.cls-39{fill:url(#linear-gradient-14);}.cls-40{fill:url(#linear-gradient-15);}.cls-41{opacity:0.52;fill:url(#linear-gradient-16);}.cls-42{fill:#352d29;}.cls-43{fill:#fbbd9d;}.cls-44{fill:#ec996f;}.cls-45{fill:url(#linear-gradient-17);}.cls-46{fill:url(#linear-gradient-18);}.cls-47{fill:#f9ad87;}.cls-48{fill:#1f78ff;}.cls-49{fill:#0f68ea;}.cls-50{fill:#f98f46;}.cls-51{fill:url(#linear-gradient-19);}.cls-52{fill:url(#linear-gradient-20);}.cls-53{fill:#ffba94;}.cls-54{fill:#ff806d;}.cls-55{fill:#fca286;}.cls-56{fill:#443a36;}.cls-57{fill:url(#linear-gradient-21);}.cls-58{fill:#232121;}.cls-59{fill:url(#linear-gradient-22);}.cls-60{fill:url(#linear-gradient-23);}.cls-61{fill:#606060;}.cls-62,.cls-80,.cls-81{mix-blend-mode:screen;}.cls-62{fill:url(#linear-gradient-24);}.cls-63{fill:#444;}.cls-64{fill:#303030;}.cls-65{fill:#7c7c7c;}.cls-66{fill:#1487e3;}.cls-68{fill:#adadad;}.cls-69{fill:#3a5799;}.cls-70{fill:#f7622a;}.cls-71{fill:#22a851;}.cls-72{fill:#fcd740;}.cls-73{fill:#3fc9ee;}.cls-74{fill:none;stroke:#202d45;stroke-linecap:round;stroke-linejoin:round;stroke-width:3.35px;}.cls-75,.cls-77{fill:#d7d7e6;}.cls-76{fill:#9cc7ff;}.cls-78{fill:#eaeaea;}.cls-79{fill:#a06933;}.cls-80,.cls-81{opacity:0.9;}.cls-80{fill:url(#linear-gradient-25);}.cls-81{fill:url(#linear-gradient-26);}.cls-82{fill:#f4b537;}.cls-83{fill:#f9c655;}</style><linearGradient id="linear-gradient" x1="2456.01" y1="1840.56" x2="2408.29" y2="-1009" gradientUnits="userSpaceOnUse"><stop offset="0" stop-color="#fff"/><stop offset="0.09" stop-color="#f6fcfe"/><stop offset="0.22" stop-color="#dff2fa"/><stop offset="0.39" stop-color="#b8e3f4"/><stop offset="0.59" stop-color="#83ceec"/><stop offset="0.81" stop-color="#40b3e1"/><stop offset="1" stop-color="#009ad7"/></linearGradient><linearGradient id="linear-gradient-2" x1="2013.05" y1="777.14" x2="2436.11" y2="777.14" gradientUnits="userSpaceOnUse"><stop offset="0" stop-color="#637df5"/><stop offset="1" stop-color="#c0b4fe" stop-opacity="0.8"/></linearGradient><linearGradient id="linear-gradient-3" x1="2695.45" y1="506.97" x2="3248.95" y2="506.97" xlink:href="#linear-gradient-2"/><linearGradient id="linear-gradient-4" x1="3615.55" y1="956.34" x2="3919.86" y2="956.34" gradientUnits="userSpaceOnUse"><stop offset="0" stop-color="#637df5"/><stop offset="1" stop-color="#c0b4fe"/></linearGradient><linearGradient id="linear-gradient-5" x1="1085.72" y1="902.72" x2="1733.55" y2="902.72" xlink:href="#linear-gradient-2"/><linearGradient id="linear-gradient-6" x1="2532.85" y1="394.44" x2="2387.63" y2="1944.93" xlink:href="#linear-gradient-2"/><linearGradient id="linear-gradient-7" x1="2464.42" y1="2709.65" x2="2406.28" y2="2043.25" gradientUnits="userSpaceOnUse"><stop offset="0" stop-color="#172652" stop-opacity="0.7"/><stop offset="0.08" stop-color="#132f61" stop-opacity="0.76"/><stop offset="0.23" stop-color="#0c3e77" stop-opacity="0.85"/><stop offset="0.39" stop-color="#074989" stop-opacity="0.91"/><stop offset="0.56" stop-color="#035195" stop-opacity="0.96"/><stop offset="0.75" stop-color="#01569d" stop-opacity="0.99"/><stop offset="1" stop-color="#00579f"/></linearGradient><linearGradient id="linear-gradient-8" x1="2189.03" y1="2881.71" x2="2189.03" y2="2626.39" gradientUnits="userSpaceOnUse"><stop offset="0.27" stop-color="#172652" stop-opacity="0.7"/><stop offset="0.51" stop-color="#0f386e" stop-opacity="0.81"/><stop offset="0.84" stop-color="#044e91" stop-opacity="0.95"/><stop offset="1" stop-color="#00579f"/></linearGradient><linearGradient id="linear-gradient-9" x1="11245.15" y1="-24.14" x2="11581.92" y2="963.71" gradientTransform="matrix(-0.97, 0.25, 0.25, 0.97, 14271.93, -1854.26)" gradientUnits="userSpaceOnUse"><stop offset="0" stop-color="#8ccc6d"/><stop offset="0.19" stop-color="#81c768"/><stop offset="0.54" stop-color="#62b85b"/><stop offset="0.92" stop-color="#39a54a"/></linearGradient><linearGradient id="linear-gradient-10" x1="11515.43" y1="198.16" x2="11716.52" y2="935.51" gradientTransform="matrix(-0.97, 0.25, 0.25, 0.97, 14271.93, -1854.26)" gradientUnits="userSpaceOnUse"><stop offset="0" stop-color="#00b488"/><stop offset="0.92" stop-color="#007bc0"/></linearGradient><linearGradient id="linear-gradient-11" x1="3461.37" y1="2423.96" x2="3152.21" y2="2092.12" gradientUnits="userSpaceOnUse"><stop offset="0" stop-color="#f45b5b"/><stop offset="1" stop-color="#f42432"/></linearGradient><linearGradient id="linear-gradient-12" x1="1107.31" y1="2374.64" x2="1416.97" y2="2374.64" gradientUnits="userSpaceOnUse"><stop offset="0" stop-color="#f15a24" stop-opacity="0"/><stop offset="1" stop-color="#f17624"/></linearGradient><linearGradient id="linear-gradient-13" x1="2164.44" y1="2127.25" x2="2328.96" y2="1260.57" xlink:href="#linear-gradient-12"/><linearGradient id="linear-gradient-14" x1="1471.84" y1="2445" x2="1523.31" y2="2173.86" xlink:href="#linear-gradient-12"/><linearGradient id="linear-gradient-15" x1="1847.8" y1="1780.04" x2="1928.83" y2="1353.18" xlink:href="#linear-gradient-12"/><linearGradient id="linear-gradient-16" x1="2497.91" y1="2577.77" x2="2624.07" y2="1913.19" xlink:href="#linear-gradient-12"/><linearGradient id="linear-gradient-17" x1="1993.07" y1="1333.82" x2="2033.95" y2="1610.7" gradientUnits="userSpaceOnUse"><stop offset="0" stop-color="#fff" stop-opacity="0.5"/><stop offset="1"/></linearGradient><linearGradient id="linear-gradient-18" x1="2228.75" y1="1310.21" x2="2270.82" y2="1595.23" xlink:href="#linear-gradient-17"/><linearGradient id="linear-gradient-19" x1="2791.8" y1="2675.75" x2="2135.81" y2="2689.67" gradientUnits="userSpaceOnUse"><stop offset="0" stop-color="#ffcf3d"/><stop offset="1" stop-color="#f15a24"/></linearGradient><linearGradient id="linear-gradient-20" x1="2219.95" y1="2491.25" x2="2487.48" y2="2491.25" xlink:href="#linear-gradient-19"/><linearGradient id="linear-gradient-21" x1="13144.58" y1="1560.98" x2="13107.77" y2="1776.59" gradientTransform="matrix(-1, -0.02, -0.02, 1, 15277.51, -147.96)" xlink:href="#linear-gradient-17"/><linearGradient id="linear-gradient-22" x1="2527.67" y1="2421.18" x2="2260.46" y2="2426.84" xlink:href="#linear-gradient-19"/><linearGradient id="linear-gradient-23" x1="2223.18" y1="2496.74" x2="1459.7" y2="2512.93" xlink:href="#linear-gradient-19"/><linearGradient id="linear-gradient-24" x1="2358.48" y1="1684.33" x2="2170.79" y2="2208.76" gradientUnits="userSpaceOnUse"><stop offset="0.28" stop-color="#172652" stop-opacity="0.6"/><stop offset="0.45" stop-color="#162754" stop-opacity="0.61"/><stop offset="0.59" stop-color="#142c5b" stop-opacity="0.65"/><stop offset="0.71" stop-color="#136" stop-opacity="0.71"/><stop offset="0.82" stop-color="#0c3d77" stop-opacity="0.79"/><stop offset="0.92" stop-color="#064a8b" stop-opacity="0.9"/><stop offset="1" stop-color="#00579f"/></linearGradient><linearGradient id="linear-gradient-25" x1="1181.45" y1="2215.91" x2="1076.69" y2="2508.63" gradientUnits="userSpaceOnUse"><stop offset="0" stop-color="#172652" stop-opacity="0.6"/><stop offset="1" stop-color="#00579f"/></linearGradient><linearGradient id="linear-gradient-26" x1="12451.8" y1="2375.93" x2="12390.18" y2="2548.11" gradientTransform="matrix(-1, 0, 0, 1, 13594.3, 0)" xlink:href="#linear-gradient-25"/></defs><title>04</title><g class="cls-1"><g id="_04" data-name="04"><rect class="cls-2" width="4680" height="3120"/><path class="cls-3" d="M3919.86,598.13V1887.57H972.11V770.85q0-11.42.85-22.66c.27-3.75.61-7.49,1.06-11.21.21-1.87.45-3.72.7-5.59C988.41,625.63,1057.83,533,1160,488.23c39.46-17.3,84.72-36,135.39-55.34,5.78-2.19,11.61-4.41,17.54-6.63q15.33-5.76,31.29-11.56c4.72-1.73,9.47-3.43,14.27-5.16,496.23-177.67,1420.29-374.16,2473.9,59.95,52.4,21.59,86.54,71.11,87.47,126C3919.86,596.38,3919.86,597.27,3919.86,598.13Z"/><path class="cls-4" d="M3919.86,598.13V1887.57h-497V571.67c0-35.77,30-64.76,67-64.76h335.53c51.25,0,92.94,39.43,94.39,88.6C3919.86,596.38,3919.86,597.27,3919.86,598.13Z"/><rect class="cls-5" x="3797.86" y="639.94" width="76.53" height="136.39"/><rect class="cls-5" x="3795.72" y="853.13" width="76.53" height="136.39"/><rect class="cls-5" x="3796.79" y="1066.32" width="76.53" height="136.38"/><rect class="cls-5" x="3794.65" y="1279.51" width="76.53" height="136.39"/><rect class="cls-5" x="3796.79" y="1492.7" width="76.53" height="136.39"/><rect class="cls-5" x="3794.65" y="1705.89" width="76.53" height="136.39"/><rect class="cls-5" x="3653.3" y="639.94" width="76.53" height="136.39"/><rect class="cls-5" x="3651.16" y="853.13" width="76.53" height="136.39"/><rect class="cls-5" x="3652.23" y="1066.32" width="76.53" height="136.38"/><rect class="cls-5" x="3650.09" y="1279.51" width="76.53" height="136.39"/><rect class="cls-5" x="3652.23" y="1492.7" width="76.53" height="136.39"/><rect class="cls-5" x="3650.09" y="1705.89" width="76.53" height="136.39"/><path class="cls-6" d="M3488.44,506.9h55.29v985.8H3422.9V570.24C3422.9,535.26,3452.24,506.9,3488.44,506.9Z"/><path class="cls-7" d="M1800.35,1510.12a26.48,26.48,0,0,0-26.3-25.88h-93.9a18.38,18.38,0,0,0-18.26,18.5v123.32h-83.61v-1.65h-89.62v-72.27a23.57,23.57,0,0,0-23.42-23.73h-83.61a16.38,16.38,0,0,0-16.27,16.48v91.72h-75.24a23.58,23.58,0,0,0-23.43,23.73v227.23h222V1887H1610.8l4.46.55h185.1V1510.89C1800.36,1510.64,1800.36,1510.38,1800.35,1510.12Z"/><path class="cls-5" d="M2838.41,1119c-.87-29.25-25.67-52.7-56.15-52.7H2581.8c-21.53,0-39,16.87-39,37.68v251.1H2364.3v-3.37H2173V1204.56c0-26.7-22.39-48.32-50-48.32h-178.5c-19.18,0-34.72,15-34.72,33.55v186.78H1749.07c-27.62,0-50,21.62-50,48.32v462.69H2173v-1.13h260.77l9.51,1.13h395.18v-767C2838.43,1120.05,2838.43,1119.52,2838.41,1119Z"/><path class="cls-4" d="M2801.15,739.34V1887.57H2358.62V715.76c0-31.85,26.7-57.64,59.66-57.64h298.79C2763.51,658.12,2801.15,694.46,2801.15,739.34Z"/><rect class="cls-5" x="2692.51" y="776.57" width="68.15" height="121.45"/><rect class="cls-5" x="2690.6" y="966.42" width="68.15" height="121.45"/><rect class="cls-5" x="2691.55" y="1156.26" width="68.15" height="121.45"/><rect class="cls-5" x="2689.65" y="1346.1" width="68.15" height="121.45"/><rect class="cls-5" x="2691.55" y="1535.95" width="68.15" height="121.45"/><rect class="cls-5" x="2689.65" y="1725.79" width="68.15" height="121.45"/><rect class="cls-5" x="2563.78" y="776.57" width="68.15" height="121.45"/><rect class="cls-5" x="2561.88" y="966.42" width="68.15" height="121.45"/><rect class="cls-5" x="2562.83" y="1156.26" width="68.15" height="121.45"/><rect class="cls-5" x="2560.92" y="1346.1" width="68.15" height="121.45"/><rect class="cls-5" x="2562.83" y="1535.95" width="68.15" height="121.45"/><rect class="cls-5" x="2560.92" y="1725.79" width="68.15" height="121.45"/><path class="cls-8" d="M2404.39,858.76c40.54,0,43.09-58.55,2.64-61.16-1.45-.09-2.91-.14-4.38-.14a67,67,0,0,0-17.42,2.31c-7-30.47-35.06-53.26-68.68-53.26a72.12,72.12,0,0,0-26.56,5c-5.85-31.84-34.61-56-69.23-56-33.69,0-61.83,22.89-68.72,53.45a72.74,72.74,0,0,0-18.75-2.46c-31.23,0-57.69,19.67-66.88,46.89-.82,0-1.64-.06-2.47-.06a77.78,77.78,0,0,0-33.3,7.41c-30,14.17-19.19,58,14.23,58Z"/><path class="cls-6" d="M2417,658.1h49.23V1536h-107.6V714.51C2358.61,683.36,2384.74,658.1,2417,658.1Z"/><path class="cls-4" d="M2447,1086.15v801.42H2004.45V1109.73c0-44.88,37.64-81.23,84.08-81.23h298.79C2420.27,1028.5,2447,1054.3,2447,1086.15Z"/><rect class="cls-9" x="2044.94" y="1146.96" width="68.15" height="121.45" transform="translate(4158.03 2415.37) rotate(-180)"/><rect class="cls-9" x="2046.85" y="1336.8" width="68.15" height="121.45" transform="translate(4161.84 2795.06) rotate(-180)"/><rect class="cls-9" x="2045.89" y="1526.65" width="68.15" height="121.45" transform="translate(4159.94 3174.74) rotate(-180)"/><rect class="cls-9" x="2047.8" y="1716.49" width="68.15" height="121.45" transform="translate(4163.75 3554.43) rotate(-180)"/><rect class="cls-9" x="2173.66" y="1146.96" width="68.15" height="121.45" transform="translate(4415.48 2415.37) rotate(-180)"/><rect class="cls-9" x="2175.57" y="1336.8" width="68.15" height="121.45" transform="translate(4419.29 2795.06) rotate(-180)"/><rect class="cls-9" x="2174.62" y="1526.65" width="68.15" height="121.45" transform="translate(4417.38 3174.74) rotate(-180)"/><rect class="cls-9" x="2176.52" y="1716.49" width="68.15" height="121.45" transform="translate(4421.2 3554.43) rotate(-180)"/><path class="cls-10" d="M2447,1084.88v802.69H2339.39V1028.5h49.23C2420.85,1028.5,2447,1053.75,2447,1084.88Z"/><polygon class="cls-4" points="2628.14 1537.48 2628.14 1059.95 2597.68 1059.95 2597.68 992.37 3422.9 992.37 3422.9 1642.7 2628.14 1537.48"/><polygon class="cls-11" points="2595.55 986.72 2595.55 1056.03 2626.34 1056.03 2626.34 1884.89 3122.81 1884.89 3122.81 986.72 2595.55 986.72"/><path class="cls-12" d="M3057.58,1156a17.33,17.33,0,0,1-4.54,11.75,15,15,0,0,1-10.94,4.88H2628.47V1139.4H3042.1C3050.62,1139.4,3057.58,1146.87,3057.58,1156Z"/><path class="cls-12" d="M3057.58,1259.4a17.29,17.29,0,0,1-4.54,11.75,15,15,0,0,1-10.94,4.87H2628.47v-33.28H3042.1C3050.62,1242.74,3057.58,1250.25,3057.58,1259.4Z"/><path class="cls-12" d="M3057.58,1375.67a17.28,17.28,0,0,1-4.54,11.75,15,15,0,0,1-10.94,4.88H2628.47v-33.25H3042.1C3050.62,1359.05,3057.58,1366.52,3057.58,1375.67Z"/><path class="cls-12" d="M3057.58,1479.05a17.33,17.33,0,0,1-4.54,11.75,15,15,0,0,1-10.94,4.87H2628.47v-33.25H3042.1C3050.62,1462.42,3057.58,1469.9,3057.58,1479.05Z"/><polygon class="cls-4" points="3643.63 1283.48 3643.63 1887.57 3255.53 1887.57 3239.53 1885.67 2760.45 1828.6 2760.45 1351.07 2726.62 1351.07 2726.62 1283.48 3643.63 1283.48"/><polygon class="cls-13" points="2724.25 1277.84 2724.25 1347.15 2758.47 1347.15 2758.47 1885.67 3310.15 1885.67 3310.15 1277.84 2724.25 1277.84"/><path class="cls-5" d="M3237.67,1447.14a16.45,16.45,0,0,1-5,11.76,17.58,17.58,0,0,1-12.16,4.87H2760.83v-33.25h459.64C3229.93,1430.52,3237.67,1438,3237.67,1447.14Z"/><path class="cls-5" d="M3237.67,1550.52a16.38,16.38,0,0,1-5,11.75,17.53,17.53,0,0,1-12.16,4.87H2760.83v-33.27h459.64C3229.93,1533.87,3237.67,1541.37,3237.67,1550.52Z"/><path class="cls-5" d="M3237.67,1666.79a16.4,16.4,0,0,1-5,11.76,17.58,17.58,0,0,1-12.16,4.87H2760.83v-33.25h459.64C3229.93,1650.17,3237.67,1657.65,3237.67,1666.79Z"/><path class="cls-5" d="M3237.67,1770.17a16.41,16.41,0,0,1-5,11.75,17.53,17.53,0,0,1-12.16,4.87H2760.83v-33.25h459.64C3229.93,1753.54,3237.67,1761,3237.67,1770.17Z"/><path class="cls-14" d="M3207.45,613.76c53,0,56.37-76.6,3.45-80q-2.85-.18-5.73-.18a87.78,87.78,0,0,0-22.8,3c-9.1-39.86-45.86-69.69-89.84-69.69a94.51,94.51,0,0,0-34.75,6.58c-7.66-41.64-45.29-73.28-90.58-73.28-44.08,0-80.89,29.95-89.91,69.93a94.76,94.76,0,0,0-24.53-3.23c-40.86,0-75.48,25.74-87.49,61.35-1.08,0-2.16-.08-3.24-.08a101.78,101.78,0,0,0-43.56,9.7c-39.29,18.55-25.11,75.9,18.61,75.9Z"/><path class="cls-15" d="M3919.86,872.43v183.66H3654.43c-40.83,0-54.07-53.56-17.39-70.91a95.45,95.45,0,0,1,40.72-9c1,0,2,0,3,.08,11.22-33.27,43.56-57.31,81.72-57.31a89.43,89.43,0,0,1,22.91,3c8.43-37.33,42.83-65.32,84-65.32A87.49,87.49,0,0,1,3919.86,872.43Z"/><path class="cls-16" d="M1685,1027.71c62.08,0,66-89.66,4-93.65q-3.32-.22-6.71-.22a102.71,102.71,0,0,0-26.67,3.53c-10.66-46.65-53.68-81.56-105.16-81.56a110.61,110.61,0,0,0-40.67,7.7c-9-48.74-53-85.77-106-85.77-51.59,0-94.68,35-105.23,81.84a111.16,111.16,0,0,0-28.71-3.77c-47.83,0-88.35,30.13-102.41,71.81-1.26,0-2.52-.09-3.79-.09a119.09,119.09,0,0,0-51,11.34c-46,21.71-29.39,88.84,21.78,88.84Z"/><path class="cls-17" d="M1215.19,624.73V1890.31H972.11V770.84c0-121.64,73.38-232.23,187.85-282.45,37.22-16.35,79.61-34,126.81-52.2q34.2-13.15,71.71-26.65h.08C1213.72,493.5,1215.19,624.73,1215.19,624.73Z"/><path class="cls-18" d="M1182.88,624.73V1890.31H972.11V770.84c0-121.64,73.38-232.23,187.85-282.45,37.22-16.35,79.61-34,126.81-52.2C1181.7,518.62,1182.88,624.73,1182.88,624.73Z"/><path class="cls-19" d="M3919.86,596.23V1887.56H972.11V770.18c0-121.43,73.38-231.8,187.85-281.93,55.2-24.21,121.73-51.21,198.52-78.71,496.45-177.76,1421.16-374.36,2475.4,60.6C3886.08,491.66,3919.86,541.39,3919.86,596.23Z"/><path class="cls-20" d="M2875.22,2532.75h1103.1a41,41,0,0,0,41-41v-564.1H2981.83Z"/><polygon class="cls-21" points="940.04 2532.75 3905.98 2532.75 3905.98 1927.68 945.07 1927.68 940.04 2532.75"/><polygon class="cls-22" points="3437.95 1927.68 3905.98 1927.68 3905.98 2123.25 3795.66 2528.77 939.11 2531.75 1088.2 1926.45 3437.95 1927.68"/><rect class="cls-20" x="849.65" y="1804.2" width="3282.94" height="190.83" rx="85.4"/><rect class="cls-23" x="849.65" y="1804.2" width="3068.26" height="190.83" rx="85.4"/><path class="cls-24" d="M3995.76,2525.3c13.9,0,19.88,17.64,8.85,26.09h0A1481.23,1481.23,0,0,1,3270,2848.14c-92,10.47-196.59,21.17-311.18,31-309.24,26.63-691.39,47.08-1096.88,39.72-700.15-12.73-1116.77-113.49-1298.86-170.59q-25.86-8.1-45.42-14.91c-22.33-7.69-22.57-39.21-.38-47.29L958.45,2525.3Z"/><path class="cls-25" d="M3815,2525.3l-856.19,353.88c-309.24,26.63-691.57,54.09-1096.88,39.72C1131.05,2893,745.16,2805.41,563.07,2748.31l616.72-223,8.26-3Z"/><path class="cls-26" d="M3419.58,2036c83-21,199-65.25,307.46-157.84,153.71-131.19-187.69-61.24-460.24,57.65l116.95,87Z"/><path class="cls-27" d="M3683.9,1793.62c-50.87,57.86-186.75,176.24-317.65,301.12l-149,74-38.62-91.79c92.66-183.38,221.14-374.18,339-476.11C3724.26,1422,3862.4,1590.57,3683.9,1793.62Z"/><path class="cls-26" d="M3215.32,2164.16c152.39-299.45,467.53-558.86,468.67-559.81a4.87,4.87,0,0,1,7.17,1,5.8,5.8,0,0,1-1,7.72c-1.13.94-311.23,256.23-463.24,550.87l-9.71,4.81Z"/><path class="cls-28" d="M3197.54,1307.42c-7.06,80.29-.81,262.94-.41,453.52,41.38,66.5,61.14,253.17,133.37,278.82,63.29-196.89,149.58-552.41,142.85-713.25C3460.19,1011.7,3224.45,1001.73,3197.54,1307.42Z"/><path class="cls-29" d="M3293.82,1861.93c76.21-323.83,52.82-684.75,52.73-686.25a6.17,6.17,0,0,0-6.09-6,5.7,5.7,0,0,0-5.35,6.27c.08,1.5,23.18,358.25-51.37,678.73C3287.06,1857.19,3290.42,1859.6,3293.82,1861.93Z"/><path class="cls-30" d="M3233.3,1473.21c18.69,74.73,68.87,387.87,97.2,566.55l-53.87,30.6-97.49-20.4c-98.2-180.47-182.13-394.65-199-549.51C2950.47,1228.75,3167.71,1210.94,3233.3,1473.21Z"/><path class="cls-26" d="M3271.81,2069.35c-159.75-295.58-194-702.32-194.18-703.8a4.87,4.87,0,0,1,4.87-5.36,5.8,5.8,0,0,1,5.79,5.2c.13,1.47,33.89,401.7,189.89,694.25l-1.55,10.72Z"/><path class="cls-31" d="M3598.65,2069v20.7c0,8.77-10.51,15.86-23.5,15.86H2991.33V2069c0-21.08,25.34-38.2,56.59-38.2h494.15C3573.31,2030.81,3598.65,2047.93,3598.65,2069Z"/><path class="cls-32" d="M3568.83,2105.57l-5.48,31.6-73,421h-3.7c-17.48,12.12-95.44,21.28-189,21.28-39.3,0-75.86-1.62-106.33-4.39-9-.84-17.5-1.74-25.37-2.74-37.56-4.84-61-11.7-61-19.31,0-1.77,1.32-3.52,3.71-5.19l-81.89-442.28Z"/><path class="cls-33" d="M3598.65,2069v20.7c0,8.77-10.51,15.86-23.5,15.86h-6.32l-5.48,31.6s-371,108.07-397.37,435.15v0c-37.56-4.84-61-11.7-61-19.31,0-1.77,1.32-3.52,3.71-5.19l-81.89-442.28h-35.47V2069c0-21.08,25.34-38.2,56.59-38.2h494.15C3573.31,2030.81,3598.65,2047.93,3598.65,2069Z"/><ellipse class="cls-34" cx="2037.01" cy="2736.62" rx="899.51" ry="88.66"/><path class="cls-35" d="M3128.54,2219.46c-.06,1.74-.09,3.47-.18,5.21-.21,6.11-.5,12.17-.86,18.13-.21,3.82-.48,7.64-.78,11.41-.18,2.29-.35,4.58-.56,6.85-.21,2.76-.45,5.52-.75,8.26-.27,3-.6,5.93-.92,8.87a2.12,2.12,0,0,1,0,.44q-.59,5.29-1.26,10.5c-.06.56-.15,1.12-.23,1.67-.36,2.88-.75,5.77-1.17,8.59-.44,3.38-1,6.7-1.52,10-.24,1.59-.47,3.15-.77,4.7-.36,2.21-.72,4.38-1.11,6.56-.23,1.26-.44,2.53-.71,3.79-.36,2-.75,4.09-1.14,6.09-.29,1.58-.62,3.17-1,4.73-.36,1.91-.77,3.82-1.19,5.73-.15.79-.3,1.56-.51,2.35-.6,2.82-1.22,5.62-1.91,8.41a10.45,10.45,0,0,1-.3,1.32c-.68,2.85-1.37,5.7-2.08,8.5a2.45,2.45,0,0,1-.18.67c-.72,2.85-1.46,5.65-2.21,8.44-.24.88-.48,1.76-.74,2.61-.69,2.56-1.4,5.09-2.18,7.59a.48.48,0,0,1-.09.29c-.86,3.09-1.82,6.15-2.77,9.17-.78,2.53-1.58,5-2.42,7.5-.48,1.53-1,3-1.52,4.53-.39,1.2-.8,2.41-1.25,3.58-.51,1.59-1.07,3.15-1.67,4.7-.66,1.83-1.31,3.65-2,5.44-.3.86-.59,1.68-1,2.5-.63,1.68-1.26,3.35-1.94,5s-1.22,3.11-1.85,4.67c-.45,1.15-.92,2.27-1.4,3.38-.72,1.8-1.46,3.56-2.24,5.32q-1.38,3.22-2.8,6.41-1.56,3.52-3.16,7c-.18.35-.33.67-.51,1-1.19,2.52-2.38,5-3.61,7.52-1.31,2.65-2.62,5.26-4,7.88s-2.69,5.14-4.06,7.67-2.77,5.06-4.17,7.56-2.83,5-4.3,7.4-2.89,4.85-4.38,7.23-2.95,4.77-4.47,7.09c-1.22,1.91-2.48,3.82-3.7,5.67-1.85,2.73-3.67,5.44-5.54,8.08-1.55,2.24-3.14,4.41-4.72,6.59s-3.25,4.41-4.92,6.61c-1.28,1.68-2.56,3.35-3.87,5q-5.46,7-11.15,13.67c-1.58,1.85-3.16,3.67-4.77,5.46-2.18,2.5-4.39,5-6.62,7.38q-4.74,5.16-9.58,10.06c-2.08,2.08-4.17,4.17-6.29,6.23-3.25,3.2-6.56,6.32-9.87,9.34-.18.15-.38.33-.59.53-1.85,1.71-3.73,3.38-5.64,5.06s-3.82,3.35-5.78,5c-3.4,2.94-6.83,5.76-10.29,8.52-.93.74-1.85,1.47-2.77,2.18-1.41,1.11-2.81,2.23-4.21,3.29-2,1.53-3.93,3-5.9,4.47s-4.18,3.08-6.26,4.61q-8.73,6.32-17.63,12.08c-2.2,1.41-4.44,2.85-6.65,4.24-1.81,1.17-3.63,2.29-5.42,3.41a.15.15,0,0,0-.12,0c-2,1.24-4.06,2.44-6.05,3.65s-4.09,2.41-6.15,3.59-4.08,2.32-6.14,3.46-4.11,2.27-6.17,3.38-4.12,2.21-6.17,3.27-4.12,2.14-6.18,3.17-4.11,2.06-6.2,3.09c-1.91.94-3.85,1.85-5.75,2.76l-6.62,3.09c-2.06.94-4.15,1.88-6.21,2.79s-4.11,1.82-6.17,2.7q-9.3,4-18.51,7.59c-2.06.82-4.12,1.59-6.18,2.38s-4.08,1.53-6.11,2.26-3.94,1.44-5.9,2.15c-6.38,2.23-12.77,4.38-19.09,6.41-3.75,1.17-7.51,2.35-11.21,3.47l-12,3.46c-3.82,1-7.61,2.06-11.37,3.06s-7.72,2-11.54,2.91c-10.94,2.65-21.55,5-31.75,7l-1.1.2c-1.76.36-3.52.68-5.25,1-3.49.68-6.89,1.3-10.26,1.88-1.7.3-3.37.56-5,.86q-6.53,1.1-12.73,2-5.64.84-11,1.59c-6,.82-11.81,1.56-17.3,2.18-1.37.14-2.71.32-4.05.47s-2.66.29-3.94.41c-3.16.35-6.17.65-9.09.94-5.43.53-10.44,1-15,1.32-1.31.12-2.6.21-3.82.33-.95.08-1.85.14-2.74.2-1.61.15-3.19.27-4.65.35-1.76.12-3.37.27-4.89.39-.69.05-1.38.11-2,.14l-3.31.27c-1.85.14-3.43.29-4.71.44-2.06.2-4.12.38-6.18.56-.53,0-1.1.09-1.66.11l-1.11.09c-.56,0-1.16.06-1.79.12-2.11.12-4.56.29-7.39.47-13.84.91-36.2,2.32-65.36,4-203.66,11.67-739.52,36.59-1029.29-5.06q-29.51-4.23-55.4-9.23c-221-42.3-250.5-120.6-250.62-159.2-.06-23.34-4.11-46.47-10.79-68.84-53.64-179.78-57.76-324.46-31.64-440.74q3.22-14.25,7-27.93v0c20.55-74.07,53.7-135.92,93.93-187.51,0,0,.21-.26.59-.79s.9-1.15,1.35-1.7a11.89,11.89,0,0,1,1-1.21c.39-.47.74-.94,1.13-1.41.63-.76,1.31-1.62,2.06-2.53.45-.53.89-1.09,1.4-1.67.84-1.09,1.73-2.15,2.63-3.24,3-3.67,6.08-7.26,9.21-10.81,1.76-2,3.52-4,5.31-6,2-2.29,4.08-4.53,6.14-6.76s4.41-4.7,6.65-7c2.06-2.14,4.14-4.26,6.2-6.38q6.71-6.74,13.57-13.22c2.17-2.06,4.35-4.12,6.56-6.12a1.77,1.77,0,0,0,.24-.23c2.05-1.85,4.11-3.74,6.17-5.56,4.71-4.2,9.48-8.32,14.28-12.31,2.18-1.83,4.35-3.62,6.53-5.38s4.41-3.62,6.65-5.35c1.55-1.24,3.1-2.44,4.65-3.65,12.41-9.64,25-18.69,37.72-27.16,1.4-1,2.83-1.91,4.27-2.82a9.91,9.91,0,0,1,1.07-.71q2.1-1.41,4.2-2.73c1.58-1,3.16-2.06,4.77-3.06s3.19-2,4.78-3l4.8-3c1.58-1,3.19-1.94,4.77-2.88s3.19-1.92,4.8-2.86c1.25-.76,2.53-1.49,3.78-2.23,1.91-1.12,3.85-2.23,5.79-3.32,1.76-1,3.55-2,5.31-3,1.4-.79,2.83-1.59,4.26-2.35,3.19-1.76,6.38-3.5,9.54-5.17,1.58-.86,3.19-1.68,4.77-2.5,3.19-1.68,6.35-3.32,9.51-4.91s6.33-3.15,9.46-4.68c1.58-.79,3.16-1.52,4.71-2.29,8.53-4.08,16.93-8,25.28-11.61,2.42-1.06,4.86-2.12,7.28-3.14l4.56-1.94c1.52-.62,3-1.27,4.53-1.89,2.69-1.11,5.34-2.17,8-3.26,14.64-5.85,28.83-11.08,42.43-15.72,2-.71,4.08-1.39,6.08-2.06,1.37-.47,2.74-.91,4.08-1.35l4.09-1.33c28.3-9.14,53.52-15.69,73.89-20.31,1.82-.44,3.61-.82,5.33-1.2l3.11-.68a258.44,258.44,0,0,0,84-34.36c1-.68,2.09-1.33,3.13-2q19-12,37.84-22.61c2.42-1.35,4.8-2.7,7.22-4,2.23-1.27,4.5-2.47,6.74-3.71q7.43-4,14.79-7.76c2-1.06,4.11-2.09,6.14-3.14,2.74-1.36,5.46-2.68,8.17-4,2.39-1.15,4.74-2.29,7.13-3.41s4.74-2.26,7.09-3.35c3-1.35,5.88-2.71,8.77-4,3.82-1.7,7.6-3.38,11.39-5,5.07-2.17,10.14-4.26,15.18-6.32,2.32-.94,4.68-1.88,7-2.79,5.49-2.14,10.95-4.23,16.37-6.23,3.76-1.38,7.52-2.73,11.25-4l1.49-.53c4.23-1.47,8.43-2.88,12.64-4.23q6.88-2.25,13.75-4.35l6.85-2c2.27-.67,4.57-1.32,6.83-2,6.83-1.91,13.63-3.73,20.37-5.41,2.17-.55,4.32-1.08,6.5-1.61.65-.15,1.31-.3,2-.47,3.34-.8,6.61-1.56,9.92-2.27l4-.88c3.73-.82,7.42-1.58,11.12-2.29,9-1.79,17.8-3.38,26.63-4.76,2.12-.36,4.2-.68,6.32-1s4.35-.65,6.53-.94c2-.3,3.94-.56,5.9-.8,7-.91,13.9-1.7,20.76-2.41,1.88-.17,3.73-.35,5.57-.5,4.66-.44,9.31-.82,13.9-1.14,1.73-.12,3.43-.24,5.13-.33,5.45-.35,10.88-.61,16.28-.82,1.55-.09,3.07-.15,4.59-.18,1.88-.08,3.79-.11,5.67-.17,5.69-.15,11.33-.21,16.9-.21,3.31,0,6.65,0,9.93.09,1.22,0,2.42,0,3.61.06h.89q4.66.09,9.31.26,10.77.36,21.38,1.06c1.22.09,2.44.15,3.63.27.36,0,.72,0,1.05.06,2.89.2,5.78.41,8.65.67,3,.24,6,.53,9.06.82,1,.09,2,.18,3,.3,2.86.26,5.7.59,8.5.91,1.52.15,3,.32,4.5.53a3.68,3.68,0,0,1,.57.06c2.68.32,5.34.64,8,1,6.44.85,12.85,1.79,19.14,2.79,1.7.26,3.4.53,5.07.82.3.06.57.09.84.15,2.47.41,4.92.82,7.36,1.26,6.41,1.15,12.73,2.35,19,3.65,1.64.32,3.25.67,4.89,1,.21,0,.38.06.59.11,5.64,1.21,11.21,2.44,16.7,3.77.6.11,1.16.26,1.73.41,2.8.65,5.61,1.35,8.35,2.06,3.25.79,6.47,1.61,9.63,2.47a1.21,1.21,0,0,1,.18,0q4.88,1.29,9.66,2.65c2.56.71,5.1,1.44,7.6,2.15,3.85,1.11,7.64,2.26,11.36,3.41,2.69.82,5.31,1.64,7.94,2.49q9.89,3.18,19.41,6.47c2.8,1,5.57,2,8.32,3,2.47.88,4.92,1.79,7.36,2.7,1.28.47,2.57.94,3.85,1.44,10.58,4,20.78,8.12,30.53,12.26,2.3,1,4.56,2,6.8,3,20.16,8.79,38.38,17.75,54.42,26.28,1,.53,2,1.09,3,1.62.6.32,1.22.64,1.82,1,49.2,26.6,76.93,48.53,76.93,48.53a715.46,715.46,0,0,1,89.09-20.58c1.85-.29,3.67-.59,5.52-.85,1.43-.24,2.86-.44,4.29-.65q6-.84,12-1.59l4.44-.53,6.15-.67c1.73-.18,3.48-.35,5.21-.5.9-.09,1.82-.18,2.72-.24,1.25-.11,2.53-.23,3.78-.32,181-14.55,269.95,74.63,311.66,145.53,15.3,26,30.33,53.56,40.17,72a254.56,254.56,0,0,1,18.75,44.89c1.43,4.67,2.86,9.31,4.26,14,2.78,9.26,5.46,18.4,8.06,27.48,1.28,4.53,2.53,9,3.78,13.52s2.42,8.85,3.61,13.26c0,.09.06.21.09.3,1.16,4.38,2.33,8.75,3.43,13.08,2.21,8.43,4.29,16.81,6.32,25.07q1.83,7.62,3.58,15.11c.89,3.82,1.76,7.61,2.59,11.4,1,4.21,1.88,8.41,2.78,12.55q1.78,8.21,3.39,16.26c.54,2.62,1.05,5.2,1.56,7.79.14.62.26,1.23.38,1.85.72,3.68,1.4,7.32,2.09,11,.81,4.2,1.58,8.4,2.3,12.55.68,3.79,1.34,7.58,2,11.34.57,3.18,1.08,6.35,1.58,9.5s1,6.26,1.47,9.35c1,6.49,1.93,12.9,2.8,19.28.36,2.7.71,5.38,1.07,8.08.72,5.35,1.34,10.64,1.94,15.87q.4,3.22.72,6.44,1.83,16.58,3.07,32.54c.41,5.29.77,10.58,1.07,15.79.15,1.76.24,3.49.33,5.26Q3129.68,2183.89,3128.54,2219.46Z"/><path class="cls-36" d="M2629.7,1977c-1.25-4.18,9.78-71,128.43-124,0,0-139.58,38.72-129.68,119.78"/><path class="cls-36" d="M2699.13,2313.21s84.75-42,143-26.52c0,0-90.86,2.69-132.74,33.9"/><path class="cls-36" d="M1719,1908.1s-27.67-111.37-102.67-186.41C1616.34,1721.69,1693,1830.77,1719,1908.1Z"/><path class="cls-36" d="M1622.5,2146.54s-67.72-99.32-141.6-120.28c0,0,126.49,93.8,141.6,134.63"/><path class="cls-37" d="M1417,2721.82l-1,1.17C1115.09,2665.38,1169.15,2541,1169.15,2541c-67.3-201.35-74.54-360.76-46.22-486.83q3.22-14.25,7-27.93C1129.85,2032.28,1122.19,2652.15,1417,2721.82Z"/><path class="cls-38" d="M3128.54,2219.46c-.06,1.74-.09,3.47-.18,5.21-.21,6.11-.5,12.17-.86,18.13-.21,3.82-.48,7.64-.78,11.41-.18,2.29-.35,4.58-.56,6.85-.21,2.76-.45,5.52-.75,8.26-.27,3-.6,5.93-.92,8.87a2.12,2.12,0,0,1,0,.44q-.59,5.29-1.26,10.5c-.06.56-.15,1.12-.23,1.67-.36,2.88-.75,5.77-1.17,8.59-.44,3.38-1,6.7-1.52,10-.24,1.59-.47,3.15-.77,4.7-.36,2.21-.72,4.38-1.11,6.56-.23,1.26-.44,2.53-.71,3.79-.36,2-.75,4.09-1.14,6.09-.29,1.58-.62,3.17-1,4.73-.36,1.91-.77,3.82-1.19,5.73-.15.79-.3,1.56-.51,2.35-.6,2.82-1.22,5.62-1.91,8.41a10.45,10.45,0,0,1-.3,1.32c-.68,2.85-1.37,5.7-2.08,8.5a2.45,2.45,0,0,1-.18.67c-.72,2.85-1.46,5.65-2.21,8.44-.24.88-.48,1.76-.74,2.61-.69,2.56-1.4,5.09-2.18,7.59a.48.48,0,0,1-.09.29c-.86,3.09-1.82,6.15-2.77,9.17-.78,2.53-1.58,5-2.42,7.5-.48,1.53-1,3-1.52,4.53-.39,1.2-.8,2.41-1.25,3.58-.51,1.59-1.07,3.15-1.67,4.7-.66,1.83-1.31,3.65-2,5.44-.3.86-.59,1.68-1,2.5-.63,1.68-1.26,3.35-1.94,5s-1.22,3.11-1.85,4.67c-.45,1.15-.92,2.27-1.4,3.38-.72,1.8-1.46,3.56-2.24,5.32q-1.38,3.22-2.8,6.41-1.56,3.52-3.16,7c-.18.35-.33.67-.51,1-1.19,2.52-2.38,5-3.61,7.52-1.31,2.65-2.62,5.26-4,7.88s-2.69,5.14-4.06,7.67-2.77,5.06-4.17,7.56-2.83,5-4.3,7.4-2.89,4.85-4.38,7.23-2.95,4.77-4.47,7.09c-1.22,1.91-2.48,3.82-3.7,5.67-1.85,2.73-3.67,5.44-5.54,8.08-1.55,2.24-3.14,4.41-4.72,6.59s-3.25,4.41-4.92,6.61c-1.28,1.68-2.56,3.35-3.87,5q-5.46,7-11.15,13.67c-1.58,1.85-3.16,3.67-4.77,5.46-2.18,2.5-4.39,5-6.62,7.38q-4.74,5.11-9.58,10.06c-2.08,2.08-4.17,4.17-6.29,6.23q-4.87,4.75-9.87,9.34c-.18.15-.38.33-.59.53-1.85,1.71-3.73,3.38-5.64,5.06s-3.82,3.35-5.78,5c-3.4,2.91-6.83,5.73-10.29,8.52-.93.74-1.85,1.47-2.77,2.18-1.41,1.11-2.81,2.23-4.21,3.29-2,1.53-3.93,3-5.9,4.47s-4.18,3.08-6.26,4.61q-8.78,6.27-17.63,12.08c-2.2,1.41-4.44,2.85-6.65,4.24-1.81,1.17-3.63,2.29-5.42,3.41a.15.15,0,0,0-.12,0c-2,1.24-4.06,2.44-6.05,3.65s-4.09,2.41-6.15,3.59-4.08,2.32-6.14,3.46-4.11,2.27-6.17,3.38l-6.17,3.27q-3.09,1.62-6.18,3.17c-2,1-4.11,2.06-6.2,3.09-1.91.94-3.85,1.85-5.75,2.76l-6.62,3.09c-2.06.94-4.15,1.88-6.21,2.79s-4.11,1.82-6.17,2.7q-9.3,4-18.51,7.59c-2.06.82-4.12,1.59-6.18,2.38s-4.08,1.53-6.11,2.26-3.94,1.44-5.9,2.15c-6.38,2.23-12.77,4.38-19.09,6.41-3.75,1.17-7.51,2.35-11.21,3.47l-12,3.46c-3.82,1-7.61,2.06-11.37,3.06s-7.72,2-11.54,2.91c-10.91,2.65-21.52,4.94-31.75,7l-1.1.2c-1.76.36-3.52.68-5.25,1-3.49.68-6.89,1.3-10.26,1.88-1.7.3-3.37.56-5,.86-4.32.73-8.59,1.38-12.73,2q-5.64.84-11,1.59c-6.06.82-11.81,1.53-17.3,2.18-1.37.14-2.71.32-4.05.47s-2.66.29-3.94.41c-3.16.35-6.17.65-9.09.94-5.4.5-10.41.94-15,1.32-1.31.12-2.6.21-3.82.33-.95.05-1.85.11-2.74.2l-4.65.35c-1.76.12-3.37.27-4.89.39-.72,0-1.38.08-2,.14l-3.31.27c-1.85.14-3.43.29-4.71.44l-2.06.29-4.12.27c-.53,0-1.1.09-1.66.11-.87.06-1.82.12-2.9.21-2.11.12-4.56.29-7.39.47-13.84.91-36.2,2.32-65.36,4-33.1-37.13-21.47-69,66.49-88.77,366.76-82.31,500.94-508.53,387.63-749.57S2597,1749,2597,1749c-47.71-58.79-220.65-147-432.36-70.54s-259.42,14.69-524.79-14.7c-231-25.58-375.08,126-408.48,165.64-.51.58-.95,1.14-1.4,1.67,1.34-1.64,2.68-3.29,4-4.91,3-3.67,6.08-7.26,9.21-10.81,1.76-2,3.52-4,5.31-6,2-2.29,4.08-4.53,6.14-6.76s4.41-4.7,6.65-7c2.06-2.14,4.14-4.26,6.2-6.38q6.71-6.74,13.57-13.22c2.17-2.06,4.35-4.12,6.56-6.12a1.77,1.77,0,0,0,.24-.23c2.05-1.85,4.11-3.74,6.17-5.56,4.71-4.2,9.48-8.32,14.28-12.31,2.18-1.83,4.35-3.62,6.53-5.38s4.41-3.62,6.65-5.35c1.55-1.24,3.1-2.44,4.65-3.65,12.41-9.64,25-18.69,37.72-27.16,1.4-1,2.83-1.91,4.27-2.82a9.91,9.91,0,0,1,1.07-.71q2.1-1.41,4.2-2.73c1.58-1,3.16-2.06,4.77-3.06s3.19-2,4.78-3l4.8-3c1.58-1,3.19-1.94,4.77-2.88s3.19-1.92,4.8-2.86c1.25-.76,2.53-1.49,3.78-2.23,1.91-1.12,3.85-2.23,5.79-3.32,1.76-1,3.55-2,5.31-3,1.4-.79,2.83-1.59,4.26-2.35,3.19-1.76,6.38-3.5,9.54-5.17,1.58-.86,3.19-1.68,4.77-2.5,3.16-1.68,6.35-3.3,9.51-4.91s6.33-3.15,9.46-4.68c1.58-.79,3.16-1.52,4.71-2.29,8.53-4.08,16.93-8,25.28-11.61,2.42-1.06,4.86-2.12,7.28-3.14l4.56-1.94c1.52-.62,3-1.27,4.53-1.89,2.69-1.11,5.34-2.17,8-3.26,14.64-5.85,28.83-11.08,42.43-15.72,2-.71,4.08-1.39,6.08-2.06,1.37-.47,2.74-.91,4.08-1.35l4.09-1.33c28.3-9.14,53.52-15.69,73.89-20.31l5.33-1.2,3.11-.68c28-6,44.87-8,44.87-8q21.21-15,42.22-28.31,19-12,37.84-22.61c2.42-1.35,4.8-2.7,7.22-4,2.23-1.27,4.5-2.47,6.74-3.71q7.43-4,14.79-7.76c2-1.06,4.11-2.09,6.14-3.14,2.74-1.36,5.46-2.68,8.17-4,2.39-1.15,4.74-2.29,7.13-3.41s4.74-2.26,7.09-3.35c3-1.35,5.88-2.71,8.77-4,3.82-1.7,7.6-3.38,11.39-5,5.07-2.17,10.14-4.26,15.18-6.32,2.32-.94,4.68-1.88,7-2.79,5.49-2.14,10.95-4.23,16.37-6.23,3.76-1.38,7.49-2.7,11.25-4l1.49-.53c4.2-1.47,8.43-2.88,12.64-4.23q6.88-2.25,13.75-4.35l6.85-2c2.27-.67,4.57-1.32,6.83-2,6.83-1.91,13.63-3.73,20.37-5.41,2.17-.55,4.32-1.08,6.5-1.61.65-.15,1.31-.3,2-.47q5-1.15,9.92-2.27l4-.88c3.73-.79,7.42-1.58,11.12-2.29,9-1.79,17.8-3.38,26.63-4.76,2.12-.36,4.2-.68,6.32-1s4.35-.65,6.53-.94c2-.3,3.94-.56,5.9-.8,7-.91,13.9-1.7,20.76-2.41,1.88-.17,3.73-.35,5.57-.5,4.66-.44,9.31-.82,13.9-1.14,1.73-.12,3.43-.24,5.13-.33,5.45-.35,10.88-.61,16.28-.82,1.55-.09,3.07-.15,4.59-.18,1.88-.08,3.79-.11,5.67-.17,5.69-.15,11.33-.21,16.9-.21,3.31,0,6.65,0,9.93.09,1.22,0,2.42,0,3.61.06h.89q4.66.09,9.31.26,10.77.36,21.38,1.06c1.22.09,2.44.15,3.63.27.36,0,.72,0,1.05.06,2.89.2,5.78.41,8.65.67,3,.24,6,.53,9.06.82,1,.09,2,.18,3,.3,2.86.26,5.7.59,8.5.91,1.52.15,3,.32,4.5.53a3.68,3.68,0,0,1,.57.06c2.68.32,5.34.64,8,1,6.44.85,12.85,1.79,19.14,2.79,1.7.26,3.4.53,5.07.82.3.06.57.09.84.15,2.47.41,4.92.82,7.36,1.26,6.41,1.15,12.73,2.35,19,3.65,1.64.32,3.25.67,4.89,1,.21,0,.38.06.59.11,5.64,1.21,11.21,2.44,16.7,3.77.6.11,1.16.26,1.73.41,2.8.65,5.61,1.35,8.35,2.06,3.25.79,6.47,1.61,9.63,2.47a1.21,1.21,0,0,1,.18,0q4.88,1.29,9.66,2.65c2.56.71,5.1,1.44,7.6,2.15,3.85,1.11,7.64,2.26,11.36,3.41,2.69.82,5.31,1.64,7.94,2.49q9.89,3.18,19.41,6.47c2.8,1,5.57,2,8.32,3,2.47.88,4.92,1.79,7.36,2.7,1.28.47,2.57.94,3.85,1.44,10.58,4,20.78,8.12,30.53,12.26,2.3,1,4.56,2,6.8,3,20.16,8.79,38.38,17.75,54.42,26.28,1,.53,2,1.09,3,1.62.6.32,1.22.64,1.82,1,49.2,26.6,76.93,48.53,76.93,48.53a715.46,715.46,0,0,1,89.09-20.58c1.85-.29,3.67-.59,5.52-.85,1.43-.24,2.86-.44,4.29-.65q6-.84,12-1.59l4.44-.53,6.15-.67c1.73-.18,3.48-.35,5.21-.5.9-.09,1.82-.18,2.72-.24,1.25-.11,2.53-.23,3.78-.32,181-14.55,269.95,74.63,311.66,145.53,15.3,26,30.33,53.56,40.17,72,1.31,2.44,2.53,4.73,3.66,6.85a183.07,183.07,0,0,1,12.94,31.07c.72,2.32,1.46,4.64,2.15,7,1.43,4.67,2.86,9.31,4.26,14q4.22,13.89,8.06,27.48c1.28,4.53,2.53,9,3.78,13.52s2.42,8.85,3.61,13.26c0,.09.06.21.09.3,1.16,4.38,2.33,8.75,3.43,13.08,2.21,8.43,4.32,16.81,6.32,25.07q1.83,7.62,3.58,15.11c.89,3.82,1.76,7.61,2.59,11.4,1,4.21,1.88,8.41,2.78,12.55q1.78,8.21,3.39,16.26c.54,2.62,1.05,5.2,1.56,7.79.14.62.26,1.23.38,1.85.72,3.68,1.4,7.32,2.09,11,.81,4.2,1.58,8.4,2.3,12.55.68,3.79,1.34,7.58,2,11.34.57,3.18,1.08,6.35,1.58,9.5s1,6.26,1.47,9.35c1,6.49,1.93,12.9,2.8,19.28.36,2.7.71,5.38,1.07,8.08.72,5.35,1.34,10.64,1.94,15.87q.4,3.22.72,6.44,1.83,16.58,3.07,32.54.61,8,1.07,15.79c.15,1.76.24,3.49.33,5.26Q3129.68,2183.89,3128.54,2219.46Z"/><path class="cls-39" d="M1316.76,2586.44s-124.2-284.29,254.48-326C1901.84,2224,1316.76,2586.44,1316.76,2586.44Z"/><path class="cls-40" d="M1657.43,2012.92s92.72-483.05,289.52-542.68,0,372.72,0,372.72Z"/><path class="cls-41" d="M2488.67,1650.28s125.23,95.42,196.79,357.82c44,161.22-38.76,170-38.76,170s207,155.05,182.49,265.38-84,142.44-84,142.44L2271.34,2560l-15.25-319.37Z"/><path class="cls-42" d="M1905,1262.48s-56.65,280.29,83.49,325,149.09,11.92,149.09,11.92l182.67-49.81a54.76,54.76,0,0,0,28.33-18.62c28-35,80.88-135.91-2.27-343C2238.93,920.56,1905,1262.48,1905,1262.48Z"/><path class="cls-43" d="M2208.08,2798.86c-128.89,25.78-332.94-21.63-332.94-21.63l39.07-10.13,37.29-94.78c56.23,12.89,205-26.93,205-26.93l39.64,118Z"/><path class="cls-43" d="M2271.72,2807.05l-62.62-6s-223.63,6-265.37,20.87-110.33,26.84-89.46-8.94,104.36-77.53,104.36-77.53l167-56.65L2233,2750.39Z"/><path class="cls-44" d="M2223,2703.45c-128.88,25.77-332.93-21.64-332.93-21.64l44.73-65.6c40.19,5.4,155.57,42.08,250.47,17.89Z"/><path class="cls-43" d="M1976.11,2579.6s88.74-64.68,114.22-105h279.41v101.11l-318.07,103.68Z"/><path class="cls-45" d="M1919.87,1328.08S1905,1554.7,2036.16,1587.5s41.75-100.64,41.75-100.64Z"/><path class="cls-46" d="M2243.86,1304.56s48.73-48,90.48,5.63-28.33,231.09-76.78,263.14-75.72,14-75.72,14l-35.35-71.41Z"/><path class="cls-47" d="M2036.11,1502.8c1.57,1.11,9,72.77,9,72.77s-44.4,24.83-78.37,31.85c0,0,161.86,159,304.59-44.51,0,0-36.1,3.51-71.25-7l-23.43-96.07Z"/><path class="cls-48" d="M1752.89,1951.27,1660.46,1990s-56.66,92.43,0,143.12,229.59,14.91,229.59,14.91l-107.34-83.49Z"/><path class="cls-48" d="M2627.85,1942.69c-17.66-60-39-123.58-60.93-167.34-77.68-155.35-202.76-190.84-310.11-220.65,0,0-19.41,70.93-120,102.55-99.81,25.67-170-49.83-170-49.83-121.84,66.78-306.94,383.09-306.94,383.09l182.76,383.09,585,14.06V2169.75c84.35-63.26,244.47-60.39,244.47-60.39C2662.3,2047.54,2647,1992.2,2627.85,1942.69Z"/><path class="cls-49" d="M2329.35,1917.8c-.94-9.45,96.58,278.53,96.58,278.53l9.74,63.26-97.11,87.3L2293,2311.43S2374.16,2365,2329.35,1917.8Z"/><path class="cls-49" d="M1896,1832s-88.42,148.2-80.51,247.49l74.54,3S1854.27,2025.82,1896,1832Z"/><path class="cls-44" d="M2175.77,2608s-110.92,55.57-138.16,57.33,14.06,14.05,14.06,14.05l133.43-43.49Z"/><path class="cls-50" d="M2826.64,2549.34c-84.35,342.64-572.88,295.21-623.84,268.84-6.36-3.28-12.17-8.74-17.41-15.79-7.55-10.08-14-23.4-19.5-38.2-21.32-57.54-28.12-137.55-28.12-137.55,29.74-24.53,112-68.53,197-111.19-151.6-4.49-298.58-84.11-298.58-84.11s439.41-66.52,593.67-89.36c122-18.07,174.1,122.11,190.57,181.55l.07.22C2824.8,2539.35,2826.64,2549.34,2826.64,2549.34Z"/><path class="cls-51" d="M2826.64,2549.34c-84.35,342.64-572.88,295.21-623.84,268.84-6.36-3.28-12.17-8.74-17.41-15.79-7.55-10.08-14-23.4-19.5-38.2v-11.88s495.42,86.34,654.51-228.78l.07.22C2824.8,2539.35,2826.64,2549.34,2826.64,2549.34Z"/><path class="cls-52" d="M2334.74,2515.45s114.08-44.32,152.74-49.16c0,0-231,44.74-267.53,38.23C2220,2504.52,2323.63,2519.7,2334.74,2515.45Z"/><path class="cls-53" d="M2241.9,1408.59c-27,81.85-60.65,120.43-149.09,125.23-20.87,0-41.38-4.83-52.71-9.12-29.4-11.27-53.08-34.59-71.77-65.78q-3.18-5.33-6.18-10.91a308.19,308.19,0,0,1-14.88-32.27,630.19,630.19,0,0,1-23.1-71.29c-.24-.83-.45-1.67-.66-2.5-1.31-5-2.51-9.81-3.64-14.53-10.52-43.62-14.76-76.6-14.76-76.6l45.62-88.29,93.42-55,228,59.43S2276.82,1302.77,2241.9,1408.59Z"/><path class="cls-42" d="M1986.75,1165.43a108.68,108.68,0,0,0,18.34-4.54s35.14-25.14,49.09-4.66,51.46,145.21,189.68,148.33l.95,2.73,26.1,75.67s120.07-86.61,62.91-234.83-184.51-122.28-184.51-122.28-145.75-55.36-223.48,69.65C1869.9,1185.48,1960.79,1169.37,1986.75,1165.43Z"/><path class="cls-53" d="M1974.7,1359l-9.22,25.72s-10.08-9.8-3.64-19.53C1966.06,1358.8,1974.7,1359,1974.7,1359Z"/><path class="cls-54" d="M2051.06,1402.42c.24,0,.49,0,.74,0l9.59-.59a2.17,2.17,0,0,0,1.77-2.39c0-1.25-1-2.3-1.93-2.16l-9.6.59c-2.81.19-5.48-1.35-7.61-4.26a21.59,21.59,0,0,1-3.7-11.79l0-1.34c-.12-3.55,1.53-6.55,3.68-6.69,3.21-.2,6.14-2.24,8.24-5.74a22.42,22.42,0,0,0,2.88-12.22l-.79-19.16c-.05-1.26-1.05-2.24-1.94-2.14a2.15,2.15,0,0,0-1.75,2.39l.78,19.15a17.06,17.06,0,0,1-2.15,9.29c-1.43,2.38-3.36,3.76-5.43,3.89-4.2.26-7.43,5.4-7.21,11.45l.05,1.34a26.69,26.69,0,0,0,4.63,14.61C2044,1400.35,2047.41,1402.38,2051.06,1402.42Z"/><ellipse class="cls-55" cx="2185.18" cy="1367.02" rx="64.81" ry="59.05" transform="translate(368.31 3195.33) rotate(-77.21)"/><path class="cls-55" d="M1968.33,1458.92q-3.18-5.33-6.18-10.91a308.19,308.19,0,0,1-14.88-32.27,630.19,630.19,0,0,1-23.1-71.29c-.24-.83-.45-1.67-.66-2.5,25.46-2,51.29,14,62.65,40.94C1998.11,1411.3,1990,1442.7,1968.33,1458.92Z"/><path class="cls-42" d="M2113.9,1322.56c.89,8.4,7,14.64,13.65,13.94s11.33-8.07,10.45-16.47-7-14.63-13.65-13.93S2113,1314.17,2113.9,1322.56Z"/><path class="cls-42" d="M2132.36,1314.11a21.52,21.52,0,0,0,8.84-8.44s-1.68,7.59-3.88,10.93S2132.36,1314.11,2132.36,1314.11Z"/><path class="cls-42" d="M2007,1334.92c1.73,8.42-2,16.43-8.45,17.9s-13-4.15-14.72-12.57,2.05-16.43,8.45-17.9S2005.32,1326.51,2007,1334.92Z"/><path class="cls-42" d="M1987.31,1332.7a20.42,20.42,0,0,1-10.78-5.33s3.87,6.82,6.93,9.34S1987.31,1332.7,1987.31,1332.7Z"/><path class="cls-56" d="M2220.47,1264.23s57.85-102.56,16.14-182.81C2236.61,1081.42,2265.45,1177,2220.47,1264.23Z"/><path class="cls-56" d="M2146.65,1232s85-81.52,68.18-170.39C2214.83,1061.57,2214.88,1161.4,2146.65,1232Z"/><path class="cls-57" d="M1986.75,1165.43a108.68,108.68,0,0,0,18.34-4.54s35.14-25.14,49.09-4.66,51.46,145.21,189.68,148.33l.95,2.73c10.35-4.12,7.34-7.5-21-8.94-100.72-5.15-135.17-138.46-169-170.91s-62.73,7.83-62.73,7.83Z"/><path class="cls-58" d="M2158.43,1266.06c-4.51,1.56-10.52,2.12-16.34,2.82s-11.76,1.37-16.87,2.09-11,1.61-16.83,2.59-11.78,2-16.44,1.71c-4.5-.24-6.57-2.45-1.72-6.2,4.55-3.62,17-8.59,33.92-11s29.9-.87,34.94,1.42C2164.44,1261.86,2162.78,1264.58,2158.43,1266.06Z"/><path class="cls-58" d="M1947.21,1282.82c4.69.9,10.72.6,16.58.46s11.83-.32,17-.35,11.12,0,17,.16,11.94.3,16.52-.66c4.41-.88,6.15-3.37.81-6.38-5-2.93-18-6.07-35.14-6s-29.71,3.41-34.38,6.39C1940.66,1279.53,1942.69,1282,1947.21,1282.82Z"/><path class="cls-53" d="M2237.51,1319.06s14.56-43.14,55.36-29.86,40.2,79,9.43,110.53-60.4,2.9-60.4,2.9Z"/><path class="cls-54" d="M2285.16,1373a3.89,3.89,0,0,1-2.7-1l-21.89-21.39,21.49-26.38c-1.5.64,1.7-1.79,3.4-.29a4.31,4.31,0,0,1,.45,5.89l-16.31,20,18.07,15.8a4.3,4.3,0,0,1,.43,5.89A3.94,3.94,0,0,1,2285.16,1373Z"/><path class="cls-48" d="M2098.78,1674l-10-11.51s-68.63-7.17-100.29-69c0,0-47.71,14.91-113.31,62.62s-214.68,334-214.68,334l313.08-292.22Z"/><path class="cls-54" d="M2057,1456.3s44.73,8.94,71.57-23.86Z"/><path class="cls-42" d="M2215.07,1292.3s29.82,181.89,0,232.58c0,0,44.72-44.73,29.82-247.49"/><path class="cls-42" d="M2041.13,1154.07s-6.87,68.84-79.51,120.34,3,178.91,3,178.91-175.93-122.26-59.64-310.11c0,0,31.94-61.84,110.9-70.92S2041.13,1154.07,2041.13,1154.07Z"/><path class="cls-59" d="M2541.55,2355.14s-97.61,112.52-218,136.11l-48.84-24.13-3-56.65,193.82-44.73Z"/><path class="cls-50" d="M1905,2273.31s-384-6.78-509.88,74.54c-193.82,125.24-63,421,143.12,444.29,396.58,44.72,542.69-113.31,542.69-113.31s-43.19-77.42-46.94-120.71l54.83-47.42Z"/><path class="cls-60" d="M1571,2419.41s-23.85-17.89-80.51-17.89c0,0,32.8,14.91,50.69,65.6s26.84,95.42,119.28,140.15,533.74-65.6,602.32-92.44S1571,2419.41,1571,2419.41Z"/><path class="cls-43" d="M2432.74,2166s23.85,71.56,20.87,107.35,59.64,86.47,128.22,38.76,35.78-199.78,35.78-199.78S2495.36,2118.25,2432.74,2166Z"/><path class="cls-43" d="M2486.41,2207.71s-32.8-11.93-131.2,80.51C2284.46,2354.68,2223,2403.1,2223,2403.1s4.71,34.2,58,37.19,300.81-128.22,300.81-128.22S2578.85,2225.6,2486.41,2207.71Z"/><polygon class="cls-61" points="2359.94 2428.55 2232.96 2428.36 2235.94 2476.07 2359.94 2428.55"/><path class="cls-43" d="M2164.38,2380.65s41.74-35.78,104.36-11.93,44.73,59.64,20.87,68.58-95.41,11.93-95.41,11.93Z"/><path class="cls-62" d="M2692.25,775.28C2185,642.52,1976.11,892.63,1848.13,1006.15a363.43,363.43,0,0,0-80.59,87.87l-.19.29h0a363.22,363.22,0,0,0-44.49,97.28l-256.22,887.9,360.8,301.16,429.37,86.47L2704.08,2160l366.53-291.35a216.7,216.7,0,0,0,69.85-98.48h0S3419.21,965.54,2692.25,775.28Z"/><path class="cls-63" d="M1466,2080.5h650.3l131.2,434.16h-635a40.42,40.42,0,0,1-38.54-28.25l-130.46-375.19A23.6,23.6,0,0,1,1466,2080.5Z"/><polygon class="cls-64" points="2232.96 2473.09 2359.94 2428.55 2359.94 2471.6 2247.48 2514.66 2232.96 2473.09"/><path class="cls-65" d="M2232.57,2471.6H1567.94l5,14.52a42.43,42.43,0,0,0,40.08,28.54h634.43Z"/><path class="cls-64" d="M2116.28,2080.5l10.88-.52a13.42,13.42,0,0,1,13.46,9.44l116.19,374.72-23.85,9Z"/><path class="cls-2" d="M2345.36,2127.18,2605.92,1734c5.42-8.18,12.77-12.78,20.44-12.78h967.33c3.86,0,7-4.72,7-10.54h0c0-5.83-3.13-10.55-7-10.55H2620.57c-7.67,0-15,4.6-20.44,12.78l-264.65,399.41a14.6,14.6,0,0,0,0,14.91h0C2338.21,2131.3,2342.64,2131.3,2345.36,2127.18Z"/><polygon class="cls-66" points="1755.44 1919.82 1767.35 1907.92 1292.88 1349.63 543.97 1349.63 543.97 1366.47 1285.91 1366.47 1755.44 1919.82"/><path class="cls-67" d="M1523.26,1893.62Zm-22.86-87a44,44,0,1,0,12.88,31.1,43.83,43.83,0,0,0-12.88-31.1Zm-9.5-43.58a77.54,77.54,0,0,1,32.36,18.74,2.71,2.71,0,0,0,3.22.39l20.43-11.8.11-.07a5.1,5.1,0,0,1,6.81,1.92l.08.15,14.38,24.9a5.09,5.09,0,0,1-1.86,6.92l-.14.08-20.26,11.7a2.7,2.7,0,0,0-1.27,3h0a77.36,77.36,0,0,1,1.71,9.29,79,79,0,0,1,0,18.94,77.36,77.36,0,0,1-1.71,9.29,2.7,2.7,0,0,0,1.42,3.07l20.26,11.69h0a5.1,5.1,0,0,1,1.86,6.92l-14.46,25.05h0a5.11,5.11,0,0,1-6.92,1.85l-.15-.08-20.29-11.72a2.71,2.71,0,0,0-3.21.4,78.45,78.45,0,0,1-15.12,11.39,77.63,77.63,0,0,1-17.35,7.38,2.69,2.69,0,0,0-2,2.59v23.57a5.09,5.09,0,0,1-5.06,5.06h-28.93a5.07,5.07,0,0,1-5-5.06V1915a2.71,2.71,0,0,0-2.08-2.63,77.53,77.53,0,0,1-17.24-7.34,79.07,79.07,0,0,1-15.12-11.39,2.68,2.68,0,0,0-3.35-.31L1391.71,1905a5.13,5.13,0,0,1-6.93-1.86l-.08-.15-14.38-24.9h0a5,5,0,0,1-.49-3.83,5.07,5.07,0,0,1,2.34-3.08l20.41-11.78a2.7,2.7,0,0,0,1.28-3h0a75.94,75.94,0,0,1-1.71-9.3,79,79,0,0,1,0-18.94,75.43,75.43,0,0,1,1.71-9.29,2.72,2.72,0,0,0-1.43-3.07l-20.27-11.7a5.1,5.1,0,0,1-1.85-6.92l.08-.15,14.38-24.9h0a5.1,5.1,0,0,1,6.92-1.86h0l20.44,11.8a2.69,2.69,0,0,0,3.27-.45,77.7,77.7,0,0,1,32.41-18.71,2.71,2.71,0,0,0,2-2.6v-23.58a5.07,5.07,0,0,1,5-5h28.93a5.09,5.09,0,0,1,5.06,5v23.58A2.69,2.69,0,0,0,1490.9,1763Z"/><path class="cls-67" d="M2800.53,1016.27Zm-18.62-70.91a35.83,35.83,0,1,0,10.49,25.33,35.74,35.74,0,0,0-10.49-25.33Zm-7.74-35.51a63.19,63.19,0,0,1,26.36,15.27,2.21,2.21,0,0,0,2.62.32l16.65-9.61.09-.06a4.14,4.14,0,0,1,5.54,1.57l.07.11,11.71,20.29a4.16,4.16,0,0,1-1.51,5.64l-.11.06L2819.08,953a2.19,2.19,0,0,0-1,2.42h0a63.86,63.86,0,0,1,1.4,7.56,65,65,0,0,1,0,15.44A63.86,63.86,0,0,1,2818,986a2.2,2.2,0,0,0,1.17,2.5l16.5,9.53h0a4.12,4.12,0,0,1,1.91,2.51,4.06,4.06,0,0,1-.4,3.13l-11.77,20.41h0a4.15,4.15,0,0,1-5.63,1.51l-.12-.07-16.54-9.54a2.19,2.19,0,0,0-2.61.32,64,64,0,0,1-12.32,9.28,63.25,63.25,0,0,1-14.13,6,2.19,2.19,0,0,0-1.6,2.11v19.2a4.13,4.13,0,0,1-4.12,4.12H2744.8a4.13,4.13,0,0,1-4.12-4.12v-19.2a2.2,2.2,0,0,0-1.7-2.14,63.2,63.2,0,0,1-26.35-15.26,2.21,2.21,0,0,0-2.74-.26l-16.53,9.55a4.15,4.15,0,0,1-5.63-1.51l-.07-.12-11.72-20.29h0a4.12,4.12,0,0,1-.4-3.12,4.19,4.19,0,0,1,1.91-2.51l16.63-9.59a2.21,2.21,0,0,0,1-2.43h0a64.39,64.39,0,0,1-1.39-7.57,63.71,63.71,0,0,1,1.39-23,2.21,2.21,0,0,0-1.16-2.5l-16.51-9.53a4.16,4.16,0,0,1-1.51-5.64l.07-.12,11.71-20.28h0a4.14,4.14,0,0,1,5.63-1.52h0l16.65,9.61a2.21,2.21,0,0,0,2.67-.37,63.45,63.45,0,0,1,12.27-9.24,62.57,62.57,0,0,1,14.13-6,2.21,2.21,0,0,0,1.6-2.12v-19.2a4.13,4.13,0,0,1,4.12-4.12h23.56a4.13,4.13,0,0,1,4.12,4.12v19.2A2.2,2.2,0,0,0,2774.17,909.85Z"/><path class="cls-67" d="M1457.36,1286.39a7.54,7.54,0,1,1,15.08,0v17.73h17.74a7.55,7.55,0,0,1,0,15.09h-17.74v17.73a7.54,7.54,0,1,1-15.08,0v-17.73h-17.74a7.55,7.55,0,0,1,0-15.09h17.74Z"/><path class="cls-67" d="M2523.51,1452.92a7.55,7.55,0,0,1,15.09,0v17.74h17.73a7.54,7.54,0,0,1,0,15.08H2538.6v17.74a7.55,7.55,0,0,1-15.09,0v-17.74h-17.73a7.54,7.54,0,0,1,0-15.08h17.73Z"/><path class="cls-67" d="M1121,1420.62a7.54,7.54,0,1,1,15.08,0v17.73h17.74a7.55,7.55,0,0,1,0,15.09h-17.74v17.73a7.54,7.54,0,0,1-15.08,0v-17.73h-17.74a7.55,7.55,0,0,1,0-15.09H1121Z"/><path class="cls-67" d="M2707.85,1888.57a7.55,7.55,0,1,1,15.09,0v17.73h17.73a7.55,7.55,0,0,1,0,15.09h-17.73v17.73a7.55,7.55,0,0,1-15.09,0v-17.73h-17.73a7.55,7.55,0,1,1,0-15.09h17.73Z"/><path class="cls-67" d="M2855.63,1988.29a7.54,7.54,0,0,1,15.08,0V2006h17.73a7.54,7.54,0,0,1,0,15.08h-17.73v17.74a7.54,7.54,0,0,1-15.08,0v-17.74h-17.74a7.54,7.54,0,0,1,0-15.08h17.74Z"/><path class="cls-68" d="M3502.46,1189.88h-849.9a14.4,14.4,0,0,0-14.4,14.4v430.33a16.64,16.64,0,0,0,16.64,16.64h845.42a16.64,16.64,0,0,0,16.64-16.64V1204.28A14.4,14.4,0,0,0,3502.46,1189.88Z"/><rect class="cls-69" x="2628.49" y="1173.76" width="878.69" height="461.37" rx="16.64"/><path class="cls-2" d="M2641.17,1173.76H3494.5a12.68,12.68,0,0,1,12.68,12.68v58.38a0,0,0,0,1,0,0H2628.49a0,0,0,0,1,0,0v-58.38A12.68,12.68,0,0,1,2641.17,1173.76Z"/><path class="cls-70" d="M3386.82,1209.29a10.15,10.15,0,1,0-10.15,10.15A10.15,10.15,0,0,0,3386.82,1209.29Z"/><path class="cls-71" d="M3425.23,1209.29a10.15,10.15,0,1,0-10.14,10.15A10.14,10.14,0,0,0,3425.23,1209.29Z"/><path class="cls-72" d="M3463.64,1209.29a10.14,10.14,0,1,0-10.14,10.15A10.14,10.14,0,0,0,3463.64,1209.29Z"/><rect class="cls-70" x="2688.86" y="1296.35" width="48.81" height="17.87"/><rect class="cls-72" x="2764.64" y="1296.35" width="88.06" height="17.87"/><rect class="cls-2" x="2722.39" y="1334.32" width="182.91" height="17.87"/><rect class="cls-73" x="2932.27" y="1334.32" width="48.81" height="17.87"/><rect class="cls-2" x="2722.39" y="1372.29" width="182.91" height="17.87"/><rect class="cls-73" x="2932.27" y="1372.29" width="48.81" height="17.87"/><rect class="cls-2" x="2722.39" y="1410.26" width="182.91" height="17.87"/><rect class="cls-73" x="2932.27" y="1410.26" width="48.81" height="17.87"/><rect class="cls-70" x="2688.86" y="1448.24" width="48.81" height="17.87"/><rect class="cls-72" x="2764.64" y="1448.24" width="88.06" height="17.87"/><rect class="cls-73" x="2722.39" y="1486.21" width="91.46" height="17.87"/><rect class="cls-2" x="2840.81" y="1486.21" width="140.27" height="17.87"/><rect class="cls-73" x="2722.39" y="1524.18" width="91.46" height="17.87"/><rect class="cls-2" x="2840.81" y="1524.18" width="140.27" height="17.87"/><rect class="cls-73" x="2722.39" y="1562.15" width="91.46" height="17.87"/><rect class="cls-2" x="2840.81" y="1562.15" width="140.27" height="17.87"/><rect class="cls-72" x="3148.3" y="1296.35" width="48.81" height="17.87"/><rect class="cls-71" x="3224.08" y="1296.35" width="88.06" height="17.87"/><rect class="cls-2" x="3181.83" y="1334.32" width="42.25" height="17.87"/><rect class="cls-73" x="3251.05" y="1334.32" width="189.47" height="17.87"/><rect class="cls-2" x="3181.83" y="1372.29" width="42.25" height="17.87"/><rect class="cls-70" x="3251.05" y="1372.29" width="189.47" height="17.87"/><rect class="cls-2" x="3181.83" y="1410.26" width="42.25" height="17.87"/><rect class="cls-73" x="3251.05" y="1410.26" width="189.47" height="17.87"/><rect class="cls-72" x="3148.3" y="1448.24" width="48.81" height="17.87"/><rect class="cls-71" x="3224.08" y="1448.24" width="88.06" height="17.87"/><rect class="cls-73" x="3181.83" y="1486.21" width="150.47" height="17.87"/><rect class="cls-2" x="3359.27" y="1486.21" width="81.25" height="17.87"/><rect class="cls-71" x="3181.83" y="1524.18" width="150.47" height="17.87"/><rect class="cls-2" x="3359.27" y="1524.18" width="81.25" height="17.87"/><rect class="cls-73" x="3181.83" y="1562.15" width="150.47" height="17.87"/><rect class="cls-2" x="3359.27" y="1562.15" width="81.25" height="17.87"/><line class="cls-74" x1="3064.69" y1="1286.3" x2="3064.69" y2="1608.9"/><path class="cls-21" d="M1645.1,1003.68H1519.25a68.94,68.94,0,0,0-69,68.85v89.09a68.84,68.84,0,0,0,46.51,65l2.21,47.74,62-43.92h84.14a68.94,68.94,0,0,0,69-68.85v-89.09A68.94,68.94,0,0,0,1645.1,1003.68Z"/><path class="cls-2" d="M1727.36,952.1H1584.82a78.16,78.16,0,0,0-78.16,78.16v101.16a78.16,78.16,0,0,0,78.16,78.16h95.3l70.23,49.87,2.5-54.21a78.13,78.13,0,0,0,52.67-73.82V1030.26A78.16,78.16,0,0,0,1727.36,952.1Z"/><path class="cls-71" d="M1605,1099.9a6.57,6.57,0,0,1,1.21,4,8.25,8.25,0,0,1-2.35,6.11,8.09,8.09,0,0,1-6,2.35,12.5,12.5,0,0,1-4.16-.81L1549,1094.2a12.69,12.69,0,0,1-6.1-4.7,13.51,13.51,0,0,1,0-14.84,13.31,13.31,0,0,1,6.1-4.9l44.71-17.31a12.5,12.5,0,0,1,4.16-.81,8.12,8.12,0,0,1,6,2.35,8.25,8.25,0,0,1,2.35,6.11,6.81,6.81,0,0,1-4.56,6.58l-39.87,15.3,39.87,15.3A7.92,7.92,0,0,1,1605,1099.9Z"/><path class="cls-71" d="M1640.88,1129.77a9.21,9.21,0,0,1-5.3,1.61A9.8,9.8,0,0,1,1629,1129a7.77,7.77,0,0,1-2.82-6.17,9,9,0,0,1,.54-3.09l30.47-95.71a9,9,0,0,1,3.42-4.83,8.92,8.92,0,0,1,5.17-1.62,10,10,0,0,1,6.64,2.42,7.83,7.83,0,0,1,2.89,6.31,14.65,14.65,0,0,1-.54,3l-30.47,95.72A9.18,9.18,0,0,1,1640.88,1129.77Z"/><path class="cls-71" d="M1758.74,1074.66a12.91,12.91,0,0,1-6.11,19.54l-44.7,17.31a11.76,11.76,0,0,1-4.16.81,8.05,8.05,0,0,1-6-2.35,8.25,8.25,0,0,1-2.35-6.11,6.63,6.63,0,0,1,1.2-4,8,8,0,0,1,3.36-2.62l39.87-15.3-39.87-15.3a6.77,6.77,0,0,1-4.56-6.58,8.25,8.25,0,0,1,2.35-6.11,8.09,8.09,0,0,1,6-2.35,12.55,12.55,0,0,1,4.16.81l44.7,17.31A13.34,13.34,0,0,1,1758.74,1074.66Z"/><rect class="cls-75" x="631.81" y="554.17" width="524.97" height="742.15" rx="50.32"/><rect class="cls-76" x="615.69" y="541.28" width="524.97" height="742.15" rx="44.32" transform="translate(1756.36 1824.71) rotate(180)"/><rect class="cls-2" x="644.71" y="575.59" width="466.94" height="609.06" transform="translate(1756.36 1760.24) rotate(180)"/><rect class="cls-77" x="676.09" y="619.38" width="406.4" height="81.08" transform="translate(1758.57 1319.85) rotate(180)"/><rect class="cls-77" x="915.21" y="731.9" width="167.27" height="397.41" transform="translate(1997.69 1861.21) rotate(180)"/><rect class="cls-77" x="676.09" y="731.9" width="208.05" height="46.03" transform="translate(1560.23 1509.82) rotate(180)"/><rect class="cls-77" x="676.09" y="811.46" width="208.05" height="46.03" transform="translate(1560.23 1668.95) rotate(180)"/><rect class="cls-77" x="676.09" y="891.03" width="208.05" height="46.03" transform="translate(1560.23 1828.08) rotate(180)"/><rect class="cls-77" x="676.09" y="970.59" width="208.05" height="158.72" transform="translate(1560.23 2099.9) rotate(180)"/><ellipse class="cls-34" cx="1132.66" cy="2805.93" rx="159.59" ry="22.57"/><path class="cls-2" d="M1269,2648a66.73,66.73,0,0,0-7.48,1l-7.64-1.16-.58-.1V2768s55.29,11.8,66.7-61.06C1329.1,2649,1286.71,2646.57,1269,2648Zm-7.19,26.76a29.67,29.67,0,0,0,7.35.22c8.67-.87,32.24-.48,27.37,30.63-5.93,37.92-34.72,31.76-34.72,31.76Z"/><path class="cls-78" d="M1269,2648a76.43,76.43,0,0,0-15.12-.16c-.2,0-.39,0-.58,0a71.64,71.64,0,0,0-7.9,1.13l-8.22-1.26V2768a54.26,54.26,0,0,0,16.12,0c17.63-2.49,50.84-7.93,58.29-55.55C1318.53,2668.17,1288.54,2650.21,1269,2648Zm27.53,57.61c-5.93,37.92-34.72,31.76-34.72,31.76v-2.1a28.28,28.28,0,0,1-16.12,2.1v-62.61a29.67,29.67,0,0,0,7.35.22,40.35,40.35,0,0,1,8.77.07v-.29a29.67,29.67,0,0,0,7.35.22C1277.84,2674.1,1301.41,2674.49,1296.54,2705.6Z"/><path class="cls-79" d="M1261.53,2599.43c0,6.29-36.18,11.71-87,13.8-14.7.61-30.63.94-47.27.94-74.15,0-134.28-6.61-134.28-14.74s60.13-14.76,134.28-14.76S1261.53,2591.28,1261.53,2599.43Z"/><path class="cls-80" d="M1079.46,2615.71s-103.17-25.79-83.82-90.27,90.27-64.48,67.7-193.44-6.44-145.09,93.5-212.79c0,0-80.6,112.84,0,199.89s-16.16,166.84-29,199.89c-22.57,58,33.85,94.58,33.85,94.58Z"/><path class="cls-81" d="M1190.61,2615.71s40.6-13.56,33-47.48-80.19-56.52-28.07-100.82c64.48-54.81.64-112.7-38.69-148.31,0,0,38.69,67.71-22.57,148.31-33.7,44.34,32.25,80.05,37.31,97.43,8.88,30.53-13.33,49.74-13.33,49.74Z"/><path class="cls-82" d="M1261.53,2599.43v134.48a74.65,74.65,0,0,1-74.64,74.67H1066.57a74.65,74.65,0,0,1-74.64-74.67V2599.43h1c0,8.13,60.13,14.74,134.28,14.74,16.64,0,32.57-.33,47.27-.94C1225.35,2611.14,1261.53,2605.72,1261.53,2599.43Z"/><path class="cls-83" d="M1174.48,2613.23v120.68a74.65,74.65,0,0,1-74.64,74.67h-33.27a74.65,74.65,0,0,1-74.64-74.67V2599.43h1c0,8.13,60.13,14.74,134.28,14.74C1143.85,2614.17,1159.78,2613.84,1174.48,2613.23Z"/></g></g></svg>