<svg xmlns="http://www.w3.org/2000/svg" xmlns:xlink="http://www.w3.org/1999/xlink" viewBox="0 0 4680 3120"><defs><style>.cls-1{isolation:isolate;}.cls-14,.cls-2{fill:#fff;}.cls-3{opacity:0.8;}.cls-4{fill:url(#linear-gradient);}.cls-5{fill:#0e2d34;}.cls-12,.cls-13,.cls-14,.cls-24,.cls-25,.cls-26,.cls-29,.cls-30,.cls-32,.cls-33,.cls-34,.cls-35,.cls-5,.cls-54,.cls-55,.cls-56,.cls-6,.cls-66,.cls-7,.cls-72,.cls-73,.cls-75,.cls-78,.cls-8,.cls-81{fill-rule:evenodd;}.cls-6{fill:url(#linear-gradient-2);}.cls-7{fill:url(#linear-gradient-3);}.cls-8{fill:#5f9850;}.cls-9{fill:#9cc7ff;}.cls-10{fill:#d7d7e6;}.cls-11{fill:url(#linear-gradient-4);}.cls-12,.cls-54{fill:#c9c9c9;}.cls-12,.cls-74,.cls-82{opacity:0.55;}.cls-12,.cls-43,.cls-44,.cls-46,.cls-47,.cls-54,.cls-63,.cls-74{mix-blend-mode:multiply;}.cls-13,.cls-21{fill:#9570ee;}.cls-15{fill:#baa3d4;}.cls-16{fill:#683ba4;}.cls-17{fill:url(#linear-gradient-5);}.cls-18{fill:#0f48e8;}.cls-19{fill:#e1ebff;}.cls-20{fill:#6db8ff;}.cls-22{fill:#f9fbfc;}.cls-23{fill:#cdd4ff;}.cls-24{fill:#1b7154;}.cls-25{fill:url(#linear-gradient-6);}.cls-26{fill:url(#linear-gradient-7);}.cls-27,.cls-36,.cls-43,.cls-44,.cls-57{opacity:0.6;}.cls-27{fill:url(#linear-gradient-8);}.cls-28{fill:#b83470;}.cls-29{fill:#00000f;}.cls-30{fill:#171e44;}.cls-31,.cls-35{fill:#e94d90;}.cls-32{fill:url(#linear-gradient-9);}.cls-33{fill:#f44271;}.cls-34{fill:#c7c3d1;}.cls-36{fill:url(#linear-gradient-10);}.cls-37{fill:#352d29;}.cls-38{fill:#ffba94;}.cls-39{fill:#f9a880;}.cls-40{fill:#fca286;}.cls-41{fill:#ff806d;}.cls-42{fill:#443a36;}.cls-43{fill:url(#linear-gradient-11);}.cls-44{fill:url(#linear-gradient-12);}.cls-45{fill:#ff9b57;}.cls-46,.cls-47,.cls-54,.cls-63{opacity:0.5;}.cls-46{fill:url(#linear-gradient-13);}.cls-47{fill:url(#linear-gradient-14);}.cls-48{fill:#fbbd9d;}.cls-49{fill:#213b4f;}.cls-50{fill:#1b2228;}.cls-51{fill:#f44545;}.cls-52{fill:url(#linear-gradient-15);}.cls-53{fill:#db2e2e;}.cls-55{fill:#004c84;}.cls-56{fill:#3888fc;}.cls-57{fill:url(#linear-gradient-16);}.cls-58{fill:#3b2c7c;}.cls-59{fill:#4d388a;}.cls-60{fill:#b879ef;}.cls-61{fill:#654eac;}.cls-62{opacity:0.9;mix-blend-mode:screen;fill:url(#linear-gradient-17);}.cls-63{fill:url(#linear-gradient-18);}.cls-64{fill:#15304f;}.cls-65{fill:#10283f;}.cls-66{fill:#3a72ef;}.cls-67{fill:#703127;}.cls-68{fill:#0a1d2d;}.cls-69,.cls-70,.cls-76{fill:none;}.cls-69,.cls-70{stroke:#15304f;stroke-miterlimit:10;}.cls-69{stroke-width:1.85px;}.cls-70{stroke-width:1.56px;}.cls-71{fill:#4e1413;}.cls-72{fill:#14245b;}.cls-73{fill:#253984;}.cls-74{fill:url(#linear-gradient-19);}.cls-75{fill:#1b2a6b;}.cls-77,.cls-78{fill:#3c4d88;}.cls-79{fill:url(#linear-gradient-20);}.cls-80,.cls-81{fill:#38457e;}.cls-82{fill:url(#linear-gradient-21);}.cls-83{fill:#3d2e7c;}.cls-84{fill:#554596;}.cls-85{fill:#5c50a5;}</style><linearGradient id="linear-gradient" x1="2035.8" y1="581.29" x2="2144.94" y2="2431.95" gradientUnits="userSpaceOnUse"><stop offset="0" stop-color="#87b1f5"/><stop offset="1" stop-color="#fff"/></linearGradient><linearGradient id="linear-gradient-2" x1="3430.45" y1="2173.95" x2="3949.24" y2="2173.95" gradientUnits="userSpaceOnUse"><stop offset="0" stop-color="#00b488"/><stop offset="0.92" stop-color="#007bc0"/></linearGradient><linearGradient id="linear-gradient-3" x1="3349.02" y1="2044.39" x2="3703.31" y2="2044.39" gradientUnits="userSpaceOnUse"><stop offset="0" stop-color="#8ccc6d"/><stop offset="0.19" stop-color="#81c768"/><stop offset="0.54" stop-color="#62b85b"/><stop offset="0.92" stop-color="#39a54a"/></linearGradient><linearGradient id="linear-gradient-4" x1="-2466.73" y1="-1039.06" x2="-3544.31" y2="-320.67" gradientTransform="translate(4112.94 3705.51) rotate(45)" gradientUnits="userSpaceOnUse"><stop offset="0" stop-color="#40d5e6"/><stop offset="1" stop-color="#4b69e0"/></linearGradient><linearGradient id="linear-gradient-5" x1="2525.62" y1="2779.12" x2="2525.62" y2="2445.66" gradientUnits="userSpaceOnUse"><stop offset="0" stop-color="#fff"/><stop offset="1" stop-color="#94a3f5"/></linearGradient><linearGradient id="linear-gradient-6" x1="1252.93" y1="1249.85" x2="1480.16" y2="1916.39" xlink:href="#linear-gradient-3"/><linearGradient id="linear-gradient-7" x1="1456.47" y1="1269.8" x2="1615.53" y2="1853.02" xlink:href="#linear-gradient-2"/><linearGradient id="linear-gradient-8" x1="2222.63" y1="2769.7" x2="2222.63" y2="2695.25" gradientUnits="userSpaceOnUse"><stop offset="0" stop-color="#fff"/><stop offset="1" stop-color="#94a3f5"/></linearGradient><linearGradient id="linear-gradient-9" x1="2129.9" y1="1201.51" x2="2195.54" y2="2196.32" gradientUnits="userSpaceOnUse"><stop offset="0" stop-color="#c91451"/><stop offset="1" stop-color="#e31c3b"/></linearGradient><linearGradient id="linear-gradient-10" x1="3272.99" y1="2883.49" x2="3272.99" y2="2765.62" xlink:href="#linear-gradient-5"/><linearGradient id="linear-gradient-11" x1="-2604.44" y1="-636.78" x2="-2619.88" y2="-546.33" gradientTransform="matrix(-0.77, -0.64, -0.64, 0.77, 795.83, 260.09)" gradientUnits="userSpaceOnUse"><stop offset="0" stop-color="#fff" stop-opacity="0.5"/><stop offset="1"/></linearGradient><linearGradient id="linear-gradient-12" x1="-2554.88" y1="-661.3" x2="-2569.68" y2="-574.6" xlink:href="#linear-gradient-11"/><linearGradient id="linear-gradient-13" x1="3373.93" y1="1525.58" x2="3307.66" y2="1722.89" gradientUnits="userSpaceOnUse"><stop offset="0" stop-color="#ffcf3d"/><stop offset="1" stop-color="#f15a24"/></linearGradient><linearGradient id="linear-gradient-14" x1="3126.65" y1="1681.69" x2="3100.05" y2="1760.91" xlink:href="#linear-gradient-13"/><linearGradient id="linear-gradient-15" x1="3489.13" y1="2432.36" x2="3161.97" y2="1604.24" gradientUnits="userSpaceOnUse"><stop offset="0" stop-color="#f45b5b"/><stop offset="1" stop-color="#f42432"/></linearGradient><linearGradient id="linear-gradient-16" x1="1224.03" y1="2777.27" x2="1224.03" y2="2702.82" xlink:href="#linear-gradient-5"/><linearGradient id="linear-gradient-17" x1="1421.81" y1="2265.26" x2="1206.35" y2="1743.44" gradientUnits="userSpaceOnUse"><stop offset="0" stop-color="#172652" stop-opacity="0.5"/><stop offset="1" stop-color="#00579f"/></linearGradient><linearGradient id="linear-gradient-18" x1="3179.39" y1="1832.82" x2="2928.79" y2="1792.42" xlink:href="#linear-gradient-13"/><linearGradient id="linear-gradient-19" x1="2521.96" y1="1161.81" x2="2444.53" y2="963.19" gradientUnits="userSpaceOnUse"><stop offset="0" stop-color="#172652" stop-opacity="0"/><stop offset="1" stop-color="#17263f"/></linearGradient><linearGradient id="linear-gradient-20" x1="2342.79" y1="834.97" x2="2278.82" y2="995.72" gradientUnits="userSpaceOnUse"><stop offset="0" stop-color="#172652" stop-opacity="0"/><stop offset="1" stop-color="#172652"/></linearGradient><linearGradient id="linear-gradient-21" x1="2326.74" y1="1042.39" x2="2137.72" y2="920.67" gradientUnits="userSpaceOnUse"><stop offset="0" stop-color="#172652" stop-opacity="0"/><stop offset="1" stop-color="#00579f"/></linearGradient></defs><title>03</title><g class="cls-1"><g id="_03" data-name="03"><rect class="cls-2" width="4680" height="3120"/><g class="cls-3"><path class="cls-2" d="M738.24,1211.77c133.69-212.1,372.81-353.91,646.55-354,74.1,0,145.4,11.39,213.52,30,162.3-253,449.78-422.07,778.7-422.19,446.88-.17,819.74,311.57,902.45,724.52,13.35-.87,26.47-2.41,40.21-2.41,379.38-.15,687.21,300.43,687.35,670.66.14,370.69-307.46,671.41-686.84,671.55l-2406.76.91c-379.68.15-687.55-300.33-687.69-671C225.61,1548.34,443,1287,738.24,1211.77Z"/><path class="cls-4" d="M4001.83,1858.76c.15,370.7-307.46,671.42-686.83,671.54l-2406.76.94c-379.69.12-687.55-300.36-687.7-671-.13-311.42,217.29-572.77,512.5-648,133.7-212.11,372.83-353.91,646.58-354,74.08,0,145.38,11.39,213.5,30C1730.91,673.37,1959,519.09,2226,477.31A945.73,945.73,0,0,1,2371.83,466c6.71,0,13.43.07,20.1.2,437.92,9,800.87,317.58,882.35,724.32,13.35-.86,26.46-2.43,40.19-2.43C3693.87,1188,4001.7,1488.53,4001.83,1858.76Z"/></g><path class="cls-5" d="M3642.69,2537.23c91.14-49.72,214-136.53,313.49-277.92,141-200.34-238.82-15.39-523.07,206.29l163.53,66.92Z"/><path class="cls-6" d="M3908,2094.1c-12.46,27.84-33.12,66.38-59,112.36-41,72.69-95,164-150.37,260.71q-16.14,28.13-32.28,56.74-9.22,16.31-18.35,32.68l-12.11,11.54H3430.45c5.82-31.73,12.26-63.72,19.27-95.71.4-1.76.77-3.49,1.18-5.25,1.35-6.15,2.74-12.32,4.15-18.47q1.95-8.61,4-17.19c23.86-101.45,53.45-201.57,87.46-291.6q6-15.87,12.18-31.32c26.91-67.27,56.3-128,87.63-178.21a518.84,518.84,0,0,1,42.32-58.91C3854.28,1673.3,4031.36,1818.71,3908,2094.1Z"/><path class="cls-5" d="M3850.56,1882.69c-.49.78-72.61,110.37-151.79,270.87-27.35,55.35-55.5,116.79-81.87,181.9-17.22,42.54-33.69,86.68-48.6,131.71-3.52,10.61-7,21.28-10.3,32q-2.46,7.78-4.79,15.6-8,26.56-15.26,53.37h-12.8q7.7-29.18,16.47-58.1,2.51-8.31,5.1-16.61c2.74-8.77,5.57-17.54,8.43-26.25.89-2.72,1.81-5.46,2.71-8.2,12.69-38,26.42-75.34,40.76-111.63,32.25-81.57,67.61-157.76,101.1-224.16,74.74-148.27,140.08-247.58,140.57-248.3a5.9,5.9,0,0,1,8.65-1.47A7,7,0,0,1,3850.56,1882.69Z"/><path class="cls-7" d="M3349.87,1847.64c4.83,97.59,42.66,315.87,74.75,544.64,60.73,73,144.55,122,235.54,140.85,43.31-246.92,58.83-516.33,24.07-708.34C3616.16,1449,3331.44,1476.11,3349.87,1847.64Z"/><path class="cls-8" d="M3554.62,2497.51c37.76-401.5-50.22-831-50.58-832.8a7.48,7.48,0,0,0-8.31-6.12,6.9,6.9,0,0,0-5.38,8.41c.35,1.78,87.29,426.33,51,823.54Q3547.91,2494.14,3554.62,2497.51Z"/><rect class="cls-9" x="2558.83" y="1525.34" width="712.21" height="1006.85" rx="39.41" transform="translate(5829.87 4057.54) rotate(180)"/><rect class="cls-2" x="2598.19" y="1571.89" width="633.48" height="826.29" transform="translate(5829.87 3970.07) rotate(180)"/><rect class="cls-10" x="2640.77" y="1631.31" width="551.34" height="109.99" transform="translate(5832.87 3372.61) rotate(180)"/><rect class="cls-10" x="2965.17" y="1783.95" width="226.93" height="539.16" transform="translate(6157.28 4107.05) rotate(180)"/><rect class="cls-10" x="2640.77" y="1783.95" width="282.26" height="62.44" transform="translate(5563.79 3630.34) rotate(180)"/><rect class="cls-10" x="2640.77" y="1891.89" width="282.26" height="62.44" transform="translate(5563.79 3846.23) rotate(180)"/><rect class="cls-10" x="2640.77" y="1999.84" width="282.26" height="62.44" transform="translate(5563.79 4062.11) rotate(180)"/><rect class="cls-10" x="2640.77" y="2107.78" width="282.26" height="215.33" transform="translate(5563.79 4430.88) rotate(180)"/><path class="cls-11" d="M2962.78,742.23,2715.73,593.37a13.67,13.67,0,0,0-20.22,8L2622.05,864a13.67,13.67,0,0,0,17.74,16.56l89.46-31.74c86.79,244.62-41.61,514.24-286.22,601s-514.24-41.6-601-286.22c-81.13-228.64,25.75-479.13,239.81-581.75a56.33,56.33,0,0,0,28.54-69.65l-13.41-37.78c-11.12-31.34-46.87-46.51-77-32.36-286.43,134.61-430,468.24-322,772.64,115,324,472.12,494.1,796.14,379.13s494.09-472.11,379.13-796.14l87-30.88A13.67,13.67,0,0,0,2962.78,742.23Z"/><path class="cls-12" d="M590.93,1517.46H1724.26a37.26,37.26,0,0,1,37.26,37.26v697.13a72.8,72.8,0,0,1-72.8,72.8H626.47a72.8,72.8,0,0,1-72.8-72.8V1554.72A37.26,37.26,0,0,1,590.93,1517.46Z"/><path class="cls-13" d="M1749.09,1492.63H615.76a37.26,37.26,0,0,0-37.26,37.26v67.95H1786.35v-67.95A37.26,37.26,0,0,0,1749.09,1492.63Z"/><path class="cls-14" d="M1786.35,1597.84H578.5V2227a72.79,72.79,0,0,0,72.8,72.79H1713.55a72.8,72.8,0,0,0,72.8-72.79Z"/><rect class="cls-15" x="919.54" y="1902.49" width="43.62" height="271.75"/><rect class="cls-16" x="830.87" y="1983.3" width="43.27" height="190.94"/><rect class="cls-15" x="741.84" y="1823.83" width="43.62" height="350.41"/><rect class="cls-16" x="653.16" y="1684.02" width="43.27" height="490.22"/><rect class="cls-16" x="1217.04" y="1883.19" width="62.57" height="291.06"/><rect class="cls-15" x="1180.21" y="1778.78" width="19.67" height="395.46"/><path class="cls-14" d="M836.68,1530.32a30,30,0,1,0-52,30,30,30,0,0,0,52-30Z"/><path class="cls-14" d="M679.47,1530.32a30,30,0,1,0-52,30,30.18,30.18,0,0,0,41.11,10.89,29.78,29.78,0,0,0,10.88-40.92Z"/><path class="cls-14" d="M758.08,1530.32a30,30,0,1,0-10.89,40.92,29.84,29.84,0,0,0,10.89-40.92Z"/><polygon class="cls-17" points="601.65 2568.13 904.63 2809.25 4449.59 2809.25 3868.87 2537.83 601.65 2568.13"/><rect class="cls-18" x="571.35" y="2479.75" width="3297.52" height="88.37" rx="30.3"/><rect class="cls-19" x="946.46" y="1126.27" width="487.2" height="710.58" rx="10.49"/><rect class="cls-20" x="1029.98" y="1192.39" width="315.52" height="69.6" rx="9.84"/><path class="cls-20" d="M1135.55,1648.84h-62.66a26.67,26.67,0,0,1-26.67-26.67h0a26.68,26.68,0,0,1,26.67-26.68h62.66a26.68,26.68,0,0,1,26.67,26.68h0A26.67,26.67,0,0,1,1135.55,1648.84Z"/><path class="cls-21" d="M1316.51,1648.84h-62.66a26.67,26.67,0,0,1-26.67-26.67h0a26.68,26.68,0,0,1,26.67-26.68h62.66a26.68,26.68,0,0,1,26.67,26.68h0A26.67,26.67,0,0,1,1316.51,1648.84Z"/><rect class="cls-22" x="1023.02" y="1331.59" width="338.72" height="53.36" rx="7.22"/><rect class="cls-22" x="1023.02" y="1422.07" width="338.72" height="53.36" rx="7.22"/><rect class="cls-23" x="1096.1" y="1509.07" width="194.88" height="12.18" rx="6.09"/><path class="cls-5" d="M1405.51,1970.26c-66.86-10.87-161.29-37.7-253.15-103.18-130.16-92.78,143.67-61.19,366.63,13.7l-86.16,76.6Z"/><path class="cls-24" d="M1180.12,1792.79c44.07,42.08,159.29,126,271.05,215.38l122.52,48,24.1-75c-85.65-138.11-200-279.6-299.91-351.8C1122.7,1502.72,1025.47,1645.1,1180.12,1792.79Z"/><path class="cls-5" d="M1574.88,2052.47C1434.16,1827,1168,1644.33,1167,1643.66a3.84,3.84,0,0,0-5.58,1.25,4.58,4.58,0,0,0,1.3,6c1,.66,262.9,180.45,403,402.13l8,3.13Z"/><path class="cls-25" d="M1458.35,1505.65c21.12,60.16,52.05,201.36,89,347.5a271.7,271.7,0,0,1-107.6,143.13c-87-138.52-162.77-297.47-189.07-422C1199.22,1330.38,1377.94,1276.64,1458.35,1505.65Z"/><path class="cls-8" d="M1493,1949.47c-121.74-233.28-174.4-514.47-174.63-515.64a4.89,4.89,0,0,1,3.51-5.75,4.51,4.51,0,0,1,5.32,3.76c.23,1.16,52.3,279.1,172.12,510.13Q1496.24,1945.78,1493,1949.47Z"/><path class="cls-26" d="M1446.71,1507.65c.29,60.93,19.87,202.14,33.11,344.62l50.47,121.52,70.73-34.7c40-157.52,62.4-338.08,45.06-460.08C1615.66,1265,1445.68,1293.82,1446.71,1507.65Z"/><path class="cls-5" d="M1533.79,1972.07c64.62-257.78,11.36-576.21,11.17-577.38a3.85,3.85,0,0,0-4.78-3.15,4.59,4.59,0,0,0-3.42,5.11c.19,1.16,52.59,314.5-9.76,569.22l3.29,7.92Z"/><ellipse class="cls-27" cx="2222.63" cy="2613.57" rx="648.9" ry="30.3"/><rect class="cls-28" x="1989.91" y="1050.66" width="387.37" height="220.64" rx="29.47"/><path class="cls-29" d="M2400.87,1100.82H1966.34a39.11,39.11,0,0,0-39,39v213.93a39.11,39.11,0,0,0,39,39h434.53a39.11,39.11,0,0,0,39-39V1139.81A39.11,39.11,0,0,0,2400.87,1100.82Z"/><path class="cls-29" d="M2682.18,2297.45h-176.8c-11.64,0-18.57,9.52-15.42,21.16l75.23,277.44c3.16,11.64,15.27,21.17,26.91,21.17h35.66a18.08,18.08,0,0,0,4.14-.46,26.78,26.78,0,0,0,4.94.46h45.34a27,27,0,0,0,26.92-26.92V2324.36A27,27,0,0,0,2682.18,2297.45Z"/><path class="cls-29" d="M1719.07,2224h45.34l131.45,73.43c10.17,5.67,18.58,9.52,15.43,21.16l-75.24,277.44c-3.15,11.64-15.26,21.17-26.91,21.17h-35.66a18.06,18.06,0,0,1-4.13-.46,26.78,26.78,0,0,1-4.94.46h-45.34a27,27,0,0,1-26.91-26.92V2250.94A27,27,0,0,1,1719.07,2224Z"/><path class="cls-30" d="M2739.65,2297.45H2562.84c-11.63,0-18.57,9.52-15.42,21.16l75.23,277.44c3.16,11.64,15.27,21.17,26.91,21.17h35.66a18.08,18.08,0,0,0,4.14-.46,26.8,26.8,0,0,0,4.95.46h45.34a27,27,0,0,0,26.9-26.92V2324.36A27,27,0,0,0,2739.65,2297.45Z"/><path class="cls-30" d="M1776.53,2297.45h176.79c11.65,0,18.59,9.52,15.43,21.16l-75.24,277.44c-3.15,11.64-15.26,21.17-26.91,21.17h-35.66a18.06,18.06,0,0,1-4.13-.46,26.78,26.78,0,0,1-4.94.46h-45.34a27,27,0,0,1-26.91-26.92V2324.36A27,27,0,0,1,1776.53,2297.45Z"/><rect class="cls-31" x="2064.4" y="1050.66" width="387.37" height="220.64" rx="29.47"/><path class="cls-30" d="M2475.35,1100.82H2040.82a39.12,39.12,0,0,0-39,39v213.93a39.12,39.12,0,0,0,39,39h434.53a39.11,39.11,0,0,0,39-39V1139.81A39.11,39.11,0,0,0,2475.35,1100.82Z"/><path class="cls-32" d="M2173,1154.31h0c-386.43,0-699.7,313.26-699.7,699.7s313.27,699.7,699.7,699.7c14,0,27.94-.45,41.75-1.27h43.39v-3.89c346.27-42,614.57-336.92,614.57-694.54s-268.3-652.54-614.57-694.54v-5.16Z"/><path class="cls-33" d="M2957.78,1854v1.31q0,27-2.14,53.45-.69,8.94-1.62,17.85c-19.32,186-112,350.76-248.53,464.66-121.42,101.35-277.51,162.43-447.41,162.43-385.37,0-699.7-314.33-699.7-699.7s314.33-699.7,699.7-699.7S2957.78,1468.61,2957.78,1854Z"/><path class="cls-34" d="M2258.09,2462.35c-335.07,0-608.35-273.28-608.35-608.34s273.28-608.35,608.35-608.35,608.34,273.28,608.34,608.35S2593.14,2462.35,2258.09,2462.35Z"/><circle class="cls-2" cx="2258.09" cy="1854.01" r="557.09"/><path class="cls-29" d="M2258.09,1422a16.35,16.35,0,0,1-16.34-16.33v-28.45a16.34,16.34,0,1,1,32.67,0v28.45a16.35,16.35,0,0,1-16.33,16.33Zm0,925.11a16.35,16.35,0,0,1-16.34-16.33v-28.45a16.34,16.34,0,0,1,32.67,0v28.45a16.35,16.35,0,0,1-16.33,16.33Zm-216-867.24a16.37,16.37,0,0,1-22.32-6l-14.22-24.65a16.33,16.33,0,0,1,28.29-16.33l14.23,24.65a16.37,16.37,0,0,1-6,22.3Zm462.56,801.17a16.38,16.38,0,0,1-22.33-6l-14.23-24.64a16.34,16.34,0,0,1,28.31-16.33l14.22,24.64a16.36,16.36,0,0,1-6,22.3ZM1884,1638a16.39,16.39,0,0,1-22.31,6L1837,1629.77a16.34,16.34,0,0,1,16.33-28.3L1878,1615.7a16.38,16.38,0,0,1,6,22.31Zm801.16,462.56a16.38,16.38,0,0,1-22.31,6l-24.64-14.23a16.33,16.33,0,0,1,16.33-28.29l24.64,14.22a16.37,16.37,0,0,1,6,22.32Zm-859-246.57a16.36,16.36,0,0,1-16.33,16.34H1781.3a16.33,16.33,0,0,1,0-32.66h28.46a16.35,16.35,0,0,1,16.33,16.32Zm925.11,0a16.35,16.35,0,0,1-16.34,16.34h-28.44a16.33,16.33,0,1,1,0-32.66h28.44A16.35,16.35,0,0,1,2751.2,1854ZM1884,2070a16.38,16.38,0,0,1-6,22.32l-24.65,14.23a16.34,16.34,0,0,1-16.33-28.3l24.65-14.22a16.37,16.37,0,0,1,22.31,6Zm801.16-462.56a16.38,16.38,0,0,1-6,22.33L2654.52,1644a16.34,16.34,0,0,1-16.34-28.3l24.65-14.23a16.37,16.37,0,0,1,22.3,6Zm-643.05,620.69a16.37,16.37,0,0,1,6,22.31l-14.23,24.64a16.33,16.33,0,1,1-28.29-16.33l14.22-24.64a16.37,16.37,0,0,1,22.31-6Zm468.54-778.86-14.22,24.64a16.34,16.34,0,0,1-28.3-16.33l14.23-24.64a16.33,16.33,0,0,1,28.29,16.33Z"/><path class="cls-29" d="M2268.19,1873.3h0a19.35,19.35,0,0,1-19.3-19.29V1526a19.35,19.35,0,0,1,19.3-19.29h0a19.34,19.34,0,0,1,19.28,19.29v328A19.34,19.34,0,0,1,2268.19,1873.3Z"/><path class="cls-35" d="M2271.72,1840.37h0c7.5,7.5,7.5,19.77,7.56,27.27l-170,170c-15.08,7.49-27.36,7.49-34.85,0h0c-7.5-7.51-7.5-19.78,2.52-27.29l170-170C2252,1832.87,2264.23,1832.87,2271.72,1840.37Z"/><ellipse class="cls-36" cx="3272.99" cy="2636.3" rx="578.2" ry="47.97"/><path class="cls-37" d="M3113.92,1424.35s-37.87,22.72-45.45,83.32,10.1,85.84-17.67,123.72,32.82,75.75,32.82,75.75l111.1-20.2-5-184.32Z"/><path class="cls-38" d="M3169.47,1591l-22.72,17.67s-17.68,83.33,48,78.28,83.32-42.93,85.85-55.55-30.3-68.17-30.3-68.17L3231,1575.46Z"/><polygon class="cls-38" points="3149.21 1572.47 3159.37 1623.81 3240.17 1590.99 3219.97 1550.59 3177.04 1543.02 3149.21 1572.47"/><path class="cls-39" d="M3108.49,1423.91s-51.26,84.63-29.27,123.23a48.84,48.84,0,0,0,9.09,11.44c18.84,17.54,50.36,25.29,82.61,3.31,38.47-26.19,59.32-85.8,59.32-85.8l-38.5-64.83-2.54-.28-43.48-4.87Z"/><path class="cls-38" d="M3108.49,1423.91a356.47,356.47,0,0,0-18.47,35.46,274.09,274.09,0,0,0-11.36,29.12c-7.21,22.47-8.29,43.12.56,58.65a48.84,48.84,0,0,0,9.09,11.44c19.42,14.3,51.8,18,81.55-2.27,38.46-26.2,75-69.71,75-69.71L3189.2,1411l-43.48-4.87Z"/><path class="cls-37" d="M3157.57,1417.05a45.83,45.83,0,0,0,7.22,3.28s18.1.87,17.36,11.24-20.85,61.17,23.83,98.17l-.4,1.14-11.11,31.69s62.05,2.75,81.81-60.9-28.89-88.25-28.89-88.25-10.68-49.63-68.79-28.72C3136.78,1399.75,3148,1411.59,3157.57,1417.05Z"/><path class="cls-37" d="M3101.72,1405.49c-3.35,6.61-1,15.59,5.69,21.82a179.3,179.3,0,0,0,24.3,19c2.14,1.39,4.12,2.62,5.9,3.68,4.37,2.62,9.39,1.48,10.81-2.48a70,70,0,0,1,4.08-9,104.61,104.61,0,0,1,27.94-33l19-14.94,2.5-2s-1.1-1.43-3.13-3.61c-1.22-1.3-2.78-2.87-4.64-4.55-10.31-9.4-29.91-22.49-52.49-13.72C3120.14,1375.18,3107.77,1393.55,3101.72,1405.49Z"/><path class="cls-37" d="M3161.31,1470.34a35.48,35.48,0,0,1-4.63-5.19c-1.53-1.94-3.1-3.88-4.48-5.54s-3-3.56-4.66-5.42a35.54,35.54,0,0,1-4.26-5.47c-.91-1.66-.58-2.89,1.83-2s6.82,4.13,11.43,9.65,6.94,10.45,7.24,12.75S3162.8,1471.57,3161.31,1470.34Z"/><path class="cls-37" d="M3117.77,1438.44a17.21,17.21,0,0,1-4-1.5c-1.37-.65-2.75-1.27-4-1.79s-2.63-1.09-4-1.64a17,17,0,0,1-3.82-1.83c-.92-.72-1-1.66.64-2.07s5-.11,9.07,1.61,6.57,4,7.29,5.39S3119,1438.62,3117.77,1438.44Z"/><path class="cls-40" d="M3090,1459.37a274.09,274.09,0,0,0-11.36,29.12,38.76,38.76,0,0,0,8.12-12.13A37.38,37.38,0,0,0,3090,1459.37Z"/><path class="cls-38" d="M3103.24,1477.61l-9.73,6.06s-.77-5.84,3.88-7.37C3100.45,1475.3,3103.24,1477.61,3103.24,1477.61Z"/><path class="cls-41" d="M3093.4,1488.28l.24.19,3.21,2.45a.9.9,0,0,0,1.21-.28.84.84,0,0,0,0-1.21l-3.21-2.44a3.76,3.76,0,0,1-1.25-3.44,9.06,9.06,0,0,1,2.06-4.76l.35-.44c.93-1.17,2.28-1.67,3-1.12a4.47,4.47,0,0,0,4.19.44,9.43,9.43,0,0,0,4.26-3.1l5-6.3a.88.88,0,0,0,0-1.21.9.9,0,0,0-1.22.28l-5,6.29A7.16,7.16,0,0,1,3103,1476a3,3,0,0,1-2.79-.26c-1.4-1.06-3.84-.32-5.42,1.67l-.36.44a11.28,11.28,0,0,0-2.53,5.9A5.25,5.25,0,0,0,3093.4,1488.28Z"/><ellipse class="cls-40" cx="3154.51" cy="1520.85" rx="27.19" ry="24.77" transform="translate(-255.87 2316.58) rotate(-38.87)"/><path class="cls-41" d="M3090.74,1509.78s16.07,9.65,25.5,9.62c0,0-10.92,20.76-18.36,14.6S3090.74,1509.78,3090.74,1509.78Z"/><path class="cls-37" d="M3132.6,1478.15c-1.89,3-1.5,6.64.87,8.14s5.83.29,7.72-2.7,1.51-6.63-.86-8.13S3134.5,1475.16,3132.6,1478.15Z"/><path class="cls-37" d="M3140.88,1480.18a9,9,0,0,0,5.1-.48,18.4,18.4,0,0,1-4.12,2.58C3140.27,1482.81,3140.88,1480.18,3140.88,1480.18Z"/><path class="cls-37" d="M3104.31,1459.86c-1.56,3-4.56,4.58-6.7,3.62s-2.61-4.13-1.05-7.1,4.56-4.58,6.7-3.62S3105.87,1456.89,3104.31,1459.86Z"/><path class="cls-37" d="M3099.35,1454.83a7,7,0,0,1-1.71-4,17.39,17.39,0,0,0-.34,4.39C3097.54,1456.65,3099.35,1454.83,3099.35,1454.83Z"/><path class="cls-42" d="M3208.77,1510.38s45.73-18.7,52.89-56C3261.66,1454.42,3246.28,1493.38,3208.77,1510.38Z"/><path class="cls-42" d="M3192.88,1480.55s49.17-4.71,66.77-38.33C3259.65,1442.22,3233.69,1475.09,3192.88,1480.55Z"/><path class="cls-43" d="M3157.57,1417.05a45.83,45.83,0,0,0,7.22,3.28s18.1.87,17.36,11.24-20.85,61.17,23.83,98.17l-.4,1.14c4.47,1.34,4.36-.56-4.58-8.4-31.8-27.9-8.45-80.73-11.14-100.22s-22.68-13.74-22.68-13.74Z"/><path class="cls-44" d="M3132.52,1442.24c-.33,1.41-.59,2.77-.81,4.09,2.14,1.39,4.12,2.62,5.9,3.68,4.37,2.62,9.39,1.48,10.81-2.48a70,70,0,0,1,4.08-9,104.61,104.61,0,0,1,27.94-33l21.69-17.07c-.08-2.15-2.92-1.9-3.27-3.44-.77-3.45-2.19-5.21-4.52-4.58l-.12,0C3191.54,1381,3144.39,1391.1,3132.52,1442.24Z"/><path class="cls-38" d="M3500.76,1273.94c-2.07,4.11-4,7.17-5.5,8.63a196.9,196.9,0,0,1-18.79,15.53l-4,7.58-12.63,123.72-45.45-63.13,22.73-70.69s-12.63-68.18-5.05-70.7c6.54-2.17,16.81,20,19.54,26.21.41,1,.66,1.56.66,1.56s25.25,2.53,30.3,25.25C3482.56,1277.9,3493.64,1271.57,3500.76,1273.94Z"/><path class="cls-45" d="M3472.13,1383.59c-3.13,21.21-7.25,139.23-50.17,227.6-19.29,39.72-32.82,96-32.82,96v51.1c-30,20.27-53,7-53,7l-68.17-202s6.41-7.5,16.24-18.94c23.81-27.82,67.59-79,87.28-102.26l35.35-90.9s34,6,57.47,25.13A69,69,0,0,1,3472.13,1383.59Z"/><path class="cls-45" d="M3177,1793l-10.1,88.37s-121.19-2.52-164.11-40.39,60.59-199.47,75.74-217.15a37.14,37.14,0,0,1,11.16-8.68c15.41-8,34.29-6.47,34.29-6.47l47.42,164.83Z"/><path class="cls-46" d="M3472.13,1383.59c-3.13,21.21-7.25,139.23-50.17,227.6-19.29,39.72-32.82,96-32.82,96v51.1c-30,20.27-53,7-53,7l-68.17-202s6.41-7.5,16.24-18.94c7.22,12.93,23.4,43.1,29.21,64.38,7.57,27.78,70.7,27.78,95.94-32.82,22.25-53.38,47-159.45,55-199.59A69,69,0,0,1,3472.13,1383.59Z"/><path class="cls-47" d="M3171.44,1773.49c-5.4-.08-12.7-1.44-22.25-4.44-75.79-23.94-121.11-19-121.11-19,15.14-10.1,85.84,0,85.84,0s20.2,5,10.1-37.87-45.45-88.38-45.45-88.38l11.16-8.68c15.41-8,34.29-6.47,34.29-6.47Z"/><path class="cls-48" d="M3691.14,2315.47c10.51,18.93,56.38,134.21,66.89,153.14-23.88,10.39-30.69,13.53-54.58,23.91-6.81-16.57-71.3-119.28-78.11-135.85C3645.52,2343.92,3671,2328.21,3691.14,2315.47Z"/><path class="cls-49" d="M3767.93,2458.51q20.16,31.6,40.34,63.21l-148.43,89.6c-3.24-7.48-6.57-18.47-4-30.28,4.8-21.83,25.5-26.6,36.18-50.67,3.63-8.19,7-20.69,4.87-38.76Z"/><path class="cls-50" d="M3799.05,2507.28l9.22,14.44-148.43,89.6c-2.53-5.82-5.09-13.79-4.88-22.61Z"/><path class="cls-2" d="M3718.61,2519.17a48.29,48.29,0,0,0-22.53-1.39,73.74,73.74,0,0,0,1.2-8.05,55.06,55.06,0,0,1,23.34,1.88C3725.44,2513.07,3723.44,2520.62,3718.61,2519.17Z"/><path class="cls-2" d="M3712.5,2532.33a39.07,39.07,0,0,0-20.29-2.34,61.73,61.73,0,0,0,2.91-8.25,45.75,45.75,0,0,1,19.4,3C3719.18,2526.6,3717.21,2534.17,3712.5,2532.33Z"/><path class="cls-48" d="M3402.77,2380.37c2.25,21.54-.77,145.58,1.48,167.11-26.05.19-33.54.41-59.59.6.23-17.92-18.81-137.69-18.58-155.61C3349.65,2388.66,3379.21,2384.18,3402.77,2380.37Z"/><path class="cls-49" d="M3417.31,2542.07q6.17,37,12.32,74L3258,2640.26c0-8.16,1.2-19.58,8.22-29.42,13-18.2,33.89-14.47,53.16-32.42,6.56-6.11,14.58-16.28,19.68-33.74Z"/><path class="cls-50" d="M3426.81,2599.14l2.82,16.91L3258,2640.26c0-6.36.73-14.69,4.38-22.72Z"/><path class="cls-2" d="M3348.15,2578.53a48.31,48.31,0,0,0-20.18-10.11,69.92,69.92,0,0,0,4.26-6.94,55.17,55.17,0,0,1,20.74,10.89C3356.83,2575.6,3352,2581.76,3348.15,2578.53Z"/><path class="cls-50" d="M3337.37,2588.25a39,39,0,0,0-17.75-10.12,60,60,0,0,0,5.92-6.45,45.88,45.88,0,0,1,16.65,10.41C3345.77,2585.59,3341,2591.78,3337.37,2588.25Z"/><path class="cls-51" d="M3733.47,2376.93a5.91,5.91,0,0,1-2.28,6.94l-19.93,13.35-45.48,28a8.38,8.38,0,0,1-2.49,1.13l-14.82,6.56a8.44,8.44,0,0,1-9.55-3.95c-37.29-65.31-213.41-371.89-230.57-366.63-17.6,5.4-4.24,374.47-1.89,436.45l.11,2.79a5.77,5.77,0,0,1-5.77,6H3285.54a5.93,5.93,0,0,1-5.84-4.9l-135.43-767.44a4.54,4.54,0,0,0-.12-.53c-1.39-5-23.08-84.58-20.6-121.39a5.88,5.88,0,0,1,4.92-5.36l8.4-1.42h0l16.18-2.75s1.13,46,18.87,74.33a5.91,5.91,0,0,0,6.82,2.49c14.78-4.74,64.75-21.88,95.35-46a6,6,0,0,0,1.54-7.55L3245,1571.28a5.94,5.94,0,0,1,.86-6.92,56.21,56.21,0,0,1,24.39-14.9,5.86,5.86,0,0,1,7.14,3.51c11.27,28.56,71.13,174,139.21,219.62a4.25,4.25,0,0,1,.53.42c4.77,4.33,76.67,70.46,134.4,166C3607.37,2031.35,3718.94,2336.86,3733.47,2376.93Z"/><path class="cls-52" d="M3705.74,2400.92l-40,24.26a8.38,8.38,0,0,1-2.49,1.13l-14.82,6.56a8.44,8.44,0,0,1-9.55-3.95c-37.29-65.31-213.41-371.89-230.57-366.63s-5,351.72-2.15,429.75a8.45,8.45,0,0,1-6.22,8.47l-24.7,6.72a8.31,8.31,0,0,1-2.22.3h-85.41a8.45,8.45,0,0,1-8.32-7l-135-765.25c-.05-.26-.1-.5-.17-.76-1.62-5.9-22.19-81.65-20.69-119.07a8.4,8.4,0,0,1,7-7.89l6.4-1.09h0s-5.73,85.77,70.24,115.92,173.16,84.46,286.15,230.27c94.54,122,187.75,362.9,215.67,438.3A8.44,8.44,0,0,1,3705.74,2400.92Z"/><path class="cls-53" d="M3177,1729.86l128.54-48s32.24,63.95-25,90.89C3194.72,1813.18,3177,1729.86,3177,1729.86Z"/><path class="cls-37" d="M3184.77,1563.22s4.9,50.49,55.4,83.32,40.4,73.22,63.12,75.74-2.53-30.29,0-68.17-2.53-74.7-22.72-96.69,7.57-40.36,0-80.41Z"/><path class="cls-38" d="M3201.82,1522.7s18.16-10,27.15,6.82-11.72,38.66-31.46,39.86-20.17-19.79-20.17-19.79Z"/><path class="cls-41" d="M3197.5,1555.35a2.2,2.2,0,0,1-.74-1.53l-1-13.43,20.06-3.05a2.22,2.22,0,0,1,2.6,2.06,2.67,2.67,0,0,1-2.24,2.79l-15.22,2.32.61,8.59a2.68,2.68,0,0,1-2.25,2.79A2.23,2.23,0,0,1,3197.5,1555.35Z"/><path class="cls-38" d="M3517.91,1212.26s-6.62,40.72-17.15,61.68c-2.07,4.11-4,7.17-5.5,8.63a196.9,196.9,0,0,1-18.79,15.53l-4,7.58-36.74-58.61,15.68,4.45s.08-.15.2-.43c2.57-5.15,27.41-54.83,39.66-57.18a.57.57,0,0,1,.68.69l-2.92,12.48c.64-1.11,10.39-18,16.77-19.91a1.63,1.63,0,0,1,2,1.61l-2.53,8.33s5.66-5.51,8.79-3.29-13.56,37.6-13.84,38.63C3500.23,1232.45,3511.82,1207.94,3517.91,1212.26Z"/><path class="cls-54" d="M2950.74,1858.07l4.9,50.7q2.07-26.48,2.14-53.45C2955.43,1856.21,2953.09,1857.14,2950.74,1858.07Zm-72.24,72.32c-.33.3-.66.58-1,.88l-1.34-.88-1,.88-1.36-.88-1,.88-1.33-.88c-.36.3-.66.58-1,.88l-1.36-.88-1,.88-1.33-.88c-.36.3-.66.58-1,.88l-1.33-.88-1,.88-1.34-.88c-.35.3-.65.58-1,.88l-1.33-.88-1,.88-1.34-.88c-.35.3-.65.58-1,.88l-1.34-.88c-.32.3-.65.58-1,.88l-1.36-.88-1,.88-1.34-.88c-.32.3-.65.58-1,.88l-1.36-.88-1,.88-1.34-.88-1,.88-1.37-.88c-.32.3-.65.58-1,.88l-1.34-.88c-.33.3-.66.58-1,.88l-1.37-.88c-.32.3-.65.58-1,.88l-1.34-.88c-.33.3-.66.58-1,.88l-1.37-.88-1,.88-1.34-.88a428,428,0,0,0-42.45,42,30.45,30.45,0,0,0-1.76,37.75l25.45,35.67a362.8,362.8,0,0,0-37.72,68.39l-21.54-1.08s0,.07,0,.1l-2.29-.1s0,.07,0,.1l-2.3-.1s0,.07,0,.1l-2.29-.1s0,.07-.05.1l-2.3-.1s0,.07,0,.1l-2.3-.1s0,.07,0,.1l-2.29-.1s0,.07,0,.1l-2.3-.1s0,.07,0,.1l-2.29-.1s0,.07,0,.1l-2.3-.1s0,.07-.05.1l-2.3-.1s0,.07,0,.1l-2.3-.1s0,.07-.05.1l-2.3-.1a.19.19,0,0,1,0,.1l-2.27-.1a.19.19,0,0,0-.05.1l-2.3-.1s0,.07-.05.1l-2.3-.1s0,.07,0,.1l-2.3-.1s0,.07-.05.1l-2.3-.1s0,.07,0,.1l-2.3-.1s0,.07-.05.1l-2.3-.1s0,.07,0,.1l-2.3-.1a426.75,426.75,0,0,0-15.77,57.55,30.45,30.45,0,0,0,17.35,33.58l39.85,18.15a363.72,363.72,0,0,0,1.85,80.64l-60,30.65a424.54,424.54,0,0,0,15.12,57.62c136.5-113.9,229.21-278.65,248.53-464.66a362.6,362.6,0,0,0-43.48,24.52Z"/><path class="cls-55" d="M2773.06,2285.34l-60,30.65a428.75,428.75,0,0,0,23.51,80.4l2.26-.22c0,.08.05.15.08.22l2.25-.22.09.22,2.25-.22c0,.08.05.15.08.22l2.25-.22.09.22,2.25-.22.09.22,2.25-.22c0,.08,0,.15.08.22l2.25-.22.09.22,2.25-.22c0,.08.06.15.08.22l2.26-.22a1.43,1.43,0,0,0,.08.22l2.25-.22.09.22,2.25-.22c0,.08.05.15.08.22l2.25-.22.09.22,2.25-.22.09.22,2.25-.22c0,.08.05.15.08.22l2.25-.22.09.22,2.25-.22c0,.08.05.15.08.22l2.26-.22a1.43,1.43,0,0,0,.08.22l2.25-.22.09.22,2.25-.22c0,.08,0,.15.08.22l2.25-.22.09.22,22.38-2.17a362.52,362.52,0,0,0,39.83,64.61l-36.6,56.51a426.66,426.66,0,0,0,60.56,57.88l1.24-.88,1.1.88,1.24-.88,1.1.88,1.23-.88,1.1.88,1.24-.88,1.1.88,1.24-.88,1.09.88,1.24-.88,1.1.88,1.24-.88,1.1.88,1.23-.88,1.1.88,1.24-.88,1.1.88,1.24-.88,1.1.88,1.23-.88,1.1.88,1.24-.88,1.1.88,1.23-.88,1.1.88,1.24-.88,1.1.88,1.24-.88,1.1.88,1.23-.88,1.1.88,1.24-.88,1.1.88,1.24-.88,1.1.88,1.23-.88,1.1.88,1.24-.88,1.1.88,32.66-23.32a362.52,362.52,0,0,0,46.17,22.92l-3.43,67.25a427.33,427.33,0,0,0,81.38,19.84l.15-.33c.73.1,1.46.23,2.19.33l.15-.33c.73.1,1.45.23,2.18.33l.16-.33c.72.1,1.45.23,2.18.33l.15-.33c.73.1,1.46.23,2.19.33l.15-.33c.73.1,1.45.23,2.18.33l.16-.33c.72.1,1.45.23,2.18.33l.15-.33c.73.1,1.45.23,2.18.33l.16-.33c.73.1,1.45.23,2.18.33l.15-.33c.73.1,1.46.23,2.19.33l.15-.33c.73.1,1.45.23,2.18.33l.16-.33c.72.1,1.45.23,2.18.33l.15-.33c.73.1,1.46.23,2.19.33l.15-.33c.73.1,1.45.23,2.18.33l.15-.33c.73.1,1.46.23,2.19.33l.15-.33c.73.1,1.45.23,2.18.33l.16-.33c.73.1,1.45.23,2.18.33l.15-.33c.73.1,1.46.23,2.19.33l.15-.33c.73.1,1.45.23,2.18.33l.16-.33c.72.1,1.45.23,2.18.33l.15-.33c.73.1,1.46.23,2.18.33L3147,2600h30.17c2,0,4,0,6,0l29,56.75,2.12-.43.22.43,2.11-.43.22.43,2.12-.43.22.43,2.12-.43.21.43,2.12-.43.22.43,2.12-.43.22.43,2.11-.43.22.43,2.12-.43.22.43,2.12-.43.22.43,2.11-.43.22.43,2.12-.43.22.43,2.12-.43.21.43,2.12-.43.22.43,2.12-.43.22.43,2.11-.43.22.43,2.12-.43.22.43,2.12-.43.21.43,2.12-.43.22.43,2.12-.43.22.43,2.12-.43.21.43a427.16,427.16,0,0,0,80.41-23.52l-6.49-67a364.25,364.25,0,0,0,46.68-26.07l32,20.75,1-.87,1.34.87c.34-.28.66-.58,1-.87l1.35.87c.33-.28.66-.58,1-.87l1.35.87,1-.87,1.34.87c.34-.28.66-.58,1-.87l1.35.87,1-.87,1.34.87c.34-.28.66-.58,1-.87l1.35.87,1-.87,1.35.87,1-.87,1.34.87c.34-.28.66-.58,1-.87l1.35.87c.33-.28.66-.58,1-.87l1.35.87,1-.87,1.34.87,1-.87,1.35.87,1-.87,1.34.87c.34-.28.66-.58,1-.87l1.35.87,1-.87,1.35.87c.33-.28.65-.58,1-.87l1.34.87c.34-.28.66-.58,1-.87l1.35.87,1-.87,1.34.87c.34-.28.66-.58,1-.87l1.35.87a427.32,427.32,0,0,0,57.88-60.57L3477,2445.54a363.9,363.9,0,0,0,37.73-68.42l21.53,1.1,0-.12,2.3.12s0-.08,0-.12l2.3.12a.56.56,0,0,1,0-.12l2.29.12a.56.56,0,0,0,0-.12l2.3.12s0-.08,0-.12l2.3.12a.56.56,0,0,1,0-.12l2.29.12a.56.56,0,0,0,0-.12l2.3.12a.56.56,0,0,1,0-.12l2.29.12a.56.56,0,0,0,0-.12l2.3.12s0-.08,0-.12l2.3.12a.56.56,0,0,1,0-.12l2.29.12a.56.56,0,0,0,0-.12l2.3.12s0-.08,0-.12l2.3.12a.56.56,0,0,1,0-.12l2.29.12a.56.56,0,0,0,0-.12l2.3.12a.56.56,0,0,1,0-.12l2.29.12a.56.56,0,0,0,0-.12l2.3.12s0-.08,0-.12l2.3.12a.56.56,0,0,1,0-.12l2.29.12a.56.56,0,0,0,0-.12l2.3.12a427.52,427.52,0,0,0,19.84-81.4l-61.28-27.89a363.79,363.79,0,0,0-1.84-80.65l60-30.63a426.28,426.28,0,0,0-23.51-80.42l-2.25.22c0-.07,0-.15-.08-.22l-2.25.22-.09-.22-2.25.22-.09-.22-2.25.22c0-.07-.05-.15-.08-.22l-2.25.22-.09-.22-2.25.22c0-.07-.05-.15-.08-.22l-2.26.22a2,2,0,0,0-.08-.22l-2.25.22-.09-.22-2.25.22c0-.07,0-.15-.08-.22l-2.25.22-.09-.22-2.25.22a2,2,0,0,1-.08-.22l-2.26.22c0-.07-.05-.15-.08-.22l-2.25.22-.09-.22-2.25.22c0-.07,0-.15-.08-.22l-2.25.22-.09-.22-2.25.22-.09-.22-2.25.22c0-.07-.05-.15-.08-.22l-2.25.22-.09-.22-2.25.22a2,2,0,0,1-.08-.22l-2.26.22a2,2,0,0,0-.08-.22l-22.39,2.17a362.13,362.13,0,0,0-39.83-64.59l36.61-56.53a427.78,427.78,0,0,0-60.56-57.88l-1.24.88-1.1-.88-1.24.88-1.1-.88-1.23.88-1.1-.88-1.24.88-1.1-.88-1.23.88-1.1-.88-1.24.88-1.1-.88-1.24.88-1.1-.88-1.23.88-1.1-.88-1.24.88-1.1-.88-1.24.88c-.36-.29-.72-.59-1.1-.88l-1.23.88-1.1-.88-1.24.88-1.1-.88-1.23.88-1.1-.88-1.24.88-1.1-.88-1.24.88-1.1-.88-1.23.88-1.1-.88-1.24.88-1.1-.88-1.24.88-1.09-.88-1.24.88-1.1-.88-1.24.88-1.1-.88-32.66,23.33a362.58,362.58,0,0,0-46.17-22.93l3.43-67.24a427.35,427.35,0,0,0-81.38-19.85l-.16.34c-.73-.11-1.45-.24-2.18-.34l-.15.34c-.73-.11-1.46-.24-2.19-.34l-.15.34c-.73-.11-1.45-.24-2.18-.34l-.16.34c-.72-.11-1.45-.24-2.18-.34l-.15.34c-.73-.11-1.46-.24-2.18-.34l-.16.34c-.73-.11-1.45-.24-2.18-.34l-.15.34c-.73-.11-1.46-.24-2.19-.34l-.15.34c-.73-.11-1.45-.24-2.18-.34l-.16.34c-.72-.11-1.45-.24-2.18-.34l-.15.34c-.73-.11-1.46-.24-2.19-.34l-.15.34c-.73-.11-1.45-.24-2.18-.34l-.16.34c-.72-.11-1.45-.24-2.18-.34l-.15.34c-.73-.11-1.45-.24-2.18-.34l-.16.34c-.73-.11-1.45-.24-2.18-.34l-.15.34c-.73-.11-1.46-.24-2.19-.34l-.15.34c-.73-.11-1.45-.24-2.18-.34l-.16.34c-.72-.11-1.45-.24-2.18-.34l-.15.34c-.73-.11-1.46-.24-2.19-.34l-.15.34c-.73-.11-1.45-.24-2.18-.34l-.15.34c-.73-.11-1.46-.24-2.19-.34l-27.25,59.88h-30.17c-2,0-4,0-6,0l-29-56.75c-.71.13-1.41.29-2.12.42l-.22-.42-2.11.42-.22-.42c-.71.13-1.41.29-2.12.42l-.22-.42c-.71.13-1.41.29-2.12.42l-.22-.42-2.11.42-.22-.42c-.71.13-1.41.29-2.12.42l-.22-.42c-.71.13-1.41.29-2.12.42l-.21-.42c-.71.13-1.41.29-2.12.42l-.22-.42c-.71.13-1.41.29-2.12.42l-.22-.42-2.11.42-.22-.42c-.71.13-1.41.29-2.12.42l-.22-.42c-.71.13-1.41.29-2.12.42l-.21-.42c-.71.13-1.42.29-2.12.42l-.22-.42c-.71.13-1.41.29-2.12.42l-.22-.42c-.7.13-1.41.29-2.12.42l-.21-.42c-.71.13-1.41.29-2.12.42l-.22-.42c-.71.13-1.41.29-2.12.42l-.22-.42-2.11.42-.22-.42c-.71.13-1.41.29-2.12.42l-.22-.42c-.71.13-1.41.29-2.12.42l-.21-.42a427.66,427.66,0,0,0-80.41,23.51l6.49,67a363.45,363.45,0,0,0-46.67,26.07l-32.05-20.76-1,.87-1.34-.87-1,.87-1.35-.87-1,.87-1.35-.87-1,.87-1.34-.87-1,.87-1.35-.87-1,.87-1.35-.87-1,.87-1.34-.87-1,.87-1.35-.87-1,.87-1.34-.87-1,.87-1.35-.87-1,.87-1.35-.87-1,.87-1.34-.87-1,.87-1.35-.87-1,.87-1.35-.87-1,.87-1.34-.87-1,.87-1.35-.87-1,.87-1.34-.87-1,.87-1.35-.87-1,.87-1.35-.87-1,.87-1.34-.87a427.27,427.27,0,0,0-57.88,60.57l39.13,54.81a363.55,363.55,0,0,0-37.74,68.41l-21.52-1.1a.76.76,0,0,1,0,.11l-2.29-.11a.36.36,0,0,0,0,.11l-2.3-.11a.76.76,0,0,1,0,.11l-2.3-.11,0,.11-2.3-.11a.36.36,0,0,0,0,.11l-2.3-.11a.76.76,0,0,1,0,.11l-2.29-.11a.36.36,0,0,0,0,.11l-2.3-.11s0,.07,0,.11l-2.3-.11a.76.76,0,0,1,0,.11l-2.29-.11a.36.36,0,0,0,0,.11l-2.3-.11a.76.76,0,0,1,0,.11l-2.29-.11a.36.36,0,0,0,0,.11l-2.3-.11s0,.07,0,.11l-2.3-.11a.76.76,0,0,1,0,.11l-2.29-.11a.36.36,0,0,0,0,.11l-2.3-.11s0,.07,0,.11l-2.3-.11a.76.76,0,0,1,0,.11l-2.29-.11a.36.36,0,0,0,0,.11l-2.3-.11a.76.76,0,0,1,0,.11l-2.29-.11a.36.36,0,0,0,0,.11l-2.3-.11a426.67,426.67,0,0,0-19.84,81.39l61.28,27.9A363.7,363.7,0,0,0,2773.06,2285.34Zm501,86.24a194.27,194.27,0,0,1-117.71,58.87,194.18,194.18,0,0,1-111.37-52.6c-77.83-74.39-80.64-198-6.26-275.8a194.16,194.16,0,0,1,117.7-58.87,194.18,194.18,0,0,1,111.37,52.6C3345.64,2170.16,3348.45,2293.73,3274.07,2371.58Z"/><path class="cls-56" d="M3314.53,2095.78c77.83,74.38,80.65,197.95,6.27,275.8s-198,80.65-275.81,6.27-80.64-198-6.26-275.8S3236.69,2021.41,3314.53,2095.78Zm-432.05-67.68a363,363,0,0,0-38.73,70.75l-67.25-3.44a428.18,428.18,0,0,0-19.84,81.39l61.29,27.9a363.1,363.1,0,0,0,1.83,80.64l-60,30.65a428,428,0,0,0,23.52,80.4l67-6.49a362.88,362.88,0,0,0,41.9,68.93l-36.59,56.51a425.6,425.6,0,0,0,60.56,57.88l54.8-39.13a363.34,363.34,0,0,0,70.76,38.73l-3.44,67.25a427.51,427.51,0,0,0,81.38,19.84l27.9-61.28a363.08,363.08,0,0,0,80.64-1.84l30.65,60a427.16,427.16,0,0,0,80.41-23.52l-6.49-67a363.44,363.44,0,0,0,68.93-41.93l56.51,36.61a427.32,427.32,0,0,0,57.88-60.57L3477,2445.54a362.65,362.65,0,0,0,38.74-70.77l67.25,3.45a427.52,427.52,0,0,0,19.84-81.4l-61.28-27.89a363.79,363.79,0,0,0-1.84-80.65l60-30.63a426.28,426.28,0,0,0-23.51-80.42l-67,6.49a363.09,363.09,0,0,0-41.91-68.91l36.6-56.53a427.78,427.78,0,0,0-60.56-57.88l-54.81,39.14a362.78,362.78,0,0,0-70.75-38.74l3.43-67.24a427.35,427.35,0,0,0-81.38-19.85l-27.9,61.29a363.7,363.7,0,0,0-80.64,1.83l-30.65-59.95a427.56,427.56,0,0,0-80.4,23.51l6.49,67a363.49,363.49,0,0,0-68.93,41.92l-56.52-36.61a427.76,427.76,0,0,0-57.87,60.57Z"/><ellipse class="cls-57" cx="1224.03" cy="2621.15" rx="453.22" ry="30.3"/><rect class="cls-58" x="1085.27" y="2489.54" width="217.54" height="93.77"/><rect class="cls-58" x="739.33" y="1929.33" width="889.26" height="561.92" rx="44.72"/><rect class="cls-59" x="770.01" y="1929.33" width="889.26" height="561.92" rx="44.72"/><rect class="cls-2" x="804.15" y="1959.98" width="820.66" height="486.91"/><rect class="cls-59" x="1120.31" y="2491.35" width="217.54" height="91.96"/><rect class="cls-60" x="810.37" y="1969.32" width="807.71" height="464.31"/><rect class="cls-59" x="810.37" y="1969.32" width="807.71" height="38.69"/><rect class="cls-59" x="810.37" y="2404.61" width="807.71" height="29.02"/><rect class="cls-61" x="890.49" y="2008.01" width="585.23" height="396.6"/><rect class="cls-60" x="810.37" y="2008.01" width="80.12" height="396.6"/><rect class="cls-2" x="832.29" y="2037.94" width="36.27" height="34.46"/><rect class="cls-2" x="832.29" y="2099.15" width="36.27" height="34.46"/><rect class="cls-2" x="832.29" y="2160.37" width="36.27" height="34.46"/><rect class="cls-2" x="832.29" y="2221.58" width="36.27" height="34.46"/><rect class="cls-61" x="1487.81" y="2037.94" width="116.08" height="10.58"/><rect class="cls-59" x="1487.81" y="2048.52" width="116.08" height="84.64"/><rect class="cls-61" x="1487.81" y="2159.91" width="116.08" height="10.58"/><rect class="cls-59" x="1487.81" y="2170.49" width="116.08" height="84.64"/><rect class="cls-61" x="1487.81" y="2269.64" width="116.08" height="10.58"/><rect class="cls-59" x="1487.81" y="2280.22" width="116.08" height="84.64"/><rect class="cls-2" x="1580.31" y="1981.77" width="14.51" height="13.78"/><rect class="cls-2" x="1557.03" y="1981.77" width="14.51" height="13.78"/><rect class="cls-2" x="1533.75" y="1981.77" width="14.51" height="13.78"/><polygon class="cls-61" points="1382.75 2325.35 1374.34 2325.35 1374.34 2319.74 1377.14 2319.74 1377.14 2316.93 1382.75 2316.93 1382.75 2325.35"/><path class="cls-61" d="M1362.83,2325.35h-11.5v-5.61h11.5Zm-23,0h-11.5v-5.61h11.5Zm-23,0h-11.51v-5.61h11.51Zm-23,0H1282.3v-5.61h11.51Zm-23,0h-11.51v-5.61h11.51Zm-23,0h-11.51v-5.61h11.51Zm-23,0h-11.51v-5.61h11.51Zm-23,0h-11.5v-5.61h11.5Zm-23,0h-11.51v-5.61h11.51Zm-23,0h-11.51v-5.61h11.51Zm-23,0h-11.51v-5.61h11.51Zm-23,0h-11.51v-5.61h11.51Zm-23,0h-11.5v-5.61h11.5Zm-23,0h-11.5v-5.61h11.5Z"/><polygon class="cls-61" points="1040.71 2325.35 1032.3 2325.35 1032.3 2316.93 1037.91 2316.93 1037.91 2319.74 1040.71 2319.74 1040.71 2325.35"/><path class="cls-61" d="M1037.91,2305.8h-5.61v-11.14h5.61Zm0-22.28h-5.61v-11.13h5.61Zm0-22.27h-5.61v-11.14h5.61Zm0-22.27h-5.61v-11.14h5.61Zm0-22.28h-5.61v-11.14h5.61Zm0-22.27h-5.61v-11.14h5.61Zm0-22.28h-5.61V2161h5.61Zm0-22.27h-5.61v-11.14h5.61Zm0-22.28h-5.61v-11.13h5.61Zm0-22.27h-5.61v-11.14h5.61Zm0-22.28h-5.61v-11.13h5.61Z"/><polygon class="cls-61" points="1037.91 2060.78 1032.3 2060.78 1032.3 2052.37 1040.71 2052.37 1040.71 2057.97 1037.91 2057.97 1037.91 2060.78"/><path class="cls-61" d="M1362.83,2058h-11.5v-5.6h11.5Zm-23,0h-11.5v-5.6h11.5Zm-23,0h-11.51v-5.6h11.51Zm-23,0H1282.3v-5.6h11.51Zm-23,0h-11.51v-5.6h11.51Zm-23,0h-11.51v-5.6h11.51Zm-23,0h-11.5v-5.6h11.5Zm-23,0h-11.51v-5.6h11.51Zm-23,0h-11.51v-5.6h11.51Zm-23,0h-11.51v-5.6h11.51Zm-23,0h-11.51v-5.6h11.51Zm-23,0h-11.51v-5.6h11.51Zm-23,0h-11.5v-5.6h11.5Zm-23,0h-11.5v-5.6h11.5Z"/><polygon class="cls-61" points="1382.75 2060.78 1377.14 2060.78 1377.14 2057.97 1374.34 2057.97 1374.34 2052.37 1382.75 2052.37 1382.75 2060.78"/><path class="cls-61" d="M1382.75,2305.8h-5.61v-11.14h5.61Zm0-22.28h-5.61v-11.13h5.61Zm0-22.27h-5.61v-11.14h5.61Zm0-22.28h-5.61v-11.13h5.61Zm0-22.27h-5.61v-11.14h5.61Zm0-22.27h-5.61v-11.14h5.61Zm0-22.28h-5.61V2161h5.61Zm0-22.27h-5.61v-11.14h5.61Zm0-22.28h-5.61v-11.13h5.61Zm0-22.27h-5.61v-11.14h5.61Zm0-22.28h-5.61v-11.13h5.61Z"/><rect class="cls-58" x="970.8" y="2583.31" width="504.76" height="52.99" rx="23.99"/><rect class="cls-59" x="1012.63" y="2583.31" width="462.93" height="52.99" rx="23.99"/><rect class="cls-2" x="946.45" y="2195.99" width="124.62" height="20.01"/><rect class="cls-2" x="1108.04" y="2195.99" width="59.18" height="20.01"/><rect class="cls-2" x="1198.94" y="2195.99" width="208.15" height="20.01"/><rect class="cls-2" x="946.45" y="2236.76" width="87.56" height="13.11"/><rect class="cls-2" x="1065.12" y="2236.76" width="87.56" height="13.11"/><rect class="cls-2" x="946.45" y="2277.41" width="160.7" height="5.37"/><rect class="cls-2" x="1156.02" y="2277.41" width="160.7" height="5.37"/><rect class="cls-2" x="1188.84" y="2325.39" width="160.7" height="5.37"/><rect class="cls-2" x="946.45" y="2318.32" width="224.81" height="19.84"/><rect class="cls-2" x="946.45" y="2050.87" width="133.48" height="28.7"/><rect class="cls-2" x="946.45" y="2087.43" width="181.36" height="9.02"/><polygon class="cls-62" points="803.64 1959.63 803.64 2446.93 970.28 2754.97 1717.65 2696.9 2182.23 2522.68 1957.52 1883.88 1859.05 1777.83 803.64 1959.63"/><path class="cls-54" d="M3002.83,1841s8.91,15,19.6,22.65,152.09,5.12,172.29.07,30.3-7.58,32.82,2.52-10.1,42.93,7.58,50.5,27.77-7.57,27.77-7.57l-5-83.32H3098.77Z"/><path class="cls-39" d="M3245.22,1835.91s-7.58,10.09,0,37.87l2.52,17.67s-5,11.92,0,17.32,15.15-17.32,15.15-17.32l-2.52-30.3Z"/><path class="cls-38" d="M3194.72,1793l72.07,17a22.69,22.69,0,0,1,16.93,17l15.79,69.07a7.19,7.19,0,0,1-3.79,8l-35.35,17.67s-20.2-20.2-12.63-25.25l13.33-8.88a2.33,2.33,0,0,0,.72-3.11l-16.57-28.41-4.24-14.83a3.73,3.73,0,0,0-3.77-2.69l-65.77,3.45Z"/><path class="cls-45" d="M3220,1790.46s-.84.75-2.22,2.22l-.06,0a110.23,110.23,0,0,0-28,60.88s-118.67,15.93-174.22-2.53c-16.34-5.42-21.76-14.66-21.26-25,1.21-24.75,36.41-55.8,36.41-55.8s42.92-25.25,101-7.58S3220,1790.46,3220,1790.46Z"/><path class="cls-63" d="M3217.69,1792.7a110.23,110.23,0,0,0-28,60.88s-118.67,15.93-174.22-2.53c-16.34-5.42-21.76-14.66-21.26-25h0a26.66,26.66,0,0,1,17.39-1.82c24.67,5.77,96.73,19.39,154.81-2.22C3204.24,1807.93,3208.45,1798.49,3217.69,1792.7Z"/><path class="cls-59" d="M3034.05,1362.71H2827.91a11.43,11.43,0,0,1-11.43-11.43v-81.82a11.43,11.43,0,0,1,11.43-11.43h177.66a11.43,11.43,0,0,1,11.43,11.43v72.83a6.85,6.85,0,0,0,2.46,5.26l15.41,12.91A1.27,1.27,0,0,1,3034.05,1362.71Z"/><circle class="cls-2" cx="2955.52" cy="1310.85" r="6.98"/><circle class="cls-2" cx="2916.95" cy="1310.85" r="6.98"/><circle class="cls-2" cx="2877.81" cy="1310.85" r="6.98"/><path class="cls-54" d="M2158.83,1069.74l47.1,30.34a11.47,11.47,0,0,1,2.08,1.72l48.5,50.84a11.58,11.58,0,0,1,2.29,3.5l30.57,73.4a11.45,11.45,0,0,1-10.74,15.85h0a11.45,11.45,0,0,0-10,17.33c14.85,24.76,42.23,71,62.49,108.41a99.83,99.83,0,0,0,93,52.18l15.17-.8A11.45,11.45,0,0,0,2450,1409l-47.85-253.61a11.87,11.87,0,0,0-.67-2.25L2357,1045.55a11.45,11.45,0,0,0-11.22-7.06l-181.42,10.2C2153.32,1049.31,2149.51,1063.74,2158.83,1069.74Z"/><path class="cls-56" d="M2332.44,940.75c-3.46.38-7.17.73-11.16,1a118.48,118.48,0,0,0-29.44,6c-72.26,24.75-93.47,112.94-93.47,112.94-8.86-6.16-25.83-9.24-40.68-10.81-15.1-1.59-28-1.59-28-1.59-78.38-6.54-66-164.82-62-202,.55-5,.93-7.78.93-7.78L2328,778.22l25.93,126S2412.23,931.92,2332.44,940.75Z"/><path class="cls-56" d="M2203.49,621.82s-95.24,7.67-129.6,75.89-33.69,173.64-15.38,191.36,80,39.07,133.82,40.4c0,0,11.06-78.37,47.28-101.43l86.41,11.6,103.89-4.48S2390.35,723,2362.85,686.28s-66.76-47.69-66.76-47.69Z"/><path class="cls-39" d="M2258.87,574l-32.2,41.36s-18.92,29.42,4.62,61.19c9.8,13.23,22,34,32.42,32.73,14.57-1.76,25.15-31.55,16.88-52.12l15.5-18.55Z"/><path class="cls-64" d="M2246,488.44s-16,12.62-6.8,31.6,14.14,15.07,14.14,15.07L2255,519.5Z"/><path class="cls-64" d="M2402.63,526.49s18.08,19.94-1.14,31.35-23.18,6.48-23.18,6.48l11.77-25.7Z"/><polygon class="cls-65" points="2402.79 526.26 2383.08 568.97 2378.57 532.31 2402.79 526.26"/><path class="cls-64" d="M2286,467.75s-17.55-19.34-33.16.3.13,61.51.13,61.51l10.71-1.83Z"/><path class="cls-66" d="M2280.5,659.81l-7.08,32.49a10.8,10.8,0,0,0,1.17,7.7l12.31,21.47a3.69,3.69,0,0,0,6.86-1.31l11.7-64.58a11.6,11.6,0,0,0-3.61-10.71L2286,630.76Z"/><path class="cls-38" d="M2342.88,641.68c-32.32,22.83-100.13-6.51-82.45-91.56,15.49-74.51,62.7-97.82,94.1-74.06s41.37,51.16,41.37,51.16-5,20.16-13.21,42.83a269,269,0,0,1-15,34.56C2361.07,617,2356.46,632.08,2342.88,641.68Z"/><path class="cls-38" d="M2273.63,531.1s-.76-17.38-17.25-16.34-23.13,26.24-15,41.32,23.76,5.84,23.76,5.84Z"/><path class="cls-64" d="M2263.66,527.73s17.44-37.38,21.39-33.64,94.57,56.63,110.68,27-17.32-43.36-17.32-43.36S2268.22,412.28,2263.66,527.73Z"/><path class="cls-64" d="M2275.87,467.43s10.46-39.5,49.25-26.71,30.27,10.71,54.69,3.89,49,19.43,41.83,39.62-29.28,26.17-29.28,26.17Z"/><path class="cls-64" d="M2396,490.79s36.87,4.21,26.56,25.71c-13.83,28.82-61.86,11.56-61.86,11.56Z"/><path class="cls-41" d="M2338.73,599l-.48-.17-6.23-2.47a1.29,1.29,0,0,1,.95-2.4l6.23,2.47a6.65,6.65,0,0,0,5.81-.58,10.8,10.8,0,0,0,4.63-5.49l.28-.71c.74-1.87.2-3.85-1.2-4.41a7.54,7.54,0,0,1-4.38-4.92,10.8,10.8,0,0,1,.37-7.2l4.06-10.09a1.33,1.33,0,0,1,1.67-.71,1.29,1.29,0,0,1,.72,1.67l-4.06,10.09a8.26,8.26,0,0,0-.3,5.46,5.05,5.05,0,0,0,2.87,3.31c2.72,1.08,3.91,4.55,2.64,7.75l-.28.71a13.39,13.39,0,0,1-5.75,6.79A9.32,9.32,0,0,1,2338.73,599Z"/><path class="cls-64" d="M2307.34,535.76c1.79,1,4.31,1.26,6.73,1.59s4.89.62,7,1,4.55.84,7,1.37,4.85,1.12,6.86.72,3-2.17,1.25-4.91-6.51-6.06-13.54-7.26-12.66.46-15,2.44S2305.61,534.78,2307.34,535.76Z"/><path class="cls-64" d="M2360.39,549.91c1,1.38,2.76,2.47,4.43,3.6s3.4,2.25,4.84,3.29,3.07,2.28,4.66,3.54,3.21,2.58,4.81,3.06,2.91-.36,2.49-2.89-2.84-6.58-7.61-10-9.45-4.43-11.8-4S2359.44,548.58,2360.39,549.91Z"/><path class="cls-67" d="M2325.32,555c-1.36,3.29-4.55,5.09-7.14,4s-3.58-4.59-2.22-7.88,4.55-5.08,7.13-4S2326.67,551.67,2325.32,555Z"/><path class="cls-67" d="M2366.3,572.81c-1.59,3.18-4.91,4.74-7.41,3.49s-3.23-4.85-1.64-8,4.91-4.73,7.41-3.48S2367.89,569.63,2366.3,572.81Z"/><circle class="cls-40" cx="2288.23" cy="554.74" r="22.28"/><path class="cls-40" d="M2367.71,604.61a22.28,22.28,0,0,1,15-34.56A269,269,0,0,1,2367.71,604.61Z"/><path class="cls-64" d="M2294.31,495.37s-23.53,10.91-33.73,46l8.39-41.36,24.33-23.19Z"/><path class="cls-41" d="M2248.21,548.73a1.55,1.55,0,0,0,1.13-.12l8-4.2L2252,531.89a1.51,1.51,0,0,0-2.1-.76,1.81,1.81,0,0,0-.8,2.27l4,9.5-5.12,2.69a1.78,1.78,0,0,0-.79,2.26A1.54,1.54,0,0,0,2248.21,548.73Z"/><path class="cls-41" d="M2332,617.41s-17.07-4.62-24.21-18a18.29,18.29,0,0,0,5.54,16.8C2322.91,625.28,2332,617.41,2332,617.41Z"/><path class="cls-68" d="M2283.92,475.84A27,27,0,0,1,2294,466.7a30.16,30.16,0,0,1,13.45-3.27,46.94,46.94,0,0,1,13.68,2.13l13.12,3.74q6.54,1.88,13.14,3.44c4.4,1.07,8.84,1.91,13.3,2.58,2.23.3,4.47.56,6.71.67a43.06,43.06,0,0,0,6.72-.05,24.33,24.33,0,0,0,6.55-1.36,12.87,12.87,0,0,0,5.48-3.82,12.29,12.29,0,0,1-5.24,4.37,25.35,25.35,0,0,1-6.66,1.89,56.15,56.15,0,0,1-13.77,0,167.26,167.26,0,0,1-26.84-5.6c-4.38-1.25-8.74-2.57-13.09-3.86a48,48,0,0,0-13.1-2.43,30.36,30.36,0,0,0-13,2.52A28.16,28.16,0,0,0,2283.92,475.84Z"/><path class="cls-68" d="M2287.73,477a21.26,21.26,0,0,1,5.87-3.72,27.83,27.83,0,0,1,6.73-2,33.14,33.14,0,0,1,14,1,50.91,50.91,0,0,1,12.85,5.72,69.8,69.8,0,0,1,5.79,4c.92.7,1.87,1.46,2.72,2.07a23,23,0,0,0,2.84,1.68,43.74,43.74,0,0,0,12.89,3.82,63,63,0,0,0,13.59.63,49.47,49.47,0,0,0,13.36-2.57,24.74,24.74,0,0,0,11.3-7.45,19.41,19.41,0,0,1-4.8,5,30.39,30.39,0,0,1-6.1,3.47,47,47,0,0,1-13.62,3.29,61.07,61.07,0,0,1-14-.27,44.56,44.56,0,0,1-13.58-4,24.18,24.18,0,0,1-3.11-1.87c-1-.74-1.86-1.44-2.77-2.14-1.79-1.4-3.67-2.68-5.57-3.93a53.08,53.08,0,0,0-12.23-5.85,33.77,33.77,0,0,0-13.39-1.56A25.52,25.52,0,0,0,2287.73,477Z"/><path class="cls-68" d="M2276.87,473.54c-3.68.24-7.33,1.32-9.86,3.66a11.71,11.71,0,0,0-2.83,4.16c-.15.4-.25.82-.39,1.23a6.27,6.27,0,0,0-.32,1.24c-.13.87-.3,1.69-.36,2.63-.4,3.64-.6,7.29-1,11a23.45,23.45,0,0,1-1.1,5.59,8.37,8.37,0,0,1-3.59,4.35,9.2,9.2,0,0,0,2.54-4.66,29.76,29.76,0,0,0,.41-5.38c0-1.84.05-3.69.1-5.55s.2-3.72.38-5.58c.07-.91.28-1.9.45-2.86a8.1,8.1,0,0,1,.39-1.42c.17-.47.29-.95.5-1.4a12,12,0,0,1,9-7A15.06,15.06,0,0,1,2276.87,473.54Z"/><circle class="cls-69" cx="2316.34" cy="555.36" r="21.23"/><ellipse class="cls-70" cx="2367.6" cy="570.89" rx="20.47" ry="15.69" transform="translate(1043.98 2615.27) rotate(-70.64)"/><path class="cls-69" d="M2336.84,563.2s13.55-2.74,14.94,6.26"/><path class="cls-66" d="M2231.84,609.16,2257,687.68a10.29,10.29,0,0,1-1.81,9.64l-20.31,25a4.13,4.13,0,0,1-7.11-1.27l-30.61-89.72a8.94,8.94,0,0,1,5.35-11.28Z"/><polygon class="cls-39" points="2563.49 1131.46 2550.87 1176.91 2485.22 1171.86 2485.22 1128.93 2563.49 1131.46"/><path class="cls-71" d="M2478.6,1156.22,2455.71,1265l43.35,8.58,6.32-11.53,11.94,17.83,116.41,23.05s8.95-17.73,1-25.35S2604,1260,2604,1260l-44.38-47.11,3.15-40Z"/><path class="cls-72" d="M2593.79,1118.83h-95.94l-.64-.55L2359,1000.16l-29.75-15-40.12-20.31,25.83-36.93,28.89-41.34s53.4-17.34,111.5-28.38c52.77-10,109.38-14.89,133.41,3.13C2639.24,899.17,2593.79,1118.83,2593.79,1118.83Z"/><path class="cls-73" d="M2593.24,1139H2468.65a3.63,3.63,0,0,1-3.63-3.63v-38.18a3.64,3.64,0,0,1,3.63-3.64H2599.6a3.64,3.64,0,0,1,3.59,4.23l-6.37,38.19A3.62,3.62,0,0,1,2593.24,1139Z"/><polygon class="cls-38" points="2416.15 1283.79 2426.75 1362.5 2494.5 1352.34 2489.59 1277.2 2416.15 1283.79"/><path class="cls-71" d="M2419.57,1341l-2.52,108.57,55.53-.24,1.79-10.49,17.51,12.4,111.94-4.8s2-19.75-8.07-24-35-13-35-13l-53.21-35.78-5.28-46.07Z"/><path class="cls-74" d="M2349.38,919.49l145.94,32.7s15.15-32.82,20.2-22.72-10.1,27.77-10.1,27.77h17.68l-20.2,17.67v118.67h29.36a5.79,5.79,0,0,1,5.17,8.37l-11.49,23a25.52,25.52,0,0,1-22.83,14.1h-58.29L2341.3,914.32"/><path class="cls-75" d="M2502.9,1270.33l-98.48,15.15-85.84-212.09s-76.25-6.49-132.51-16.87a365.64,365.64,0,0,1-36.66-8.38s-17.67-88.37,106.05-133.82c0,0,25.62,5.32,59.48,13.56,24.06,5.85,52.27,13.18,78.4,21.1,38.35,11.62,72.21,24.55,81.78,36,11.34,13.61,18.08,72.49,22.09,133.27C2502.14,1192.89,2502.9,1270.33,2502.9,1270.33Z"/><path class="cls-76" d="M2547.05,1094.7c.63-11,1.18-21.94,1.7-32.91l-37.83-1.78c-.51,10.83-1.06,21.72-1.68,32.46Z"/><rect class="cls-77" x="2527.09" y="1064.48" width="6.08" height="3.79" transform="translate(1340.44 3540.92) rotate(-87.18)"/><rect class="cls-77" x="2526.55" y="1075.37" width="6.08" height="3.79" transform="translate(1321.4 3546.99) rotate(-87)"/><polygon class="cls-78" points="2526.95 1091.03 2530.73 1091.25 2531.07 1085.18 2527.28 1084.97 2526.95 1091.03"/><path class="cls-76" d="M2548.75,1061.79q.78-16.43,1.39-32.88l-37.85-1.41q-.6,16.26-1.37,32.51Z"/><rect class="cls-77" x="2528.52" y="1031.78" width="6.08" height="3.79" transform="translate(1398.02 3522.13) rotate(-87.72)"/><rect class="cls-77" x="2528.08" y="1042.67" width="6.08" height="3.79" transform="translate(1378.37 3528.28) rotate(-87.53)"/><rect class="cls-77" x="2527.61" y="1053.52" width="6.08" height="3.79" transform="translate(1359.39 3534.57) rotate(-87.35)"/><path class="cls-76" d="M2550.14,1028.91q.6-16.47,1-33l-37.86-.88q-.37,16.2-1,32.45Z"/><polygon class="cls-78" points="2530.66 1003.95 2534.45 1004.05 2534.61 997.97 2530.82 997.88 2530.66 1003.95"/><polygon class="cls-78" points="2530.34 1014.83 2534.12 1014.95 2534.31 1008.88 2530.53 1008.76 2530.34 1014.83"/><polygon class="cls-78" points="2529.97 1025.68 2533.75 1025.82 2533.97 1019.74 2530.18 1019.61 2529.97 1025.68"/><path class="cls-76" d="M2551.15,995.93c.25-11,.42-22,.42-33.17l-37.87,0c0,10.7-.16,21.48-.41,32.27Z"/><polygon class="cls-78" points="2531.26 971.25 2535.05 971.28 2535.08 965.19 2531.29 965.19 2531.26 971.25"/><polygon class="cls-78" points="2531.14 982.14 2534.93 982.2 2535.01 976.11 2531.22 976.07 2531.14 982.14"/><polygon class="cls-78" points="2530.93 992.99 2534.72 993.07 2534.84 986.99 2531.06 986.92 2530.93 992.99"/><path class="cls-76" d="M2551.57,962.76c0-5.57-.06-11.15-.19-16.79s-.34-11.34-.75-17.24l-37.77,2.67c.34,5,.54,10.19.66,15.45s.18,10.59.18,15.93Z"/><path class="cls-78" d="M2530.87,938.6l3.78-.16q-.12-3-.3-6.11l-3.78.23Q2530.73,935.58,2530.87,938.6Z"/><polygon class="cls-78" points="2531.18 949.46 2534.96 949.39 2534.82 943.29 2531.03 943.4 2531.18 949.46"/><polygon class="cls-78" points="2531.29 960.3 2535.07 960.28 2535.03 954.19 2531.24 954.23 2531.29 960.3"/><path class="cls-76" d="M2550.63,928.73l-.19-2.53-.05-.63-.1-1-.21-2.12c-.12-1.37-.36-3-.56-4.45s-.5-3-.76-4.49c-.12-.76-.33-1.47-.51-2.18l-.57-2.15-.72-2c-.13-.34-.23-.69-.37-1l-.45-.95a21.52,21.52,0,0,0-2-3.57l-2.56-3.22-2.54-2-1.25-1a7.26,7.26,0,0,0-.63-.46l-.7-.37c-.48-.23-.92-.5-1.42-.71l-1.48-.62a11.11,11.11,0,0,0-1.53-.55l-1.59-.48a63.62,63.62,0,0,0-13.78-1.7l-4,37.78.24,3Z"/><path class="cls-78" d="M2522.34,911.34l2-3.5a51.84,51.84,0,0,0-6.74-.74l-.88,3.75A55.57,55.57,0,0,1,2522.34,911.34Z"/><path class="cls-78" d="M2528.89,917.65l3.36-2.21a14.48,14.48,0,0,0-2.2-5.15,3.14,3.14,0,0,0-.77-.68l-2.68,3a2.57,2.57,0,0,1,.64.59,7.27,7.27,0,0,1,1,2.13C2528.52,916.1,2528.71,916.87,2528.89,917.65Z"/><path class="cls-78" d="M2530.22,927.7l3.77-.31c-.18-2.13-.4-4.47-.73-6.71l-3.64,1.35C2529.88,923.9,2530.05,925.74,2530.22,927.7Z"/><path class="cls-76" d="M2516.61,890.57l-2-.06-1.88,0h-2.28c-1.49,0-3,0-4.45.07-2.93.07-5.81.19-8.67.34-5.7.29-11.31.69-16.89,1.14l3.06,37.75c5.3-.44,10.57-.8,15.76-1.07,2.6-.13,5.17-.24,7.69-.3l3.73-.06h2Z"/><polygon class="cls-78" points="2490.49 911.61 2490.24 907.83 2484.15 908.27 2484.45 912.05 2490.49 911.61"/><path class="cls-78" d="M2501.34,911l-.16-3.79q-3.06.13-6.11.31l.22,3.78C2497.31,911.19,2499.32,911.08,2501.34,911Z"/><path class="cls-78" d="M2512.13,910.75V907c-2,0-4.1,0-6.14.07l.1,3.79C2508.11,910.78,2510.12,910.74,2512.13,910.75Z"/><path class="cls-76" d="M2480.4,892c-11.14.91-22.15,2-33.12,3.23l4.17,37.65c10.71-1.19,21.41-2.27,32-3.13Z"/><polygon class="cls-78" points="2457.95 914.51 2457.55 910.74 2451.5 911.39 2451.91 915.15 2457.95 914.51"/><polygon class="cls-78" points="2468.78 913.42 2468.41 909.65 2462.36 910.25 2462.74 914.01 2468.78 913.42"/><polygon class="cls-78" points="2479.57 912.44 2479.26 908.67 2473.19 909.2 2473.53 912.97 2479.57 912.44"/><path class="cls-76" d="M2447.28,895.26q-16.46,1.83-32.8,3.92l4.77,37.57q16.11-2,32.2-3.84Z"/><polygon class="cls-78" points="2425.46 918.24 2424.99 914.48 2418.96 915.23 2419.43 918.99 2425.46 918.24"/><polygon class="cls-78" points="2436.27 916.93 2435.82 913.17 2429.78 913.89 2430.24 917.65 2436.27 916.93"/><polygon class="cls-78" points="2447.05 915.69 2446.63 911.93 2440.58 912.62 2441.02 916.38 2447.05 915.69"/><path class="cls-76" d="M2414.48,899.18q-16.35,2.07-32.65,4.34L2387,941q16.13-2.22,32.23-4.28Z"/><rect class="cls-77" x="2386.72" y="919.09" width="6.08" height="3.79" transform="translate(-102.14 329.71) rotate(-7.73)"/><rect class="cls-77" x="2397.52" y="917.63" width="6.08" height="3.79" transform="translate(-99.68 322.03) rotate(-7.52)"/><polygon class="cls-78" points="2414.58 919.61 2414.1 915.85 2408.07 916.63 2408.56 920.38 2414.58 919.61"/><path class="cls-76" d="M2381.83,903.52c-10.89,1.51-21.69,3.05-32.64,4.7l5.69,37.44c10.63-1.6,21.42-3.14,32.14-4.63Z"/><polygon class="cls-78" points="2360.63 927.02 2360.08 923.27 2354.06 924.16 2354.62 927.91 2360.63 927.02"/><polygon class="cls-78" points="2371.41 925.46 2370.87 921.71 2364.85 922.58 2365.4 926.32 2371.41 925.46"/><rect class="cls-77" x="2375.85" y="920.6" width="6.08" height="3.79" transform="translate(-104.51 336.98) rotate(-7.93)"/><path class="cls-79" d="M2455.33,858.16c-19.52,36.66-37.52,67.77-62,90.82-17.22,16.31-37.67,28.64-64.11,36.14a223.09,223.09,0,0,1-43.48,7.47c-95.94,7.57-99.68,63.93-99.68,63.93a365.64,365.64,0,0,1-36.66-8.38s-17.67-88.37,106.05-133.82c0,0,25.62,5.32,59.48,13.56l28.89-41.34S2397.23,869.2,2455.33,858.16Z"/><path class="cls-56" d="M2149.41,1025.41s5.05-58.07,78.27-58.07,123.72-37.87,126.25-63.12H2215.06S2126.69,967.34,2149.41,1025.41Z"/><path class="cls-73" d="M2391.44,1252.94l109.34-17.69a7.85,7.85,0,0,1,9,6.79l4.34,35a7.86,7.86,0,0,1-6.64,8.74L2405,1300.91a7.84,7.84,0,0,1-8.57-5.21l-11.19-32.44A7.86,7.86,0,0,1,2391.44,1252.94Z"/><path class="cls-76" d="M2162.42,1025.79c11.32,2.56,22.76,5.21,34.12,7.89l8.7-36.86c-11.5-2.71-22.95-5.37-34.54-8Z"/><rect class="cls-80" x="2193.15" y="1011.18" width="3.79" height="6.54" transform="translate(707.73 2921.07) rotate(-76.85)"/><rect class="cls-80" x="2181.73" y="1008.52" width="3.79" height="6.54" transform="translate(707.04 2912.21) rotate(-77.01)"/><polygon class="cls-81" points="2169.46 1006.6 2168.62 1010.29 2174.99 1011.74 2175.84 1008.05 2169.46 1006.6"/><path class="cls-76" d="M2196.54,1033.68q17.05,4,34.07,8.22l9.07-36.77q-17.2-4.25-34.44-8.31Z"/><rect class="cls-80" x="2227.41" y="1019.38" width="3.79" height="6.54" transform="translate(708.03 2946.54) rotate(-76.31)"/><rect class="cls-80" x="2216.02" y="1016.62" width="3.79" height="6.54" transform="translate(708.37 2938.37) rotate(-76.5)"/><rect class="cls-80" x="2204.65" y="1013.89" width="3.79" height="6.54" transform="translate(708.12 2929.8) rotate(-76.67)"/><path class="cls-76" d="M2230.61,1041.9q17,4.2,33.88,8.6l9.61-36.63q-17.22-4.51-34.42-8.74Z"/><polygon class="cls-81" points="2260.78 1028.59 2259.84 1032.26 2266.16 1033.89 2267.12 1030.23 2260.78 1028.59"/><polygon class="cls-81" points="2249.41 1025.69 2248.48 1029.36 2254.82 1030.97 2255.75 1027.3 2249.41 1025.69"/><polygon class="cls-81" points="2238.06 1022.86 2237.15 1026.53 2243.49 1028.11 2244.41 1024.44 2238.06 1022.86"/><path class="cls-76" d="M2264.49,1050.5c11.24,3,22.45,6,33.44,9.21l10.67-36.34c-11.55-3.39-23-6.49-34.5-9.5Z"/><polygon class="cls-81" points="2294.84 1037.72 2293.82 1041.37 2300.09 1043.16 2301.14 1039.52 2294.84 1037.72"/><polygon class="cls-81" points="2283.53 1034.6 2282.53 1038.25 2288.83 1039.98 2289.84 1036.33 2283.53 1034.6"/><polygon class="cls-81" points="2272.22 1031.57 2271.26 1035.23 2277.57 1036.91 2278.55 1033.25 2272.22 1031.57"/><path class="cls-76" d="M2297.93,1059.71c5.52,1.6,10.93,3.29,16.23,5l3.91,1.32,3.78,1.36c2.43.89,4.85,1.88,6.55,2.65l16.34-34.17c-3.64-1.67-6.67-2.86-9.75-4l-4.52-1.62-4.43-1.5q-8.8-2.87-17.44-5.39Z"/><path class="cls-81" d="M2328.57,1048.27l-1.31,3.55c1,.36,2,.75,3,1.14s2,.76,3,1.2l1.49-3.48c-1-.47-2-.83-3.07-1.24S2329.6,1048.63,2328.57,1048.27Z"/><path class="cls-81" d="M2317.41,1044.47l-1.16,3.6c2.07.65,4.12,1.34,6.17,2l1.22-3.58C2321.57,1045.82,2319.5,1045.12,2317.41,1044.47Z"/><path class="cls-81" d="M2306.21,1041l-1.08,3.63c2.09.61,4.16,1.26,6.23,1.89l1.12-3.62C2310.39,1042.28,2308.31,1041.62,2306.21,1041Z"/><path class="cls-76" d="M2328.4,1070.05l.1,0,.3.53c.84,1.55,1.76,3.49,2.66,5.48,1.82,4,3.59,8.44,5.3,12.91l35.36-13.55c-1.87-4.89-3.84-9.8-6.13-14.91-1.16-2.57-2.38-5.16-3.92-8l-.64-1.13c-.3-.53-.6-1.06-.94-1.59-.66-1.06-1.33-2.12-2.07-3.13a35.75,35.75,0,0,0-5-5.5l-2.1-1.47-1.06-.72-1.12-.64-2.24-1.27-1.12-.64a11,11,0,0,0-1-.55Z"/><path class="cls-81" d="M2352.3,1073.22l-3.5,1.46c.83,2,1.63,4,2.42,6l3.53-1.38C2354,1077.28,2353.14,1075.25,2352.3,1073.22Z"/><path class="cls-81" d="M2347.4,1062.45l-3.36,1.73c.95,1.89,1.87,3.82,2.74,5.78l3.46-1.54C2349.35,1066.41,2348.41,1064.42,2347.4,1062.45Z"/><path class="cls-81" d="M2339.68,1053.07l-2.09,3.17a16.77,16.77,0,0,1,1.83,1.18,10.92,10.92,0,0,1,2.28,2.65l3-2.3a14.33,14.33,0,0,0-2.81-3.25l-1.1-.75-.55-.38Z"/><path class="cls-76" d="M2336.76,1089c4,10.5,7.77,21.43,11.41,32.41l35.95-11.9c-3.76-11.32-7.63-22.62-12-34.06Z"/><polygon class="cls-81" points="2364.5 1106.37 2360.92 1107.59 2363 1113.77 2366.59 1112.57 2364.5 1106.37"/><polygon class="cls-81" points="2360.65 1095.27 2357.09 1096.53 2359.24 1102.69 2362.82 1101.45 2360.65 1095.27"/><polygon class="cls-81" points="2356.64 1084.26 2353.1 1085.59 2355.35 1091.7 2358.91 1090.41 2356.64 1084.26"/><path class="cls-76" d="M2348.17,1121.42q5.45,16.49,10.6,33.21l36.17-11.19c-3.5-11.31-7.08-22.61-10.82-33.92Z"/><polygon class="cls-81" points="2375.41 1139.9 2371.8 1141.04 2373.75 1147.28 2377.36 1146.15 2375.41 1139.9"/><polygon class="cls-81" points="2371.86 1128.71 2368.26 1129.87 2370.24 1136.1 2373.85 1134.95 2371.86 1128.71"/><polygon class="cls-81" points="2368.25 1117.59 2364.65 1118.77 2366.68 1124.98 2370.28 1123.81 2368.25 1117.59"/><path class="cls-76" d="M2358.77,1154.63q5.16,16.71,10.13,33.51l36.31-10.76q-5-17-10.27-33.94Z"/><rect class="cls-80" x="2382.96" y="1174.02" width="3.79" height="6.54" transform="translate(-237.42 733.22) rotate(-16.66)"/><polygon class="cls-81" points="2382.35 1162.38 2378.72 1163.48 2380.61 1169.73 2384.24 1168.64 2382.35 1162.38"/><polygon class="cls-81" points="2378.92 1151.19 2375.3 1152.31 2377.22 1158.55 2380.84 1157.45 2378.92 1151.19"/><path class="cls-76" d="M2368.9,1188.14q5,16.8,9.81,33.67l36.41-10.43q-4.87-17-9.91-34Z"/><rect class="cls-80" x="2392.86" y="1207.83" width="3.79" height="6.54" transform="matrix(0.96, -0.28, 0.28, 0.96, -242.05, 712.2)"/><rect class="cls-80" x="2389.6" y="1196.57" width="3.79" height="6.54" transform="translate(-240.49 718.68) rotate(-16.28)"/><rect class="cls-80" x="2386.32" y="1185.35" width="3.79" height="6.54" transform="translate(-238.95 725.62) rotate(-16.46)"/><path class="cls-76" d="M2378.71,1221.81c3.22,11.22,6.41,22.52,9.5,33.71l36.52-10c-3.17-11.46-6.36-22.77-9.61-34.12Z"/><polygon class="cls-81" points="2405.31 1241.34 2401.66 1242.36 2403.41 1248.65 2407.07 1247.64 2405.31 1241.34"/><rect class="cls-80" x="2399.31" y="1230.43" width="3.79" height="6.54" transform="translate(-245.09 699.89) rotate(-15.79)"/><rect class="cls-80" x="2396.12" y="1219.19" width="3.79" height="6.54" transform="translate(-243.63 706.11) rotate(-15.95)"/><path class="cls-82" d="M2341.3,934.49a33.7,33.7,0,0,1-8.86,6.26c-10.28,5.15-24.44,7-40.6,7.07-60.32.1-148.41-25.52-165.15-3.2-22.73,30.29,27.77,72.54,27.77,72.54l3.23,32.79c-15.1-1.59-28-1.59-28-1.59-58.56-4.89-66.43-94.48-65-155a10,10,0,0,0,1.44.76c12.62,5,58.07,17.67,58.07,17.67L2134.31,861l141.55,53.28S2379.18,896.64,2341.3,934.49Z"/><path class="cls-38" d="M2139.31,911.79s-17.67-58.07,40.4-68.17l121.19,55.55s42.93-35.35,78.28-2.53c0,0,15.15,20.2-10.1,30.3s-68.18,17.68-68.18,17.68Z"/><path class="cls-66" d="M2141.84,919.37s-10-54.77,44.23-72.83c0,0-11.41-20.59-24-18.07s-25.24,12.62-25.24,12.62l5.05,7.58h-17.68s-10.82,33.25-6.67,68.38Z"/><polyline class="cls-38" points="2332.1 854.27 2324.31 888.13 2301.93 911.08 2300.9 899.17"/><polygon class="cls-83" points="2348.88 770.4 2313.7 934.21 2321.1 942.09 2555.92 886.54 2606.42 735.05 2598.84 727.47 2348.88 770.4"/><polygon class="cls-59" points="2606.42 735.05 2563.49 894.12 2380.11 930.2 2321.28 941.79 2326.18 920.53 2358.98 777.97 2514.97 750.9 2568.54 741.61 2606.42 735.05"/><polygon class="cls-84" points="2568.54 741.61 2380.11 930.2 2321.28 941.79 2326.18 920.53 2514.97 750.9 2568.54 741.61"/><polygon class="cls-84" points="2588.27 738.19 2408.32 924.65 2424.41 921.48 2606.42 735.05 2588.27 738.19"/><ellipse class="cls-85" cx="2478.47" cy="837.31" rx="21.24" ry="13.84" transform="translate(1078.19 3047.09) rotate(-76.31)"/><path class="cls-38" d="M2323.63,878.13l10.1-6.74s42.92-15.15,40.4-7.57-7.58,7.57-7.58,7.57,5,0,5,5.05-15.15,10.1-15.15,10.1,12-3.22,12.94,0c2.21,7.58-10.41,10.1-10.41,10.1s7.57-3.12,7.57,2.53c0,5.05-41.86,27.8-41.86,27.8s-3.59,17.65-23.79,17.65c-16.54,0,5.87-42.34,14.52-57.67A26,26,0,0,1,2323.63,878.13Z"/><path class="cls-51" d="M2097.31,592.62H1891.17a11.43,11.43,0,0,1-11.43-11.43V499.37a11.43,11.43,0,0,1,11.43-11.43h177.66a11.43,11.43,0,0,1,11.43,11.43v72.82a6.87,6.87,0,0,0,2.46,5.27l15.41,12.91A1.27,1.27,0,0,1,2097.31,592.62Z"/><circle class="cls-2" cx="2018.78" cy="540.75" r="6.98"/><circle class="cls-2" cx="1980.21" cy="540.75" r="6.98"/><circle class="cls-2" cx="1941.08" cy="540.75" r="6.98"/></g></g></svg>