<svg xmlns="http://www.w3.org/2000/svg" xmlns:xlink="http://www.w3.org/1999/xlink" viewBox="0 0 4680 3120"><defs><style>.cls-1{isolation:isolate;}.cls-2,.cls-77{fill:#fff;}.cls-3{fill:url(#linear-gradient);}.cls-14,.cls-15,.cls-16,.cls-17,.cls-18,.cls-4,.cls-76,.cls-77{fill-rule:evenodd;}.cls-4{fill:url(#linear-gradient-2);}.cls-5{fill:url(#linear-gradient-3);}.cls-12,.cls-40,.cls-52,.cls-6,.cls-75{fill:none;}.cls-12,.cls-6{stroke:#2c6d7c;}.cls-12,.cls-13,.cls-38,.cls-40,.cls-42,.cls-52,.cls-6,.cls-75,.cls-8{stroke-miterlimit:10;}.cls-6{stroke-width:5.34px;}.cls-7{fill:#1b7154;}.cls-13,.cls-8{fill:#0e2d34;stroke:#0e2d34;}.cls-75,.cls-8{stroke-width:4.96px;}.cls-9{fill:url(#linear-gradient-4);}.cls-10{fill:url(#linear-gradient-5);}.cls-11{fill:url(#linear-gradient-6);}.cls-12{stroke-width:3.8px;}.cls-13{stroke-width:3.53px;}.cls-14{fill:url(#linear-gradient-7);}.cls-15{fill:url(#linear-gradient-8);}.cls-16,.cls-28{fill:#d6d6d6;}.cls-16,.cls-28,.cls-39,.cls-48,.cls-49,.cls-55,.cls-56,.cls-84{opacity:0.6;}.cls-16,.cls-21,.cls-28,.cls-48,.cls-49,.cls-61,.cls-80,.cls-84,.cls-85{mix-blend-mode:multiply;}.cls-17{fill:url(#linear-gradient-9);}.cls-18{fill:url(#linear-gradient-10);}.cls-19{fill:#29c4cc;}.cls-20{fill:#40d3e2;}.cls-21,.cls-61{opacity:0.55;}.cls-22{fill:#a0e8e8;}.cls-23{fill:#e04646;}.cls-24{fill:#f45b5b;}.cls-25{fill:#ffb8b8;}.cls-26{fill:#06378e;}.cls-27{fill:#083db2;}.cls-29{fill:#fbbd9d;}.cls-30{fill:#d83f3f;}.cls-31{fill:#af3333;}.cls-32{fill:#339eef;}.cls-33,.cls-63{opacity:0.8;}.cls-33{fill:url(#linear-gradient-11);}.cls-34{fill:#40a4ff;}.cls-35{fill:#e27600;}.cls-36{fill:#f9a880;}.cls-37{fill:#f7a328;}.cls-38,.cls-42{fill:#ea9313;stroke:#ea9313;}.cls-38{stroke-width:1.51px;}.cls-39{fill:url(#linear-gradient-12);}.cls-40{stroke:#5cb9ff;stroke-width:2.48px;}.cls-41{fill:#fbb035;}.cls-42{stroke-width:1.78px;}.cls-43{fill:#2b2421;}.cls-44{fill:#ffba94;}.cls-45{fill:#352d29;}.cls-46{fill:#fca286;}.cls-47{fill:#443a36;}.cls-48{fill:url(#linear-gradient-13);}.cls-49{fill:url(#linear-gradient-14);}.cls-50{fill:#ff806d;}.cls-51{fill:#1c1b1a;}.cls-52{stroke:#211f77;stroke-width:2.15px;}.cls-53{fill:#298fe2;}.cls-54{fill:#5cb9ff;}.cls-55{fill:url(#linear-gradient-15);}.cls-56{fill:url(#linear-gradient-16);}.cls-57{fill:#47b2f4;}.cls-58{fill:#592a1d;}.cls-59{fill:#c91720;}.cls-60{fill:#1b2a6b;}.cls-61{fill:url(#linear-gradient-17);}.cls-62{fill:#a53737;}.cls-63{fill:url(#linear-gradient-18);}.cls-64{fill:#ffeddc;}.cls-65{fill:url(#linear-gradient-19);}.cls-66{fill:#d4dadd;}.cls-67{fill:#605f5f;}.cls-68{fill:#adadad;}.cls-69{fill:url(#linear-gradient-20);}.cls-70{fill:#5a1103;}.cls-71{fill:url(#linear-gradient-21);}.cls-72{fill:#703127;}.cls-73{fill:url(#linear-gradient-22);}.cls-74{fill:url(#linear-gradient-23);}.cls-75{stroke:#283d89;}.cls-76{fill:#c0cdea;}.cls-78{fill:#19803e;}.cls-79{fill:#9b88fe;}.cls-81,.cls-85{fill:#ccecff;}.cls-82{fill:url(#linear-gradient-24);}.cls-83{fill:#351582;}.cls-86{fill:url(#linear-gradient-25);}</style><linearGradient id="linear-gradient" x1="2342.3" y1="2753.99" x2="2342.3" y2="2501.21" gradientUnits="userSpaceOnUse"><stop offset="0" stop-color="#fff" stop-opacity="0.6"/><stop offset="0.12" stop-color="#f0f3fc" stop-opacity="0.59"/><stop offset="0.32" stop-color="#c8d4f4" stop-opacity="0.56"/><stop offset="0.57" stop-color="#87a1e8" stop-opacity="0.51"/><stop offset="0.87" stop-color="#2e5ad7" stop-opacity="0.44"/><stop offset="1" stop-color="#0036ce" stop-opacity="0.4"/></linearGradient><linearGradient id="linear-gradient-2" x1="2256.25" y1="2441.1" x2="2256.25" y2="396.19" gradientUnits="userSpaceOnUse"><stop offset="0" stop-color="#3295ca"/><stop offset="1" stop-color="#4e42b4"/></linearGradient><linearGradient id="linear-gradient-3" x1="12890.9" y1="2435.38" x2="13337.19" y2="3344.91" gradientTransform="matrix(-0.98, -0.17, -0.17, 0.98, 16939.28, 1511.83)" gradientUnits="userSpaceOnUse"><stop offset="0" stop-color="#8ccc6d"/><stop offset="0.19" stop-color="#81c768"/><stop offset="0.54" stop-color="#62b85b"/><stop offset="0.92" stop-color="#39a54a"/></linearGradient><linearGradient id="linear-gradient-4" x1="2039.78" y1="2168.88" x2="2431.78" y2="2739.53" gradientUnits="userSpaceOnUse"><stop offset="0" stop-color="#00b488"/><stop offset="0.92" stop-color="#007bc0"/></linearGradient><linearGradient id="linear-gradient-5" x1="3238.05" y1="2043.65" x2="2920.48" y2="2668.87" xlink:href="#linear-gradient-4"/><linearGradient id="linear-gradient-6" x1="2811.07" y1="943.48" x2="3128.78" y2="1590.96" gradientTransform="translate(-2109.98 1511.83) rotate(-9.99)" xlink:href="#linear-gradient-3"/><linearGradient id="linear-gradient-7" x1="2338.35" y1="1335.42" x2="2630.55" y2="1595.68" gradientUnits="userSpaceOnUse"><stop offset="0" stop-color="#fff"/><stop offset="1" stop-color="#87c5f5"/></linearGradient><linearGradient id="linear-gradient-8" x1="2549.19" y1="1187.19" x2="3232.57" y2="2285.72" xlink:href="#linear-gradient-7"/><linearGradient id="linear-gradient-9" x1="1726.16" y1="1806.99" x2="2109.13" y2="2148.11" gradientUnits="userSpaceOnUse"><stop offset="0" stop-color="#571d98"/><stop offset="1" stop-color="#736dc5"/></linearGradient><linearGradient id="linear-gradient-10" x1="1856.46" y1="1715.39" x2="2278.79" y2="2394.27" gradientUnits="userSpaceOnUse"><stop offset="0" stop-color="#321464"/><stop offset="1" stop-color="#544db8"/></linearGradient><linearGradient id="linear-gradient-11" x1="3101.22" y1="2349.1" x2="3026.79" y2="1749.96" gradientUnits="userSpaceOnUse"><stop offset="0.17" stop-color="#29abe2" stop-opacity="0.6"/><stop offset="1" stop-color="#4f80ff"/></linearGradient><linearGradient id="linear-gradient-12" x1="3265.36" y1="2115.52" x2="3016.01" y2="1446.88" gradientUnits="userSpaceOnUse"><stop offset="0" stop-color="#29abe2" stop-opacity="0.6"/><stop offset="1" stop-color="#4f80ff"/></linearGradient><linearGradient id="linear-gradient-13" x1="2994.19" y1="935.34" x2="2968.52" y2="1085.68" gradientUnits="userSpaceOnUse"><stop offset="0" stop-color="#fff" stop-opacity="0.5"/><stop offset="1"/></linearGradient><linearGradient id="linear-gradient-14" x1="13861.11" y1="3090.51" x2="13844.44" y2="3188.14" gradientTransform="matrix(-0.92, -0.39, -0.39, 0.92, 16919.24, 3492.96)" xlink:href="#linear-gradient-13"/><linearGradient id="linear-gradient-15" x1="3172.21" y1="1895.93" x2="3286.34" y2="1895.93" gradientUnits="userSpaceOnUse"><stop offset="0" stop-color="#29abe2" stop-opacity="0"/><stop offset="1" stop-color="#4f80ff"/></linearGradient><linearGradient id="linear-gradient-16" x1="3303.34" y1="1997.44" x2="3226.42" y2="1937.89" xlink:href="#linear-gradient-15"/><linearGradient id="linear-gradient-17" x1="2175.24" y1="2204.57" x2="2092.54" y2="1546.27" gradientUnits="userSpaceOnUse"><stop offset="0" stop-color="#172652" stop-opacity="0.5"/><stop offset="1" stop-color="#17263f"/></linearGradient><linearGradient id="linear-gradient-18" x1="2417.66" y1="1235.62" x2="2324.87" y2="1399.69" gradientUnits="userSpaceOnUse"><stop offset="0" stop-color="#f45b5b"/><stop offset="1" stop-color="#f42432"/></linearGradient><linearGradient id="linear-gradient-19" x1="1906.06" y1="1282.04" x2="2154.09" y2="1282.04" xlink:href="#linear-gradient-18"/><linearGradient id="linear-gradient-20" x1="2187.66" y1="1282.46" x2="2308.48" y2="1282.46" xlink:href="#linear-gradient-18"/><linearGradient id="linear-gradient-21" x1="2194.68" y1="1021.39" x2="2212.05" y2="1021.39" xlink:href="#linear-gradient-18"/><linearGradient id="linear-gradient-22" x1="2012.02" y1="1418.15" x2="1943.38" y2="926.92" xlink:href="#linear-gradient-18"/><linearGradient id="linear-gradient-23" x1="2102.88" y1="1000.67" x2="2152.5" y2="1000.67" xlink:href="#linear-gradient-18"/><linearGradient id="linear-gradient-24" x1="3689.77" y1="902.37" x2="3689.77" y2="1521.03" xlink:href="#linear-gradient-7"/><linearGradient id="linear-gradient-25" x1="1516.89" y1="523.12" x2="1516.89" y2="1496.22" xlink:href="#linear-gradient-7"/></defs><title>01</title><g class="cls-1"><g id="_01" data-name="01"><rect class="cls-2" width="4680" height="3120"/><path class="cls-3" d="M4489.65,2730.65v-43.16c0-70.42-342.07-127.5-764-127.5H959c-422,0-764,57.08-764,127.5v43.16Z"/><path class="cls-4" d="M1071.49,1967.93H792.38c-155.78,0-283.24,127.45-283.24,283.23h0c0,155.78,127.46,283.23,283.24,283.23H3544.73c252.25,0,458.63-206.39,458.63-458.63h0c0-252.25-206.38-458.64-458.63-458.64h0c-106.66,0-193.91-87.26-193.91-193.92h0c0-106.65,87.25-193.92,193.91-193.92h233.39c110.89,0,201.62-90.73,201.62-201.61h0c0-110.89-90.73-201.62-201.62-201.62H3483a78.71,78.71,0,0,1-78.49-78.49h0A78.71,78.71,0,0,1,3483,669.07h52a54.33,54.33,0,0,0,54.17-54.17h0A54.33,54.33,0,0,0,3535,560.72H3193.65c-71.9,0-79.91,84.94-261.51,84.94H2408.89a70.9,70.9,0,0,0-70.69,70.68h0A70.9,70.9,0,0,0,2408.89,787h67.89c56.32,0,102.41,46.1,102.41,102.42h0c0,56.33-46.09,102.42-102.41,102.42H2374.62c-275.88,0-314.84,72.1-363.16,215.49s-299.25,155-299.25,155H1033.14c-84.88,0-154.34,69.46-154.34,154.35h0c0,84.88,69.45,154.34,154.34,154.34h38.35c81.65,0,148.45,66.8,148.45,148.46h0c0,81.65-66.8,148.46-148.45,148.46ZM3687,669.07a54.18,54.18,0,1,1,54.17-54.17A54.18,54.18,0,0,1,3687,669.07Z"/><path class="cls-5" d="M3100,2100.36c-2.3,39.64,1.48,79.39,8.55,119.07s17.34,79.2,28,118.4c11.41,41.85,19,85.37,27.56,128.52l238.48,42a838,838,0,0,1,174.67-70.68c52.73-14.75,108.19-25,155.14-50.06s85.13-69.22,81.51-120.65-63.64-102.81-116.82-89.23c-21.47,5.48-47,18.93-63.88,3.6-15.92-14.47-2.94-37.86,13.88-48.83,27.45-17.94,62.4-24.41,95.44-33.16s66.82-21.47,85.14-47.33,13.63-68.12-17.8-85.22c-11.73-6.39-25.93-8.81-36-17.31-16.93-14.31-13.94-39.26-1.78-55.07s31-26.05,45.48-40.14c50.73-49.49,26.42-147.1-45.1-180.86s-165.62,7.89-174.41,77.21c-2.75,21.48,1.46,44.28-5.19,64.76s-30.77,37.95-53.38,28.4c-22.91-9.65-26.6-37.55-41.55-56.24-24.83-31.14-79.61-29.66-107.13-4.7s-33.14,64.43-30.35,101.35,12.59,74.09,10.46,110.65c-.77,12.83-5,27.69-18.52,30.87-21.58,5.12-35.84-21.88-49.16-39.74-31.87-42.64-104.59-45.3-145.31-15.53S3102.81,2051.25,3100,2100.36Z"/><path class="cls-6" d="M3499.84,2121.26a4141.47,4141.47,0,0,0-220.43,365.4l5.81,1c1.91-3.65,3.86-7.27,5.82-10.91q27.87-51.71,57.35-102.65a1638.42,1638.42,0,0,1,295.33-115.65c3.34-.93.82-5.68-2.5-4.72a1641.15,1641.15,0,0,0-288,112q98.31-169.53,212.89-329.88a3,3,0,0,0,.82-.14l120.16-37.86c3.31-1.06.79-5.77-2.49-4.72q-56.74,17.85-113.48,35.75,64.93-90.45,134.74-177.67c2-2.54-2.64-5.72-4.66-3.18q-66.87,83.43-129.27,169.92-33.69,46.68-65.93,94.25a827.71,827.71,0,0,0-10.64-186.84c-.54-3.25-6-2.64-5.47.62a822.41,822.41,0,0,1,9.92,195C3499.82,2121.05,3499.83,2121.17,3499.84,2121.26Z"/><path class="cls-6" d="M3250.81,2481.63l5.54,1c26.18-124.74,34.28-252.83,27.91-383.1-.14-3.24-5.74-4-5.58-.73C3285.06,2229,3277,2357,3250.81,2481.63Z"/><path class="cls-7" d="M3473.9,2305.3c.59,24.33,4.9,48.43,11.22,72.32s14.59,47.52,23.08,70.93c9.09,25,15.92,51.21,23.32,77.15l147.83,13.65a513.92,513.92,0,0,1,103.17-52c31.48-11.67,64.86-20.73,92.28-38.41s48.53-46.58,43.72-77.82-44.06-59.62-75.87-48.64c-12.85,4.43-27.79,13.94-38.85,5.42-10.46-8-3.7-23,6-30.54,15.87-12.34,36.9-18,56.65-25.07s39.74-16.48,49.64-33.2,4.89-42.32-15.18-51.18c-7.48-3.32-16.28-4.08-22.84-8.77-11.06-7.89-10.49-23.28-3.86-33.56s17.65-17.48,25.77-26.82c28.5-32.79,8.73-91.21-36.67-108.24s-100.8,13.17-102.68,56c-.6,13.26,3.12,27,.09,39.83s-16.89,24.74-31.19,20c-14.48-4.74-18.14-21.6-28.22-32.27-16.74-17.77-50.14-14.11-65.69,2.53s-17,41-13.44,63.45,11.42,44.64,12,67.09c.18,7.88-1.67,17.17-9.76,19.79-12.93,4.22-23-11.56-32-21.81-21.62-24.45-66.19-22.4-89.57-2.16S3473.17,2275.14,3473.9,2305.3Z"/><path class="cls-8" d="M3719.3,2297.92A2538.65,2538.65,0,0,0,3603,2532.3l3.61.33c1-2.33,2-4.63,3-7q14.41-33,29.86-65.61a1004.92,1004.92,0,0,1,174.63-85.54c2-.74.22-3.51-1.76-2.76A1005.48,1005.48,0,0,0,3642,2454.68q51.53-108.54,113.47-212.29a2.06,2.06,0,0,0,.5-.13l71.51-29.19c2-.81.19-3.56-1.76-2.75q-33.78,13.75-67.54,27.55,35.12-58.53,73.38-115.34c1.11-1.66-1.9-3.36-3-1.71q-36.66,54.34-70.43,110.33-18.24,30.22-35.54,60.92a507,507,0,0,0-15.91-113.63c-.49-2-3.82-1.31-3.31.65a503.81,503.81,0,0,1,15.88,118.63C3719.27,2297.79,3719.29,2297.86,3719.3,2297.92Z"/><path class="cls-8" d="M3585.29,2530.66l3.43.32c9.71-77.54,8.21-156.22-2.24-235.5-.26-2-3.72-2.15-3.45-.16C3593.49,2374.56,3595,2453.19,3585.29,2530.66Z"/><path class="cls-9" d="M2896.82,2404.14S2691.49,2061.41,2423,2208.66c0,0-126.36-242.51-284.3-126.28s-126.36,242.56-126.36,242.56-321.29-321.23-481.73-85.57,221.13,294,221.13,294h1145.1Z"/><path class="cls-10" d="M3480.5,2296.54c-62.56-73.84-157.68-140.55-267.21-63.09,0,0-92.15-228.07-207.35-118.76s-92.15,228.12-92.15,228.12-293.74-338-351.33-80.48,161.27,276.48,161.27,276.48h835.13C3558.86,2444.55,3530.17,2355.16,3480.5,2296.54Z"/><path class="cls-11" d="M1335.68,2256.61c1.64,28.22-1,56.52-6.08,84.76s-12.35,56.39-19.95,84.29c-8.13,29.79-13.53,60.78-19.62,91.5l-169.77,29.89a597.3,597.3,0,0,0-124.35-50.32c-37.53-10.49-77-17.79-110.44-35.63s-60.6-49.28-58-85.89,45.3-73.19,83.16-63.52c15.28,3.9,33.49,13.47,45.47,2.56,11.33-10.3,2.09-26.95-9.88-34.76-19.54-12.77-44.42-17.37-67.94-23.61s-47.57-15.28-60.61-33.69-9.71-48.5,12.67-60.66c8.35-4.56,18.46-6.28,25.6-12.33,12.05-10.19,9.92-27.95,1.26-39.2s-22.09-18.55-32.37-28.58c-36.11-35.23-18.81-104.72,32.11-128.75s117.9,5.61,124.16,55c2,15.3-1.05,31.53,3.69,46.11s21.9,27,38,20.22c16.31-6.88,18.94-26.74,29.58-40,17.68-22.16,56.68-21.1,76.26-3.34s23.6,45.87,21.61,72.15-9,52.74-7.44,78.77c.54,9.14,3.57,19.71,13.18,22,15.36,3.64,25.51-15.58,35-28.3,22.69-30.35,74.46-32.24,103.45-11.05S1333.65,2221.65,1335.68,2256.61Z"/><path class="cls-12" d="M1051,2271.48a2951.26,2951.26,0,0,1,156.93,260.13l-4.14.73c-1.36-2.6-2.75-5.17-4.15-7.76q-19.83-36.81-40.82-73.07a1166,1166,0,0,0-210.24-82.34c-2.38-.66-.59-4,1.78-3.35a1167.16,1167.16,0,0,1,205,79.7q-70-120.69-151.55-234.84a2.09,2.09,0,0,1-.59-.1l-85.54-27c-2.36-.75-.56-4.1,1.78-3.35q40.39,12.7,80.78,25.44-46.21-64.38-95.92-126.48c-1.44-1.8,1.88-4.06,3.32-2.25q47.61,59.39,92,120.95,24,33.24,46.93,67.1a589.75,589.75,0,0,1,7.57-133c.39-2.31,4.3-1.88,3.9.44a584.49,584.49,0,0,0-7.06,138.8C1051,2271.34,1051,2271.42,1051,2271.48Z"/><path class="cls-12" d="M1228.28,2528l-3.94.69c-18.64-88.8-24.4-180-19.87-272.73.1-2.3,4.09-2.84,4-.51C1203.9,2348.18,1209.64,2439.31,1228.28,2528Z"/><path class="cls-7" d="M1069.47,2402.5c-.42,17.32-3.49,34.48-8,51.49s-10.38,33.83-16.43,50.49c-6.47,17.8-11.33,36.46-16.6,54.92l-105.24,9.72a365.48,365.48,0,0,0-73.44-37c-22.41-8.31-46.17-14.76-65.69-27.34s-34.55-33.16-31.13-55.4,31.37-42.44,54-34.63c9.15,3.16,19.79,9.92,27.66,3.86,7.44-5.73,2.64-16.36-4.29-21.74C819,2388.07,804.06,2384,790,2379s-28.3-11.73-35.34-23.64-3.49-30.12,10.8-36.43c5.33-2.36,11.59-2.9,16.26-6.24,7.88-5.62,7.47-16.57,2.75-23.89s-12.57-12.45-18.34-19.09c-20.3-23.35-6.22-64.94,26.1-77.06s71.76,9.37,73.1,39.84c.43,9.45-2.23,19.21-.07,28.36s12,17.61,22.2,14.27,12.92-15.38,20.09-23c11.92-12.65,35.7-10,46.77,1.8s12.11,29.22,9.57,45.17-8.13,31.78-8.52,47.76c-.12,5.61,1.19,12.22,7,14.1,9.2,3,16.38-8.24,22.81-15.53,15.39-17.41,47.12-15.95,63.77-1.54S1070,2381,1069.47,2402.5Z"/><path class="cls-13" d="M894.78,2397.25a1810.44,1810.44,0,0,1,82.78,166.85l-2.57.24c-.7-1.66-1.42-3.3-2.14-5q-10.26-23.51-21.26-46.71a715.18,715.18,0,0,0-124.32-60.9c-1.42-.53-.16-2.5,1.26-2a716,716,0,0,1,121.26,59Q913.1,2431.57,869,2357.72a1.5,1.5,0,0,1-.35-.09l-50.91-20.78c-1.4-.58-.14-2.54,1.25-2l48.08,19.61q-25-41.67-52.24-82.11c-.79-1.18,1.35-2.39,2.14-1.21q26.1,38.68,50.14,78.54,13,21.51,25.3,43.36a361,361,0,0,1,11.33-80.89c.35-1.39,2.72-.93,2.36.47a358.13,358.13,0,0,0-11.31,84.45A.78.78,0,0,0,894.78,2397.25Z"/><path class="cls-13" d="M990.18,2562.94l-2.45.22c-6.91-55.2-5.84-111.21,1.6-167.65.18-1.4,2.64-1.53,2.45-.11C984.34,2451.81,983.25,2507.79,990.18,2562.94Z"/><path class="cls-14" d="M2312.33,1943.8l-97.1,49.64a693.15,693.15,0,0,0,38.08,130.2l3.64-.35.14.35,3.65-.35c0,.12.09.23.13.35l3.65-.35.14.35,3.64-.35.14.35,3.65-.35.14.35,3.64-.35.14.35,3.64-.35.14.35,3.65-.35.14.35,3.64-.35.14.35,3.65-.35c0,.12.09.23.13.35l3.65-.35.14.35,3.64-.35.14.35,3.65-.35c0,.12.09.23.13.35l3.65-.35.14.35,3.64-.35.14.35,3.65-.35c0,.12.09.23.13.35l3.65-.35.14.35,3.64-.35.14.35,3.65-.35c0,.12.09.23.13.35l3.65-.35.14.35,36.25-3.51a587.64,587.64,0,0,0,64.49,104.63l-59.26,91.52a690.72,690.72,0,0,0,98.08,93.74l2-1.43c.6.47,1.18,1,1.78,1.43l2-1.43c.6.47,1.18,1,1.78,1.43l2-1.43c.59.47,1.18,1,1.78,1.43l2-1.43c.6.47,1.18,1,1.78,1.43l2-1.43c.6.47,1.18,1,1.78,1.43l2-1.43c.59.47,1.18,1,1.78,1.43l2-1.43c.6.47,1.18,1,1.78,1.43l2-1.43c.6.47,1.18,1,1.78,1.43l2-1.43c.59.47,1.18,1,1.78,1.43l2-1.43c.6.47,1.18,1,1.78,1.43l2-1.43c.6.47,1.18,1,1.78,1.43l2-1.43c.59.47,1.18,1,1.78,1.43l2-1.43c.6.47,1.18,1,1.78,1.43l2-1.43c.6.47,1.18,1,1.78,1.43l2-1.43c.6.47,1.18,1,1.78,1.43l2-1.43c.6.47,1.18,1,1.78,1.43l2-1.43c.6.47,1.18,1,1.78,1.43l2-1.43c.6.47,1.18,1,1.78,1.43l2-1.43c.6.47,1.18,1,1.78,1.43l2-1.43c.6.47,1.19,1,1.78,1.43l52.9-37.78a586.38,586.38,0,0,0,74.77,37.13l-5.56,108.9a691.62,691.62,0,0,0,131.8,32.14l.25-.54c1.18.17,2.35.38,3.54.54l.24-.54c1.18.17,2.36.38,3.54.54l.25-.54c1.18.17,2.35.38,3.53.54l.25-.54c1.18.17,2.36.38,3.54.54l.24-.54c1.18.17,2.36.38,3.54.54l.25-.54c1.18.17,2.35.38,3.53.54l.25-.54c1.18.17,2.36.38,3.54.54l.25-.54c1.17.17,2.35.38,3.53.54l.25-.54c1.18.17,2.35.38,3.53.54l.25-.54c1.18.17,2.36.38,3.54.54l.25-.54c1.17.17,2.35.38,3.53.54l.25-.54c1.18.17,2.35.38,3.53.54l.25-.54c1.18.17,2.36.38,3.54.54l.25-.54c1.18.17,2.35.38,3.53.54l.25-.54c1.18.17,2.35.38,3.53.54l.25-.54c1.18.17,2.36.38,3.54.54l.25-.54c1.18.17,2.35.38,3.53.54l.25-.54c1.18.17,2.35.38,3.53.54l.25-.54c1.18.17,2.36.38,3.54.54l.25-.54c1.18.17,2.35.38,3.53.54l44.14-97c1.15,0,2.31,0,3.46,0s2.52,0,3.79,0,2.52,0,3.78,0,2.52,0,3.78,0,2.52,0,3.79,0,2.52,0,3.78,0,2.52,0,3.78,0,2.52,0,3.79,0,2.52,0,3.78,0,2.52,0,3.78,0,2.52,0,3.79,0,2.52,0,3.78,0,2.52,0,3.78,0c3.26,0,6.51,0,9.76,0l47,91.9c1.14-.21,2.28-.47,3.43-.69l.35.69c1.15-.21,2.28-.47,3.43-.69l.35.69c1.15-.21,2.29-.47,3.43-.69l.36.69c1.14-.21,2.28-.47,3.43-.69l.35.69c1.15-.21,2.29-.47,3.43-.69l.35.69c1.15-.21,2.29-.47,3.43-.69l.36.69c1.14-.21,2.28-.47,3.43-.69l.35.69c1.15-.21,2.29-.47,3.43-.69l.35.69c1.15-.21,2.29-.47,3.43-.69l.36.69c1.14-.21,2.28-.47,3.43-.69l.35.69c1.15-.21,2.29-.47,3.43-.69l.35.69c1.15-.21,2.29-.47,3.43-.69l.36.69c1.14-.21,2.28-.47,3.43-.69l.35.69c1.15-.21,2.29-.47,3.43-.69l.35.69c1.15-.21,2.29-.47,3.43-.69l.36.69c1.14-.21,2.28-.47,3.43-.69l.35.69c1.15-.21,2.29-.47,3.43-.69l.35.69c1.15-.21,2.29-.47,3.44-.69l.35.69c1.14-.21,2.28-.47,3.43-.69l.35.69c1.15-.21,2.29-.47,3.43-.69l.35.69a691.42,691.42,0,0,0,130.22-38.08l-10.51-108.53a588.15,588.15,0,0,0,75.59-42.22l51.89,33.62,1.61-1.42,2.18,1.42,1.6-1.42,2.18,1.42,1.6-1.42,2.18,1.42,1.61-1.42,2.18,1.42,1.6-1.42,2.18,1.42,1.6-1.42,2.18,1.42,1.61-1.42,2.18,1.42,1.6-1.42,2.18,1.42,1.6-1.42,2.18,1.42,1.61-1.42,2.18,1.42,1.6-1.42,2.18,1.42,1.6-1.42,2.18,1.42,1.61-1.42,2.18,1.42,1.6-1.42,2.18,1.42,1.6-1.42,2.18,1.42,1.61-1.42,2.18,1.42,1.6-1.42,2.18,1.42,1.6-1.42,2.18,1.42,1.61-1.42,2.18,1.42,1.6-1.42,2.18,1.42a691.35,691.35,0,0,0,93.73-98.1l-63.37-88.73a589.28,589.28,0,0,0,61.12-110.82l34.85,1.79.06-.19,3.72.19a1.46,1.46,0,0,1,.07-.19l3.72.19.06-.19,3.72.19.06-.19,3.72.19a1.46,1.46,0,0,1,.07-.19l3.72.19.06-.19,3.72.19.06-.19,3.72.19a1.46,1.46,0,0,1,.07-.19l3.72.19.06-.19,3.72.19.06-.19,3.72.19a1.46,1.46,0,0,1,.07-.19l3.72.19.06-.19,3.72.19.06-.19,3.72.19c0-.06,0-.13.07-.19l3.72.19.06-.19,3.72.19.06-.19,3.72.19a1.46,1.46,0,0,0,.07-.19l3.72.19.06-.19,3.72.19.06-.19,3.72.19a1.46,1.46,0,0,0,.07-.19l3.72.19a691.61,691.61,0,0,0,32.13-131.82l-99.25-45.18a588.73,588.73,0,0,0-3-130.6l97.09-49.61A692,692,0,0,0,3613,1606.77l-3.65.35c0-.12-.09-.24-.14-.35l-3.64.35c-.05-.12-.09-.24-.14-.35l-3.65.35c0-.12-.09-.24-.13-.35l-3.65.35c-.05-.12-.09-.24-.14-.35l-3.64.35c0-.12-.09-.24-.14-.35l-3.65.35c0-.12-.09-.24-.13-.35l-3.65.35c-.05-.12-.09-.24-.14-.35l-3.64.35c0-.12-.09-.24-.14-.35l-3.65.35c0-.12-.09-.24-.13-.35l-3.65.35c-.05-.12-.09-.24-.14-.35l-3.64.35c-.05-.12-.09-.24-.14-.35l-3.65.35c0-.12-.09-.24-.13-.35l-3.65.35c0-.12-.09-.24-.14-.35l-3.64.35c-.05-.12-.09-.24-.14-.35l-3.65.35c0-.12-.09-.24-.13-.35l-3.65.35c0-.12-.09-.24-.14-.35l-3.64.35c-.05-.12-.09-.24-.14-.35l-3.65.35c0-.12-.09-.24-.13-.35l-3.65.35c-.05-.12-.09-.24-.14-.35l-3.64.35c0-.12-.09-.24-.14-.35l-36.26,3.51a586.51,586.51,0,0,0-64.5-104.6l59.28-91.55a691.78,691.78,0,0,0-98.08-93.74l-2,1.43c-.6-.47-1.18-1-1.78-1.43l-2,1.43c-.6-.47-1.18-1-1.78-1.43l-2,1.43c-.6-.47-1.18-1-1.78-1.43l-2,1.43c-.6-.47-1.18-1-1.78-1.43l-2,1.43c-.6-.47-1.18-1-1.78-1.43l-2,1.43c-.6-.47-1.18-1-1.78-1.43l-2,1.43c-.6-.47-1.18-1-1.78-1.43l-2,1.43c-.6-.47-1.19-1-1.78-1.43l-2,1.43c-.6-.47-1.18-1-1.78-1.43l-2,1.43c-.6-.47-1.18-1-1.78-1.43l-2,1.43c-.6-.47-1.19-1-1.78-1.43l-2,1.43c-.6-.47-1.18-1-1.78-1.43l-2,1.43c-.6-.47-1.18-1-1.78-1.43l-2,1.43c-.59-.47-1.18-1-1.78-1.43l-2,1.43c-.6-.47-1.18-1-1.78-1.43l-2,1.43c-.6-.47-1.18-1-1.78-1.43l-2,1.43c-.59-.47-1.18-1-1.78-1.43l-2,1.43c-.6-.47-1.18-1-1.78-1.43l-2,1.43c-.6-.47-1.18-1-1.78-1.43l-2,1.43c-.59-.47-1.18-1-1.78-1.43l-52.9,37.78a586.39,586.39,0,0,0-74.77-37.13l5.56-108.9a691.44,691.44,0,0,0-131.8-32.14l-.25.54c-1.18-.17-2.35-.37-3.53-.54l-.25.54-3.54-.54-.24.54-3.54-.54-.25.54c-1.18-.17-2.35-.37-3.53-.54l-.25.54-3.54-.54-.24.54-3.54-.54-.25.54c-1.18-.17-2.35-.37-3.53-.54l-.25.54-3.54-.54-.25.54c-1.17-.17-2.35-.37-3.53-.54l-.25.54c-1.18-.17-2.35-.37-3.53-.54l-.25.54-3.54-.54-.25.54c-1.17-.17-2.35-.37-3.53-.54l-.25.54c-1.18-.17-2.35-.37-3.53-.54l-.25.54-3.54-.54-.25.54c-1.18-.17-2.35-.37-3.53-.54l-.25.54c-1.18-.17-2.35-.37-3.53-.54l-.25.54-3.54-.54-.25.54c-1.18-.17-2.35-.37-3.53-.54l-.25.54c-1.18-.17-2.35-.37-3.53-.54l-.25.54-3.54-.54-44.13,97H2899.5c-3.25,0-6.5,0-9.76.06l-47-91.91c-1.15.21-2.29.47-3.43.69l-.35-.69c-1.15.21-2.29.47-3.43.69l-.36-.69c-1.14.21-2.28.47-3.43.69l-.35-.69c-1.15.21-2.29.47-3.43.69l-.35-.69c-1.15.21-2.29.47-3.43.69l-.36-.69c-1.14.21-2.28.47-3.43.69l-.35-.69c-1.15.21-2.29.47-3.43.69l-.35-.69c-1.15.21-2.29.47-3.43.69l-.36-.69c-1.14.21-2.28.47-3.43.69l-.35-.69c-1.15.21-2.29.47-3.43.69l-.35-.69c-1.15.21-2.29.47-3.43.69l-.36-.69c-1.14.21-2.28.47-3.43.69l-.35-.69c-1.15.21-2.29.47-3.43.69l-.35-.69c-1.15.21-2.29.47-3.44.69l-.35-.69c-1.14.21-2.28.47-3.43.69l-.35-.69c-1.15.21-2.29.47-3.43.69l-.35-.69c-1.15.21-2.29.47-3.44.69l-.35-.69c-1.14.21-2.28.47-3.43.69l-.35-.69c-1.15.21-2.29.47-3.43.69l-.36-.69c-1.14.21-2.28.47-3.43.69l-.35-.69a692.38,692.38,0,0,0-130.21,38.08l10.51,108.53A589.89,589.89,0,0,0,2571.8,1374l-51.9-33.62-1.6,1.42-2.18-1.42-1.6,1.42-2.18-1.42c-.55.47-1.07,1-1.61,1.42l-2.18-1.42-1.6,1.42-2.18-1.42-1.6,1.42-2.19-1.42-1.6,1.42-2.18-1.42-1.6,1.42-2.18-1.42-1.61,1.42-2.18-1.42-1.6,1.42-2.18-1.42-1.6,1.42-2.18-1.42-1.61,1.42-2.18-1.42-1.6,1.42-2.18-1.42-1.6,1.42-2.18-1.42-1.61,1.42-2.18-1.42-1.6,1.42-2.18-1.42-1.6,1.42-2.18-1.42-1.61,1.42-2.18-1.42-1.6,1.42-2.18-1.42-1.6,1.42-2.18-1.42-1.61,1.42-2.18-1.42a692.86,692.86,0,0,0-93.73,98.09l63.37,88.77A587.55,587.55,0,0,0,2352.76,1638l-34.85-1.79c0,.06,0,.13-.07.19l-3.72-.19-.06.19-3.72-.19-.06.19-3.72-.19a1.46,1.46,0,0,0-.07.19l-3.72-.19-.06.19-3.72-.19-.06.19-3.72-.19a1.46,1.46,0,0,0-.07.19l-3.72-.19-.06.19-3.72-.19-.06.19-3.72-.19a1.46,1.46,0,0,0-.07.19l-3.72-.19-.06.19-3.72-.19-.06.19-3.72-.19a1.46,1.46,0,0,0-.07.19l-3.72-.19-.06.19-3.72-.19a1.46,1.46,0,0,1-.07.19l-3.71-.19a1.46,1.46,0,0,0-.07.19l-3.72-.19-.06.19-3.72-.19a1.46,1.46,0,0,1-.07.19l-3.71-.19a1.46,1.46,0,0,0-.07.19l-3.72-.19-.06.19-3.72-.19A691.61,691.61,0,0,0,2210.11,1768l99.25,45.18A588.13,588.13,0,0,0,2312.33,1943.8Zm811.38,139.65a314.58,314.58,0,0,1-190.63,95.35,314.35,314.35,0,0,1-180.35-85.19C2626.67,1973.15,2622.12,1773,2742.57,1647a314.47,314.47,0,0,1,190.62-95.33,314.4,314.4,0,0,1,180.37,85.17C3239.62,1757.26,3244.17,1957.39,3123.71,2083.45Z"/><path class="cls-15" d="M3189.23,1636.8c126.05,120.46,130.61,320.59,10.15,446.65s-320.6,130.62-446.65,10.16S2622.12,1773,2742.57,1647,3063.16,1516.36,3189.23,1636.8Zm-699.7-109.6a588,588,0,0,0-62.72,114.58l-108.9-5.58A692.39,692.39,0,0,0,2285.77,1768L2385,1813.2a588.13,588.13,0,0,0,3,130.6l-97.11,49.64a693.18,693.18,0,0,0,38.09,130.2l108.55-10.51a588.18,588.18,0,0,0,67.86,111.63l-59.26,91.52A691.18,691.18,0,0,0,2544.2,2410l88.76-63.38a587.53,587.53,0,0,0,114.58,62.73l-5.56,108.9a691.62,691.62,0,0,0,131.8,32.14l45.17-99.25a589.38,589.38,0,0,0,130.61-3l49.64,97.09a691.54,691.54,0,0,0,130.21-38.08l-10.51-108.53a588.74,588.74,0,0,0,111.63-67.89l91.52,59.29a691.35,691.35,0,0,0,93.73-98.1l-63.37-88.73a589.1,589.1,0,0,0,62.74-114.61l108.9,5.58a691.61,691.61,0,0,0,32.13-131.82l-99.25-45.18a588.73,588.73,0,0,0-3-130.6l97.09-49.61A692,692,0,0,0,3613,1606.77l-108.55,10.51a587.73,587.73,0,0,0-67.88-111.6l59.28-91.55a691.78,691.78,0,0,0-98.08-93.74L3309,1383.77A587.48,587.48,0,0,0,3194.41,1321l5.56-108.9a691.44,691.44,0,0,0-131.8-32.14L3023,1279.25a588.71,588.71,0,0,0-130.6,3l-49.64-97.1a692.38,692.38,0,0,0-130.21,38.08l10.51,108.53a588.83,588.83,0,0,0-111.63,67.89l-91.53-59.29a692.86,692.86,0,0,0-93.73,98.09Z"/><path class="cls-16" d="M2264.14,2003c79.05,75.55,80.78,201.79,2.93,279.45-73.32,73.14-192.68,75.84-269.22,6.1-81.27-74.05-85.27-200.22-9.74-279.27C2062.55,1931.32,2186.23,1928.52,2264.14,2003Zm-432.41-67.73A363.62,363.62,0,0,0,1793,2006l-67.3-3.45a428.24,428.24,0,0,0-19.85,81.47l61.33,27.92a364.34,364.34,0,0,0,1.84,80.71l-60,30.67a427.81,427.81,0,0,0,23.54,80.47l67.08-6.5a363,363,0,0,0,41.94,69l-36.63,56.56a427.48,427.48,0,0,0,60.62,57.93l54.84-39.17a363.46,363.46,0,0,0,70.82,38.77l-3.44,67.3a427.5,427.5,0,0,0,81.45,19.86l27.92-61.33a363.71,363.71,0,0,0,80.71-1.84l30.68,60a427,427,0,0,0,80.47-23.53l-6.5-67.07a363.42,363.42,0,0,0,69-42l44,28.53a19.54,19.54,0,0,0,23.83-2,428.77,428.77,0,0,0,37.08-38.81,19.52,19.52,0,0,0,.87-23.89l-30.5-42.7a363.82,363.82,0,0,0,38.78-70.83l51,2.62A21.21,21.21,0,0,0,2538,2270a425.92,425.92,0,0,0,12.07-49.52,21.23,21.23,0,0,0-12.18-23l-46.52-21.17a363.73,363.73,0,0,0-1.84-80.71l47.48-24.26a18.45,18.45,0,0,0,9.65-20.39,427.72,427.72,0,0,0-19-62.2,6.14,6.14,0,0,0-6.31-3.85l-62.48,6.05a363.37,363.37,0,0,0-41.94-69l31-47.87a13.72,13.72,0,0,0-1.36-16.65,428.07,428.07,0,0,0-45.36-43.35,13.71,13.71,0,0,0-16.69-.61l-46.42,33.14a362.52,362.52,0,0,0-70.81-38.76l2.76-54a17.44,17.44,0,0,0-12.13-17.53,427.6,427.6,0,0,0-68.64-15.6L2161.41,1782a363.71,363.71,0,0,0-80.71,1.84l-30.68-60a427.81,427.81,0,0,0-80.47,23.54l6.5,67.07a364.09,364.09,0,0,0-69,42l-56.56-36.64a428.53,428.53,0,0,0-57.93,60.62Z"/><path class="cls-17" d="M1710.08,2183l-60,30.68a427.93,427.93,0,0,0,23.54,80.46l2.25-.22c0,.08.06.15.08.22l2.26-.22c0,.08,0,.15.08.22l2.26-.22a1.43,1.43,0,0,0,.08.22l2.25-.22.09.22,2.25-.22.09.22,2.25-.22.09.22,2.25-.22c0,.08,0,.15.08.22l2.26-.22c0,.08,0,.15.08.22l2.25-.22.09.22,2.25-.22.09.22,2.25-.22.09.22,2.25-.22c0,.08.05.15.08.22l2.26-.22c0,.08,0,.15.08.22l2.26-.22a1.43,1.43,0,0,0,.08.22l2.25-.22.09.22,2.25-.22.09.22,2.25-.22c0,.08.06.15.08.22l2.26-.22c0,.08.05.15.08.22l2.26-.22c0,.08,0,.15.08.22l2.25-.22.09.22,22.4-2.17a363.43,363.43,0,0,0,39.86,64.66L1746,2413.16a426.92,426.92,0,0,0,60.62,57.93l1.23-.88,1.1.88,1.24-.88,1.1.88,1.24-.88,1.1.88,1.24-.88,1.1.88,1.24-.88,1.1.88,1.24-.88,1.1.88,1.23-.88,1.1.88,1.24-.88,1.1.88,1.24-.88,1.1.88,1.24-.88,1.1.88,1.24-.88,1.1.88,1.23-.88,1.1.88,1.24-.88,1.1.88,1.24-.88,1.1.88,1.24-.88,1.1.88,1.24-.88,1.1.88,1.24-.88c.36.29.72.59,1.1.88l1.23-.88,1.1.88,1.24-.88,1.1.88,1.24-.88,1.1.88,32.69-23.34a363.15,363.15,0,0,0,46.21,22.94l-3.44,67.3a428.28,428.28,0,0,0,81.45,19.87l.16-.34,2.18.34.16-.34,2.18.34.15-.34,2.19.34.15-.34,2.19.34.15-.34,2.19.34.15-.34,2.18.34.16-.34,2.18.34.15-.34,2.19.34.15-.34,2.19.34.15-.34,2.19.34.15-.34,2.18.34.16-.34,2.18.34.16-.34,2.18.34.15-.34,2.19.34.15-.34,2.19.34.15-.34,2.18.34.16-.34,2.18.34.16-.34,2.18.34.15-.34,2.19.34.15-.34,2.19.34,27.27-59.94h30.2c2,0,4,0,6,0l29,56.79c.71-.13,1.41-.28,2.12-.42l.22.42c.71-.13,1.41-.28,2.12-.42l.22.42,2.12-.42.21.42c.71-.13,1.42-.28,2.12-.42l.22.42c.71-.13,1.41-.28,2.12-.42l.22.42c.71-.13,1.41-.28,2.12-.42l.22.42c.71-.13,1.41-.28,2.12-.42l.22.42c.71-.13,1.41-.28,2.12-.42l.21.42c.71-.13,1.42-.28,2.12-.42l.22.42c.71-.13,1.42-.28,2.12-.42l.22.42c.71-.13,1.41-.28,2.12-.42l.22.42c.71-.13,1.41-.28,2.12-.42l.22.42c.71-.13,1.41-.28,2.12-.42l.22.42,2.12-.42.21.42c.71-.13,1.42-.28,2.12-.42l.22.42c.71-.13,1.41-.28,2.12-.42l.22.42c.71-.13,1.41-.28,2.12-.42l.22.42c.71-.13,1.41-.28,2.12-.42l.22.42,2.12-.42.21.42c.71-.13,1.42-.28,2.12-.42l.22.42a427,427,0,0,0,80.47-23.53l-6.49-67.07a363.64,363.64,0,0,0,46.72-26.09l32.06,20.77,1-.87,1.34.87,1-.87,1.35.87,1-.87,1.35.87,1-.87,1.35.87,1-.87,1.34.87,1-.87,1.34.87,1-.87,1.35.87,1-.87,1.35.87,1-.87,1.35.87,1-.87,1.35.87,1-.87,1.34.87,1-.87,1.35.87,1-.87,1.35.87,1-.87,1.35.87,1-.87,1.35.87,1-.87,1.34.87,1-.87,1.34.87,1-.87,1.35.87,1-.87,1.35.87,1-.87,1.35.87a427.43,427.43,0,0,0,57.92-60.62l-39.16-54.84a363.38,363.38,0,0,0,37.77-68.48l21.54,1.1a.49.49,0,0,1,0-.11l2.3.11,0-.11,2.3.11a.49.49,0,0,0,0-.11l2.3.11a.49.49,0,0,0,0-.11l2.3.11s0-.07,0-.11l2.3.11a.49.49,0,0,1,0-.11l2.3.11a.49.49,0,0,1,0-.11l2.29.11a.49.49,0,0,0,0-.11l2.3.11a.49.49,0,0,0,0-.11l2.3.11s0-.07,0-.11l2.3.11a.49.49,0,0,1,0-.11l2.3.11a.49.49,0,0,1,0-.11l2.29.11a.49.49,0,0,0,0-.11l2.3.11a.49.49,0,0,0,0-.11l2.3.11s0-.07,0-.11l2.3.11s0-.07,0-.11l2.3.11a.49.49,0,0,1,0-.11l2.3.11a.49.49,0,0,1,0-.11l2.29.11a.49.49,0,0,0,0-.11l2.3.11a.49.49,0,0,0,0-.11l2.3.11a427.23,427.23,0,0,0,19.86-81.46l-61.34-27.92a363.74,363.74,0,0,0-1.83-80.71l60-30.66a428,428,0,0,0-23.53-80.49l-2.25.22-.09-.22-2.25.22-.09-.22-2.25.22-.09-.22-2.25.22c0-.07-.05-.14-.08-.22l-2.26.22c0-.07-.05-.14-.08-.22l-2.26.22c0-.07,0-.14-.08-.22l-2.25.22-.09-.22-2.25.22-.09-.22-2.25.22a1.43,1.43,0,0,1-.08-.22l-2.26.22c0-.07,0-.14-.08-.22l-2.26.22c0-.07,0-.14-.08-.22l-2.25.22-.09-.22-2.25.22-.09-.22-2.25.22-.09-.22-2.25.22c0-.07,0-.14-.08-.22l-2.26.22c0-.07-.05-.14-.08-.22l-2.26.22c0-.07-.05-.14-.08-.22l-2.25.22-.09-.22-2.25.22-.09-.22-2.25.22a1.43,1.43,0,0,1-.08-.22l-22.41,2.17a362.69,362.69,0,0,0-39.86-64.64l36.63-56.57a426.85,426.85,0,0,0-60.61-57.93l-1.24.88-1.1-.88-1.24.88-1.1-.88-1.23.88-1.1-.88-1.24.88-1.1-.88-1.24.88-1.1-.88-1.24.88-1.1-.88-1.24.88-1.1-.88-1.23.88-1.1-.88-1.24.88-1.1-.88-1.24.88-1.1-.88-1.24.88-1.1-.88-1.24.88-1.1-.88-1.24.88c-.36-.29-.72-.59-1.1-.88l-1.23.88-1.1-.88-1.24.88-1.1-.88-1.24.88-1.1-.88-1.24.88-1.1-.88-1.24.88-1.1-.88-1.23.88-1.1-.88-1.24.88-1.1-.88-32.7,23.34a363,363,0,0,0-46.2-22.94l3.43-67.3a428.09,428.09,0,0,0-81.45-19.87l-.15.34-2.19-.34-.15.34-2.19-.34-.15.34-2.18-.34-.16.34-2.18-.34-.16.34-2.18-.34-.15.34-2.19-.34-.15.34-2.19-.34-.15.34-2.19-.34-.15.34-2.18-.34-.16.34-2.18-.34-.16.34-2.18-.34-.15.34-2.19-.34-.15.34-2.19-.34-.15.34-2.18-.34-.16.34-2.18-.34-.16.34-2.18-.34-.15.34-2.19-.34-.15.34-2.19-.34-.15.34-2.19-.34-.15.34-2.18-.34-27.28,59.93H2101c-.78,0-1.56,0-2.34,0s-1.55,0-2.33,0-1.56,0-2.34,0-1.56,0-2.34,0-1.56,0-2.34,0-1.56,0-2.34,0-1.56,0-2.34,0-1.55,0-2.33,0-1.56,0-2.34,0-1.56,0-2.34,0-1.56,0-2.34,0-1.56,0-2.34,0c-2,0-4,0-6,0l-29-56.8-2.12.43-.22-.43-2.12.43-.22-.43-2.12.43-.22-.43-2.12.43-.22-.43-2.12.43-.21-.43-2.12.43-.22-.43-2.12.43-.22-.43-2.12.43-.22-.43-2.12.43-.22-.43-2.12.43-.22-.43-2.12.43-.21-.43-2.12.43-.22-.43-2.12.43-.22-.43-2.12.43-.22-.43-2.12.43-.22-.43-2.12.43-.21-.43-2.12.43-.22-.43-2.12.43-.22-.43-2.12.43-.22-.43-2.12.43-.22-.43a427.81,427.81,0,0,0-80.47,23.54l6.5,67.07a364.18,364.18,0,0,0-46.72,26.09L1838.36,1810l-1,.87L1836,1810l-1,.87-1.35-.87c-.33.28-.65.58-1,.87l-1.34-.87c-.34.28-.66.58-1,.87L1829,1810c-.34.28-.66.58-1,.87l-1.35-.87c-.33.28-.66.58-1,.87l-1.35-.87-1,.87L1822,1810l-1,.87-1.34-.87c-.34.28-.66.58-1,.87l-1.34-.87c-.34.28-.66.58-1,.87L1815,1810l-1,.87-1.35-.87c-.33.28-.66.58-1,.87l-1.35-.87-1,.87L1808,1810l-1,.87-1.34-.87c-.34.28-.66.58-1,.87l-1.35-.87c-.34.28-.66.58-1,.87L1801,1810c-.33.28-.66.58-1,.87l-1.35-.87-1,.87-1.35-.87-1,.87-1.34-.87c-.34.28-.66.58-1,.87l-1.35-.87a428,428,0,0,0-57.93,60.62l39.16,54.85a363.57,363.57,0,0,0-37.76,68.47l-21.54-1.11a.56.56,0,0,0,0,.12l-2.3-.12s0,.08,0,.12l-2.3-.12a.56.56,0,0,1,0,.12l-2.3-.12a.56.56,0,0,1,0,.12l-2.29-.12a.56.56,0,0,0,0,.12l-2.3-.12a.56.56,0,0,0,0,.12l-2.3-.12s0,.08,0,.12l-2.3-.12a.56.56,0,0,1,0,.12l-2.3-.12a.56.56,0,0,1,0,.12l-2.3-.12,0,.12-2.3-.12a.56.56,0,0,0,0,.12l-2.3-.12a.56.56,0,0,0,0,.12l-2.3-.12s0,.08,0,.12l-2.3-.12a.56.56,0,0,1,0,.12l-2.3-.12a.56.56,0,0,1,0,.12l-2.29-.12a.56.56,0,0,0,0,.12l-2.3-.12a.56.56,0,0,0,0,.12l-2.3-.12s0,.08,0,.12l-2.3-.12a.56.56,0,0,1,0,.12l-2.3-.12a.56.56,0,0,1,0,.12l-2.29-.12a427.51,427.51,0,0,0-19.86,81.47l61.34,27.92A363.74,363.74,0,0,0,1710.08,2183Zm501.43,86.31a194.43,194.43,0,0,1-117.81,58.92,194.31,194.31,0,0,1-111.46-52.65c-77.9-74.44-80.71-198.12-6.27-276a194.36,194.36,0,0,1,117.8-58.91,194.3,194.3,0,0,1,111.47,52.64C2283.14,2067.69,2286,2191.37,2211.51,2269.28Z"/><path class="cls-18" d="M2252,1993.25c77.91,74.44,80.72,198.12,6.28,276s-198.13,80.72-276,6.27-80.71-198.12-6.27-276S2174.1,1918.81,2252,1993.25Zm-432.41-67.74a363.34,363.34,0,0,0-38.76,70.81l-67.3-3.45a427.51,427.51,0,0,0-19.86,81.47l61.34,27.92a363.74,363.74,0,0,0,1.83,80.71l-60,30.68a428.67,428.67,0,0,0,23.54,80.46l67.08-6.5a363.53,363.53,0,0,0,41.94,69l-36.62,56.56a426.85,426.85,0,0,0,60.61,57.93l54.85-39.17a363.38,363.38,0,0,0,70.81,38.77l-3.43,67.3a427.91,427.91,0,0,0,81.45,19.87l27.91-61.34a363.8,363.8,0,0,0,80.72-1.84l30.67,60a427,427,0,0,0,80.47-23.53l-6.49-67.07a363.34,363.34,0,0,0,69-42l56.57,36.64a427.43,427.43,0,0,0,57.92-60.62l-39.16-54.84a364,364,0,0,0,38.77-70.82l67.3,3.44a427.23,427.23,0,0,0,19.86-81.46l-61.34-27.92a363.74,363.74,0,0,0-1.83-80.71l60-30.66a428,428,0,0,0-23.53-80.49l-67.08,6.5a363.73,363.73,0,0,0-42-69l36.63-56.57a426.85,426.85,0,0,0-60.61-57.93L2326,1836.88a362.85,362.85,0,0,0-70.81-38.77l3.43-67.3a428.09,428.09,0,0,0-81.45-19.87l-27.92,61.34a363.71,363.71,0,0,0-80.71,1.84l-30.67-60a427.91,427.91,0,0,0-80.48,23.54l6.5,67.07a363.93,363.93,0,0,0-69,42L1838.36,1810a427.38,427.38,0,0,0-57.92,60.62Z"/><path class="cls-19" d="M1823.32,2083.68v295.77c0,78.43-64.13,142-143.23,142H1124.68c-79.11,0-143.23-63.57-143.23-142V2083.68c0-78.43,64.12-142,143.23-142h555.41C1759.19,1941.68,1823.32,2005.25,1823.32,2083.68Z"/><path class="cls-20" d="M1823.32,2083.68v295.77c0,78.43-67.39,142-150.51,142h-466c-83.13,0-150.51-63.57-150.51-142V2083.68c0-78.43,67.38-142,150.51-142h466C1755.93,1941.68,1823.32,2005.25,1823.32,2083.68Z"/><path class="cls-2" d="M1527.92,2416.14q-33.47-9.1-54.62-25.85c-4.93-3.59-8.45-7.43-10.58-11.56s-3.21-9.27-3.21-15.48a33.17,33.17,0,0,1,7.65-21.66c5.07-6.23,10.9-9.37,17.45-9.37a32.88,32.88,0,0,1,10.58,1.75,65.14,65.14,0,0,1,12.55,6.14,166.66,166.66,0,0,0,42.82,19.45,175.06,175.06,0,0,0,47.73,6.14q32.48,0,49.71-10.83t17.21-31q0-15.26-16-24.61t-56.85-17.72q-45.78-9.32-73.07-22.62t-39.88-33q-12.53-19.69-12.55-47.74a93.16,93.16,0,0,1,18-55.86q18-24.82,49.72-38.88t71.6-14q69.88,0,115.16,34.95,7.35,5.9,10.56,12.06a32.17,32.17,0,0,1,3.2,15,33.34,33.34,0,0,1-7.62,21.65q-7.65,9.36-17.48,9.34a33.62,33.62,0,0,1-10.07-1.45,71.14,71.14,0,0,1-13.06-6.41q-20.17-12.83-37.14-19.18t-43.06-6.41q-30,0-47.24,11.56t-17.23,31.75q0,11.79,6.65,19.42t22.14,13.54q15.51,5.89,44,12.31,66.9,14.74,96.2,37.89t29.28,63.48q0,31.49-17.48,55.61t-49.2,37.38q-31.75,13.32-73.58,13.3Q1561.4,2425.24,1527.92,2416.14Z"/><path class="cls-2" d="M1171.75,2390.31q0-16.56,8.73-24.61t27.72-9l17.45-.95q15.4-.47,23.36-9.23t8-23.9V2129q0-19.41,12.83-31t34.91-11.6q21,0,34.14,11.6t13.1,31V2321.2q0,47.34-27,73.61t-80.34,29.58l-16.43,1Q1171.74,2427.69,1171.75,2390.31Z"/><rect class="cls-2" x="1186.68" y="2069.44" width="229.91" height="70.66" rx="30.61"/><g class="cls-21"><path class="cls-22" d="M1653.9,2329.16c-134.21-25.69-269.6-69.19-372.09-158.84-69-60.39-117.6-141.11-143.11-228.64h-7.58c-82.66,0-149.67,66.44-149.67,148.39v283c0,81.95,67,148.39,149.67,148.39h542.52c82.67,0,149.68-66.44,149.68-148.39v-16.83C1766.71,2348,1710,2339.9,1653.9,2329.16Z"/></g><path class="cls-23" d="M1892,1634.93V1845c0,55.7-45.54,100.85-101.73,100.85H1395.79c-56.19,0-101.73-45.15-101.73-100.85V1634.93c0-55.71,45.54-100.86,101.73-100.86h394.47C1846.45,1534.07,1892,1579.22,1892,1634.93Z"/><path class="cls-24" d="M1892,1634.93V1845c0,55.7-47.86,100.85-106.9,100.85h-331c-59,0-106.89-45.15-106.89-100.85V1634.93c0-55.71,47.85-100.86,106.89-100.86h331C1844.13,1534.07,1892,1579.22,1892,1634.93Z"/><path class="cls-2" d="M1443.24,1847.69q-7.17-7.17-7.16-19.45V1671.82q0-12,6.43-18.42t18.42-6.43h74.85q34.21,0,53.21,17.39t19,48.39q0,30.7-19.15,48.24t-53.07,17.55h-45.9v49.7q0,12.29-7.31,19.45t-19.88,7.16Q1450.41,1854.85,1443.24,1847.69Zm107.31-115.64q7.15-6.15,7.16-19,0-25.44-29.24-25.43h-38.59v50.58h38.59Q1543.38,1738.19,1550.55,1732.05Z"/><path class="cls-2" d="M1816.32,1652.67q7.15,7.17,7.16,19.15v156.42q0,12-7.16,19.3t-19.15,7.31q-12,0-19.16-7.16t-7.16-19.45v-58.48h-84.2v58.48q0,12-7.17,19.3t-19.15,7.31q-12,0-19.15-7.16t-7.16-19.45V1671.82q0-12,7.16-19.15t19.15-7.17q12,0,19.15,7.17t7.17,19.15v55.26h84.2v-55.26q0-12,7.16-19.15t19.16-7.17Q1809.16,1645.5,1816.32,1652.67Z"/><g class="cls-21"><path class="cls-25" d="M1771.66,1809.27c-95.32-18.24-191.48-49.14-264.27-112.81-49-42.89-83.53-100.22-101.64-162.39h-5.38c-58.72,0-106.31,47.19-106.31,105.4v201c0,58.21,47.59,105.4,106.31,105.4h385.31c58.71,0,106.31-47.19,106.31-105.4v-12C1851.78,1822.64,1811.53,1816.91,1771.66,1809.27Z"/></g><path class="cls-26" d="M4214.28,2566.68a41.09,41.09,0,0,1-41,41H454.12a41,41,0,0,1-14.56-79.22,40.62,40.62,0,0,1,14.56-2.7h3719.2A41.08,41.08,0,0,1,4214.28,2566.68Z"/><path class="cls-27" d="M3648.7,2569.39a41.15,41.15,0,0,1-26.4,38.25H454.12a41,41,0,0,1-14.56-79.22H3607.74A41.09,41.09,0,0,1,3648.7,2569.39Z"/><path class="cls-28" d="M3396.05,2450.87c-2.48-26.34-33.43-70.73-38.44-77.79a5.36,5.36,0,0,1-.93-2.13l-9.88-45-.07-.21a5.27,5.27,0,0,0-.77-1.76s0-.07-.09-.13a4.93,4.93,0,0,0-5.79-2.45,7,7,0,0,0-1.69.52l-3.39,1.56c-.68-3.53-4.34-22.36-9.8-46.79l22.21-8.46a22.06,22.06,0,0,0,13.88-24.39l-1.83-10.51a22,22,0,0,0-16.92-17.72c-8.52-44.73-23.68-123.61-41-210.61l3.32-8.72c-6.35-27.54-17.23-76.8-20.29-90.58,1.85-.76,2.92-1.22,2.92-1.22s-.15-1.88-.49-4.76c-1.07-8.51-3.88-25.63-9.43-27.49a8.07,8.07,0,0,0-3,0c-16.07-77.55-32.1-151.38-45.07-204h0s-1.59-54-43.77-118.54l-2.9,2.42c-10.66-16.42-21.52-31.24-31.89-44.17q-3-3.8-6-7.38c14.15-17,28.37-34.11,40.41-48.61,17.18-20.7,4.53-38-7.71-63.5l-4.79-9.79c2.32-1,4.65-2,7-3.08l.42-.19.93-.44a109.93,109.93,0,0,0,10.45-5.49s-10.6-31-24.53-66.18a54.46,54.46,0,0,0,11.17-4,36.16,36.16,0,0,0,6.6,2.87l-1.67-5.63c1.26-.81,2.49-1.66,3.65-2.58,24.64-19.62,6.22-32-2.8-39.75,0,0,0,0-.06-.07s-.06-.05-.06-.07c-3.23-3.26-4.47-6.84,4.1-16.81,17.5-20.31,3.65-40.35-29.59-76.79s-48.71-234.6-89.26-258.61c-22.35-13.26-39.16-10.93-49.95-5.94-11.09-6.85-27.33-10.73-48.8-.59a3.58,3.58,0,0,0-.93.41l-.09,0h0c-14.14-6.85-39.49-14.72-61.06,2-20.63,16-28.12,39.76-30.83,54.59-1.51,8.2,3.94,17.14,13.11,21.74,2.4,1.2,4.76,2.31,7.09,3.36l-2,8.53a2.22,2.22,0,0,0-1.36-1.31c-3.13-.71-8,9.18-11,22.09a72.2,72.2,0,0,0-2.06,17.93l-9.81,11.24a2.76,2.76,0,0,0,.67,3.85l10.1,8.41,0-.1a169.22,169.22,0,0,0-1.31,19.62,114.35,114.35,0,0,0,.53,11.52c1.37,13.18,5.5,24.62,14.46,30.67l.14.11a26,26,0,0,0,4.9,2.52c11.26,4.32,23.75,4.4,35.78,2.38l.9,4.07c-9.37,4.33-17.85,9.28-22,14.31h-.35a2.06,2.06,0,0,0-2.22,2.08c0,.52.12,1.21.2,2-.09.29-.2.59-.26.88a4.27,4.27,0,0,0,.75,3.33c1.45,11.66,4.83,34,9.66,44.56a1.68,1.68,0,0,1,.09,1.08l-.81.2s-68.15,99.35-69.31,109.56a19.56,19.56,0,0,0,.52,5.32,95.2,95.2,0,0,0,5,20.31l-13.17,13.67s-85.42-96.7-86.77-105.27c-.78-5,1.86-18.17,3.28-29.81.24-.63.37-1,.37-1l-.06-1.76c.7-6.65.84-12.5-.51-15.6l-.25-7.54-12.2-33.68s-15.19-28.2-19.52-26-6.51,15.19,8.67,39.05c0,0-1.15,3.64-2.55,9.27l-.55-.3c-13.38-13.42-51.35-51.61-58.44-60.48-8.65-10.81-10.81,15.12,13,34.58l7.22,9c-5.44.88-10.42,3.07-9.38,8.27a66.16,66.16,0,0,0,2,7.41c-3.32.06-8.58,1.18-7.22,8,.22,1.11.55,2.4.95,3.8-2.78-.21-10.37-.08-8.77,7.93,1.27,6.35,5.85,18.49,10.51,25.66,4.15,8.81,13.07,19.68,31.2,31.76,0,0,6.73,9.46,22.33,34.74,10.31,16.71,43.77,74.45,71.76,116.72,13.41,20.24,42.37,12.29,57.25,4.85l26.06-15.54c2,2.18,4.08,4.36,6.26,6.51l.33.33.69.68c2.33,19.13,3.26,35,4.79,39.72a5,5,0,0,1,.3,2c-.08,2.1,4.13,86.84,6.82,91.58a18.71,18.71,0,0,0,8.46,7.69c-.76.2-1.5.36-2.27.56l6.25,217.24,15.2,529.19c-6.62,4.61-10.86,11.75-10.86,19.75v5.29c0,14.89,14.52,26.51,31.22,25l17.17-1.55c3.82,28.55,7.42,55.44,7.29,67.93l-5.66.79a5.92,5.92,0,0,0-5.13,6.63l3.13,23.49a5.81,5.81,0,0,1-1.64,4.89L2924,2481.55a52.06,52.06,0,0,1-25.78,14.25l-41.06,9.11a5.55,5.55,0,0,0-1.54.55c-10.79,5.57-13.68,13.07-13.84,19.22v.15a24.14,24.14,0,0,0,.9,6.75,5.93,5.93,0,0,0,5.78,4.26l213.37-.2a5.87,5.87,0,0,0,4.34-1.81h0c2.35-2.61,3.89-6.28,4.78-10.7,5.23-25.93-11.56-77.37-14.32-85.58a5.62,5.62,0,0,1-.28-2.31l3.55-45.95v-.22a5.45,5.45,0,0,0-.22-1.91,1.26,1.26,0,0,0-.05-.15,4.93,4.93,0,0,0-4.84-4,6.92,6.92,0,0,0-1.76,0l-3.7.51c.45-4.41,3.29-32.46,5.38-66l18.78-1.69c12.89-1.16,23.25-9.92,25.17-21.28h0c2.29-13.49-7.92-25.66-22.2-28.3,8.72-51.37,25.39-151.46,39.66-248.14l94.14,246.85-1.22.49c-10.33,4.93-12.69,24.38-8.68,35.09h0a22.06,22.06,0,0,0,28.5,12.87l28.38-10.81c9.13,20.21,16.88,38,19.68,47.61l-5.19,2.39a5.92,5.92,0,0,0-3,7.83l9.78,21.59a5.77,5.77,0,0,1-.15,5.15l-34.94,66.4a52.15,52.15,0,0,1-20.58,21.09l-36.66,20.59a5.31,5.31,0,0,0-1.31,1c-8.73,8.45-9.33,16.46-7.7,22.39l0,.16a24,24,0,0,0,2.81,6.2,6,6,0,0,0,6.77,2.41l204.21-61.87a5.87,5.87,0,0,0,3.63-3h0C3396.07,2459.32,3396.48,2455.36,3396.05,2450.87ZM3107.53,1448.06l-21-42.29,1.2-15.14c1.7.32,3.42.6,5.15.83l19.56,47.61S3110.6,1442.46,3107.53,1448.06Zm-93.08-350.89a80.12,80.12,0,0,0,18.78-6.56l.2-.08c1-.34,2-.75,3.15-1.22q.68,4.67,1.22,9.61c-6-1-14.14-.55-22.54.63Zm-157.66,215.4c.91,2.77,2,5.79,3.26,9l-.35.37C2858.53,1318.54,2857.57,1315.4,2856.79,1312.57Z"/><path class="cls-29" d="M2969.68,2220.59c-5.63,20.52,16,135,15.06,163l63.32-9.37s13.85-131.35,4.49-178.84Z"/><path class="cls-30" d="M3069.75,2513.2c-.89,4.42-2.43,8.09-4.78,10.7a5.89,5.89,0,0,1-4.34,1.81l-213.37.2a6,6,0,0,1-5.79-4.26,24.52,24.52,0,0,1-.9-6.75c.12-6.17,3-13.74,13.85-19.36a5.44,5.44,0,0,1,1.54-.55l41.05-9.12a52.08,52.08,0,0,0,25.79-14.24l52.65-53.47a5.77,5.77,0,0,0,1.63-4.89l-3.12-23.49a5.91,5.91,0,0,1,5.13-6.63l72.73-10.09a7.48,7.48,0,0,1,1.77,0,6,6,0,0,1,4.84,4c0,.08.05.13.05.15a5.48,5.48,0,0,1,.22,1.91v.23l-3.55,45.95a5.49,5.49,0,0,0,.27,2.31C3058.19,2435.83,3075,2487.27,3069.75,2513.2Z"/><path d="M3069.74,2513.2c-.89,4.42-2.42,8.1-4.78,10.7a5.88,5.88,0,0,1-4.34,1.82l-213.37.2a5.94,5.94,0,0,1-5.78-4.26,23.78,23.78,0,0,1-.9-6.75l.12-1.49Z"/><path class="cls-31" d="M3069.75,2513.2h-9l-15.43-81,2.72-58a12.94,12.94,0,0,1,5.54-1.15,4.93,4.93,0,0,1,4.84,4c0,.08.05.13.05.15a8.43,8.43,0,0,1,.22,1.91v.23l-3.55,45.95a5.49,5.49,0,0,0,.27,2.31C3058.19,2435.83,3075,2487.27,3069.75,2513.2Z"/><path class="cls-32" d="M3138.12,1824c-11.58,138.69-68.87,467.38-68.87,467.38l-100.71,11.52-27.46,3.15-16.35-569.3-6.26-217.25C3174.49,1453.63,3149.73,1685.34,3138.12,1824Z"/><path class="cls-33" d="M3138.12,1824c-11.58,138.69-68.87,467.38-68.87,467.38l-100.71,11.52c21.41-62.73,106.91-321.52,49.85-438.13-43-87.91-67-114.13-93.66-128l-6.26-217.25C3174.49,1453.63,3149.73,1685.34,3138.12,1824Z"/><path class="cls-29" d="M3214.53,2189.75c.55,21.27,54.31,124.66,61.52,151.67l57.92-27.27s-24.71-129.74-47.39-172.5Z"/><path class="cls-30" d="M3394.9,2441c.43,4.48,0,8.44-1.48,11.62a5.84,5.84,0,0,1-3.63,3l-204.21,61.86a6,6,0,0,1-6.77-2.4,24.55,24.55,0,0,1-2.81-6.2c-1.67-6-1.13-14,7.66-22.54a5.12,5.12,0,0,1,1.32-1l36.66-20.6a52.15,52.15,0,0,0,20.58-21.09l34.94-66.4a5.77,5.77,0,0,0,.15-5.15l-9.78-21.59a5.9,5.9,0,0,1,3-7.82l66.71-30.69a7,7,0,0,1,1.69-.51,6,6,0,0,1,5.79,2.45c.05.06.09.1.09.12a5.44,5.44,0,0,1,.77,1.77l.07.21,9.87,45a5.66,5.66,0,0,0,.93,2.13C3361.47,2370.22,3392.42,2414.61,3394.9,2441Z"/><path d="M3394.9,2441c.42,4.48,0,8.44-1.49,11.62a5.87,5.87,0,0,1-3.63,3l-204.2,61.86a6,6,0,0,1-6.77-2.41,24,24,0,0,1-2.81-6.2l-.32-1.46Z"/><path class="cls-31" d="M3394.9,2441l-8.6,2.6-38.19-73.1L3334,2314.16a13,13,0,0,1,5-2.7,4.92,4.92,0,0,1,5.79,2.45c.05.06.09.1.09.12a8.08,8.08,0,0,1,.77,1.77l.07.21,9.87,45a5.66,5.66,0,0,0,.93,2.13C3361.47,2370.22,3392.42,2414.61,3394.9,2441Z"/><path class="cls-34" d="M3348.69,2244.17l-125.12,45.77-1,.38-302.81-793.94,129-47.34,40.49-14.83s21.56,17.69,49.15,49.91l0,0c3.69,4.37,7.54,9,11.43,13.84a533.12,533.12,0,0,1,56.55,86.27C3235.13,1639.44,3348.69,2244.17,3348.69,2244.17Z"/><path class="cls-35" d="M2975.74,1094.69s-60.67,17.36-63.8,33.65,79.85,10.93,79.85,10.93Z"/><path class="cls-35" d="M2966.26,1103.27l8.78-4.9s76.95-23.29,71.08,1.38c-7.15,30.07-28,13.11-28,13.11l-12.59,7.71Z"/><polygon class="cls-36" points="2934.86 1101.16 2948.92 1165.11 3033.62 1146.67 3005.61 1064.77 2964.96 1083.53 2934.86 1101.16"/><path class="cls-29" d="M2887.82,1281.62l-43.11,44.76s-85.42-96.71-86.77-105.27,7.38-41.11,2.73-48.86c-5.26-8.77-18.89-14.25-28.57-20a25.13,25.13,0,0,0-31.95,5.28l-16.7,17.5s-14.78,23.23,32.25,54.58c0,0,6.73,9.45,22.33,34.73,10.31,16.72,43.77,74.45,71.76,116.72,13.41,20.25,42.37,12.3,57.25,4.85l75.41-45Z"/><path class="cls-37" d="M3034.14,1264.26s-23.34-110.9-112.51-86.74c0,0-68.16,99.34-69.31,109.56s21,70,56.87,98.77C2909.19,1385.85,3015.54,1299.37,3034.14,1264.26Z"/><path class="cls-38" d="M2909.19,1385.85s-54-48.46-56.87-98.77C2852.32,1287.08,2858.44,1343.28,2909.19,1385.85Z"/><path class="cls-29" d="M2739.32,1158.4s-54.5-54.37-63.14-65.18-10.81,15.13,13,34.58l25.94,32.42Z"/><path class="cls-29" d="M2708.59,1136.45s-23.77-2.17-21.61,8.64,13,36.74,19.45,34.58,4.32-23.77,4.32-23.77Z"/><path class="cls-29" d="M2691.58,1152.65s-11.73-2-9.77,7.82,11.72,33.21,17.58,31.26.42-21.94.42-21.94Z"/><path class="cls-29" d="M2683.76,1164.38s-11.72-2-9.77,7.81,11.72,33.22,17.59,31.26.42-21.93.42-21.93Z"/><path class="cls-29" d="M2761.59,1190.3l-.82-24.9-12.2-33.68s-15.19-28.2-19.53-26-6.5,15.18,8.68,39c0,0-15.18,47.73-2.17,65.08S2761.59,1190.3,2761.59,1190.3Z"/><path class="cls-39" d="M3223.57,2289.94l-1,.38-302.81-793.94,129-47.34,89.64,35.08,0,0c3.69,4.37,7.54,9,11.43,13.84-18.16,20.57-69.86,82.32-71.9,121.15-2.48,47.14,156.51,625.6,156.51,625.6S3219.1,2259.65,3223.57,2289.94Z"/><path class="cls-40" d="M3110.19,1507.5s49.62,52.1,81.87,213.37,124.2,490.77,124.2,490.77"/><path class="cls-41" d="M3096.38,1256.84l-11,139,42,84.67a1.83,1.83,0,0,1-.43,1.26c-13.57,16.35-53.35,26.61-93.86,32.64-44.65,6.64-90.14,8.16-102.51,7.07-10.3-1-15.61-5.47-18.33-10.23s-6.9-89.49-6.82-91.58a5,5,0,0,0-.3-2c-2.83-8.67-3.62-55.85-15.05-90.73-11.57-35.41,25.91-140.24,32.06-148.9a1.74,1.74,0,0,0,.17-1.77c-6-13-9.75-44.28-10.35-50.77a2.06,2.06,0,0,1,2.22-2.08c46,.06,101.65-23.14,124.6-33.94a2.29,2.29,0,0,1,3,.94l16.59,35.4c.14.31-12,5.52-11.75,5.73,3.35,2.27,25.59,18.08,48.4,48.11a1.64,1.64,0,0,1,.37,1Z"/><path class="cls-42" d="M2986.86,1169.73c2.72-.88,5.48-1.82,8.29-2.84a240.6,240.6,0,0,0,25.58-10.85,123.51,123.51,0,0,0,18.77-11.32,48.44,48.44,0,0,0,9.34-8.78,15.56,15.56,0,0,0,1.63-2.41c.31-.54.44-.82.38-.82-.41,0-2.66,4.78-12.22,11.7a128.92,128.92,0,0,1-18.49,10.89,248.2,248.2,0,0,1-25.17,10.59,254.25,254.25,0,0,1-46.3,12.07c-11.54,1.82-18.18,2-18.34,2.25a31.55,31.55,0,0,0,4.59,0c3.07-.21,7.54-.51,13.33-1.36a233.19,233.19,0,0,0,38.61-9.07"/><path class="cls-29" d="M3075,1340.75l36.32,88.4s-60.12,110.63-68.77,114.8-65.52,5.21-75.62,26.26c-4.56,9.49-8.47,22.58-11.4,34.08a31,31,0,0,0,17.64,35.91l32.67,14.34s26.73,8.85,48.88-44.54c0,0,2-17.28,23.86-41.92,14.43-16.3,69.8-82.85,105.67-126.07,17.17-20.71,4.53-38-7.72-63.51l-56.11-114.69Z"/><path class="cls-41" d="M3119.7,1200.2s-82.32-21.24-90.53,70.79c0,0,39.81,103.06,49,107.68s72.91,4.56,112.35-19.15C3190.52,1359.52,3146.2,1229.8,3119.7,1200.2Z"/><path class="cls-38" d="M3190.52,1359.52s-64.14,33.83-112.35,19.15C3078.17,1378.67,3133,1392.39,3190.52,1359.52Z"/><path class="cls-43" d="M3182.88,1244.22s-.06,0-.07-.08c-3.22-3.26-4.46-6.84,4.11-16.8,17.49-20.31,3.65-40.36-29.59-76.79s-48.71-234.6-89.26-258.61c-27.05-16.05-46-9.27-56-2.56l-.17.1a9.35,9.35,0,0,0-2,1.47,1.06,1.06,0,0,1-.12.1,35.16,35.16,0,0,0-5.78,5.5l.16,2.63c-3.86,8.19-7.25,22.93-5.18,49,0,0-1.21,45.83,12.25,77.13a60.65,60.65,0,0,0,11.34,18.11c12,12.67,14,42,16.48,73,2.68,34.35,5.95,70.64,24.1,88.34,34.54,33.67,31.85,34,41.15,62.85s56.73,36.18,81.44,16.49,6.22-32-2.8-39.74C3182.94,1244.26,3182.91,1244.24,3182.88,1244.22Z"/><path class="cls-44" d="M3045.77,1007.41a75.37,75.37,0,0,1-2.3,21.88c-7.62,27.84-22,41.19-33.73,47.61a53,53,0,0,1-9.6,4.11,37.49,37.49,0,0,1-8.82,1.81s-52.88,34.57-91.4,19.79a25.72,25.72,0,0,1-4.9-2.52.5.5,0,0,1-.14-.1c-9-6-13.09-17.49-14.47-30.67q-.54-5.62-.52-11.53c.11-30,10.43-63.24,10.43-63.24l7-30.09s-1.15-3.83-2.57-9v0c-2.74-9.9-6.35-24.67-4.2-26,81.11-50.33,130.32-7.42,147.93,40.86A119.82,119.82,0,0,1,3045.77,1007.41Z"/><path class="cls-45" d="M3038.16,1032.2l-5.88,48.41-.2.07c-2.5,1.29-29.92,14.64-40.76,2.13,0,0-.05-.07-.08-.09-11.11-13.2,17.25-46.65,17.25-46.65l5.28-.69,3.23-.42Z"/><path class="cls-45" d="M3095.62,990.5c-.82,61.87-47.14,84.2-63.34,90.11l-.2.07a55,55,0,0,1-5.33,1.71l1.86-37.76,0-1.36a97.8,97.8,0,0,1-14.89-7.89c-44.21-28.56-39.92-80.12-42.2-90.51-2.53-11.41-22.35-6.58-22.35-6.58a52.49,52.49,0,0,1-8.84-1.24c-12.08-2.83-28-12,12.36-41.65,56.07-41.14,83.46,9,83.46,9S3096.61,915.44,3095.62,990.5Z"/><path class="cls-45" d="M2876.38,942.43c-1.51,8.21,3.94,17.15,13.11,21.75a201.3,201.3,0,0,0,32.33,12.76c2.75.82,5.28,1.52,7.54,2.1,5.56,1.43,10.62-1.41,10.88-6.14a77.43,77.43,0,0,1,1.55-11,117.87,117.87,0,0,1,19.61-44.58l15.8-22.22,2.07-2.92s-1.65-1.19-4.53-2.9c-1.74-1-3.92-2.21-6.47-3.43-14.14-6.86-39.49-14.73-61.06,2C2886.58,903.82,2879.09,927.61,2876.38,942.43Z"/><path class="cls-44" d="M2901.07,1019.82l-8.57,9.66s-2.69-6.07,1.84-9.2C2897.31,1018.22,2901.07,1019.82,2901.07,1019.82Z"/><ellipse class="cls-46" cx="2934.12" cy="1027.12" rx="30.62" ry="27.9" transform="translate(421.36 2857.44) rotate(-55.36)"/><path class="cls-45" d="M2898.62,998.9c-1.09,3.83.5,7.64,3.54,8.5s6.38-1.54,7.47-5.38-.49-7.64-3.53-8.51S2899.71,995.06,2898.62,998.9Z"/><path class="cls-45" d="M2908.2,998.44a10.24,10.24,0,0,0,5.36-2.15,20.94,20.94,0,0,1-3.62,4.11C2908.39,1001.47,2908.2,998.44,2908.2,998.44Z"/><path class="cls-47" d="M3025.5,1021.47s43.4-34.8,39.22-77.32C3064.72,944.15,3060.56,991.13,3025.5,1021.47Z"/><path class="cls-47" d="M2998.8,994.34s51.59-20.8,59.85-62.73C3058.65,931.61,3041.13,975.4,2998.8,994.34Z"/><path class="cls-48" d="M3028.61,1044.63l-.08.08-.22-1.17s-24.81,47.14-37.07,39.18c-11.11-13.2,17.25-46.65,17.25-46.65l5.28-.69c-44.21-28.56-39.92-80.12-42.2-90.51-2.53-11.41-22.35-6.58-22.35-6.58a52.49,52.49,0,0,1-8.84-1.24l7.64-12.28s19.75-12.58,28.88,7.59c8.84,19.55,1.34,80.66,40.1,102.6,1.26.74,2.6,1.41,4,2C3033.15,1042.65,3028.31,1043.54,3028.61,1044.63Z"/><path class="cls-49" d="M2921.39,972.27c.09,1.62.23,3.18.43,4.67,2.75.82,5.28,1.52,7.54,2.1,5.56,1.43,10.62-1.41,10.88-6.14a77.43,77.43,0,0,1,1.55-11,117.87,117.87,0,0,1,19.61-44.58l18-25.37c-.78-2.3-3.77-1.12-4.63-2.67-1.93-3.47-4-4.92-6.35-3.5l-.12.07C2965.55,887.31,2917.85,913.26,2921.39,972.27Z"/><path class="cls-44" d="M2981.17,1013.77s17.83-17.56,31.67-3.54-.28,41.71-19.47,48.68-25.75-13.68-25.75-13.68Z"/><path class="cls-50" d="M2989.25,1045a2.26,2.26,0,0,1-1.17-1.29l-4.89-13,19-8.9a2.3,2.3,0,0,1,3.18,1.27,2.76,2.76,0,0,1-1.4,3.42l-14.39,6.76,3.12,8.32a2.76,2.76,0,0,1-1.41,3.42A2.3,2.3,0,0,1,2989.25,1045Z"/><path class="cls-44" d="M2892.61,1000.56,2870.4,1026a2.77,2.77,0,0,0,.67,3.86l10.1,8.41Z"/><path class="cls-51" d="M2922.26,986.84c-1.66,0-3.46-.82-5.25-1.56s-3.59-1.54-5.18-2.13-3.46-1.23-5.32-1.81-3.77-1.14-5-2.27-1.13-2.86,1.21-4.2,7-1.9,12.27.07,8.43,5.53,9.19,8S2923.85,986.81,2922.26,986.84Z"/><path class="cls-50" d="M2884.5,1054.41l15.37,1.52s4.55,18.85-3.17,17S2884.5,1054.41,2884.5,1054.41Z"/><ellipse class="cls-52" cx="2887.92" cy="998.13" rx="23.96" ry="5.8" transform="translate(1274.4 3592.91) rotate(-77.19)"/><line class="cls-52" x1="2982.36" y1="1014.96" x2="2895.41" y2="993.07"/><path class="cls-43" d="M3062.26,916.29s31.79,18.88,20.56,79-40,88.3-7,100.57,28.73-28.21,28.73-28.21-5-59.45-3.66-94.74S3080,917.18,3062.26,916.29Z"/><path class="cls-43" d="M3083.75,989.71s-53.39,50.93-35.58,90.91,16.25,69.85,16.25,69.85l11.44-54.66Z"/><path class="cls-47" d="M3080.59,942a75.25,75.25,0,0,1,4.27,10.64,69.19,69.19,0,0,1,2.59,11.18,48.47,48.47,0,0,1,.32,11.48,34,34,0,0,1-2.93,11.11,53.79,53.79,0,0,1-6.37,9.59c-2.37,3-4.83,5.95-7.26,8.9a195.08,195.08,0,0,0-13.8,18.26,80.92,80.92,0,0,0-9.88,20.52,61.35,61.35,0,0,0-2.28,11.14,56.84,56.84,0,0,0,.05,11.37,58.72,58.72,0,0,0,2.27,11.14c1.14,3.6,2.46,7.26,3.35,11a101.19,101.19,0,0,1,2.59,22.86,228.07,228.07,0,0,1-1.29,22.95c-.71,7.62-1.59,15.22-1.8,22.85a83.38,83.38,0,0,0,.38,11.4,42.54,42.54,0,0,0,2.61,11,30.65,30.65,0,0,0,6,9.57c2.58,2.73,5.61,5.15,8.38,7.78a153.59,153.59,0,0,1,15.46,17,155.57,155.57,0,0,1,12.84,19,122.88,122.88,0,0,1,9.45,20.92,80.11,80.11,0,0,1,4.45,22.45,80.32,80.32,0,0,0-4.69-22.37,121.73,121.73,0,0,0-9.65-20.74,157.11,157.11,0,0,0-12.87-18.92,151.59,151.59,0,0,0-15.46-16.87c-2.78-2.62-5.77-5-8.45-7.8a31.42,31.42,0,0,1-6.13-9.78,43.07,43.07,0,0,1-2.71-11.22,86.87,86.87,0,0,1-.43-11.51c.19-7.68,1-15.3,1.72-22.91a227.15,227.15,0,0,0,1.2-22.86,99.63,99.63,0,0,0-2.47-22.65c-.88-3.71-2.14-7.26-3.3-11a60.59,60.59,0,0,1-2.26-11.31,57.79,57.79,0,0,1,0-11.54,61.22,61.22,0,0,1,2.35-11.29,81.33,81.33,0,0,1,10-20.66,194.8,194.8,0,0,1,13.92-18.28c2.44-2.94,4.91-5.86,7.28-8.85a54.14,54.14,0,0,0,6.35-9.46c3.29-6.89,3.8-14.82,2.82-22.34a68.84,68.84,0,0,0-2.46-11.18A74.44,74.44,0,0,0,3080.59,942Z"/><path class="cls-47" d="M3096,995.41a79.92,79.92,0,0,0-12.77,18,68.08,68.08,0,0,0-7,20.81,56.78,56.78,0,0,0-.71,11A54.62,54.62,0,0,0,3077,1056c1.79,7.14,4.21,14.12,6.62,21.08s4.88,13.93,6.82,21.07a134.23,134.23,0,0,1,4.14,21.79,149.2,149.2,0,0,1,.58,22.17c-.12,3.69-.58,7.39-.61,11a41.42,41.42,0,0,0,.33,5.45,37,37,0,0,0,1.14,5.32c.23.88.58,1.72.87,2.58s.68,1.69,1.11,2.49a30.65,30.65,0,0,0,2.79,4.67,41.38,41.38,0,0,0,7.52,7.9c5.68,4.61,12.24,8.06,18.92,11.14s13.56,5.75,20.3,8.8a95.71,95.71,0,0,1,9.87,5.07,37.32,37.32,0,0,1,8.73,6.9,18.86,18.86,0,0,1,4.86,10,21.43,21.43,0,0,1,0,5.6c-.23,1.87-.61,3.65-.91,5.47-1.25,7.27-2.49,14.54-3.29,21.86a92.31,92.31,0,0,0-.64,11,47.91,47.91,0,0,0,.38,5.49,30.65,30.65,0,0,0,1.24,5.36,19.5,19.5,0,0,0,6.2,8.92,31.86,31.86,0,0,0,9.76,5.07,32.13,32.13,0,0,1-9.84-5,19.6,19.6,0,0,1-6.35-8.94,30.29,30.29,0,0,1-1.32-5.39,49,49,0,0,1-.44-5.54,89,89,0,0,1,.51-11.07c.75-7.35,2-14.63,3.2-21.91.29-1.81.67-3.64.89-5.44a21,21,0,0,0-.07-5.43,18.22,18.22,0,0,0-4.73-9.61,36.73,36.73,0,0,0-8.59-6.73,98.43,98.43,0,0,0-9.82-5c-6.72-3-13.61-5.66-20.34-8.72s-13.35-6.51-19.16-11.19a42.38,42.38,0,0,1-7.72-8,34,34,0,0,1-2.9-4.8c-.44-.83-.77-1.71-1.15-2.57s-.67-1.75-.9-2.65a36.5,36.5,0,0,1-1.5-11.08c0-3.75.53-7.38.66-11.06a148.61,148.61,0,0,0-.49-22,133,133,0,0,0-4-21.67c-1.9-7.11-4.32-14.08-6.72-21.05s-4.78-14-6.55-21.16a56,56,0,0,1-1.49-11,57.75,57.75,0,0,1,.77-11.07,68.5,68.5,0,0,1,7.31-20.85A80.14,80.14,0,0,1,3096,995.41Z"/><path class="cls-47" d="M3093.09,1085.66a56.19,56.19,0,0,1,4.18,5.54c1.29,1.93,2.51,3.91,3.63,6a56.07,56.07,0,0,1,5.14,13,35,35,0,0,1,.76,14.1l-.36,1.76-.37,1.68-.75,3.36c-.24,1.12-.43,2.25-.64,3.38s-.42,2.25-.56,3.39a66.1,66.1,0,0,0-.84,13.6,33.73,33.73,0,0,0,3,13.07,29.39,29.39,0,0,0,8.49,10.42,59.58,59.58,0,0,0,11.83,7,54.19,54.19,0,0,1-12.43-6.23,29.25,29.25,0,0,1-9.3-10.51,34.2,34.2,0,0,1-3.54-13.66c0-.59-.1-1.18-.12-1.77l0-1.76c0-1.17,0-2.36.11-3.52l.27-3.5.48-3.47c.14-1.16.36-2.31.59-3.45s.42-2.29.67-3.43l.78-3.4.39-1.69.36-1.64a34.66,34.66,0,0,0-.41-13.41,59.63,59.63,0,0,0-4.49-12.92A78.67,78.67,0,0,0,3093.09,1085.66Z"/><path class="cls-53" d="M3199.16,2290.6h0a22,22,0,0,0,28.5,12.86l118.6-45.18a22,22,0,0,0,13.88-24.38l-1.83-10.51a22.05,22.05,0,0,0-31.22-16.13l-119.25,48.25C3197.51,2260.43,3195.14,2279.89,3199.16,2290.6Z"/><path class="cls-53" d="M2956.05,2260.58l112-4.81c17.87-.76,32.06,13.15,29.41,28.84h0c-1.92,11.36-12.28,20.12-25.17,21.28l-112,10.09c-16.71,1.51-31.22-10.11-31.22-25v-5.3C2929.07,2272.27,2940.94,2261.23,2956.05,2260.58Z"/><path class="cls-54" d="M3184.62,1539.75l-14.89,12.41s44.66,96.76,49.62,99.24a36.35,36.35,0,0,1,9,6.89S3226.79,1604.26,3184.62,1539.75Z"/><path class="cls-55" d="M3286.34,1894.54s-94.28,39.7-101.72,34.73-12.41-34.73-12.41-34.73.3-.1.87-.32c9.55-3.4,96.31-34.27,103.34-31.93,5.55,1.86,8.36,19,9.42,27.49C3286.19,1892.65,3286.34,1894.54,3286.34,1894.54Z"/><path class="cls-56" d="M3303.71,1986.34l-3.33,8.73s-28.9,17.94-68.5,26.55q-4.9,1.08-10.05,1.93s-14.88-5-41.9-107.4l102.69-24.09s.22,1,.59,2.78C3286,1907.22,3297.21,1958.15,3303.71,1986.34Z"/><path class="cls-57" d="M3303.71,1986.34l-3.33,8.73s-28.9,17.94-68.5,26.55c-5.16-5.56-18.76-26.67-39.55-105.47l90.88-21.31C3286,1907.22,3297.21,1958.15,3303.71,1986.34Z"/><path class="cls-54" d="M3285.84,1889.78c-7.34,3.1-94.1,39.3-101.22,34.53-5.61-3.74-9.8-21.53-11.54-30.09,9.55-3.4,96.31-34.27,103.34-31.93C3282,1864.15,3284.78,1881.27,3285.84,1889.78Z"/><path class="cls-28" d="M2691.92,1194.1c-1.53-5.71-13.65-4.74-13.65-4.74l11.18-7.4a2.5,2.5,0,0,0-.8-3.89c-9.41-4.07-37.63,6.43-39.48,7.13l15.74-11.93a.89.89,0,0,0-.14-1.5c-16.83-9.25-95.17,25.25-103.28,28.84,2.82-10,12.48-46.46,2.59-50.32-11.47-4.45-63.54,88.85-63.54,88.85l-14.94,7.48a4.58,4.58,0,0,0-3.27.6,3.86,3.86,0,0,0-.81.85c-.08-.36-.12-.57-.12-.57l-52.1,19.85c-40.16,5.24-76.67-81.82-94.77-133.86,0,0,0,0,0,0-7.17-38-16.87-52.21-16.87-52.21l-.45-.64c-27.89-40.63-71.5-66.77-97.95-79.86,24.43,4.24,48.41-4,61.27-20.95,13-17.12,12.76-37.47,16.1-55.34,2.86-15.25,4.28-32.41,4.94-48.41,0-.5,0-1,0-1.49h0l6.49-51.69c10.81-5.68,19.61-14.53,21.56-28.34,2-14.33-7.29-19.89-17.74-21.76a47.7,47.7,0,0,0,4-17.63c.91-27.65-39.57-50.37-67-32.44s-16.11,17.16-68.87,16.57c-40-.44-48.19,29.68-49.83,44.33-9.4-1.63-21.87.15-28.52,17.58-8.2,21.52,2.77,53.62,9.81,70.42-4.25,12.77-.62,30.27,9,40.88,2.14,11.67,6.76,31.25,13.63,31.69a4.2,4.2,0,0,0,2.38-.63l-3.89,11.3c-11.84.52-13.85,2.54-13.91,3.79a2.28,2.28,0,0,0-1,1.35l-5.51,20.2c-22,1.57-70.47,8.54-124.27,38.94a325.12,325.12,0,0,0-27.57,17.47c-1.51,1.06-3,2.18-4.51,3.32a6.7,6.7,0,0,0-.55.42c-1.19.9-2.35,1.81-3.5,2.76-.74.59-1.46,1.19-2.18,1.81-1.19,1-2.38,2-3.55,3.07s-2.48,2.21-3.69,3.35l0,0c-1,.94-2,1.91-3,2.88a5.76,5.76,0,0,0-.45.42c-.84.84-1.66,1.66-2.48,2.5-1.41,1.44-2.83,2.91-4.22,4.42l-2.53,2.8a3.19,3.19,0,0,0-.27.33c-.82.91-1.61,1.83-2.43,2.77-1.39,1.62-2.75,3.26-4.12,4.94-.67.85-1.34,1.69-2,2.53-2,2.58-4,5.24-5.93,7.92q-1.38,1.86-2.68,3.72c-1.81,2.58-3.58,5.18-5.31,7.84-.87,1.31-1.71,2.65-2.56,4-.69,1.1-1.36,2.19-2,3.3-.42.65-.85,1.32-1.24,2-.85,1.37-1.67,2.76-2.46,4.15-2.23,3.82-4.37,7.66-6.45,11.58-.67,1.24-1.32,2.51-2,3.75s-1.46,2.8-2.16,4.24-1.41,2.83-2.11,4.24c-2.75,5.69-5.38,11.39-7.84,17.12-1.41,3.25-2.78,6.48-4.07,9.7-2.15,5.31-4.19,10.65-6.08,15.91-.52,1.41-1,2.83-1.51,4.22s-1,2.8-1.46,4.19c-.87,2.53-1.71,5.06-2.53,7.54l-.23.72c-.74,2.33-1.46,4.62-2.15,6.9-.55,1.73-1.1,3.5-1.59,5.23-.4,1.32-.77,2.63-1.14,4-1.52,5.23-2.88,10.32-4.12,15.23-.3,1.12-.57,2.21-.85,3.33-1.83,7.51-3.37,14.56-4.59,21-.37,1.93-.72,3.79-1,5.6-1,5.86-1.78,11.09-2.28,15.58-.08.75-.15,1.47-.22,2.19s-.15,1.39-.2,2c-.1,1.22-.18,2.36-.23,3.45,0,.5,0,1,0,1.46,0,.7,0,1.34,0,2v0c-4.47,49.45,6,101.55,42.72,151.79h0c-4.52,31.52-7.09,53.48-6.8,59l-8.78,9.87a14.68,14.68,0,0,0,3.36,22.31c-.12,1.69-.5,7.51-1.12,16.9-6.6,34.7-22.19,140.69-23.15,371.06h0c-11.32,191.49-22.54,401.15-23.55,495.32,0,0,1.46.68,4.26,1.75l-16,98.86,72.78,9.74,4.25-13.42,20.68,19.42,147.49,14s6.25-25.5-6.21-33-43.55-23.33-43.55-23.33l-63.23-56.5.07-3c6.73-.54,13.67-1.27,20.89-2.26,0,0,33.16-177.68,70.77-374.05l70.65,370q5.89.81,11.57,1.4l-4.2,115.49,72.79,2.94,1.86-12.88,21.78,12.13,136.59-4.41s1.87-26.68-10.6-31.61-43.22-14.75-43.22-14.75l-66.12-42-4.5-32c16.62-4.57,25.47-9.2,25.47-9.2,4.14-176.18-7-645.44-10.75-795.17-.66-26.43-1.11-42.85-1.2-46,.23-.3.24-.51,0-.6,0,0,.05-.37.12-1.12,0-.17.05-.39.08-.62.15-1.31.39-3.34.72-6,0-.38.07-.77.12-1.17,1-8.56,2.75-22.93,5.06-41.38.13-1,.25-1.94.37-2.93.08-.47.13-.94.18-1.42.2-1.53.39-3.07.59-4.64q1.38-10.83,3-23.09c.22-1.77.47-3.55.69-5.39.52-4,1.07-8.06,1.61-12.23.18-1.39.35-2.78.55-4.19.57-4.22,1.14-8.51,1.71-12.9.2-1.47.4-2.93.6-4.42.59-4.42,1.21-8.91,1.83-13.47.2-1.52.42-3,.62-4.57s.42-3.07.65-4.61c.34-2.63.72-5.29,1.09-8,1.72-12.41,3.54-25.18,5.42-38.13,94.74,108,268.38-30.12,276.92-37l.12-.05c.07,0,.11-.13.18-.18l0,0h0c4.71-4-.92-20.81-12.94-39.88l4.55-3.6,12.21-5a303.69,303.69,0,0,0,37.56.05c3.27-.22,8.52-2,15-4.83,33.11-14.51,81-56.32,81-56.32-3-11.11-40.84,6.58-40.84,6.58C2638.86,1225.37,2693.41,1199.68,2691.92,1194.1Z"/><polygon class="cls-44" points="2111.92 2298.32 2126.89 2409.46 2222.55 2395.12 2215.62 2289.03 2111.92 2298.32"/><path class="cls-58" d="M2112.42,2399.74l-4.65,127.75,72.79,2.94,1.87-12.88,21.77,12.13,136.59-4.41s1.87-26.68-10.6-31.61-43.22-14.75-43.22-14.75l-66.12-42-7.89-56.11Z"/><path class="cls-58" d="M1828.77,2361.19l-23,141.76,72.78,9.74,4.25-13.42,20.68,19.42,147.49,14s6.25-25.5-6.2-33-43.56-23.33-43.56-23.33l-63.22-56.5,1.42-61.3Z"/><path class="cls-59" d="M2110.32,959.18V956.7s-5-5,19.85-5-14.89,19.85-14.89,19.85Z"/><path class="cls-60" d="M2241.82,2395.71s-36.05,18.88-99.57,18.09a333.75,333.75,0,0,1-41.85-3.2l-104.21-545.83L2078,1512.83l151.91,41.11s.47,17.1,1.22,46.6C2234.85,1750.27,2246,2219.53,2241.82,2395.71Z"/><path class="cls-61" d="M2142.25,2413.8a333.75,333.75,0,0,1-41.85-3.2l-104.21-545.83L2078,1512.83l151.91,41.11s.47,17.1,1.22,46.6C2195.25,1716.52,2085.39,2110.47,2142.25,2413.8Z"/><ellipse class="cls-62" cx="2502.68" cy="1285.41" rx="13.1" ry="50.49" transform="translate(-282.42 1684.01) rotate(-35.33)"/><path class="cls-44" d="M2588.49,1273.07c-6.5,2.85-11.75,4.61-15,4.83a303.69,303.69,0,0,1-37.56-.05l-12.21,5-133,105.52V1286.68l101-50.54s52.07-93.3,63.54-88.85c9.9,3.86.23,40.33-2.59,50.32-.49,1.57-.76,2.5-.76,2.5s27.47,27.83,11.12,59.76C2563,1259.87,2582.38,1263.25,2588.49,1273.07Z"/><path class="cls-44" d="M2669.5,1216.75s-47.9,41.81-81,56.32c-6.5,2.85-11.75,4.61-15,4.83a303.69,303.69,0,0,1-37.56-.05l-12.21,5,14.05-105.66,14.23,20.69s.24-.1.66-.31c8.11-3.59,86.45-38.09,103.29-28.84a.89.89,0,0,1,.13,1.5l-15.74,11.93c1.85-.7,30.08-11.2,39.48-7.13a2.5,2.5,0,0,1,.8,3.89l-11.18,7.4s12.13-1,13.66,4.74-53.07,31.27-54.42,32.23C2628.66,1223.33,2666.53,1205.64,2669.5,1216.75Z"/><path class="cls-24" d="M2532.1,1326.38l-.07,0c-4.15,3.37-191.89,155.41-285.57,26.79V1140.38l67.23-47.49s49.7,178.91,106.76,171.46l52.11-19.85s5.4,27.92,30.49,56.37A155.47,155.47,0,0,0,2532.1,1326.38Z"/><path class="cls-63" d="M2532.1,1326.38l-.07,0c-4.15,3.37-191.89,155.41-285.57,26.79v-58.65l42.5-124.5s-52.1,250.59,214.09,130.8A155.47,155.47,0,0,0,2532.1,1326.38Z"/><path class="cls-60" d="M2081.08,1450.6l-186.73,58.82-2.36-34.18-22,41.86-4.55,1.43s-.4,6.15-1.14,17.43c-6.6,34.7-22.2,140.69-23.16,371.06h0c-11.32,191.49-22.54,401.15-23.55,495.32,0,0,52.1,24.53,141.42,12.27,0,0,134-717.71,168.71-862.45Z"/><path class="cls-64" d="M2187.66,1565.38c-27.94,5.53-56.55,7.44-84.76,6.85,11.81-70.47,60.54-376,49.6-548.54l-47.31-42.57a69.54,69.54,0,0,1,34,1.78l54,16.68,1.47,19.15s.62,2.26,1.66,6.77a.09.09,0,0,1,0,.08C2204.93,1062.47,2241,1248.05,2187.66,1565.38Z"/><path class="cls-24" d="M2152.5,1023.69c10.94,172.53-37.79,478.07-49.6,548.54-.62,0-1.26,0-1.88,0-42.18-1.07-83.39-7.69-119.86-16.18a785,785,0,0,1-113.66-35.85,14.7,14.7,0,0,1-5.48-23.4l8.78-9.87c-.87-16.7,24.19-182.38,50.57-310v0c15.58-75.47,31.63-137.62,43-147.87,23.62-21.19,102.49-38.9,137.9-47.21l.32-.08c.85-.2,1.69-.37,2.56-.54Z"/><path class="cls-24" d="M2313.69,1092.89A32.94,32.94,0,0,0,2309,1100v0c-3.57,7-7.27,17.37-11,30.45-.24.86-.49,1.76-.74,2.68-1,3.62-2,7.41-3.05,11.41-.35,1.36-.7,2.73-1,4.14-2,8-4,16.65-6,25.83q-.7,3.17-1.36,6.4c-.4,1.86-.8,3.77-1.19,5.68-.28,1.37-.57,2.76-.85,4.15-2.13,10.47-4.26,21.48-6.35,32.87-.5,2.65-1,5.33-1.49,8s-1,5.53-1.49,8.31c-.52,3-1,6-1.58,9.08q-1.42,8.19-2.83,16.52c-.4,2.48-.82,5-1.24,7.5-1.27,7.66-2.53,15.4-3.77,23.17-.25,1.46-.48,3-.7,4.42-.1.64-.2,1.26-.3,1.88-1.29,8.24-2.58,16.53-3.84,24.79-3.85,25.3-7.49,50.54-10.82,74.45-.37,2.68-.74,5.34-1.09,8-.22,1.54-.45,3.07-.65,4.61s-.42,3-.62,4.57c-.62,4.56-1.24,9-1.83,13.47-.2,1.49-.4,2.95-.6,4.42-.57,4.39-1.14,8.68-1.71,12.9-.2,1.41-.37,2.8-.55,4.19-.54,4.17-1.09,8.26-1.61,12.23-.22,1.84-.47,3.62-.69,5.39q-1.57,12.24-3,23.09c-.19,1.57-.39,3.11-.59,4.64-.05.48-.1,1-.17,1.42-.13,1-.25,2-.38,2.93-2.3,18.45-4,32.82-5.06,41.38-.05.4-.07.79-.12,1.17-.32,2.68-.57,4.71-.72,6,0,.23,0,.45-.08.62-.07.75-.12,1.12-.12,1.12q-9.68,3.42-19.58,6.13a1.46,1.46,0,0,0-.34.1l-1.64.42c-6,1.64-12,3.05-18.09,4.27l-.74.15-.13,0a6.09,6.09,0,0,1-1,.22c-.3.08-.5.1-.6.13s-.05,0-.07,0c53.36-317.33,17.27-502.91,8.71-539.8a.09.09,0,0,0,0-.08c-1-4.51-1.66-6.77-1.66-6.77l-1.47-19.15,15.41,4.76a69.57,69.57,0,0,1,27,15.65l71.43,66.72,1.71,1.59Z"/><path class="cls-24" d="M2102.88,979s18.75,41.88,57.76,45.75,48.92-20.94,48.92-20.94l-5,42.18h-84.35L2088,1026.17Z"/><path class="cls-65" d="M2102.9,1572.23c-1.46,8.71-2.35,13.84-2.5,14.66-42.18-2.48-158.64-36.1-188.56-52.1l53.07-81.8-.27-1.74-34.09-216.15-9.18-58.25v0l-9.68-61.35-5.63-35.58c1.91-2.68,3.89-5.34,5.93-7.92.69-.84,1.36-1.68,2-2.53,1.37-1.68,2.73-3.32,4.12-4.94.82-.94,1.61-1.86,2.43-2.77a3.22,3.22,0,0,1,.28-.33c.84-.94,1.68-1.88,2.53-2.8,1.39-1.51,2.8-3,4.21-4.42.82-.84,1.64-1.66,2.48-2.5a5.76,5.76,0,0,1,.45-.42c1-1,2-1.94,3-2.88l0,0c1.21-1.14,2.43-2.25,3.69-3.35s2.36-2.08,3.55-3.07c.72-.62,1.44-1.22,2.19-1.81,1.14-.95,2.3-1.86,3.49-2.76.18-.15.38-.3.55-.42,1.49-1.14,3-2.26,4.52-3.32a323.41,323.41,0,0,1,27.56-17.47c54-30.49,102.52-37.41,124.47-38.95l-.52,1.39-.17.44,2.31,2.09,47.31,42.57C2163.44,1196.22,2114.71,1501.76,2102.9,1572.23Z"/><path class="cls-66" d="M2186.48,1296.83l-26.9,186.11a8,8,0,0,1-9.35,6.7l-92-17.4-66-45.67-37.24-63.07,29.2-106.21,188.66,29.45,6.9,1.06A8,8,0,0,1,2186.48,1296.83Z"/><path class="cls-67" d="M2186.48,1296.83l-26.9,186.11a8,8,0,0,1-9.35,6.7l4.89-8.71s25.5-175,25.85-183.3-8-10.89-8-10.89l6.9,1.06A8,8,0,0,1,2186.48,1296.83Z"/><path class="cls-68" d="M1990.57,1283.29s57,195.4,113,197.53l-128.92-24.69-34.46-101.69Z"/><ellipse class="cls-62" cx="1982.66" cy="1439.83" rx="66.51" ry="11.94" transform="translate(-408.32 1975.82) rotate(-48.62)"/><path class="cls-29" d="M2075.58,1451.71l-16.09-27.8a4.18,4.18,0,0,0-2.09-1.8l-59.67-23.79a4.24,4.24,0,0,0-5.12,1.65l-40.41,63.12a4.18,4.18,0,0,0-.42,3.7c2.48,6.88,12,30.32,30.89,48.62.3,0,57-7.88,73.5-34.59l-8.17-21.67a.82.82,0,0,1,.76-1.11h-.92l-3.52-7.65a7.45,7.45,0,0,1,6.76-10.56h1.86s7.18,18.21,13.23,18.21h5.76A4.22,4.22,0,0,0,2075.58,1451.71Z"/><path class="cls-24" d="M2027.75,1392.33c-16-1.07-42.5,31.6-62.12,59.64-14.62,20.84-25.43,39.1-25.43,39.1-26.28-20.49-46.85-41.68-62.6-63.22-36.72-50.24-47.19-102.34-42.72-151.79v0c8.46-93.48,64-181.16,98.64-227.63l0,0c1.21-1.14,2.43-2.25,3.69-3.35s2.36-2.08,3.55-3.07c.72-.62,1.44-1.22,2.19-1.81,1.14-.95,2.3-1.86,3.49-2.76.18-.15.38-.3.55-.42,1.49-1.14,3-2.26,4.52-3.32a323.41,323.41,0,0,1,27.56-17.47c1.14.47,2.28.94,3.37,1.49a43,43,0,0,1,10,6c13.35,12.1,22,48.08,27.39,82.27,5.91,37.16,7.94,72.22,7.94,72.22C1943,1317.82,2027.75,1392.33,2027.75,1392.33Z"/><path class="cls-24" d="M2308.76,1147.12a91.47,91.47,0,0,1-14.17-3.89,272.19,272.19,0,0,1-32.08-14.19c-18.16-9.28-33.1-18.51-33.1-18.51l-33-85a.09.09,0,0,0,0-.08l-1.66-4.29-4.74-22.65-2.28-10.84s1.71.62,4.79,1.88c17.61,7.22,79.89,35.56,115.91,88l.45.64s9.7,14.22,16.87,52.21c0,0,0,0,0,0,.25,1.21.47,2.43.69,3.69C2328.53,1146.43,2320.74,1149.21,2308.76,1147.12Z"/><path class="cls-69" d="M2308.48,1079.89l-1.41,6.82-9.06,43.77c-.24.89-.49,1.76-.74,2.68-1,3.62-2,7.41-3.05,11.41-.35,1.36-.7,2.73-1,4.14-2,8-4,16.65-6,25.83q-.7,3.17-1.36,6.4c-.4,1.86-.8,3.77-1.19,5.68-.3,1.37-.57,2.76-.85,4.15-2.13,10.47-4.26,21.48-6.35,32.87-.5,2.65-1,5.33-1.49,8s-1,5.53-1.49,8.31c-.52,3-1.06,6-1.58,9.08q-1.42,8.19-2.83,16.52c-.42,2.48-.85,5-1.24,7.5-1.27,7.66-2.53,15.4-3.77,23.17-.25,1.46-.48,3-.7,4.42-.1.64-.2,1.26-.3,1.88-1.31,8.24-2.58,16.53-3.84,24.79-3.85,25.3-7.49,50.54-10.82,74.45-.37,2.68-.74,5.34-1.09,8-.22,1.54-.45,3.07-.65,4.61s-.42,3-.62,4.57c-.62,4.56-1.24,9-1.83,13.47-.2,1.49-.4,2.95-.6,4.42-.57,4.39-1.14,8.68-1.71,12.9-.17,1.41-.37,2.8-.55,4.19-.54,4.17-1.09,8.26-1.61,12.23-.22,1.81-.47,3.62-.69,5.39q-1.57,12.24-3,23.09c-.19,1.57-.39,3.11-.59,4.64-.05.48-.1,1-.17,1.42-.13,1-.25,2-.38,2.93-2.3,18.45-4,32.82-5.06,41.38-.05.4-.07.79-.12,1.17-.32,2.68-.57,4.71-.72,6,0,.23,0,.45-.08.62-.07.75-.12,1.12-.12,1.12,2,.7-13,9.28-19.58,11.09a2.19,2.19,0,0,0-.34.1c-.55.15-1.26,0-1.64.42-3.7,4-14.51,8.41-18.09,9.23l-.74.15a1.3,1.3,0,0,1-.13,0,7.3,7.3,0,0,1-1,.22l-.6.12-.07,0v0c53.36-317.32,17.27-512.83,8.71-549.72a.09.09,0,0,0,0-.08c-1-4.51-1.66-6.77-1.66-6.77l-1.47-19.15-.76-10c17.61,7.22,79.89,35.56,115.91,88C2308.41,1078.37,2308.43,1079.12,2308.48,1079.89Z"/><path class="cls-36" d="M2140.1,904.6l-29.78,86.55s52.1,80.21,76.92,84.64,7.44-54.58,7.44-54.58l14.88-52Z"/><path class="cls-70" d="M2110.32,901s5.23,39.58,15,40.2,14.76-36.6,14.76-36.6Z"/><polygon class="cls-70" points="2300.36 811.29 2292.78 871.59 2272.89 828.2 2300.36 811.29"/><path class="cls-70" d="M2133.66,784.88s-29.17-17-40.72,13.33,14.9,81.58,14.9,81.58l21.78-12.33Z"/><polygon class="cls-71" points="2203.1 994.27 2209.57 1001.36 2212.05 1048.5 2194.68 1021.21 2203.1 994.27"/><path class="cls-44" d="M2271.68,976.82c-30.87,40.74-125.84,31.11-137.3-80.53-10-97.79,39-144.94,86.93-128s70.93,46.83,70.93,46.83,1.73,26.78.48,57.91c-.65,16-2.08,33.16-4.94,48.41C2284.44,939.35,2284.65,959.7,2271.68,976.82Z"/><path class="cls-44" d="M2143.2,867.72s-7.72-21.11-27.62-13.38-18.23,41.34-2.36,56.75,31.54-2.1,31.54-2.1Z"/><path class="cls-70" d="M2129.62,867.46s6.87-52.84,13.18-49.78,138.58,32.79,146.83-10S2251.36,761,2251.36,761,2090.12,723.52,2129.62,867.46Z"/><path class="cls-70" d="M2121.08,788.44s-2.55-52.72,50.21-52.14,41.47,1.36,68.87-16.57,67.89,4.79,67,32.44-25.82,43.66-25.82,43.66Z"/><path class="cls-70" d="M2278.09,770.28s47-9.21,42.74,21.28c-5.76,40.9-71.64,38.41-71.64,38.41Z"/><path class="cls-50" d="M2249.9,925.88l-.66,0-8.64-.6a1.66,1.66,0,0,1,.23-3.32l8.64.6a8.59,8.59,0,0,0,6.93-3A13.93,13.93,0,0,0,2260,911l.07-1c.17-2.6-1.26-4.83-3.2-5a9.74,9.74,0,0,1-7.31-4.35,13.94,13.94,0,0,1-2.37-9l1.06-14a1.72,1.72,0,0,1,1.78-1.53,1.67,1.67,0,0,1,1.54,1.78l-1.06,14a10.64,10.64,0,0,0,1.77,6.84,6.49,6.49,0,0,0,4.82,3c3.78.27,6.6,4.09,6.29,8.52l-.07,1a17.25,17.25,0,0,1-4.44,10.61A12,12,0,0,1,2249.9,925.88Z"/><path class="cls-72" d="M2186.51,845.57c2.61.58,5.79-.14,8.9-.69s6.27-1.14,9-1.53,5.93-.74,9.1-1,6.41-.52,8.73-1.8,2.85-3.85-.38-6.53c-3.05-2.63-10.38-4.92-19.5-3.66s-15.42,5.52-17.53,8.87S2184,845,2186.51,845.57Z"/><path class="cls-72" d="M2257.39,857c1.75,1.33,4.36,2,6.86,2.7s5.06,1.45,7.25,2.17,4.67,1.61,7.12,2.54,5,1.92,7.12,1.88,3.43-1.57,1.94-4.53-6.07-7-13.3-9.37-13.36-1.76-16.07-.25C2255.45,853.64,2255.7,855.72,2257.39,857Z"/><path class="cls-72" d="M2216.17,876.89c-.39,4.58-3.62,8-7.21,7.74s-6.21-4.26-5.82-8.84,3.62-8,7.21-7.73S2216.55,872.32,2216.17,876.89Z"/><path class="cls-72" d="M2273.61,882.87c-.72,4.53-4.19,7.75-7.76,7.18s-5.87-4.7-5.15-9.23,4.2-7.76,7.76-7.19S2274.33,878.33,2273.61,882.87Z"/><circle class="cls-46" cx="2170.43" cy="891.12" r="28.79"/><path class="cls-46" d="M2287.78,921.48a28.78,28.78,0,0,1,4.94-48.41C2292.07,889.07,2290.64,906.23,2287.78,921.48Z"/><path class="cls-70" d="M2154.71,815.64s-24.71,22.63-23.55,69.86l-5.82-54.2,20.89-38.06Z"/><path class="cls-50" d="M2118.79,899.35a1.92,1.92,0,0,0,1.35-.59l8.21-8.29-11.46-13.33A1.93,1.93,0,0,0,2114,877a2.32,2.32,0,0,0-.1,3.1l8.7,10.12-5.25,5.31a2.32,2.32,0,0,0-.1,3.1A2,2,0,0,0,2118.79,899.35Z"/><path class="cls-50" d="M2249,949.07s-5.47-8.85-37.95-8.81a23.59,23.59,0,0,0,15.22,17C2242.23,963.09,2249,949.07,2249,949.07Z"/><path class="cls-24" d="M2019.81,1105.89l-68.27,113.8s-8.54,6.53-21,15.41c-7,5-15.14,10.67-23.75,16.38-6.8,4.51-13.87,9-20.81,13.17-26.55,15.93-51.09,26.52-51.11,11.41v0c0-.62,0-1.26,0-2,0-.47,0-1,0-1.46,0-1.09.12-2.23.22-3.45,0-.64.12-1.34.2-2s.15-1.44.22-2.19c.5-4.49,1.27-9.72,2.28-15.58.33-1.81.67-3.67,1-5.6,1.21-6.43,2.75-13.48,4.59-21,.27-1.12.54-2.21.84-3.33,1.24-4.91,2.6-10,4.12-15.23.37-1.32.74-2.63,1.14-4,.5-1.73,1-3.5,1.59-5.23.69-2.28,1.41-4.57,2.16-6.9.07-.25.14-.47.22-.72.82-2.48,1.66-5,2.53-7.54.5-1.39,1-2.8,1.46-4.19s1-2.81,1.52-4.22c1.88-5.26,3.92-10.6,6.08-15.91q1.93-4.83,4.06-9.7c2.46-5.73,5.09-11.43,7.84-17.12.7-1.41,1.39-2.82,2.11-4.24s1.42-2.85,2.16-4.24,1.29-2.51,2-3.75c2.09-3.92,4.22-7.76,6.45-11.58.8-1.39,1.62-2.78,2.46-4.15.4-.69.82-1.36,1.24-2,.67-1.11,1.34-2.2,2-3.3.85-1.34,1.69-2.68,2.56-4,1.74-2.66,3.5-5.26,5.31-7.84q1.3-1.86,2.68-3.72c1.91-2.68,3.89-5.34,5.93-7.92.69-.84,1.36-1.68,2-2.53,1.37-1.68,2.73-3.32,4.12-4.94.82-.94,1.61-1.86,2.43-2.77a3.22,3.22,0,0,1,.28-.33c.84-.94,1.68-1.88,2.53-2.8,1.39-1.51,2.8-3,4.21-4.42.82-.84,1.64-1.66,2.48-2.5a5.76,5.76,0,0,1,.45-.42c1-1,2-1.94,3-2.88l0,0c1.21-1.14,2.43-2.25,3.69-3.35s2.36-2.08,3.55-3.07c.72-.62,1.44-1.22,2.19-1.81,1.14-.95,2.3-1.86,3.49-2.76.18-.15.38-.3.55-.42,1.49-1.14,3-2.26,4.52-3.32a323.41,323.41,0,0,1,27.56-17.47c1.14.47,2.28.94,3.37,1.49a43,43,0,0,1,10,6C2005.77,1035.72,2014.43,1071.7,2019.81,1105.89Z"/><path class="cls-73" d="M2113.72,976.75c-1.93.3-5.61.84-10.67,1.84a324.49,324.49,0,0,0-57.14,17.09s0,0-.07,0a292.88,292.88,0,0,0-53.42,27.91,243.08,243.08,0,0,0-42.05,35.25,215.73,215.73,0,0,0-38.68,56.6,223.18,223.18,0,0,0-12.26,32.27,345,345,0,0,0-5.18,174.79c14.39,62.2,43.89,109.74,70.39,128.72.32.25.67.5,1,.72-.25.35-.47.69-.72,1-14.24,20.42-24.71,38.08-24.71,38.08-26.28-20.49-46.85-41.68-62.6-63.22-36.72-50.24-47.19-102.34-42.72-151.79v0c0-.62,0-1.26,0-2,0-.47,0-1,0-1.46,0-1.09.12-2.23.22-3.45,0-.64.12-1.34.2-2s.15-1.44.22-2.19c.5-4.49,1.27-9.72,2.28-15.58.33-1.81.67-3.67,1-5.6,1.21-6.43,2.75-13.48,4.59-21,.27-1.12.54-2.21.84-3.33,1.24-4.91,2.6-10,4.12-15.23.37-1.32.74-2.63,1.14-4,.5-1.73,1-3.5,1.59-5.23.69-2.28,1.41-4.57,2.16-6.9.07-.25.14-.47.22-.72.82-2.48,1.66-5,2.53-7.54.5-1.39,1-2.8,1.46-4.19s1-2.81,1.52-4.22c1.88-5.26,3.92-10.6,6.08-15.91q1.93-4.83,4.06-9.7c2.46-5.73,5.09-11.43,7.84-17.12.7-1.41,1.39-2.82,2.11-4.24s1.42-2.85,2.16-4.24,1.29-2.51,2-3.75c2.09-3.92,4.22-7.76,6.45-11.58.8-1.39,1.62-2.78,2.46-4.15.4-.69.82-1.36,1.24-2,.67-1.11,1.34-2.2,2-3.3.85-1.34,1.69-2.68,2.56-4,1.74-2.66,3.5-5.26,5.31-7.84q1.3-1.86,2.68-3.72c1.91-2.68,3.89-5.34,5.93-7.92.69-.84,1.36-1.68,2-2.53,1.37-1.68,2.73-3.32,4.12-4.94.82-.94,1.61-1.86,2.43-2.77a3.22,3.22,0,0,1,.28-.33c.84-.94,1.68-1.88,2.53-2.8,1.39-1.51,2.8-3,4.21-4.42.82-.84,1.64-1.66,2.48-2.5a5.76,5.76,0,0,1,.45-.42c1-1,2-1.94,3-2.88l0,0c1.21-1.14,2.43-2.25,3.69-3.35s2.36-2.08,3.55-3.07c.72-.62,1.44-1.22,2.19-1.81,1.14-.95,2.3-1.86,3.49-2.76.18-.15.38-.3.55-.42,1.49-1.14,3-2.26,4.52-3.32a323.41,323.41,0,0,1,27.56-17.47c54-30.49,102.52-37.41,124.47-38.95C2108.21,976.85,2111.66,976.77,2113.72,976.75Z"/><path class="cls-74" d="M2102.88,979l6-22a2.29,2.29,0,0,1,4.19-.56l39.42,67.24L2140,1046Z"/><path class="cls-75" d="M1921.76,1539.75s-29.77,86.84-29.77,268-38.32,606.73-38.32,606.73"/><path class="cls-76" d="M938.54,1564.5a6.72,6.72,0,1,1,13.44,0v15.82H967.8a6.73,6.73,0,0,1,0,13.45H952v15.81a6.72,6.72,0,1,1-13.44,0v-15.81H922.72a6.73,6.73,0,1,1,0-13.45h15.82Z"/><path class="cls-76" d="M1028.38,1506.78a6.73,6.73,0,1,1,13.45,0v15.81h15.81a6.73,6.73,0,1,1,0,13.45h-15.81v15.82a6.73,6.73,0,0,1-13.45,0V1536h-15.82a6.73,6.73,0,0,1,0-13.45h15.82Z"/><path class="cls-76" d="M3226,884.83a6.73,6.73,0,0,1,13.46,0v15.82h15.81a6.73,6.73,0,0,1,0,13.45h-15.81v15.81a6.73,6.73,0,0,1-13.46,0V914.1h-15.81a6.73,6.73,0,1,1,0-13.45H3226Z"/><path class="cls-76" d="M3856.66,2128.36a6.72,6.72,0,1,1,13.44,0v15.81h15.81a6.73,6.73,0,1,1,0,13.45H3870.1v15.81a6.72,6.72,0,1,1-13.44,0v-15.81h-15.82a6.73,6.73,0,0,1,0-13.45h15.82Z"/><path class="cls-76" d="M1770.29,1424.15a6.72,6.72,0,1,1,13.44,0V1440h15.82a6.73,6.73,0,0,1,0,13.45h-15.82v15.82a6.72,6.72,0,0,1-13.44,0v-15.82h-15.81a6.73,6.73,0,1,1,0-13.45h15.81Z"/><path class="cls-77" d="M3092.48,781.89a6.72,6.72,0,0,1,13.44,0V797.7h15.82a6.73,6.73,0,0,1,0,13.45h-15.82V827a6.72,6.72,0,1,1-13.44,0V811.15h-15.82a6.73,6.73,0,0,1,0-13.45h15.82Z"/><path class="cls-77" d="M678.08,2150.62a6.73,6.73,0,0,1,13.45,0v15.81h15.81a6.73,6.73,0,0,1,0,13.46H691.53v15.81a6.73,6.73,0,1,1-13.45,0v-15.81H662.26a6.73,6.73,0,1,1,0-13.46h15.82Z"/><path class="cls-2" d="M2763.68,775.59H2657.1A58.44,58.44,0,0,0,2598.65,834v75.64a58.45,58.45,0,0,0,58.45,58.45h71.26l52.51,37.29,1.87-40.53a58.43,58.43,0,0,0,39.39-55.21V834A58.44,58.44,0,0,0,2763.68,775.59Z"/><path class="cls-78" d="M2679.4,886.1a5,5,0,0,1,.9,3,6.18,6.18,0,0,1-1.76,4.57,6.05,6.05,0,0,1-4.46,1.76,9.51,9.51,0,0,1-3.12-.6l-33.42-12.95a9.45,9.45,0,0,1-4.57-3.52,10.09,10.09,0,0,1,0-11.09,9.9,9.9,0,0,1,4.57-3.66l33.42-13a9.51,9.51,0,0,1,3.12-.6,6,6,0,0,1,4.46,1.75,6.2,6.2,0,0,1,1.76,4.57,5.08,5.08,0,0,1-3.41,4.92l-29.82,11.44,29.82,11.44A6.06,6.06,0,0,1,2679.4,886.1Z"/><path class="cls-78" d="M2706.24,908.44a6.85,6.85,0,0,1-4,1.2,7.32,7.32,0,0,1-4.92-1.81,5.78,5.78,0,0,1-2.11-4.61,6.84,6.84,0,0,1,.4-2.31l22.79-71.57a6.88,6.88,0,0,1,2.56-3.62,6.71,6.71,0,0,1,3.87-1.2,7.48,7.48,0,0,1,5,1.81A5.84,5.84,0,0,1,2732,831a10.77,10.77,0,0,1-.4,2.21l-22.79,71.57A6.77,6.77,0,0,1,2706.24,908.44Z"/><path class="cls-78" d="M2794.38,867.23a10.14,10.14,0,0,1,0,11.09,9.5,9.5,0,0,1-4.57,3.52l-33.43,12.95a8.87,8.87,0,0,1-3.11.6,6.06,6.06,0,0,1-4.47-1.76,6.18,6.18,0,0,1-1.76-4.57,5,5,0,0,1,.91-3,6,6,0,0,1,2.51-2l29.81-11.44-29.81-11.44a5.11,5.11,0,0,1-3.42-4.92,6.2,6.2,0,0,1,1.76-4.57,6.05,6.05,0,0,1,4.47-1.75,9.45,9.45,0,0,1,3.11.6l33.43,13A10,10,0,0,1,2794.38,867.23Z"/><rect class="cls-79" x="2321.21" y="582.64" width="183.23" height="130.66" rx="26.84"/><path class="cls-2" d="M2400.29,662.12a3.66,3.66,0,0,1,.61,2.06,4.35,4.35,0,0,1-1.25,3.19,4.25,4.25,0,0,1-3.11,1.25,6,6,0,0,1-2.26-.49l-28.48-11.62a7.13,7.13,0,0,1-3.15-2.54,7,7,0,0,1,0-7.62,6.55,6.55,0,0,1,3.15-2.5l28.48-11.62a6.18,6.18,0,0,1,2.34-.49,4.15,4.15,0,0,1,3.07,1.21,4.26,4.26,0,0,1,1.21,3.15,3.58,3.58,0,0,1-2.34,3.47l-26.39,10.57,26.39,10.57A3.74,3.74,0,0,1,2400.29,662.12Z"/><path class="cls-2" d="M2412.24,678.5a4.86,4.86,0,0,1-2.79.85,5,5,0,0,1-3.31-1.25,4,4,0,0,1-1.45-3.19,6.44,6.44,0,0,1,.24-1.69l18.48-58.1a4.73,4.73,0,0,1,1.82-2.54,4.67,4.67,0,0,1,2.7-.85,5.06,5.06,0,0,1,3.39,1.25,4,4,0,0,1,1.45,3.19,6.44,6.44,0,0,1-.24,1.69L2414,676A4.37,4.37,0,0,1,2412.24,678.5Z"/><path class="cls-2" d="M2474.89,646.35a7,7,0,0,1,0,7.62,7.15,7.15,0,0,1-3.14,2.54l-28.49,11.62a6,6,0,0,1-2.26.49,4.25,4.25,0,0,1-3.11-1.25,4.35,4.35,0,0,1-1.25-3.19,3.71,3.71,0,0,1,2.34-3.47l26.39-10.57L2439,639.57a3.58,3.58,0,0,1-2.34-3.47,4.3,4.3,0,0,1,1.21-3.15,4.15,4.15,0,0,1,3.07-1.21,6.18,6.18,0,0,1,2.34.49l28.49,11.62A6.57,6.57,0,0,1,2474.89,646.35Z"/><g class="cls-80"><path class="cls-81" d="M3870,1060.56a104.67,104.67,0,0,0-89.26-50,108.69,108.69,0,0,0-29.47,4.25,126.84,126.84,0,0,0-232,42.82c-1.84-.13-3.65-.34-5.55-.34a94.85,94.85,0,0,0,0,189.7h332.21A94.76,94.76,0,0,0,3870,1060.56Z"/></g><path class="cls-82" d="M3880,1053.11a104.71,104.71,0,0,0-89.27-50,109.08,109.08,0,0,0-29.47,4.25,126.84,126.84,0,0,0-232,42.82c-1.84-.12-3.65-.34-5.55-.34a94.85,94.85,0,0,0,0,189.7h332.21A94.76,94.76,0,0,0,3880,1053.11Z"/><path class="cls-83" d="M3623.51,1090.26a8,8,0,0,1,2.24,6V1156a8.21,8.21,0,0,1-2.24,6,8.91,8.91,0,0,1-11.87,0,8.29,8.29,0,0,1-2.19-6.07v-23.86h-34.62V1156a8.25,8.25,0,0,1-2.24,6,7.8,7.8,0,0,1-5.86,2.29,8.06,8.06,0,0,1-6-2.24,8.2,8.2,0,0,1-2.24-6.07v-59.76a7.71,7.71,0,0,1,8.2-8.21,7.91,7.91,0,0,1,5.92,2.24,8.2,8.2,0,0,1,2.18,6v22.69h34.62v-22.69a8.16,8.16,0,0,1,2.19-6,7.87,7.87,0,0,1,5.91-2.24A8.06,8.06,0,0,1,3623.51,1090.26Z"/><path class="cls-83" d="M3660.32,1162a8,8,0,0,1-2.29-6v-53.9h-17.26q-7.89,0-7.88-6.82t7.88-6.71h51.14q7.88,0,7.88,6.71t-7.88,6.82h-17.26V1156a8.09,8.09,0,0,1-2.24,6,9.31,9.31,0,0,1-12.09,0Z"/><path class="cls-83" d="M3779.31,1090.31a8.22,8.22,0,0,1,2.19,5.92v60.51a7.49,7.49,0,0,1-2,5.54,7.22,7.22,0,0,1-5.32,2,7.1,7.1,0,0,1-5.22-2,7.49,7.49,0,0,1-2-5.54v-37.61l-15.13,28.44a11.75,11.75,0,0,1-3.24,4,7.48,7.48,0,0,1-8.37,0,11.4,11.4,0,0,1-3.3-4l-15.13-27.91v37.08a7.5,7.5,0,0,1-2,5.48,7.81,7.81,0,0,1-10.55.06,7.49,7.49,0,0,1-2-5.54v-60.51a8.25,8.25,0,0,1,2.18-5.92,7.55,7.55,0,0,1,5.7-2.29q5.11,0,7.78,5.44l21.63,41,21.51-41q2.88-5.45,7.67-5.44A7.52,7.52,0,0,1,3779.31,1090.31Z"/><path class="cls-83" d="M3798.65,1161.64a7.79,7.79,0,0,1-2-5.76v-59.65a8.07,8.07,0,0,1,2.23-6,9.36,9.36,0,0,1,12.15,0,8.07,8.07,0,0,1,2.24,6v53.9h27.27q7.77,0,7.77,6.82t-7.77,6.71H3804.4A7.78,7.78,0,0,1,3798.65,1161.64Z"/><g class="cls-84"><path class="cls-85" d="M1833.42,752.78A164.7,164.7,0,0,0,1693,674.13a171.13,171.13,0,0,0-46.36,6.69C1611.4,624.58,1549,587,1477.55,587c-97,0-178,69.33-195.87,161.14-2.9-.19-5.75-.53-8.73-.53a149.19,149.19,0,0,0,0,298.38h522.54a149,149,0,0,0,37.93-293.24Z"/></g><path class="cls-86" d="M1816.05,760.22a164.69,164.69,0,0,0-140.41-78.65,171.45,171.45,0,0,0-46.35,6.69c-35.26-56.23-97.69-93.79-169.1-93.79-97,0-178,69.33-195.88,161.14-2.9-.19-5.75-.53-8.73-.53a149.19,149.19,0,0,0,0,298.38h522.54a149,149,0,0,0,37.93-293.24Z"/><path class="cls-20" d="M1637.83,884.09V828.84l-49.92,4.47a117.73,117.73,0,0,0-19.11-42.56L1609,759.16l-39.07-39.07L1536.55,760A117.46,117.46,0,0,0,1494,743.15l6.21-51.92H1445l4.67,52.16a117.58,117.58,0,0,0-42.33,17.41l-32-40.71-39.07,39.07L1375.47,792a117.69,117.69,0,0,0-18.57,42.79l-49.54-5.92v55.25l48.79-4.37a117.56,117.56,0,0,0,17.56,44.56l-37.49,29.49,39.07,39.07,30.14-36.08a117.48,117.48,0,0,0,45,18.83L1445,1021.7h55.25l-4.14-46.32a117.48,117.48,0,0,0,44.79-19.45l29,36.91L1609,953.77l-36.75-30.71a117.49,117.49,0,0,0,17-44.77Zm-165.24,31.53a56.2,56.2,0,1,1,56.19-56.2A56.2,56.2,0,0,1,1472.59,915.62Z"/><path class="cls-2" d="M1747.92,937.85V904.18l-30.42,2.72A71.64,71.64,0,0,0,1705.86,881l24.47-19.25-23.8-23.81-20.32,24.32A71.64,71.64,0,0,0,1660.29,852l3.78-31.64H1630.4l2.85,31.79a71.35,71.35,0,0,0-25.8,10.61l-19.51-24.81-23.81,23.81,23.92,20a71.57,71.57,0,0,0-11.31,26.07l-30.2-3.6v33.67l29.74-2.67a71.52,71.52,0,0,0,10.7,27.15l-22.85,18,23.81,23.8,18.37-22a71.62,71.62,0,0,0,27.44,11.47l-3.35,28.1h33.67l-2.53-28.23a71.44,71.44,0,0,0,27.3-11.85l17.69,22.49,23.8-23.8-22.39-18.72a71.55,71.55,0,0,0,10.38-27.28Zm-100.69,19.21a34.25,34.25,0,1,1,34.25-34.25A34.24,34.24,0,0,1,1647.23,957.06Z"/></g></g></svg>